<svg width="130" height="27" viewBox="0 0 130 27" fill="none" xmlns="http://www.w3.org/2000/svg">
<rect x="21" width="109" height="27" rx="4" fill="#424D61"/>
<g filter="url(#filter0_i_1_728)">
<rect x="21" y="2" width="107" height="23" rx="4" fill="#212B3E"/>
</g>
<rect width="27" height="27" rx="4" fill="url(#paint0_linear_1_728)"/>
<g filter="url(#filter1_i_1_728)">
<rect x="2" y="2" width="23" height="23" rx="4" fill="url(#paint1_radial_1_728)"/>
</g>
<path d="M8.53095 7C7.56096 7 6.84317 7.815 6.87531 8.69885C6.90619 9.54796 6.86608 10.6478 6.57768 11.5446C6.28841 12.4441 5.79913 13.0139 5 13.087V13.913C5.79913 13.9861 6.28841 14.5559 6.57768 15.4554C6.86608 16.3523 6.90619 17.452 6.87531 18.3011C6.84317 19.1849 7.56096 20 8.53109 20H18.4703C19.4404 20 20.158 19.185 20.1258 18.3011C20.095 17.452 20.135 16.3523 20.4234 15.4554C20.7129 14.556 21.2009 13.9861 22 13.913V13.087C21.2009 13.0139 20.7129 12.4441 20.4235 11.5446C20.135 10.6479 20.095 9.54802 20.1258 8.69885C20.158 7.81513 19.4404 7 18.4703 7H8.53082H8.53095V7ZM16.5255 15.0023C16.5255 16.2194 15.5798 16.9574 14.0105 16.9574H11.339C11.2626 16.9574 11.1893 16.9283 11.1353 16.8764C11.0813 16.8245 11.0509 16.7542 11.0509 16.6808V10.3192C11.0509 10.2828 11.0584 10.2469 11.0729 10.2133C11.0873 10.1797 11.1086 10.1492 11.1353 10.1235C11.1621 10.0978 11.1938 10.0775 11.2288 10.0636C11.2638 10.0497 11.3012 10.0425 11.3391 10.0425H13.9953C15.3038 10.0425 16.1626 10.723 16.1626 11.7677C16.1626 12.501 15.5848 13.1574 14.8488 13.2724V13.3107C15.8508 13.4162 16.5255 14.0823 16.5255 15.0023V15.0023ZM13.7191 10.9193H12.196V12.9847H13.4789C14.4707 12.9847 15.0176 12.6014 15.0176 11.9161C15.0176 11.274 14.5473 10.9193 13.7192 10.9193H13.7191ZM12.196 13.8043V16.0803H13.7753C14.8077 16.0803 15.3548 15.6826 15.3548 14.9351C15.3548 14.1875 14.7925 13.8041 13.7088 13.8041H12.196V13.8043Z" fill="#7E13F8"/>
<path d="M34.7885 19C33.9778 19 33.3485 18.7867 32.9005 18.36C32.4525 17.9333 32.2285 17.336 32.2285 16.568V10.168C32.2285 9.42133 32.4418 8.84 32.8685 8.424C33.3058 8.008 33.9085 7.8 34.6765 7.8H38.3725C39.6098 7.8 40.5645 8.06133 41.2365 8.584C41.9085 9.10667 42.2445 9.864 42.2445 10.856C42.2445 11.3467 42.1005 11.8053 41.8125 12.232C41.5245 12.648 41.1512 12.9627 40.6925 13.176V13.192C41.2045 13.3947 41.6205 13.72 41.9405 14.168C42.2712 14.6053 42.4365 15.08 42.4365 15.592C42.4365 16.6587 42.0898 17.496 41.3965 18.104C40.7138 18.7013 39.7698 19 38.5645 19H34.7885ZM38.3725 12.424C38.9165 12.424 39.3378 12.2907 39.6365 12.024C39.9458 11.7573 40.1005 11.3733 40.1005 10.872C40.1005 10.3813 39.9565 10.0187 39.6685 9.784C39.3805 9.54933 38.9485 9.432 38.3725 9.432H35.0125C34.7992 9.432 34.6285 9.50133 34.5005 9.64C34.3832 9.77867 34.3245 9.97067 34.3245 10.216V12.424H38.3725ZM38.3725 17.368C39.6525 17.368 40.2925 16.7867 40.2925 15.624C40.2925 15.1227 40.1218 14.7333 39.7805 14.456C39.4498 14.1787 38.9805 14.04 38.3725 14.04H34.3245V16.584C34.3245 16.8293 34.3832 17.0213 34.5005 17.16C34.6285 17.2987 34.7992 17.368 35.0125 17.368H38.3725ZM49.6403 19.16C48.7123 19.16 47.8856 18.9947 47.1603 18.664C46.4456 18.3227 45.8856 17.8427 45.4803 17.224C45.0749 16.6053 44.8723 15.8907 44.8723 15.08C44.8723 14.2693 45.0749 13.5547 45.4803 12.936C45.8856 12.3173 46.4456 11.8427 47.1603 11.512C47.8856 11.1707 48.7123 11 49.6403 11C50.5683 11 51.3896 11.1707 52.1043 11.512C52.8296 11.8427 53.3949 12.3173 53.8003 12.936C54.2056 13.5547 54.4083 14.2693 54.4083 15.08C54.4083 15.8907 54.2056 16.6053 53.8003 17.224C53.3949 17.8427 52.8296 18.3227 52.1043 18.664C51.3896 18.9947 50.5683 19.16 49.6403 19.16ZM49.6403 17.496C50.4616 17.496 51.1069 17.2827 51.5763 16.856C52.0563 16.4293 52.2963 15.8373 52.2963 15.08C52.2963 14.3227 52.0563 13.7307 51.5763 13.304C51.1069 12.8773 50.4616 12.664 49.6403 12.664C48.8189 12.664 48.1683 12.8773 47.6883 13.304C47.2189 13.7307 46.9843 14.3227 46.9843 15.08C46.9843 15.8373 47.2189 16.4293 47.6883 16.856C48.1683 17.2827 48.8189 17.496 49.6403 17.496ZM61.0415 19.16C60.1135 19.16 59.2868 18.9947 58.5615 18.664C57.8468 18.3227 57.2868 17.8427 56.8815 17.224C56.4762 16.6053 56.2735 15.8907 56.2735 15.08C56.2735 14.2693 56.4762 13.5547 56.8815 12.936C57.2868 12.3173 57.8468 11.8427 58.5615 11.512C59.2868 11.1707 60.1135 11 61.0415 11C61.9695 11 62.7908 11.1707 63.5055 11.512C64.2308 11.8427 64.7962 12.3173 65.2015 12.936C65.6068 13.5547 65.8095 14.2693 65.8095 15.08C65.8095 15.8907 65.6068 16.6053 65.2015 17.224C64.7962 17.8427 64.2308 18.3227 63.5055 18.664C62.7908 18.9947 61.9695 19.16 61.0415 19.16ZM61.0415 17.496C61.8628 17.496 62.5082 17.2827 62.9775 16.856C63.4575 16.4293 63.6975 15.8373 63.6975 15.08C63.6975 14.3227 63.4575 13.7307 62.9775 13.304C62.5082 12.8773 61.8628 12.664 61.0415 12.664C60.2202 12.664 59.5695 12.8773 59.0895 13.304C58.6202 13.7307 58.3855 14.3227 58.3855 15.08C58.3855 15.8373 58.6202 16.4293 59.0895 16.856C59.5695 17.2827 60.2202 17.496 61.0415 17.496ZM74.3628 16.936C74.5334 17.0747 74.6188 17.2453 74.6188 17.448C74.6188 17.6507 74.5441 17.8587 74.3948 18.072C74.1601 18.4133 73.8294 18.68 73.4028 18.872C72.9761 19.064 72.4961 19.16 71.9628 19.16C71.1094 19.16 70.4374 18.9307 69.9468 18.472C69.4668 18.0027 69.2268 17.3627 69.2268 16.552V12.808H68.5708C68.2508 12.808 67.9948 12.7333 67.8028 12.584C67.6108 12.4347 67.5148 12.2373 67.5148 11.992C67.5148 11.736 67.6054 11.5333 67.7868 11.384C67.9788 11.2347 68.2401 11.16 68.5708 11.16H69.2268V8.744C69.2268 8.44533 69.3228 8.21067 69.5148 8.04C69.7068 7.86933 69.9628 7.784 70.2828 7.784C70.6134 7.784 70.8694 7.86933 71.0508 8.04C71.2321 8.21067 71.3228 8.44533 71.3228 8.744V11.16H72.8588C73.1894 11.16 73.4454 11.2347 73.6268 11.384C73.8188 11.5333 73.9148 11.736 73.9148 11.992C73.9148 12.2373 73.8188 12.4347 73.6268 12.584C73.4454 12.7333 73.1894 12.808 72.8588 12.808H71.3228V16.728C71.3228 16.9627 71.3921 17.1493 71.5308 17.288C71.6801 17.4267 71.8774 17.496 72.1228 17.496C72.3148 17.496 72.4801 17.4693 72.6188 17.416C72.7681 17.352 72.9174 17.2507 73.0668 17.112C73.3441 16.8453 73.6001 16.712 73.8348 16.712C74.0054 16.712 74.1814 16.7867 74.3628 16.936ZM80.7803 19.16C79.0629 19.16 77.7989 18.664 76.9883 17.672C76.8176 17.448 76.7323 17.2453 76.7323 17.064C76.7323 16.808 76.8656 16.584 77.1323 16.392C77.3136 16.2747 77.4896 16.216 77.6603 16.216C77.8949 16.216 78.1136 16.3173 78.3163 16.52C78.6789 16.8827 79.0309 17.144 79.3723 17.304C79.7243 17.4533 80.1563 17.528 80.6683 17.528C81.1056 17.528 81.4736 17.4693 81.7723 17.352C82.0709 17.2347 82.2203 17.0907 82.2203 16.92C82.2203 16.7067 82.0976 16.5253 81.8523 16.376C81.6069 16.2267 81.1109 16.0347 80.3643 15.8C79.1909 15.4373 78.3589 15.0587 77.8683 14.664C77.3776 14.2587 77.1323 13.7573 77.1323 13.16C77.1323 12.488 77.4203 11.96 77.9963 11.576C78.5723 11.192 79.3669 11 80.3802 11C81.1589 11 81.8629 11.1173 82.4923 11.352C83.1216 11.5867 83.5803 11.9013 83.8683 12.296C84.0069 12.4773 84.0763 12.6587 84.0763 12.84C84.0763 13.096 83.9483 13.304 83.6923 13.464C83.5109 13.5813 83.3243 13.64 83.1323 13.64C82.8229 13.64 82.5403 13.512 82.2843 13.256C82.0709 13.0533 81.7936 12.8987 81.4523 12.792C81.1216 12.6853 80.7589 12.632 80.3643 12.632C79.6176 12.632 79.2443 12.808 79.2443 13.16C79.2443 13.2987 79.3029 13.4213 79.4203 13.528C79.5376 13.6347 79.7456 13.7467 80.0443 13.864C80.3536 13.9813 80.8336 14.1413 81.4843 14.344C82.5296 14.664 83.2603 15.016 83.6763 15.4C84.1029 15.784 84.3163 16.2907 84.3163 16.92C84.3163 17.592 84.0069 18.136 83.3883 18.552C82.7696 18.9573 81.9003 19.16 80.7803 19.16ZM93.2746 16.936C93.4453 17.0747 93.5306 17.2453 93.5306 17.448C93.5306 17.6507 93.456 17.8587 93.3066 18.072C93.072 18.4133 92.7413 18.68 92.3146 18.872C91.888 19.064 91.408 19.16 90.8746 19.16C90.0213 19.16 89.3493 18.9307 88.8586 18.472C88.3786 18.0027 88.1386 17.3627 88.1386 16.552V12.808H87.4826C87.1626 12.808 86.9066 12.7333 86.7146 12.584C86.5226 12.4347 86.4266 12.2373 86.4266 11.992C86.4266 11.736 86.5173 11.5333 86.6986 11.384C86.8906 11.2347 87.152 11.16 87.4826 11.16H88.1386V8.744C88.1386 8.44533 88.2346 8.21067 88.4266 8.04C88.6186 7.86933 88.8746 7.784 89.1946 7.784C89.5253 7.784 89.7813 7.86933 89.9626 8.04C90.144 8.21067 90.2346 8.44533 90.2346 8.744V11.16H91.7706C92.1013 11.16 92.3573 11.2347 92.5386 11.384C92.7306 11.5333 92.8266 11.736 92.8266 11.992C92.8266 12.2373 92.7306 12.4347 92.5386 12.584C92.3573 12.7333 92.1013 12.808 91.7706 12.808H90.2346V16.728C90.2346 16.9627 90.304 17.1493 90.4426 17.288C90.592 17.4267 90.7893 17.496 91.0346 17.496C91.2266 17.496 91.392 17.4693 91.5306 17.416C91.68 17.352 91.8293 17.2507 91.9786 17.112C92.256 16.8453 92.512 16.712 92.7466 16.712C92.9173 16.712 93.0933 16.7867 93.2746 16.936ZM96.8441 19.16C96.5135 19.16 96.2575 19.0747 96.0761 18.904C95.8948 18.7333 95.8041 18.4987 95.8041 18.2V11.96C95.8041 11.6507 95.8895 11.416 96.0601 11.256C96.2415 11.0853 96.4921 11 96.8121 11C97.1321 11 97.3828 11.0853 97.5641 11.256C97.7455 11.4267 97.8361 11.6613 97.8361 11.96V12.488C98.1668 12.0613 98.5508 11.736 98.9881 11.512C99.4361 11.2773 99.9161 11.16 100.428 11.16H100.78C101.121 11.16 101.383 11.2347 101.564 11.384C101.756 11.5227 101.852 11.7253 101.852 11.992C101.852 12.2587 101.756 12.4667 101.564 12.616C101.383 12.7547 101.121 12.824 100.78 12.824H100.236C99.5215 12.824 98.9508 13.0533 98.5241 13.512C98.1081 13.96 97.9001 14.5787 97.9001 15.368V18.2C97.9001 18.4987 97.8041 18.7333 97.6121 18.904C97.4201 19.0747 97.1641 19.16 96.8441 19.16ZM106.452 19.16C105.791 19.16 105.204 19.048 104.692 18.824C104.191 18.6 103.796 18.2907 103.508 17.896C103.231 17.4907 103.092 17.0267 103.092 16.504C103.092 15.7147 103.418 15.0853 104.068 14.616C104.73 14.1467 105.62 13.912 106.74 13.912C107.711 13.912 108.49 14.12 109.076 14.536V14.152C109.076 13.6507 108.922 13.2667 108.612 13C108.303 12.7333 107.855 12.6 107.268 12.6C106.394 12.6 105.642 12.7867 105.012 13.16C104.746 13.3093 104.516 13.384 104.324 13.384C104.09 13.384 103.882 13.2773 103.7 13.064C103.583 12.9147 103.524 12.76 103.524 12.6C103.524 12.3333 103.663 12.0987 103.94 11.896C104.324 11.6187 104.81 11.4 105.396 11.24C105.983 11.08 106.602 11 107.252 11C108.49 11 109.46 11.2827 110.164 11.848C110.879 12.4027 111.236 13.1707 111.236 14.152V18.264C111.236 18.5413 111.14 18.76 110.948 18.92C110.767 19.08 110.516 19.16 110.196 19.16C109.866 19.16 109.61 19.0853 109.428 18.936C109.247 18.7867 109.156 18.5733 109.156 18.296V18.12C108.548 18.8133 107.647 19.16 106.452 19.16ZM106.948 17.688C107.62 17.688 108.143 17.5867 108.516 17.384C108.9 17.1707 109.092 16.8773 109.092 16.504C109.092 16.152 108.9 15.8693 108.516 15.656C108.132 15.4427 107.62 15.336 106.98 15.336C106.404 15.336 105.956 15.4373 105.636 15.64C105.327 15.8427 105.172 16.1307 105.172 16.504C105.172 16.8773 105.327 17.1707 105.636 17.384C105.946 17.5867 106.383 17.688 106.948 17.688ZM114.787 23.784C114.457 23.784 114.201 23.6987 114.019 23.528C113.838 23.3573 113.747 23.1227 113.747 22.824V11.96C113.747 11.6613 113.838 11.4267 114.019 11.256C114.201 11.0853 114.457 11 114.787 11C115.107 11 115.363 11.0853 115.555 11.256C115.747 11.4267 115.843 11.6613 115.843 11.96V12.28C116.302 11.832 116.777 11.5067 117.267 11.304C117.769 11.1013 118.334 11 118.963 11C119.795 11 120.521 11.1653 121.139 11.496C121.769 11.8267 122.249 12.3013 122.579 12.92C122.921 13.528 123.091 14.248 123.091 15.08C123.091 15.9013 122.921 16.6213 122.579 17.24C122.238 17.8587 121.753 18.3333 121.123 18.664C120.494 18.9947 119.753 19.16 118.899 19.16C118.259 19.16 117.699 19.064 117.219 18.872C116.739 18.6693 116.286 18.3493 115.859 17.912L115.843 22.824C115.843 23.1227 115.747 23.3573 115.555 23.528C115.363 23.6987 115.107 23.784 114.787 23.784ZM118.467 17.496C119.257 17.496 119.87 17.288 120.307 16.872C120.755 16.4453 120.979 15.848 120.979 15.08C120.979 14.312 120.755 13.72 120.307 13.304C119.87 12.8773 119.257 12.664 118.467 12.664C117.646 12.664 117.001 12.8827 116.531 13.32C116.073 13.7467 115.843 14.3333 115.843 15.08C115.843 15.8267 116.073 16.4187 116.531 16.856C117.001 17.2827 117.646 17.496 118.467 17.496Z" fill="white"/>
<defs>
<filter id="filter0_i_1_728" x="21" y="2" width="107" height="27" filterUnits="userSpaceOnUse" color-interpolation-filters="sRGB">
<feFlood flood-opacity="0" result="BackgroundImageFix"/>
<feBlend mode="normal" in="SourceGraphic" in2="BackgroundImageFix" result="shape"/>
<feColorMatrix in="SourceAlpha" type="matrix" values="0 0 0 0 0 0 0 0 0 0 0 0 0 0 0 0 0 0 127 0" result="hardAlpha"/>
<feOffset dy="4"/>
<feGaussianBlur stdDeviation="2"/>
<feComposite in2="hardAlpha" operator="arithmetic" k2="-1" k3="1"/>
<feColorMatrix type="matrix" values="0 0 0 0 0 0 0 0 0 0 0 0 0 0 0 0 0 0 0.25 0"/>
<feBlend mode="normal" in2="shape" result="effect1_innerShadow_1_728"/>
</filter>
<filter id="filter1_i_1_728" x="2" y="2" width="23" height="27" filterUnits="userSpaceOnUse" color-interpolation-filters="sRGB">
<feFlood flood-opacity="0" result="BackgroundImageFix"/>
<feBlend mode="normal" in="SourceGraphic" in2="BackgroundImageFix" result="shape"/>
<feColorMatrix in="SourceAlpha" type="matrix" values="0 0 0 0 0 0 0 0 0 0 0 0 0 0 0 0 0 0 127 0" result="hardAlpha"/>
<feOffset dy="4"/>
<feGaussianBlur stdDeviation="2"/>
<feComposite in2="hardAlpha" operator="arithmetic" k2="-1" k3="1"/>
<feColorMatrix type="matrix" values="0 0 0 0 0 0 0 0 0 0 0 0 0 0 0 0 0 0 0.25 0"/>
<feBlend mode="normal" in2="shape" result="effect1_innerShadow_1_728"/>
</filter>
<linearGradient id="paint0_linear_1_728" x1="13.5" y1="0" x2="13.5" y2="27" gradientUnits="userSpaceOnUse">
<stop stop-color="#647696"/>
<stop offset="1" stop-color="#333E55"/>
</linearGradient>
<radialGradient id="paint1_radial_1_728" cx="0" cy="0" r="1" gradientUnits="userSpaceOnUse" gradientTransform="translate(13.5 13.5) rotate(90) scale(11.5)">
<stop stop-color="#101725"/>
<stop offset="1" stop-color="#253A61"/>
</radialGradient>
</defs>
</svg>
