<svg width="146" height="27" viewBox="0 0 146 27" fill="none" xmlns="http://www.w3.org/2000/svg">
<rect x="21" width="125" height="27" rx="4" fill="#424D61"/>
<g filter="url(#filter0_i_3_185)">
<rect x="21" y="2" width="123" height="23" rx="4" fill="#212B3E"/>
</g>
<rect width="27" height="27" rx="4" fill="url(#paint0_linear_3_185)"/>
<g filter="url(#filter1_i_3_185)">
<rect x="2" y="2" width="23" height="23" rx="4" fill="url(#paint1_radial_3_185)"/>
</g>
<path d="M10.7949 19.9951C9.60998 19.6267 8.80485 18.8329 8.6992 17.9237C8.73345 17.4629 8.92214 17.0143 9.24986 16.6146C9.57759 16.2149 10.035 15.8755 10.5848 15.624C10.4019 15.938 10.4463 16.2955 10.7002 16.5827C10.8414 16.7218 11.037 16.8289 11.2632 16.891C11.4894 16.9531 11.7364 16.9675 11.9741 16.9325C12.6678 16.7952 13.0742 16.2882 12.8791 15.7995C12.8097 15.6281 12.6719 15.4742 12.482 15.3563C12.096 15.1352 11.7975 14.8478 11.6155 14.5218C11.4335 14.1958 11.3741 13.8423 11.4431 13.4954C11.5782 13.1203 11.8724 12.7831 12.2864 12.5285C11.9747 13.1135 12.8537 13.6908 13.4436 13.9747C14.4905 14.4169 15.4989 14.9026 16.4634 15.4295C17.5179 16.0144 18.0927 16.9301 18.0027 17.8669C17.7655 18.8638 16.7635 19.6868 15.3979 19.9955C18.1297 19.5678 20.9463 18.0403 21 15.8739C20.9463 14.1405 19.4763 12.585 17.2293 11.8765H17.1295C17.1795 11.9615 17.2031 12.0531 17.1987 12.145C17.2062 12.0856 17.2062 12.0258 17.1987 11.9663C17.2108 12.0364 17.2108 12.1074 17.1987 12.1775C17.0279 12.6703 16.3214 12.9738 15.6196 12.8535C15.3391 12.8047 15.0886 12.6939 14.9085 12.5338C14.008 11.7214 14.9085 10.7968 15.0591 9.90299C15.1048 9.34184 14.9487 8.78163 14.6052 8.27421C14.2617 7.76679 13.7419 7.32854 13.0939 7C13.7525 7.77268 12.8751 8.78744 12.2373 9.36472C11.5984 9.94197 10.6749 10.3722 9.92229 10.8759C9.11135 11.4069 8.36797 11.9906 7.70076 12.6146C6.25835 13.8549 5.69216 15.4908 6.16138 17.0588C6.80498 18.57 8.58957 19.7055 10.7904 20H10.8025L10.795 19.9951H10.7949Z" fill="#DD4814"/>
<path d="M37.7346 19.16C36.5292 19.16 35.4839 18.9307 34.5986 18.472C33.7132 18.0133 33.0359 17.352 32.5666 16.488C32.0972 15.624 31.8626 14.6 31.8626 13.416C31.8626 12.232 32.0972 11.208 32.5666 10.344C33.0359 9.46933 33.7079 8.80267 34.5826 8.344C35.4679 7.87467 36.5079 7.64 37.7026 7.64C38.6946 7.64 39.6119 7.81067 40.4546 8.152C41.2972 8.49333 41.9212 8.94667 42.3266 9.512C42.4546 9.68267 42.5186 9.85867 42.5186 10.04C42.5186 10.3067 42.3746 10.5467 42.0866 10.76C41.9586 10.856 41.7986 10.904 41.6066 10.904C41.4466 10.904 41.2866 10.872 41.1266 10.808C40.9666 10.7333 40.8332 10.632 40.7266 10.504C40.3639 10.088 39.9426 9.78933 39.4626 9.608C38.9826 9.416 38.3959 9.32 37.7026 9.32C36.5399 9.32 35.6332 9.68267 34.9826 10.408C34.3319 11.1227 34.0066 12.1253 34.0066 13.416C34.0066 14.696 34.3319 15.6933 34.9826 16.408C35.6439 17.1227 36.5612 17.48 37.7346 17.48C39.0786 17.48 40.1506 17.0853 40.9506 16.296C41.2812 15.9867 41.5852 15.832 41.8626 15.832C42.0546 15.832 42.2306 15.896 42.3906 16.024C42.6359 16.2373 42.7586 16.472 42.7586 16.728C42.7586 16.92 42.6892 17.1067 42.5506 17.288C42.0919 17.8747 41.4359 18.3333 40.5826 18.664C39.7399 18.9947 38.7906 19.16 37.7346 19.16ZM49.5593 19.16C48.6313 19.16 47.8046 18.9947 47.0793 18.664C46.3646 18.3227 45.8046 17.8427 45.3993 17.224C44.994 16.6053 44.7913 15.8907 44.7913 15.08C44.7913 14.2693 44.994 13.5547 45.3993 12.936C45.8046 12.3173 46.3646 11.8427 47.0793 11.512C47.8046 11.1707 48.6313 11 49.5593 11C50.4873 11 51.3086 11.1707 52.0233 11.512C52.7486 11.8427 53.314 12.3173 53.7193 12.936C54.1246 13.5547 54.3273 14.2693 54.3273 15.08C54.3273 15.8907 54.1246 16.6053 53.7193 17.224C53.314 17.8427 52.7486 18.3227 52.0233 18.664C51.3086 18.9947 50.4873 19.16 49.5593 19.16ZM49.5593 17.496C50.3806 17.496 51.026 17.2827 51.4953 16.856C51.9753 16.4293 52.2153 15.8373 52.2153 15.08C52.2153 14.3227 51.9753 13.7307 51.4953 13.304C51.026 12.8773 50.3806 12.664 49.5593 12.664C48.738 12.664 48.0873 12.8773 47.6073 13.304C47.138 13.7307 46.9033 14.3227 46.9033 15.08C46.9033 15.8373 47.138 16.4293 47.6073 16.856C48.0873 17.2827 48.738 17.496 49.5593 17.496ZM60.8708 19.16C60.0388 19.16 59.2975 19 58.6468 18.68C58.0068 18.3493 57.5055 17.8747 57.1428 17.256C56.7801 16.6373 56.5988 15.912 56.5988 15.08C56.5988 14.248 56.7695 13.528 57.1108 12.92C57.4628 12.3013 57.9641 11.8267 58.6148 11.496C59.2655 11.1653 60.0335 11 60.9188 11C61.5695 11 62.1188 11.1067 62.5668 11.32C63.0148 11.5227 63.4361 11.832 63.8308 12.248L63.8468 7.816C63.8468 7.51733 63.9428 7.28267 64.1348 7.112C64.3268 6.94133 64.5828 6.856 64.9028 6.856C65.2228 6.856 65.4735 6.94133 65.6548 7.112C65.8468 7.272 65.9428 7.50667 65.9428 7.816V18.2C65.9428 18.5093 65.8468 18.7493 65.6548 18.92C65.4735 19.08 65.2228 19.16 64.9028 19.16C64.5828 19.16 64.3268 19.0747 64.1348 18.904C63.9428 18.7333 63.8468 18.4987 63.8468 18.2V17.88C63.1321 18.7333 62.1401 19.16 60.8708 19.16ZM61.1908 17.496C62.0228 17.496 62.6735 17.2827 63.1428 16.856C63.6121 16.4293 63.8468 15.8373 63.8468 15.08C63.8468 14.3227 63.6121 13.7307 63.1428 13.304C62.6735 12.8773 62.0228 12.664 61.1908 12.664C60.4121 12.664 59.8041 12.8773 59.3668 13.304C58.9295 13.7307 58.7108 14.3227 58.7108 15.08C58.7108 15.8373 58.9295 16.4293 59.3668 16.856C59.8041 17.2827 60.4121 17.496 61.1908 17.496ZM72.9031 19.16C71.9857 19.16 71.1857 18.9947 70.5031 18.664C69.8204 18.3333 69.2924 17.8693 68.9191 17.272C68.5564 16.664 68.3751 15.9547 68.3751 15.144C68.3751 13.832 68.7537 12.8133 69.5111 12.088C70.2791 11.3627 71.3564 11 72.7431 11C73.5964 11 74.3484 11.1333 74.9991 11.4C75.6604 11.6667 76.1724 12.04 76.5351 12.52C76.9084 12.9893 77.0951 13.528 77.0951 14.136C77.0951 14.648 76.9297 15.0427 76.5991 15.32C76.2791 15.5973 75.8204 15.736 75.2231 15.736H70.4071C70.4071 16.3333 70.6151 16.7867 71.0311 17.096C71.4577 17.3947 72.0817 17.544 72.9031 17.544C73.7671 17.544 74.5031 17.352 75.1111 16.968C75.4524 16.7547 75.7191 16.648 75.9111 16.648C76.0924 16.648 76.2684 16.7333 76.4391 16.904C76.6204 17.0853 76.7111 17.2827 76.7111 17.496C76.7111 17.752 76.6044 17.9547 76.3911 18.104C75.9431 18.4453 75.4204 18.7067 74.8231 18.888C74.2257 19.0693 73.5857 19.16 72.9031 19.16ZM74.5831 14.264C74.7644 14.264 74.8924 14.232 74.9671 14.168C75.0417 14.0933 75.0791 13.976 75.0791 13.816C75.0791 13.4427 74.8657 13.1493 74.4391 12.936C74.0231 12.7227 73.4577 12.616 72.7431 12.616C72.0284 12.616 71.4631 12.7653 71.0471 13.064C70.6417 13.3627 70.4391 13.7627 70.4391 14.264H74.5831ZM81.2261 19.16C80.9061 19.16 80.6501 19.0747 80.4581 18.904C80.2661 18.7333 80.1701 18.4987 80.1701 18.2V8.6C80.1701 8.30133 80.2661 8.06667 80.4581 7.896C80.6501 7.72533 80.9061 7.64 81.2261 7.64C81.5354 7.64 81.7914 7.72533 81.9941 7.896C82.1967 8.06667 82.2981 8.30133 82.2981 8.6V18.2C82.2981 18.4987 82.1967 18.7333 81.9941 18.904C81.7914 19.0747 81.5354 19.16 81.2261 19.16ZM90.1331 23C89.3011 23 88.5331 22.8773 87.8291 22.632C87.1357 22.3867 86.5917 22.0507 86.1971 21.624C86.0477 21.464 85.9731 21.2827 85.9731 21.08C85.9731 20.8133 86.1011 20.5733 86.3571 20.36C86.5171 20.232 86.6877 20.168 86.8691 20.168C87.1464 20.168 87.4557 20.3227 87.7971 20.632C88.0531 20.8667 88.3731 21.048 88.7571 21.176C89.1517 21.3147 89.5731 21.384 90.0211 21.384C90.8531 21.384 91.4984 21.1333 91.9571 20.632C92.4157 20.1307 92.6344 19.4373 92.6131 18.552L92.5971 17.912C92.2344 18.3387 91.8077 18.6533 91.3171 18.856C90.8371 19.0587 90.2451 19.16 89.5411 19.16C88.2291 19.16 87.2051 18.8027 86.4691 18.088C85.7331 17.3627 85.3651 16.36 85.3651 15.08C85.3651 13.8 85.7384 12.8027 86.4851 12.088C87.2424 11.3627 88.2931 11 89.6371 11C90.1917 11 90.7251 11.112 91.2371 11.336C91.7491 11.56 92.2077 11.8747 92.6131 12.28V11.96C92.6131 11.6613 92.7091 11.4267 92.9011 11.256C93.0931 11.0853 93.3491 11 93.6691 11C93.9891 11 94.2397 11.0853 94.4211 11.256C94.6131 11.416 94.7091 11.6507 94.7091 11.96V18.552C94.7091 19.4053 94.5224 20.168 94.1491 20.84C93.7864 21.512 93.2584 22.04 92.5651 22.424C91.8824 22.808 91.0717 23 90.1331 23ZM89.9571 17.496C90.7891 17.496 91.4397 17.2827 91.9091 16.856C92.3784 16.4293 92.6131 15.8373 92.6131 15.08C92.6131 14.3227 92.3784 13.7307 91.9091 13.304C91.4397 12.8773 90.7891 12.664 89.9571 12.664C89.1784 12.664 88.5704 12.8773 88.1331 13.304C87.6957 13.7307 87.4771 14.3227 87.4771 15.08C87.4771 15.8373 87.6957 16.4293 88.1331 16.856C88.5704 17.2827 89.1784 17.496 89.9571 17.496ZM98.3413 19.16C98.0106 19.16 97.7546 19.0747 97.5733 18.904C97.392 18.7333 97.3013 18.4987 97.3013 18.2V11.96C97.3013 11.6507 97.3866 11.416 97.5573 11.256C97.7386 11.0853 97.9893 11 98.3093 11C98.6293 11 98.88 11.0853 99.0613 11.256C99.2426 11.4267 99.3333 11.6613 99.3333 11.96V12.424C100.091 11.4747 101.125 11 102.437 11C103.461 11 104.267 11.3253 104.853 11.976C105.451 12.616 105.749 13.4907 105.749 14.6V18.2C105.749 18.4987 105.653 18.7333 105.461 18.904C105.269 19.0747 105.013 19.16 104.693 19.16C104.363 19.16 104.107 19.0747 103.925 18.904C103.744 18.7333 103.653 18.4987 103.653 18.2V14.6C103.653 13.992 103.504 13.5173 103.205 13.176C102.907 12.8347 102.491 12.664 101.957 12.664C101.147 12.664 100.517 12.904 100.069 13.384C99.6213 13.8533 99.3973 14.5147 99.3973 15.368V18.2C99.3973 18.4987 99.3013 18.7333 99.1093 18.904C98.9173 19.0747 98.6613 19.16 98.3413 19.16ZM109.577 10.008C109.182 10.008 108.862 9.90133 108.617 9.688C108.382 9.464 108.265 9.176 108.265 8.824C108.265 8.472 108.382 8.18933 108.617 7.976C108.862 7.752 109.182 7.64 109.577 7.64C109.972 7.64 110.292 7.752 110.537 7.976C110.793 8.18933 110.921 8.472 110.921 8.824C110.921 9.176 110.793 9.464 110.537 9.688C110.292 9.90133 109.972 10.008 109.577 10.008ZM109.593 19.16C109.262 19.16 109.006 19.0747 108.825 18.904C108.644 18.7333 108.553 18.4987 108.553 18.2V11.96C108.553 11.6613 108.644 11.4267 108.825 11.256C109.006 11.0853 109.262 11 109.593 11C109.913 11 110.169 11.0853 110.361 11.256C110.553 11.4267 110.649 11.6613 110.649 11.96V18.2C110.649 18.4987 110.553 18.7333 110.361 18.904C110.169 19.0747 109.913 19.16 109.593 19.16ZM120.038 16.936C120.209 17.0747 120.294 17.2453 120.294 17.448C120.294 17.6507 120.219 17.8587 120.07 18.072C119.835 18.4133 119.505 18.68 119.078 18.872C118.651 19.064 118.171 19.16 117.638 19.16C116.785 19.16 116.113 18.9307 115.622 18.472C115.142 18.0027 114.902 17.3627 114.902 16.552V12.808H114.246C113.926 12.808 113.67 12.7333 113.478 12.584C113.286 12.4347 113.19 12.2373 113.19 11.992C113.19 11.736 113.281 11.5333 113.462 11.384C113.654 11.2347 113.915 11.16 114.246 11.16H114.902V8.744C114.902 8.44533 114.998 8.21067 115.19 8.04C115.382 7.86933 115.638 7.784 115.958 7.784C116.289 7.784 116.545 7.86933 116.726 8.04C116.907 8.21067 116.998 8.44533 116.998 8.744V11.16H118.534C118.865 11.16 119.121 11.2347 119.302 11.384C119.494 11.5333 119.59 11.736 119.59 11.992C119.59 12.2373 119.494 12.4347 119.302 12.584C119.121 12.7333 118.865 12.808 118.534 12.808H116.998V16.728C116.998 16.9627 117.067 17.1493 117.206 17.288C117.355 17.4267 117.553 17.496 117.798 17.496C117.99 17.496 118.155 17.4693 118.294 17.416C118.443 17.352 118.593 17.2507 118.742 17.112C119.019 16.8453 119.275 16.712 119.51 16.712C119.681 16.712 119.857 16.7867 120.038 16.936ZM126.936 19.16C126.018 19.16 125.218 18.9947 124.536 18.664C123.853 18.3333 123.325 17.8693 122.952 17.272C122.589 16.664 122.408 15.9547 122.408 15.144C122.408 13.832 122.786 12.8133 123.544 12.088C124.312 11.3627 125.389 11 126.776 11C127.629 11 128.381 11.1333 129.032 11.4C129.693 11.6667 130.205 12.04 130.568 12.52C130.941 12.9893 131.128 13.528 131.128 14.136C131.128 14.648 130.962 15.0427 130.632 15.32C130.312 15.5973 129.853 15.736 129.256 15.736H124.44C124.44 16.3333 124.648 16.7867 125.064 17.096C125.49 17.3947 126.114 17.544 126.936 17.544C127.8 17.544 128.536 17.352 129.144 16.968C129.485 16.7547 129.752 16.648 129.944 16.648C130.125 16.648 130.301 16.7333 130.472 16.904C130.653 17.0853 130.744 17.2827 130.744 17.496C130.744 17.752 130.637 17.9547 130.424 18.104C129.976 18.4453 129.453 18.7067 128.856 18.888C128.258 19.0693 127.618 19.16 126.936 19.16ZM128.616 14.264C128.797 14.264 128.925 14.232 129 14.168C129.074 14.0933 129.112 13.976 129.112 13.816C129.112 13.4427 128.898 13.1493 128.472 12.936C128.056 12.7227 127.49 12.616 126.776 12.616C126.061 12.616 125.496 12.7653 125.08 13.064C124.674 13.3627 124.472 13.7627 124.472 14.264H128.616ZM134.603 19.16C134.272 19.16 134.016 19.0747 133.835 18.904C133.653 18.7333 133.563 18.4987 133.563 18.2V11.96C133.563 11.6507 133.648 11.416 133.819 11.256C134 11.0853 134.251 11 134.571 11C134.891 11 135.141 11.0853 135.323 11.256C135.504 11.4267 135.595 11.6613 135.595 11.96V12.488C135.925 12.0613 136.309 11.736 136.747 11.512C137.195 11.2773 137.675 11.16 138.187 11.16H138.539C138.88 11.16 139.141 11.2347 139.323 11.384C139.515 11.5227 139.611 11.7253 139.611 11.992C139.611 12.2587 139.515 12.4667 139.323 12.616C139.141 12.7547 138.88 12.824 138.539 12.824H137.995C137.28 12.824 136.709 13.0533 136.283 13.512C135.867 13.96 135.659 14.5787 135.659 15.368V18.2C135.659 18.4987 135.563 18.7333 135.371 18.904C135.179 19.0747 134.923 19.16 134.603 19.16Z" fill="white"/>
<defs>
<filter id="filter0_i_3_185" x="21" y="2" width="123" height="27" filterUnits="userSpaceOnUse" color-interpolation-filters="sRGB">
<feFlood flood-opacity="0" result="BackgroundImageFix"/>
<feBlend mode="normal" in="SourceGraphic" in2="BackgroundImageFix" result="shape"/>
<feColorMatrix in="SourceAlpha" type="matrix" values="0 0 0 0 0 0 0 0 0 0 0 0 0 0 0 0 0 0 127 0" result="hardAlpha"/>
<feOffset dy="4"/>
<feGaussianBlur stdDeviation="2"/>
<feComposite in2="hardAlpha" operator="arithmetic" k2="-1" k3="1"/>
<feColorMatrix type="matrix" values="0 0 0 0 0 0 0 0 0 0 0 0 0 0 0 0 0 0 0.25 0"/>
<feBlend mode="normal" in2="shape" result="effect1_innerShadow_3_185"/>
</filter>
<filter id="filter1_i_3_185" x="2" y="2" width="23" height="27" filterUnits="userSpaceOnUse" color-interpolation-filters="sRGB">
<feFlood flood-opacity="0" result="BackgroundImageFix"/>
<feBlend mode="normal" in="SourceGraphic" in2="BackgroundImageFix" result="shape"/>
<feColorMatrix in="SourceAlpha" type="matrix" values="0 0 0 0 0 0 0 0 0 0 0 0 0 0 0 0 0 0 127 0" result="hardAlpha"/>
<feOffset dy="4"/>
<feGaussianBlur stdDeviation="2"/>
<feComposite in2="hardAlpha" operator="arithmetic" k2="-1" k3="1"/>
<feColorMatrix type="matrix" values="0 0 0 0 0 0 0 0 0 0 0 0 0 0 0 0 0 0 0.25 0"/>
<feBlend mode="normal" in2="shape" result="effect1_innerShadow_3_185"/>
</filter>
<linearGradient id="paint0_linear_3_185" x1="13.5" y1="0" x2="13.5" y2="27" gradientUnits="userSpaceOnUse">
<stop stop-color="#647696"/>
<stop offset="1" stop-color="#333E55"/>
</linearGradient>
<radialGradient id="paint1_radial_3_185" cx="0" cy="0" r="1" gradientUnits="userSpaceOnUse" gradientTransform="translate(13.5 13.5) rotate(90) scale(11.5)">
<stop stop-color="#101725"/>
<stop offset="1" stop-color="#253A61"/>
</radialGradient>
</defs>
</svg>
