<svg width="115" height="27" viewBox="0 0 115 27" fill="none" xmlns="http://www.w3.org/2000/svg">
<rect x="21" width="94" height="27" rx="4" fill="#424D61"/>
<g filter="url(#filter0_i_3_164)">
<rect x="21" y="2" width="92" height="23" rx="4" fill="#212B3E"/>
</g>
<rect width="27" height="27" rx="4" fill="url(#paint0_linear_3_164)"/>
<g filter="url(#filter1_i_3_164)">
<rect x="2" y="2" width="23" height="23" rx="4" fill="url(#paint1_radial_3_164)"/>
</g>
<path d="M21.9991 10.41C21.999 10.1578 21.9303 9.93494 21.7913 9.74366C21.6549 9.55556 21.4504 9.39791 21.1763 9.27326C18.9132 8.24878 16.6477 7.22743 14.3853 6.20191C13.7754 5.92545 13.184 5.93551 12.5785 6.21599C11.6777 6.63306 7.16777 8.66158 5.82377 9.27268C5.27034 9.52423 5.001 9.90918 5.00086 10.4095C5 12.4698 5.00086 14.5301 5 16.5905C5 16.8371 5.06594 17.0557 5.19875 17.2441C5.33529 17.4378 5.54254 17.5998 5.82304 17.7273C7.1671 18.3384 11.6777 20.3668 12.5783 20.7839C13.184 21.0645 13.7754 21.0746 14.3855 20.798C16.648 19.7724 18.9135 18.7511 21.177 17.7267C21.4575 17.5992 21.6648 17.4372 21.8013 17.2435C21.9339 17.0551 22 16.8366 22 16.5898C22 16.5898 22 12.4703 21.9991 10.41" fill="#649AD2"/>
<path d="M13.526 13.4799L5.1987 17.2441C5.3353 17.4378 5.54255 17.5998 5.82305 17.7273C7.16711 18.3384 11.6777 20.3668 12.5783 20.7839C13.184 21.0645 13.7754 21.0746 14.3855 20.798C16.648 19.7724 18.9135 18.7511 21.177 17.7267C21.4575 17.5992 21.6648 17.4372 21.8013 17.2435L13.526 13.4799" fill="#004482"/>
<path d="M11.0596 14.5949C11.5441 15.259 12.455 15.7069 13.5 15.7069C14.5514 15.7069 15.4675 15.2533 15.9496 14.5821L13.526 13.4799L11.0596 14.5949Z" fill="#1A4674"/>
<path d="M21.9992 10.41C21.999 10.1578 21.9303 9.93494 21.7913 9.74366L13.526 13.4799L21.8013 17.2435C21.9339 17.0551 21.9999 16.8366 22 16.5898C22 16.5898 22 12.4703 21.9992 10.41" fill="#01589C"/>
<path d="M21.5441 13.7489H20.8975V14.2567H20.2507V13.7489H19.6041V13.2413H20.2507V12.7337H20.8975V13.2413H21.5441V13.749V13.7489ZM13.5 9.0679C15.5676 9.0679 17.3753 9.94062 18.3589 11.2423L18.3884 11.2819L15.9313 12.3927C15.4444 11.7354 14.5383 11.293 13.5 11.293C11.9474 11.293 10.6888 12.2811 10.6888 13.4999C10.6883 13.8841 10.8161 14.2616 11.0596 14.5949C11.5441 15.259 12.455 15.7069 13.5 15.7069C14.5399 15.7069 15.4474 15.2632 15.9336 14.6041L15.9496 14.5821L18.4031 15.698C17.4303 17.0325 15.5989 17.932 13.5 17.932C11.4049 17.932 9.57645 17.0361 8.60227 15.7055C8.12667 15.056 7.85454 14.3029 7.85454 13.4999C7.85454 11.0523 10.382 9.0679 13.5 9.0679V9.0679ZM18.5379 12.7336V13.2413H19.1845V13.7489H18.5379V14.2567H17.8912V13.7489H17.2446V13.2413H17.8912V12.7337H18.5379V12.7336Z" fill="white"/>
<path d="M58.018 19.16C56.8127 19.16 55.7673 18.9307 54.882 18.472C53.9967 18.0133 53.3193 17.352 52.85 16.488C52.3807 15.624 52.146 14.6 52.146 13.416C52.146 12.232 52.3807 11.208 52.85 10.344C53.3193 9.46933 53.9913 8.80267 54.866 8.344C55.7513 7.87467 56.7913 7.64 57.986 7.64C58.978 7.64 59.8953 7.81067 60.738 8.152C61.5807 8.49333 62.2047 8.94667 62.61 9.512C62.738 9.68267 62.802 9.85867 62.802 10.04C62.802 10.3067 62.658 10.5467 62.37 10.76C62.242 10.856 62.082 10.904 61.89 10.904C61.73 10.904 61.57 10.872 61.41 10.808C61.25 10.7333 61.1167 10.632 61.01 10.504C60.6473 10.088 60.226 9.78933 59.746 9.608C59.266 9.416 58.6793 9.32 57.986 9.32C56.8233 9.32 55.9167 9.68267 55.266 10.408C54.6153 11.1227 54.29 12.1253 54.29 13.416C54.29 14.696 54.6153 15.6933 55.266 16.408C55.9273 17.1227 56.8447 17.48 58.018 17.48C59.362 17.48 60.434 17.0853 61.234 16.296C61.5647 15.9867 61.8687 15.832 62.146 15.832C62.338 15.832 62.514 15.896 62.674 16.024C62.9193 16.2373 63.042 16.472 63.042 16.728C63.042 16.92 62.9727 17.1067 62.834 17.288C62.3753 17.8747 61.7193 18.3333 60.866 18.664C60.0233 18.9947 59.074 19.16 58.018 19.16ZM75.321 14.168C75.6517 14.168 75.9077 14.2427 76.089 14.392C76.2703 14.5413 76.361 14.744 76.361 15C76.361 15.2453 76.265 15.4427 76.073 15.592C75.8917 15.7413 75.641 15.816 75.321 15.816H73.145V17.752C73.145 18.0507 73.0543 18.28 72.873 18.44C72.7023 18.6 72.4623 18.68 72.153 18.68C71.8543 18.68 71.6143 18.6 71.433 18.44C71.2623 18.2693 71.177 18.04 71.177 17.752V15.816H68.985C68.665 15.816 68.409 15.7413 68.217 15.592C68.0357 15.4427 67.945 15.2453 67.945 15C67.945 14.744 68.0357 14.5413 68.217 14.392C68.3983 14.2427 68.6543 14.168 68.985 14.168H71.177V12.216C71.177 11.928 71.2623 11.704 71.433 11.544C71.6143 11.3733 71.8543 11.288 72.153 11.288C72.4623 11.288 72.7023 11.368 72.873 11.528C73.0543 11.688 73.145 11.9173 73.145 12.216V14.168H75.321ZM88.2235 14.168C88.5542 14.168 88.8102 14.2427 88.9915 14.392C89.1728 14.5413 89.2635 14.744 89.2635 15C89.2635 15.2453 89.1675 15.4427 88.9755 15.592C88.7942 15.7413 88.5435 15.816 88.2235 15.816H86.0475V17.752C86.0475 18.0507 85.9568 18.28 85.7755 18.44C85.6048 18.6 85.3648 18.68 85.0555 18.68C84.7568 18.68 84.5168 18.6 84.3355 18.44C84.1648 18.2693 84.0795 18.04 84.0795 17.752V15.816H81.8875C81.5675 15.816 81.3115 15.7413 81.1195 15.592C80.9382 15.4427 80.8475 15.2453 80.8475 15C80.8475 14.744 80.9382 14.5413 81.1195 14.392C81.3008 14.2427 81.5568 14.168 81.8875 14.168H84.0795V12.216C84.0795 11.928 84.1648 11.704 84.3355 11.544C84.5168 11.3733 84.7568 11.288 85.0555 11.288C85.3648 11.288 85.6048 11.368 85.7755 11.528C85.9568 11.688 86.0475 11.9173 86.0475 12.216V14.168H88.2235Z" fill="white"/>
<defs>
<filter id="filter0_i_3_164" x="21" y="2" width="92" height="27" filterUnits="userSpaceOnUse" color-interpolation-filters="sRGB">
<feFlood flood-opacity="0" result="BackgroundImageFix"/>
<feBlend mode="normal" in="SourceGraphic" in2="BackgroundImageFix" result="shape"/>
<feColorMatrix in="SourceAlpha" type="matrix" values="0 0 0 0 0 0 0 0 0 0 0 0 0 0 0 0 0 0 127 0" result="hardAlpha"/>
<feOffset dy="4"/>
<feGaussianBlur stdDeviation="2"/>
<feComposite in2="hardAlpha" operator="arithmetic" k2="-1" k3="1"/>
<feColorMatrix type="matrix" values="0 0 0 0 0 0 0 0 0 0 0 0 0 0 0 0 0 0 0.25 0"/>
<feBlend mode="normal" in2="shape" result="effect1_innerShadow_3_164"/>
</filter>
<filter id="filter1_i_3_164" x="2" y="2" width="23" height="27" filterUnits="userSpaceOnUse" color-interpolation-filters="sRGB">
<feFlood flood-opacity="0" result="BackgroundImageFix"/>
<feBlend mode="normal" in="SourceGraphic" in2="BackgroundImageFix" result="shape"/>
<feColorMatrix in="SourceAlpha" type="matrix" values="0 0 0 0 0 0 0 0 0 0 0 0 0 0 0 0 0 0 127 0" result="hardAlpha"/>
<feOffset dy="4"/>
<feGaussianBlur stdDeviation="2"/>
<feComposite in2="hardAlpha" operator="arithmetic" k2="-1" k3="1"/>
<feColorMatrix type="matrix" values="0 0 0 0 0 0 0 0 0 0 0 0 0 0 0 0 0 0 0.25 0"/>
<feBlend mode="normal" in2="shape" result="effect1_innerShadow_3_164"/>
</filter>
<linearGradient id="paint0_linear_3_164" x1="13.5" y1="0" x2="13.5" y2="27" gradientUnits="userSpaceOnUse">
<stop stop-color="#647696"/>
<stop offset="1" stop-color="#333E55"/>
</linearGradient>
<radialGradient id="paint1_radial_3_164" cx="0" cy="0" r="1" gradientUnits="userSpaceOnUse" gradientTransform="translate(13.5 13.5) rotate(90) scale(11.5)">
<stop stop-color="#101725"/>
<stop offset="1" stop-color="#253A61"/>
</radialGradient>
</defs>
</svg>
