<svg width="115" height="27" viewBox="0 0 115 27" fill="none" xmlns="http://www.w3.org/2000/svg">
<rect x="21" width="94" height="27" rx="4" fill="#424D61"/>
<g filter="url(#filter0_i_3_199)">
<rect x="21" y="2" width="92" height="23" rx="4" fill="#212B3E"/>
</g>
<rect width="27" height="27" rx="4" fill="url(#paint0_linear_3_199)"/>
<g filter="url(#filter1_i_3_199)">
<rect x="2" y="2" width="23" height="23" rx="4" fill="url(#paint1_radial_3_199)"/>
</g>
<path d="M21.9996 10.4108C22.0059 10.1773 21.934 9.94679 21.7917 9.7444C21.6424 9.54568 21.4312 9.38315 21.1798 9.27354C18.9159 8.24934 16.6509 7.22567 14.3849 6.20253C14.1117 6.06786 13.7983 5.99778 13.4794 6.00005C13.1606 6.00232 12.8488 6.07685 12.5784 6.21539C11.6775 6.63268 7.16828 8.66073 5.82407 9.27193C5.56828 9.37721 5.35474 9.54043 5.20883 9.74221C5.06292 9.94399 4.99077 10.1758 5.00095 10.4102V16.5914C4.99434 16.8196 5.06204 17.0452 5.19708 17.2449C5.34724 17.4493 5.56298 17.6161 5.82081 17.727C7.16501 18.3382 11.6749 20.3662 12.5758 20.7835C12.846 20.9222 13.1578 20.9969 13.4766 20.9994C13.7955 21.0019 14.1089 20.932 14.3823 20.7975C16.6444 19.7722 18.9078 18.7485 21.1726 17.7264C21.4304 17.6154 21.6464 17.4487 21.7969 17.2443C21.932 17.0446 21.9997 16.8191 21.9931 16.5908V10.4108" fill="#4E994A"/>
<path d="M21.7048 17.3418C21.739 17.3108 21.7711 17.2783 21.8009 17.2443C21.9359 17.0446 22.0036 16.8191 21.997 16.5908V10.4108C22.0033 10.1773 21.9314 9.9468 21.7891 9.7444C21.7656 9.71279 21.7309 9.68815 21.7041 9.65869L13.5003 13.5005L21.7048 17.3418Z" fill="#358230"/>
<path d="M21.7047 17.3418L13.5002 13.5005L5.29576 17.3418C5.4345 17.5013 5.61527 17.6331 5.82468 17.7275C7.16888 18.3387 11.6788 20.3668 12.5797 20.7841C12.8499 20.9228 13.1617 20.9975 13.4805 20.9999C13.7993 21.0024 14.1128 20.9325 14.3861 20.798C16.6483 19.7727 18.9117 18.749 21.1764 17.727C21.3856 17.6328 21.5662 17.5011 21.7047 17.3418V17.3418Z" fill="#1A7515"/>
<path d="M15.8539 14.5826C15.5627 15.0069 15.1084 15.3405 14.5618 15.5314C14.0152 15.7223 13.4069 15.7597 12.8315 15.6379C12.2562 15.5162 11.7462 15.242 11.3808 14.8581C11.0154 14.4741 10.8152 14.002 10.8112 13.5152C10.8073 13.0284 10.9999 12.5541 11.3591 12.1663C11.7183 11.7784 12.2238 11.4988 12.7971 11.3708C13.3704 11.2428 13.9793 11.2736 14.5289 11.4586C15.0786 11.6435 15.5382 11.9721 15.8363 12.3933L18.1998 11.2829C17.5998 10.4393 16.6781 9.7808 15.5764 9.40873C14.4748 9.03666 13.2544 8.97167 12.1032 9.22378C10.9521 9.4759 9.93404 10.0311 9.20592 10.8039C8.47779 11.5767 8.07999 12.5243 8.07378 13.5005C8.0726 14.2747 8.32067 15.0354 8.79296 15.7059C9.2712 16.3831 9.95865 16.9453 10.7862 17.3358C11.6137 17.7263 12.5521 17.9314 13.5071 17.9304C14.462 17.9295 15.3999 17.7226 16.2263 17.3305C17.0527 16.9384 17.7385 16.3749 18.2148 15.6968L15.8539 14.5826Z" fill="white"/>
<path d="M21.13 13.11V12.4469H20.4717V11.908H19.6616V12.4469H18.6757V11.908H17.8656V12.4469H17.2066V13.11H17.8643V13.9205H17.2066V14.5831H17.8643V15.122H18.6744V14.5831H19.661V15.122H20.471V14.5831H21.1287V13.9205H20.4749V13.11H21.13ZM19.6616 13.9205H18.6757V13.11H19.6616V13.9205Z" fill="white"/>
<path d="M61.7896 19.16C60.5842 19.16 59.5389 18.9307 58.6536 18.472C57.7682 18.0133 57.0909 17.352 56.6216 16.488C56.1522 15.624 55.9176 14.6 55.9176 13.416C55.9176 12.232 56.1522 11.208 56.6216 10.344C57.0909 9.46933 57.7629 8.80267 58.6376 8.344C59.5229 7.87467 60.5629 7.64 61.7576 7.64C62.7496 7.64 63.6669 7.81067 64.5096 8.152C65.3522 8.49333 65.9762 8.94667 66.3816 9.512C66.5096 9.68267 66.5736 9.85867 66.5736 10.04C66.5736 10.3067 66.4296 10.5467 66.1416 10.76C66.0136 10.856 65.8536 10.904 65.6616 10.904C65.5016 10.904 65.3416 10.872 65.1816 10.808C65.0216 10.7333 64.8882 10.632 64.7816 10.504C64.4189 10.088 63.9976 9.78933 63.5176 9.608C63.0376 9.416 62.4509 9.32 61.7576 9.32C60.5949 9.32 59.6882 9.68267 59.0376 10.408C58.3869 11.1227 58.0616 12.1253 58.0616 13.416C58.0616 14.696 58.3869 15.6933 59.0376 16.408C59.6989 17.1227 60.6162 17.48 61.7896 17.48C63.1336 17.48 64.2056 17.0853 65.0056 16.296C65.3362 15.9867 65.6402 15.832 65.9176 15.832C66.1096 15.832 66.2856 15.896 66.4456 16.024C66.6909 16.2373 66.8136 16.472 66.8136 16.728C66.8136 16.92 66.7442 17.1067 66.6056 17.288C66.1469 17.8747 65.4909 18.3333 64.6376 18.664C63.7949 18.9947 62.8456 19.16 61.7896 19.16ZM81.8606 12.216L81.1886 14.44H82.2766C82.6072 14.44 82.8526 14.5147 83.0126 14.664C83.1832 14.8027 83.2686 15.0053 83.2686 15.272C83.2686 15.528 83.1832 15.7307 83.0126 15.88C82.8419 16.0187 82.5966 16.088 82.2766 16.088H80.6926L79.9886 18.408C79.9032 18.696 79.7806 18.8933 79.6206 19C79.4606 19.096 79.2206 19.144 78.9006 19.144C78.6339 19.144 78.4259 19.08 78.2766 18.952C78.1272 18.8133 78.0526 18.6427 78.0526 18.44C78.0526 18.3973 78.0632 18.3227 78.0846 18.216L78.7246 16.088H75.8126L75.1086 18.408C75.0232 18.696 74.9006 18.8933 74.7406 19C74.5806 19.096 74.3406 19.144 74.0206 19.144C73.7539 19.144 73.5459 19.08 73.3966 18.952C73.2472 18.8133 73.1726 18.6427 73.1726 18.44C73.1726 18.3973 73.1832 18.3227 73.2046 18.216L73.8446 16.088H73.0766C72.7566 16.088 72.5006 16.0133 72.3086 15.864C72.1272 15.7147 72.0366 15.5173 72.0366 15.272C72.0366 15.016 72.1272 14.8133 72.3086 14.664C72.4899 14.5147 72.7459 14.44 73.0766 14.44H74.3406L75.0126 12.216H73.9886C73.6686 12.216 73.4126 12.1413 73.2206 11.992C73.0392 11.8427 72.9486 11.6453 72.9486 11.4C72.9486 11.144 73.0392 10.9413 73.2206 10.792C73.4019 10.6427 73.6579 10.568 73.9886 10.568H75.5246L76.1806 8.376C76.2552 8.13067 76.3779 7.94933 76.5486 7.832C76.7299 7.704 76.9806 7.64 77.3006 7.64C77.5566 7.64 77.7592 7.69867 77.9086 7.816C78.0579 7.93333 78.1326 8.09333 78.1326 8.296C78.1326 8.40267 78.1219 8.488 78.1006 8.552L77.4926 10.568H80.4046L81.0606 8.376C81.1352 8.13067 81.2579 7.94933 81.4286 7.832C81.6099 7.704 81.8606 7.64 82.1806 7.64C82.4366 7.64 82.6392 7.69867 82.7886 7.816C82.9379 7.93333 83.0126 8.09333 83.0126 8.296C83.0126 8.40267 83.0019 8.488 82.9806 8.552L82.3726 10.568H83.1886C83.5192 10.568 83.7646 10.6427 83.9246 10.792C84.0952 10.9307 84.1806 11.1333 84.1806 11.4C84.1806 11.656 84.0952 11.8587 83.9246 12.008C83.7539 12.1467 83.5086 12.216 83.1886 12.216H81.8606ZM79.8926 12.216H76.9806L76.3086 14.44H79.2206L79.8926 12.216Z" fill="white"/>
<defs>
<filter id="filter0_i_3_199" x="21" y="2" width="92" height="27" filterUnits="userSpaceOnUse" color-interpolation-filters="sRGB">
<feFlood flood-opacity="0" result="BackgroundImageFix"/>
<feBlend mode="normal" in="SourceGraphic" in2="BackgroundImageFix" result="shape"/>
<feColorMatrix in="SourceAlpha" type="matrix" values="0 0 0 0 0 0 0 0 0 0 0 0 0 0 0 0 0 0 127 0" result="hardAlpha"/>
<feOffset dy="4"/>
<feGaussianBlur stdDeviation="2"/>
<feComposite in2="hardAlpha" operator="arithmetic" k2="-1" k3="1"/>
<feColorMatrix type="matrix" values="0 0 0 0 0 0 0 0 0 0 0 0 0 0 0 0 0 0 0.25 0"/>
<feBlend mode="normal" in2="shape" result="effect1_innerShadow_3_199"/>
</filter>
<filter id="filter1_i_3_199" x="2" y="2" width="23" height="27" filterUnits="userSpaceOnUse" color-interpolation-filters="sRGB">
<feFlood flood-opacity="0" result="BackgroundImageFix"/>
<feBlend mode="normal" in="SourceGraphic" in2="BackgroundImageFix" result="shape"/>
<feColorMatrix in="SourceAlpha" type="matrix" values="0 0 0 0 0 0 0 0 0 0 0 0 0 0 0 0 0 0 127 0" result="hardAlpha"/>
<feOffset dy="4"/>
<feGaussianBlur stdDeviation="2"/>
<feComposite in2="hardAlpha" operator="arithmetic" k2="-1" k3="1"/>
<feColorMatrix type="matrix" values="0 0 0 0 0 0 0 0 0 0 0 0 0 0 0 0 0 0 0.25 0"/>
<feBlend mode="normal" in2="shape" result="effect1_innerShadow_3_199"/>
</filter>
<linearGradient id="paint0_linear_3_199" x1="13.5" y1="0" x2="13.5" y2="27" gradientUnits="userSpaceOnUse">
<stop stop-color="#647696"/>
<stop offset="1" stop-color="#333E55"/>
</linearGradient>
<radialGradient id="paint1_radial_3_199" cx="0" cy="0" r="1" gradientUnits="userSpaceOnUse" gradientTransform="translate(13.5 13.5) rotate(90) scale(11.5)">
<stop stop-color="#101725"/>
<stop offset="1" stop-color="#253A61"/>
</radialGradient>
</defs>
</svg>
