<svg width="115" height="27" viewBox="0 0 115 27" fill="none" xmlns="http://www.w3.org/2000/svg">
<rect x="21" width="94" height="27" rx="4" fill="#424D61"/>
<g filter="url(#filter0_i_3_86)">
<rect x="21" y="2" width="92" height="23" rx="4" fill="#212B3E"/>
</g>
<rect width="27" height="27" rx="4" fill="url(#paint0_linear_3_86)"/>
<g filter="url(#filter1_i_3_86)">
<rect x="2" y="2" width="23" height="23" rx="4" fill="url(#paint1_radial_3_86)"/>
</g>
<path d="M8.467 17.9409L5.55868 15.3747C5.2137 15.0627 5 14.6215 5 14.1904C5 13.9907 5.1275 13.6787 5.22372 13.5L7.90833 8.56618L8.467 17.9409Z" fill="#01579B"/>
<path d="M18.4218 9.05912L15.5134 6.49295C15.2598 6.26795 14.731 6 14.2836 6C13.8987 6 13.5212 6.06838 13.2775 6.1974L7.90958 8.56617L18.4218 9.05912V9.05912ZM11.934 21H18.9804V18.3357L13.7237 16.8547L8.91444 18.3357L11.934 21Z" fill="#40C4FF"/>
<path d="M7.90833 16.5591C7.90833 17.3509 8.02082 17.545 8.467 17.9409L8.91445 18.3357H18.9804L14.0599 13.4019L7.90833 8.56612V16.5592V16.5591Z" fill="#29B6F6"/>
<path d="M16.8558 8.56506H7.90833L18.9804 18.3346H22V12.2164L18.4205 9.05801C17.9181 8.61358 17.4719 8.56506 16.8558 8.56506V8.56506Z" fill="#01579B"/>
<path opacity="0.2" d="M8.5795 18.039C8.13206 17.6432 8.02083 17.2528 8.02083 16.5591V8.66426L7.9096 8.56612V16.5591C7.90827 17.2527 7.90827 17.4446 8.5795 18.039L8.91445 18.3345L8.5795 18.039V18.039Z" fill="white"/>
<path opacity="0.2" d="M21.8888 12.1182V18.2364H18.8692L18.9804 18.3357H22V12.2164L21.8888 12.1182Z" fill="#263238"/>
<path opacity="0.2" d="M18.4218 9.05913C17.8669 8.56946 17.4132 8.56618 16.7445 8.56618H7.90958L8.02081 8.66432H16.7445C17.0782 8.66432 17.9206 8.61469 18.4218 9.05913V9.05913Z" fill="white"/>
<path d="M49.5866 19C48.776 19 48.1466 18.7867 47.6986 18.36C47.2506 17.9333 47.0266 17.336 47.0266 16.568V10.168C47.0266 9.42133 47.24 8.84 47.6666 8.424C48.104 8.008 48.7066 7.8 49.4746 7.8H51.7146C52.9413 7.8 54.0026 8.024 54.8986 8.472C55.7946 8.92 56.4773 9.56533 56.9466 10.408C57.4266 11.2507 57.6666 12.2533 57.6666 13.416C57.6666 14.5787 57.4266 15.5813 56.9466 16.424C56.4773 17.256 55.7946 17.896 54.8986 18.344C54.0133 18.7813 52.952 19 51.7146 19H49.5866ZM51.5546 17.352C52.888 17.352 53.88 17.032 54.5306 16.392C55.1813 15.7413 55.5066 14.7493 55.5066 13.416C55.5066 12.0827 55.176 11.0907 54.5146 10.44C53.864 9.77867 52.8773 9.448 51.5546 9.448H49.8426C49.6293 9.448 49.4586 9.51733 49.3306 9.656C49.2133 9.79467 49.1546 9.98667 49.1546 10.232V16.568C49.1546 16.8133 49.2133 17.0053 49.3306 17.144C49.4586 17.2827 49.6293 17.352 49.8426 17.352H51.5546ZM66.1723 19.16C65.5109 19.16 64.9243 19.048 64.4123 18.824C63.9109 18.6 63.5162 18.2907 63.2282 17.896C62.9509 17.4907 62.8122 17.0267 62.8122 16.504C62.8122 15.7147 63.1376 15.0853 63.7882 14.616C64.4496 14.1467 65.3403 13.912 66.4602 13.912C67.4309 13.912 68.2096 14.12 68.7963 14.536V14.152C68.7963 13.6507 68.6416 13.2667 68.3323 13C68.0229 12.7333 67.5749 12.6 66.9883 12.6C66.1136 12.6 65.3616 12.7867 64.7322 13.16C64.4656 13.3093 64.2363 13.384 64.0443 13.384C63.8096 13.384 63.6016 13.2773 63.4202 13.064C63.3029 12.9147 63.2442 12.76 63.2442 12.6C63.2442 12.3333 63.3829 12.0987 63.6602 11.896C64.0442 11.6187 64.5296 11.4 65.1163 11.24C65.7029 11.08 66.3216 11 66.9722 11C68.2096 11 69.1803 11.2827 69.8843 11.848C70.5989 12.4027 70.9563 13.1707 70.9563 14.152V18.264C70.9563 18.5413 70.8603 18.76 70.6683 18.92C70.4869 19.08 70.2363 19.16 69.9163 19.16C69.5856 19.16 69.3296 19.0853 69.1483 18.936C68.9669 18.7867 68.8763 18.5733 68.8763 18.296V18.12C68.2683 18.8133 67.3669 19.16 66.1723 19.16ZM66.6683 17.688C67.3403 17.688 67.8629 17.5867 68.2363 17.384C68.6203 17.1707 68.8123 16.8773 68.8123 16.504C68.8123 16.152 68.6203 15.8693 68.2363 15.656C67.8523 15.4427 67.3403 15.336 66.7003 15.336C66.1243 15.336 65.6763 15.4373 65.3563 15.64C65.0469 15.8427 64.8923 16.1307 64.8923 16.504C64.8923 16.8773 65.0469 17.1707 65.3563 17.384C65.6656 17.5867 66.1029 17.688 66.6683 17.688ZM77.2273 19.16C76.8966 19.16 76.6406 19.0747 76.4593 18.904C76.2779 18.7333 76.1873 18.4987 76.1873 18.2V11.96C76.1873 11.6507 76.2726 11.416 76.4433 11.256C76.6246 11.0853 76.8753 11 77.1953 11C77.5153 11 77.7659 11.0853 77.9473 11.256C78.1286 11.4267 78.2193 11.6613 78.2193 11.96V12.488C78.5499 12.0613 78.9339 11.736 79.3713 11.512C79.8193 11.2773 80.2993 11.16 80.8113 11.16H81.1633C81.5046 11.16 81.7659 11.2347 81.9473 11.384C82.1393 11.5227 82.2353 11.7253 82.2353 11.992C82.2353 12.2587 82.1393 12.4667 81.9473 12.616C81.7659 12.7547 81.5046 12.824 81.1633 12.824H80.6193C79.9046 12.824 79.3339 13.0533 78.9073 13.512C78.4913 13.96 78.2833 14.5787 78.2833 15.368V18.2C78.2833 18.4987 78.1873 18.7333 77.9953 18.904C77.8033 19.0747 77.5473 19.16 77.2273 19.16ZM93.1959 16.936C93.3665 17.0747 93.4519 17.2453 93.4519 17.448C93.4519 17.6507 93.3772 17.8587 93.2279 18.072C92.9932 18.4133 92.6625 18.68 92.2359 18.872C91.8092 19.064 91.3292 19.16 90.7959 19.16C89.9425 19.16 89.2705 18.9307 88.7799 18.472C88.2999 18.0027 88.0599 17.3627 88.0599 16.552V12.808H87.4039C87.0839 12.808 86.8279 12.7333 86.6359 12.584C86.4439 12.4347 86.3479 12.2373 86.3479 11.992C86.3479 11.736 86.4385 11.5333 86.6199 11.384C86.8119 11.2347 87.0732 11.16 87.4039 11.16H88.0599V8.744C88.0599 8.44533 88.1559 8.21067 88.3479 8.04C88.5399 7.86933 88.7959 7.784 89.1159 7.784C89.4465 7.784 89.7025 7.86933 89.8839 8.04C90.0652 8.21067 90.1559 8.44533 90.1559 8.744V11.16H91.6919C92.0225 11.16 92.2785 11.2347 92.4599 11.384C92.6519 11.5333 92.7479 11.736 92.7479 11.992C92.7479 12.2373 92.6519 12.4347 92.4599 12.584C92.2785 12.7333 92.0225 12.808 91.6919 12.808H90.1559V16.728C90.1559 16.9627 90.2252 17.1493 90.3639 17.288C90.5132 17.4267 90.7105 17.496 90.9559 17.496C91.1479 17.496 91.3132 17.4693 91.4519 17.416C91.6012 17.352 91.7505 17.2507 91.8999 17.112C92.1772 16.8453 92.4332 16.712 92.6679 16.712C92.8385 16.712 93.0145 16.7867 93.1959 16.936Z" fill="white"/>
<defs>
<filter id="filter0_i_3_86" x="21" y="2" width="92" height="27" filterUnits="userSpaceOnUse" color-interpolation-filters="sRGB">
<feFlood flood-opacity="0" result="BackgroundImageFix"/>
<feBlend mode="normal" in="SourceGraphic" in2="BackgroundImageFix" result="shape"/>
<feColorMatrix in="SourceAlpha" type="matrix" values="0 0 0 0 0 0 0 0 0 0 0 0 0 0 0 0 0 0 127 0" result="hardAlpha"/>
<feOffset dy="4"/>
<feGaussianBlur stdDeviation="2"/>
<feComposite in2="hardAlpha" operator="arithmetic" k2="-1" k3="1"/>
<feColorMatrix type="matrix" values="0 0 0 0 0 0 0 0 0 0 0 0 0 0 0 0 0 0 0.25 0"/>
<feBlend mode="normal" in2="shape" result="effect1_innerShadow_3_86"/>
</filter>
<filter id="filter1_i_3_86" x="2" y="2" width="23" height="27" filterUnits="userSpaceOnUse" color-interpolation-filters="sRGB">
<feFlood flood-opacity="0" result="BackgroundImageFix"/>
<feBlend mode="normal" in="SourceGraphic" in2="BackgroundImageFix" result="shape"/>
<feColorMatrix in="SourceAlpha" type="matrix" values="0 0 0 0 0 0 0 0 0 0 0 0 0 0 0 0 0 0 127 0" result="hardAlpha"/>
<feOffset dy="4"/>
<feGaussianBlur stdDeviation="2"/>
<feComposite in2="hardAlpha" operator="arithmetic" k2="-1" k3="1"/>
<feColorMatrix type="matrix" values="0 0 0 0 0 0 0 0 0 0 0 0 0 0 0 0 0 0 0.25 0"/>
<feBlend mode="normal" in2="shape" result="effect1_innerShadow_3_86"/>
</filter>
<linearGradient id="paint0_linear_3_86" x1="13.5" y1="0" x2="13.5" y2="27" gradientUnits="userSpaceOnUse">
<stop stop-color="#647696"/>
<stop offset="1" stop-color="#333E55"/>
</linearGradient>
<radialGradient id="paint1_radial_3_86" cx="0" cy="0" r="1" gradientUnits="userSpaceOnUse" gradientTransform="translate(13.5 13.5) rotate(90) scale(11.5)">
<stop stop-color="#101725"/>
<stop offset="1" stop-color="#253A61"/>
</radialGradient>
</defs>
</svg>
