<svg width="115" height="27" viewBox="0 0 115 27" fill="none" xmlns="http://www.w3.org/2000/svg">
<rect x="21" width="94" height="27" rx="4" fill="#424D61"/>
<g filter="url(#filter0_i_3_100)">
<rect x="21" y="2" width="92" height="23" rx="4" fill="#212B3E"/>
</g>
<rect width="27" height="27" rx="4" fill="url(#paint0_linear_3_100)"/>
<g filter="url(#filter1_i_3_100)">
<rect x="2" y="2" width="23" height="23" rx="4" fill="url(#paint1_radial_3_100)"/>
</g>
<path d="M13.0272 14.5702L15.6025 13.0239H21.9999L16.3328 16.5169L13.0272 14.5702Z" fill="#40D0FD"/>
<path d="M5 13.5354L8.21748 15.5658L22 7H15.6026L5 13.5354Z" fill="#41D0FD"/>
<path d="M9.80362 16.5363L13.0671 18.518L16.3328 16.5169L13.0272 14.5702L9.80362 16.5363V16.5363Z" fill="#1FBCFD"/>
<path d="M13.067 18.518L16.3328 16.5169L21.9203 20H15.4868L13.067 18.518V18.518Z" fill="#095A9D"/>
<path d="M13.067 18.518L16.1098 17.8941L15.0846 17.2815L13.067 18.518V18.518Z" fill="#0E5199"/>
<path d="M37.0879 19.16C36.7679 19.16 36.5119 19.0747 36.3199 18.904C36.1279 18.7333 36.0319 18.4987 36.0319 18.2V10.168C36.0319 9.42133 36.2453 8.84 36.6719 8.424C37.1093 8.008 37.7119 7.8 38.4799 7.8H43.4559C43.7759 7.8 44.0213 7.87467 44.1919 8.024C44.3626 8.16267 44.4479 8.36533 44.4479 8.632C44.4479 8.888 44.3573 9.09067 44.1759 9.24C44.0053 9.37867 43.7653 9.448 43.4559 9.448H38.8479C38.6346 9.448 38.4639 9.51733 38.3359 9.656C38.2186 9.79467 38.1599 9.98667 38.1599 10.232V12.616H42.2399C42.5599 12.616 42.8053 12.6907 42.9759 12.84C43.1466 12.9787 43.2319 13.1813 43.2319 13.448C43.2319 13.704 43.1413 13.9067 42.9599 14.056C42.7893 14.1947 42.5493 14.264 42.2399 14.264H38.1599V18.2C38.1599 18.488 38.0586 18.7227 37.8559 18.904C37.6639 19.0747 37.4079 19.16 37.0879 19.16ZM49.5226 19.16C49.1919 19.16 48.9359 19.0747 48.7546 18.904C48.5732 18.7333 48.4826 18.4987 48.4826 18.2V7.816C48.4826 7.51733 48.5732 7.28267 48.7546 7.112C48.9359 6.94133 49.1919 6.856 49.5226 6.856C49.8426 6.856 50.0986 6.94133 50.2906 7.112C50.4826 7.28267 50.5786 7.51733 50.5786 7.816V18.2C50.5786 18.4987 50.4826 18.7333 50.2906 18.904C50.0986 19.0747 49.8426 19.16 49.5226 19.16ZM58.1737 19.16C57.075 19.16 56.2164 18.8453 55.5977 18.216C54.9897 17.576 54.6857 16.6907 54.6857 15.56V11.96C54.6857 11.6613 54.7817 11.4267 54.9737 11.256C55.1657 11.0853 55.4217 11 55.7417 11C56.0724 11 56.3284 11.0853 56.5097 11.256C56.691 11.4267 56.7817 11.6613 56.7817 11.96V15.56C56.7817 16.168 56.9417 16.6427 57.2617 16.984C57.5924 17.3253 58.051 17.496 58.6377 17.496C59.395 17.496 59.9817 17.256 60.3977 16.776C60.8244 16.296 61.0377 15.6347 61.0377 14.792V11.96C61.0377 11.6613 61.1337 11.4267 61.3257 11.256C61.5177 11.0853 61.7737 11 62.0937 11C62.4244 11 62.6804 11.0853 62.8617 11.256C63.043 11.4267 63.1337 11.6613 63.1337 11.96V18.2C63.1337 18.5093 63.043 18.7493 62.8617 18.92C62.691 19.08 62.4457 19.16 62.1257 19.16C61.8057 19.16 61.555 19.0747 61.3737 18.904C61.1924 18.7333 61.1017 18.4987 61.1017 18.2V17.736C60.707 18.2267 60.2697 18.5893 59.7897 18.824C59.3204 19.048 58.7817 19.16 58.1737 19.16ZM73.5374 16.936C73.7081 17.0747 73.7934 17.2453 73.7934 17.448C73.7934 17.6507 73.7188 17.8587 73.5694 18.072C73.3348 18.4133 73.0041 18.68 72.5774 18.872C72.1508 19.064 71.6708 19.16 71.1374 19.16C70.2841 19.16 69.6121 18.9307 69.1214 18.472C68.6414 18.0027 68.4014 17.3627 68.4014 16.552V12.808H67.7454C67.4254 12.808 67.1694 12.7333 66.9774 12.584C66.7854 12.4347 66.6894 12.2373 66.6894 11.992C66.6894 11.736 66.7801 11.5333 66.9614 11.384C67.1534 11.2347 67.4148 11.16 67.7454 11.16H68.4014V8.744C68.4014 8.44533 68.4974 8.21067 68.6894 8.04C68.8814 7.86933 69.1374 7.784 69.4574 7.784C69.7881 7.784 70.0441 7.86933 70.2254 8.04C70.4068 8.21067 70.4974 8.44533 70.4974 8.744V11.16H72.0334C72.3641 11.16 72.6201 11.2347 72.8014 11.384C72.9934 11.5333 73.0894 11.736 73.0894 11.992C73.0894 12.2373 72.9934 12.4347 72.8014 12.584C72.6201 12.7333 72.3641 12.808 72.0334 12.808H70.4974V16.728C70.4974 16.9627 70.5668 17.1493 70.7054 17.288C70.8548 17.4267 71.0521 17.496 71.2974 17.496C71.4894 17.496 71.6548 17.4693 71.7934 17.416C71.9428 17.352 72.0921 17.2507 72.2414 17.112C72.5188 16.8453 72.7748 16.712 73.0094 16.712C73.1801 16.712 73.3561 16.7867 73.5374 16.936ZM83.4687 16.936C83.6394 17.0747 83.7247 17.2453 83.7247 17.448C83.7247 17.6507 83.65 17.8587 83.5007 18.072C83.266 18.4133 82.9354 18.68 82.5087 18.872C82.082 19.064 81.602 19.16 81.0687 19.16C80.2154 19.16 79.5434 18.9307 79.0527 18.472C78.5727 18.0027 78.3327 17.3627 78.3327 16.552V12.808H77.6767C77.3567 12.808 77.1007 12.7333 76.9087 12.584C76.7167 12.4347 76.6207 12.2373 76.6207 11.992C76.6207 11.736 76.7114 11.5333 76.8927 11.384C77.0847 11.2347 77.346 11.16 77.6767 11.16H78.3327V8.744C78.3327 8.44533 78.4287 8.21067 78.6207 8.04C78.8127 7.86933 79.0687 7.784 79.3887 7.784C79.7194 7.784 79.9754 7.86933 80.1567 8.04C80.338 8.21067 80.4287 8.44533 80.4287 8.744V11.16H81.9647C82.2954 11.16 82.5514 11.2347 82.7327 11.384C82.9247 11.5333 83.0207 11.736 83.0207 11.992C83.0207 12.2373 82.9247 12.4347 82.7327 12.584C82.5514 12.7333 82.2954 12.808 81.9647 12.808H80.4287V16.728C80.4287 16.9627 80.498 17.1493 80.6367 17.288C80.786 17.4267 80.9834 17.496 81.2287 17.496C81.4207 17.496 81.586 17.4693 81.7247 17.416C81.874 17.352 82.0234 17.2507 82.1727 17.112C82.45 16.8453 82.706 16.712 82.9407 16.712C83.1114 16.712 83.2874 16.7867 83.4687 16.936ZM91.6462 19.16C90.7289 19.16 89.9289 18.9947 89.2462 18.664C88.5635 18.3333 88.0355 17.8693 87.6622 17.272C87.2995 16.664 87.1182 15.9547 87.1182 15.144C87.1182 13.832 87.4969 12.8133 88.2542 12.088C89.0222 11.3627 90.0995 11 91.4862 11C92.3395 11 93.0915 11.1333 93.7422 11.4C94.4035 11.6667 94.9155 12.04 95.2782 12.52C95.6515 12.9893 95.8382 13.528 95.8382 14.136C95.8382 14.648 95.6729 15.0427 95.3422 15.32C95.0222 15.5973 94.5635 15.736 93.9662 15.736H89.1502C89.1502 16.3333 89.3582 16.7867 89.7742 17.096C90.2009 17.3947 90.8249 17.544 91.6462 17.544C92.5102 17.544 93.2462 17.352 93.8542 16.968C94.1955 16.7547 94.4622 16.648 94.6542 16.648C94.8355 16.648 95.0115 16.7333 95.1822 16.904C95.3635 17.0853 95.4542 17.2827 95.4542 17.496C95.4542 17.752 95.3475 17.9547 95.1342 18.104C94.6862 18.4453 94.1635 18.7067 93.5662 18.888C92.9689 19.0693 92.3289 19.16 91.6462 19.16ZM93.3262 14.264C93.5075 14.264 93.6355 14.232 93.7102 14.168C93.7849 14.0933 93.8222 13.976 93.8222 13.816C93.8222 13.4427 93.6089 13.1493 93.1822 12.936C92.7662 12.7227 92.2009 12.616 91.4862 12.616C90.7715 12.616 90.2062 12.7653 89.7902 13.064C89.3849 13.3627 89.1822 13.7627 89.1822 14.264H93.3262ZM100.593 19.16C100.263 19.16 100.007 19.0747 99.8252 18.904C99.6439 18.7333 99.5532 18.4987 99.5532 18.2V11.96C99.5532 11.6507 99.6385 11.416 99.8092 11.256C99.9905 11.0853 100.241 11 100.561 11C100.881 11 101.132 11.0853 101.313 11.256C101.495 11.4267 101.585 11.6613 101.585 11.96V12.488C101.916 12.0613 102.3 11.736 102.737 11.512C103.185 11.2773 103.665 11.16 104.177 11.16H104.529C104.871 11.16 105.132 11.2347 105.313 11.384C105.505 11.5227 105.601 11.7253 105.601 11.992C105.601 12.2587 105.505 12.4667 105.313 12.616C105.132 12.7547 104.871 12.824 104.529 12.824H103.985C103.271 12.824 102.7 13.0533 102.273 13.512C101.857 13.96 101.649 14.5787 101.649 15.368V18.2C101.649 18.4987 101.553 18.7333 101.361 18.904C101.169 19.0747 100.913 19.16 100.593 19.16Z" fill="white"/>
<defs>
<filter id="filter0_i_3_100" x="21" y="2" width="92" height="27" filterUnits="userSpaceOnUse" color-interpolation-filters="sRGB">
<feFlood flood-opacity="0" result="BackgroundImageFix"/>
<feBlend mode="normal" in="SourceGraphic" in2="BackgroundImageFix" result="shape"/>
<feColorMatrix in="SourceAlpha" type="matrix" values="0 0 0 0 0 0 0 0 0 0 0 0 0 0 0 0 0 0 127 0" result="hardAlpha"/>
<feOffset dy="4"/>
<feGaussianBlur stdDeviation="2"/>
<feComposite in2="hardAlpha" operator="arithmetic" k2="-1" k3="1"/>
<feColorMatrix type="matrix" values="0 0 0 0 0 0 0 0 0 0 0 0 0 0 0 0 0 0 0.25 0"/>
<feBlend mode="normal" in2="shape" result="effect1_innerShadow_3_100"/>
</filter>
<filter id="filter1_i_3_100" x="2" y="2" width="23" height="27" filterUnits="userSpaceOnUse" color-interpolation-filters="sRGB">
<feFlood flood-opacity="0" result="BackgroundImageFix"/>
<feBlend mode="normal" in="SourceGraphic" in2="BackgroundImageFix" result="shape"/>
<feColorMatrix in="SourceAlpha" type="matrix" values="0 0 0 0 0 0 0 0 0 0 0 0 0 0 0 0 0 0 127 0" result="hardAlpha"/>
<feOffset dy="4"/>
<feGaussianBlur stdDeviation="2"/>
<feComposite in2="hardAlpha" operator="arithmetic" k2="-1" k3="1"/>
<feColorMatrix type="matrix" values="0 0 0 0 0 0 0 0 0 0 0 0 0 0 0 0 0 0 0.25 0"/>
<feBlend mode="normal" in2="shape" result="effect1_innerShadow_3_100"/>
</filter>
<linearGradient id="paint0_linear_3_100" x1="13.5" y1="0" x2="13.5" y2="27" gradientUnits="userSpaceOnUse">
<stop stop-color="#647696"/>
<stop offset="1" stop-color="#333E55"/>
</linearGradient>
<radialGradient id="paint1_radial_3_100" cx="0" cy="0" r="1" gradientUnits="userSpaceOnUse" gradientTransform="translate(13.5 13.5) rotate(90) scale(11.5)">
<stop stop-color="#101725"/>
<stop offset="1" stop-color="#253A61"/>
</radialGradient>
</defs>
</svg>
