<svg width="135" height="27" viewBox="0 0 135 27" fill="none" xmlns="http://www.w3.org/2000/svg">
<rect x="21" width="114" height="27" rx="4" fill="#424D61"/>
<g filter="url(#filter0_i_1_712)">
<rect x="21" y="2" width="112" height="23" rx="4" fill="#212B3E"/>
</g>
<rect width="27" height="27" rx="4" fill="url(#paint0_linear_1_712)"/>
<g filter="url(#filter1_i_1_712)">
<rect x="2" y="2" width="23" height="23" rx="4" fill="url(#paint1_radial_1_712)"/>
</g>
<path d="M5 6H22V21H5V6Z" fill="#F7DF1E"/>
<path d="M9.46995 18.5351L10.7708 17.8404C11.0219 18.233 11.2502 18.5653 11.7978 18.5653C12.3228 18.5653 12.6538 18.3841 12.6538 17.6793V12.8865H14.2513V17.6992C14.2513 19.1592 13.2814 19.8238 11.8663 19.8238C10.5883 19.8238 9.84647 19.2398 9.46988 18.535M15.1191 18.384L16.4198 17.7195C16.7623 18.2129 17.2073 18.5754 17.9946 18.5754C18.6567 18.5754 19.0787 18.2834 19.0787 17.8806C19.0787 17.3973 18.6451 17.2261 17.9148 16.9443L17.5155 16.7931C16.3628 16.3603 15.5983 15.8165 15.5983 14.6687C15.5983 13.6114 16.5112 12.8058 17.9377 12.8058C18.9533 12.8058 19.6836 13.118 20.2085 13.9336L18.9646 14.6385C18.6907 14.2055 18.3941 14.0344 17.9376 14.0344C17.4697 14.0344 17.173 14.2962 17.173 14.6385C17.173 15.0613 17.4697 15.2326 18.1544 15.4944L18.5537 15.6454C19.9117 16.159 20.6763 16.6825 20.6763 17.8605C20.6763 19.1293 19.5466 19.824 18.0288 19.824C16.5454 19.824 15.5868 19.1997 15.119 18.3841" fill="black"/>
<path d="M36.1741 19.16C35.3207 19.16 34.5261 19 33.7901 18.68C33.0541 18.3493 32.4567 17.8907 31.9981 17.304C31.8594 17.1227 31.7901 16.936 31.7901 16.744C31.7901 16.488 31.9127 16.2533 32.1581 16.04C32.3287 15.9013 32.5261 15.832 32.7501 15.832C33.0701 15.832 33.3527 15.992 33.5981 16.312C33.8647 16.6747 34.2221 16.9573 34.6701 17.16C35.1287 17.3627 35.6301 17.464 36.1741 17.464C36.8247 17.464 37.3047 17.2827 37.6141 16.92C37.9234 16.5573 38.0781 16.0027 38.0781 15.256V8.6C38.0781 8.30133 38.1741 8.06667 38.3661 7.896C38.5581 7.72533 38.8141 7.64 39.1341 7.64C39.4541 7.64 39.7101 7.73067 39.9021 7.912C40.1047 8.08267 40.2061 8.312 40.2061 8.6V15.192C40.2061 15.992 40.0407 16.6907 39.7101 17.288C39.3794 17.8853 38.9101 18.3493 38.3021 18.68C37.6941 19 36.9847 19.16 36.1741 19.16ZM46.0707 19.16C45.4094 19.16 44.8227 19.048 44.3107 18.824C43.8094 18.6 43.4147 18.2907 43.1267 17.896C42.8494 17.4907 42.7107 17.0267 42.7107 16.504C42.7107 15.7147 43.036 15.0853 43.6867 14.616C44.348 14.1467 45.2387 13.912 46.3587 13.912C47.3294 13.912 48.108 14.12 48.6947 14.536V14.152C48.6947 13.6507 48.54 13.2667 48.2307 13C47.9214 12.7333 47.4734 12.6 46.8867 12.6C46.012 12.6 45.26 12.7867 44.6307 13.16C44.364 13.3093 44.1347 13.384 43.9427 13.384C43.708 13.384 43.5 13.2773 43.3187 13.064C43.2014 12.9147 43.1427 12.76 43.1427 12.6C43.1427 12.3333 43.2814 12.0987 43.5587 11.896C43.9427 11.6187 44.428 11.4 45.0147 11.24C45.6014 11.08 46.22 11 46.8707 11C48.108 11 49.0787 11.2827 49.7827 11.848C50.4974 12.4027 50.8547 13.1707 50.8547 14.152V18.264C50.8547 18.5413 50.7587 18.76 50.5667 18.92C50.3854 19.08 50.1347 19.16 49.8147 19.16C49.484 19.16 49.228 19.0853 49.0467 18.936C48.8654 18.7867 48.7747 18.5733 48.7747 18.296V18.12C48.1667 18.8133 47.2654 19.16 46.0707 19.16ZM46.5667 17.688C47.2387 17.688 47.7614 17.5867 48.1347 17.384C48.5187 17.1707 48.7107 16.8773 48.7107 16.504C48.7107 16.152 48.5187 15.8693 48.1347 15.656C47.7507 15.4427 47.2387 15.336 46.5987 15.336C46.0227 15.336 45.5747 15.4373 45.2547 15.64C44.9454 15.8427 44.7907 16.1307 44.7907 16.504C44.7907 16.8773 44.9454 17.1707 45.2547 17.384C45.564 17.5867 46.0014 17.688 46.5667 17.688ZM57.1834 19.16C55.9141 19.16 55.0341 18.4507 54.5434 17.032L52.8474 12.168C52.8154 12.072 52.7994 11.9813 52.7994 11.896C52.7994 11.6507 52.9061 11.4427 53.1194 11.272C53.3434 11.1013 53.6314 11.016 53.9834 11.016C54.1968 11.016 54.3781 11.064 54.5274 11.16C54.6768 11.256 54.7834 11.3893 54.8474 11.56L56.6394 16.76C56.7248 17.0267 56.8101 17.2187 56.8954 17.336C56.9808 17.4427 57.0768 17.496 57.1834 17.496C57.2901 17.496 57.3861 17.4427 57.4714 17.336C57.5568 17.2187 57.6421 17.0267 57.7274 16.76L59.5194 11.56C59.5834 11.3893 59.6901 11.256 59.8394 11.16C59.9888 11.064 60.1701 11.016 60.3834 11.016C60.7461 11.016 61.0341 11.1013 61.2474 11.272C61.4608 11.432 61.5674 11.64 61.5674 11.896C61.5674 11.9813 61.5514 12.072 61.5194 12.168L59.8234 17.032C59.3328 18.4507 58.4528 19.16 57.1834 19.16ZM66.4826 19.16C65.8212 19.16 65.2346 19.048 64.7226 18.824C64.2212 18.6 63.8266 18.2907 63.5386 17.896C63.2612 17.4907 63.1226 17.0267 63.1226 16.504C63.1226 15.7147 63.4479 15.0853 64.0986 14.616C64.7599 14.1467 65.6506 13.912 66.7706 13.912C67.7412 13.912 68.5199 14.12 69.1066 14.536V14.152C69.1066 13.6507 68.9519 13.2667 68.6426 13C68.3332 12.7333 67.8852 12.6 67.2986 12.6C66.4239 12.6 65.6719 12.7867 65.0426 13.16C64.7759 13.3093 64.5466 13.384 64.3546 13.384C64.1199 13.384 63.9119 13.2773 63.7306 13.064C63.6132 12.9147 63.5546 12.76 63.5546 12.6C63.5546 12.3333 63.6932 12.0987 63.9706 11.896C64.3546 11.6187 64.8399 11.4 65.4266 11.24C66.0132 11.08 66.6319 11 67.2826 11C68.5199 11 69.4906 11.2827 70.1946 11.848C70.9092 12.4027 71.2666 13.1707 71.2666 14.152V18.264C71.2666 18.5413 71.1706 18.76 70.9786 18.92C70.7972 19.08 70.5466 19.16 70.2266 19.16C69.8959 19.16 69.6399 19.0853 69.4586 18.936C69.2772 18.7867 69.1866 18.5733 69.1866 18.296V18.12C68.5786 18.8133 67.6772 19.16 66.4826 19.16ZM66.9786 17.688C67.6506 17.688 68.1732 17.5867 68.5466 17.384C68.9306 17.1707 69.1226 16.8773 69.1226 16.504C69.1226 16.152 68.9306 15.8693 68.5466 15.656C68.1626 15.4427 67.6506 15.336 67.0106 15.336C66.4346 15.336 65.9866 15.4373 65.6666 15.64C65.3572 15.8427 65.2026 16.1307 65.2026 16.504C65.2026 16.8773 65.3572 17.1707 65.6666 17.384C65.9759 17.5867 66.4132 17.688 66.9786 17.688ZM79.3456 19.16C78.3002 19.16 77.3189 18.9893 76.4016 18.648C75.4842 18.296 74.6896 17.7947 74.0176 17.144C73.8576 16.984 73.7776 16.8027 73.7776 16.6C73.7776 16.3653 73.8842 16.1413 74.0976 15.928C74.2682 15.7573 74.4549 15.672 74.6576 15.672C74.8709 15.672 75.1269 15.7947 75.4256 16.04C75.9269 16.4987 76.5189 16.856 77.2016 17.112C77.8949 17.3573 78.6096 17.48 79.3456 17.48C80.0496 17.48 80.5989 17.3627 80.9936 17.128C81.3882 16.8827 81.5856 16.5413 81.5856 16.104C81.5856 15.6453 81.3722 15.2773 80.9456 15C80.5189 14.712 79.7936 14.456 78.7696 14.232C77.1589 13.88 75.9856 13.416 75.2496 12.84C74.5242 12.264 74.1616 11.5227 74.1616 10.616C74.1616 10.04 74.3536 9.528 74.7376 9.08C75.1216 8.62133 75.6549 8.26933 76.3376 8.024C77.0309 7.768 77.8202 7.64 78.7056 7.64C79.6976 7.64 80.5776 7.80533 81.3456 8.136C82.1242 8.456 82.7162 8.90933 83.1216 9.496C83.2602 9.72 83.3296 9.912 83.3296 10.072C83.3189 10.3387 83.1856 10.568 82.9296 10.76C82.7909 10.856 82.6309 10.904 82.4496 10.904C82.1189 10.904 81.8469 10.776 81.6336 10.52C81.3242 10.1467 80.9082 9.85333 80.3856 9.64C79.8736 9.42667 79.3136 9.32 78.7056 9.32C77.9482 9.32 77.3562 9.43733 76.9296 9.672C76.5136 9.896 76.3056 10.2107 76.3056 10.616C76.3056 11.0213 76.5082 11.3573 76.9136 11.624C77.3296 11.88 78.0442 12.1253 79.0576 12.36C80.1776 12.6267 81.0789 12.9307 81.7616 13.272C82.4442 13.6027 82.9402 13.9973 83.2496 14.456C83.5696 14.9147 83.7296 15.464 83.7296 16.104C83.7296 16.712 83.5482 17.2507 83.1856 17.72C82.8229 18.1787 82.3109 18.536 81.6496 18.792C80.9882 19.0373 80.2202 19.16 79.3456 19.16ZM90.6714 19.16C89.2421 19.16 88.1328 18.8027 87.3434 18.088C86.5541 17.3627 86.1594 16.3547 86.1594 15.064C86.1594 13.7733 86.5541 12.776 87.3434 12.072C88.1328 11.3573 89.2421 11 90.6714 11C91.4288 11 92.1114 11.128 92.7194 11.384C93.3381 11.6293 93.8234 11.9813 94.1754 12.44C94.3034 12.6 94.3674 12.7707 94.3674 12.952C94.3674 13.2293 94.2234 13.4747 93.9354 13.688C93.8074 13.784 93.6474 13.832 93.4554 13.832C93.3061 13.832 93.1514 13.8 92.9914 13.736C92.8314 13.6613 92.6928 13.56 92.5754 13.432C92.3621 13.1867 92.0848 13 91.7434 12.872C91.4128 12.7333 91.0554 12.664 90.6714 12.664C89.9141 12.664 89.3221 12.8773 88.8954 13.304C88.4794 13.72 88.2714 14.3067 88.2714 15.064C88.2714 15.8427 88.4794 16.4453 88.8954 16.872C89.3221 17.288 89.9141 17.496 90.6714 17.496C91.5141 17.496 92.2341 17.2133 92.8314 16.648C93.1301 16.3493 93.4234 16.2 93.7114 16.2C93.9034 16.2 94.0794 16.264 94.2394 16.392C94.4954 16.5947 94.6234 16.84 94.6234 17.128C94.6234 17.3093 94.5488 17.4853 94.3994 17.656C93.9088 18.1787 93.3594 18.5627 92.7514 18.808C92.1541 19.0427 91.4608 19.16 90.6714 19.16ZM98.0888 19.16C97.7581 19.16 97.5021 19.0747 97.3208 18.904C97.1395 18.7333 97.0488 18.4987 97.0488 18.2V11.96C97.0488 11.6507 97.1341 11.416 97.3048 11.256C97.4861 11.0853 97.7368 11 98.0568 11C98.3768 11 98.6275 11.0853 98.8088 11.256C98.9901 11.4267 99.0808 11.6613 99.0808 11.96V12.488C99.4115 12.0613 99.7955 11.736 100.233 11.512C100.681 11.2773 101.161 11.16 101.673 11.16H102.025C102.366 11.16 102.627 11.2347 102.809 11.384C103.001 11.5227 103.097 11.7253 103.097 11.992C103.097 12.2587 103.001 12.4667 102.809 12.616C102.627 12.7547 102.366 12.824 102.025 12.824H101.481C100.766 12.824 100.195 13.0533 99.7688 13.512C99.3528 13.96 99.1448 14.5787 99.1448 15.368V18.2C99.1448 18.4987 99.0488 18.7333 98.8568 18.904C98.6648 19.0747 98.4088 19.16 98.0888 19.16ZM106.121 10.008C105.727 10.008 105.407 9.90133 105.161 9.688C104.927 9.464 104.809 9.176 104.809 8.824C104.809 8.472 104.927 8.18933 105.161 7.976C105.407 7.752 105.727 7.64 106.121 7.64C106.516 7.64 106.836 7.752 107.081 7.976C107.337 8.18933 107.465 8.472 107.465 8.824C107.465 9.176 107.337 9.464 107.081 9.688C106.836 9.90133 106.516 10.008 106.121 10.008ZM106.137 19.16C105.807 19.16 105.551 19.0747 105.369 18.904C105.188 18.7333 105.097 18.4987 105.097 18.2V11.96C105.097 11.6613 105.188 11.4267 105.369 11.256C105.551 11.0853 105.807 11 106.137 11C106.457 11 106.713 11.0853 106.905 11.256C107.097 11.4267 107.193 11.6613 107.193 11.96V18.2C107.193 18.4987 107.097 18.7333 106.905 18.904C106.713 19.0747 106.457 19.16 106.137 19.16ZM111.094 23.784C110.764 23.784 110.508 23.6987 110.326 23.528C110.145 23.3573 110.054 23.1227 110.054 22.824V11.96C110.054 11.6613 110.145 11.4267 110.326 11.256C110.508 11.0853 110.764 11 111.094 11C111.414 11 111.67 11.0853 111.862 11.256C112.054 11.4267 112.15 11.6613 112.15 11.96V12.28C112.609 11.832 113.084 11.5067 113.574 11.304C114.076 11.1013 114.641 11 115.27 11C116.102 11 116.828 11.1653 117.446 11.496C118.076 11.8267 118.556 12.3013 118.886 12.92C119.228 13.528 119.398 14.248 119.398 15.08C119.398 15.9013 119.228 16.6213 118.886 17.24C118.545 17.8587 118.06 18.3333 117.43 18.664C116.801 18.9947 116.06 19.16 115.206 19.16C114.566 19.16 114.006 19.064 113.526 18.872C113.046 18.6693 112.593 18.3493 112.166 17.912L112.15 22.824C112.15 23.1227 112.054 23.3573 111.862 23.528C111.67 23.6987 111.414 23.784 111.094 23.784ZM114.774 17.496C115.564 17.496 116.177 17.288 116.614 16.872C117.062 16.4453 117.286 15.848 117.286 15.08C117.286 14.312 117.062 13.72 116.614 13.304C116.177 12.8773 115.564 12.664 114.774 12.664C113.953 12.664 113.308 12.8827 112.838 13.32C112.38 13.7467 112.15 14.3333 112.15 15.08C112.15 15.8267 112.38 16.4187 112.838 16.856C113.308 17.2827 113.953 17.496 114.774 17.496ZM127.952 16.936C128.123 17.0747 128.208 17.2453 128.208 17.448C128.208 17.6507 128.134 17.8587 127.984 18.072C127.75 18.4133 127.419 18.68 126.992 18.872C126.566 19.064 126.086 19.16 125.552 19.16C124.699 19.16 124.027 18.9307 123.536 18.472C123.056 18.0027 122.816 17.3627 122.816 16.552V12.808H122.16C121.84 12.808 121.584 12.7333 121.392 12.584C121.2 12.4347 121.104 12.2373 121.104 11.992C121.104 11.736 121.195 11.5333 121.376 11.384C121.568 11.2347 121.83 11.16 122.16 11.16H122.816V8.744C122.816 8.44533 122.912 8.21067 123.104 8.04C123.296 7.86933 123.552 7.784 123.872 7.784C124.203 7.784 124.459 7.86933 124.64 8.04C124.822 8.21067 124.912 8.44533 124.912 8.744V11.16H126.448C126.779 11.16 127.035 11.2347 127.216 11.384C127.408 11.5333 127.504 11.736 127.504 11.992C127.504 12.2373 127.408 12.4347 127.216 12.584C127.035 12.7333 126.779 12.808 126.448 12.808H124.912V16.728C124.912 16.9627 124.982 17.1493 125.12 17.288C125.27 17.4267 125.467 17.496 125.712 17.496C125.904 17.496 126.07 17.4693 126.208 17.416C126.358 17.352 126.507 17.2507 126.656 17.112C126.934 16.8453 127.19 16.712 127.424 16.712C127.595 16.712 127.771 16.7867 127.952 16.936Z" fill="white"/>
<defs>
<filter id="filter0_i_1_712" x="21" y="2" width="112" height="27" filterUnits="userSpaceOnUse" color-interpolation-filters="sRGB">
<feFlood flood-opacity="0" result="BackgroundImageFix"/>
<feBlend mode="normal" in="SourceGraphic" in2="BackgroundImageFix" result="shape"/>
<feColorMatrix in="SourceAlpha" type="matrix" values="0 0 0 0 0 0 0 0 0 0 0 0 0 0 0 0 0 0 127 0" result="hardAlpha"/>
<feOffset dy="4"/>
<feGaussianBlur stdDeviation="2"/>
<feComposite in2="hardAlpha" operator="arithmetic" k2="-1" k3="1"/>
<feColorMatrix type="matrix" values="0 0 0 0 0 0 0 0 0 0 0 0 0 0 0 0 0 0 0.25 0"/>
<feBlend mode="normal" in2="shape" result="effect1_innerShadow_1_712"/>
</filter>
<filter id="filter1_i_1_712" x="2" y="2" width="23" height="27" filterUnits="userSpaceOnUse" color-interpolation-filters="sRGB">
<feFlood flood-opacity="0" result="BackgroundImageFix"/>
<feBlend mode="normal" in="SourceGraphic" in2="BackgroundImageFix" result="shape"/>
<feColorMatrix in="SourceAlpha" type="matrix" values="0 0 0 0 0 0 0 0 0 0 0 0 0 0 0 0 0 0 127 0" result="hardAlpha"/>
<feOffset dy="4"/>
<feGaussianBlur stdDeviation="2"/>
<feComposite in2="hardAlpha" operator="arithmetic" k2="-1" k3="1"/>
<feColorMatrix type="matrix" values="0 0 0 0 0 0 0 0 0 0 0 0 0 0 0 0 0 0 0.25 0"/>
<feBlend mode="normal" in2="shape" result="effect1_innerShadow_1_712"/>
</filter>
<linearGradient id="paint0_linear_1_712" x1="13.5" y1="0" x2="13.5" y2="27" gradientUnits="userSpaceOnUse">
<stop stop-color="#647696"/>
<stop offset="1" stop-color="#333E55"/>
</linearGradient>
<radialGradient id="paint1_radial_1_712" cx="0" cy="0" r="1" gradientUnits="userSpaceOnUse" gradientTransform="translate(13.5 13.5) rotate(90) scale(11.5)">
<stop stop-color="#101725"/>
<stop offset="1" stop-color="#253A61"/>
</radialGradient>
</defs>
</svg>
