<svg width="115" height="27" viewBox="0 0 115 27" fill="none" xmlns="http://www.w3.org/2000/svg">
<rect x="21" width="94" height="27" rx="4" fill="#424D61"/>
<g filter="url(#filter0_i_3_178)">
<rect x="21" y="2" width="92" height="23" rx="4" fill="#212B3E"/>
</g>
<rect width="27" height="27" rx="4" fill="url(#paint0_linear_3_178)"/>
<g filter="url(#filter1_i_3_178)">
<rect x="2" y="2" width="23" height="23" rx="4" fill="url(#paint1_radial_3_178)"/>
</g>
<path d="M10.475 17.0536C10.475 17.0536 9.59422 17.3425 11.1019 17.4403C12.9285 17.5578 13.862 17.541 15.8749 17.3261C15.8749 17.3261 16.4041 17.5132 17.1431 17.6753C12.6308 18.766 6.93082 17.6121 10.475 17.0536M9.92364 15.6303C9.92364 15.6303 8.93571 16.0428 10.4445 16.1308C12.3957 16.2443 13.9366 16.2536 16.6029 15.9641C16.6029 15.9641 16.9717 16.1749 17.5516 16.2902C12.0959 17.19 6.0193 16.3612 9.92364 15.6303" fill="#5382A1"/>
<path d="M14.572 13.216C15.6838 13.9379 14.2799 14.5876 14.2799 14.5876C14.2799 14.5876 17.103 13.7656 15.8064 12.7364C14.5955 11.7765 13.6669 11.2996 18.6941 9.65525C18.6941 9.65525 10.8031 10.7667 14.572 13.216" fill="#E76F00"/>
<path d="M20.5399 18.1064C20.5399 18.1064 21.1917 18.4093 19.822 18.6436C17.2174 19.0886 8.9815 19.223 6.69357 18.6614C5.87115 18.4596 7.41348 18.1796 7.8986 18.1208C8.40455 18.0589 8.69373 18.0704 8.69373 18.0704C7.77907 17.707 2.78182 18.784 6.15539 19.0924C15.3555 19.9338 22.9263 18.7135 20.5399 18.1064ZM10.8986 14.1557C10.8986 14.1557 6.70932 14.7169 9.4151 14.9206C10.5575 15.0069 12.835 14.9874 14.9564 14.8871C16.6901 14.8047 18.431 14.6293 18.431 14.6293C18.431 14.6293 17.8197 14.7769 17.3774 14.9473C13.1232 15.5783 4.90491 15.2847 7.27086 14.6393C9.27175 14.0938 10.8986 14.1557 10.8986 14.1557M18.4137 16.5248C22.7384 15.2574 20.7388 14.0394 19.3432 14.2035C19.0011 14.2437 18.8486 14.2784 18.8486 14.2784C18.8486 14.2784 18.9756 14.1663 19.2181 14.1177C21.9791 13.5703 24.1025 15.7324 18.3268 16.5887C18.3268 16.5887 18.3938 16.555 18.4137 16.5248Z" fill="#5382A1"/>
<path d="M15.8065 7.00004C15.8065 7.00004 18.2015 8.3513 13.5349 10.429C9.79278 12.0958 12.6816 13.0461 13.5333 14.1319C11.349 13.0204 9.74593 12.0419 10.8214 11.1313C12.3999 9.79444 16.7728 9.14632 15.8065 7" fill="#E76F00"/>
<path d="M11.3236 19.9591C15.4746 20.109 21.849 19.876 22 18.7682C22 18.7682 21.7098 19.1882 18.5694 19.5217C15.0263 19.8977 10.6566 19.8538 8.06477 19.6128C8.06484 19.6128 8.59534 19.8605 11.3236 19.9591" fill="#5382A1"/>
<path d="M50.9462 19.16C50.0929 19.16 49.2982 19 48.5622 18.68C47.8262 18.3493 47.2289 17.8907 46.7702 17.304C46.6316 17.1227 46.5622 16.936 46.5622 16.744C46.5622 16.488 46.6849 16.2533 46.9302 16.04C47.1009 15.9013 47.2982 15.832 47.5222 15.832C47.8422 15.832 48.1249 15.992 48.3702 16.312C48.6369 16.6747 48.9942 16.9573 49.4423 17.16C49.9009 17.3627 50.4022 17.464 50.9462 17.464C51.5969 17.464 52.0769 17.2827 52.3863 16.92C52.6956 16.5573 52.8503 16.0027 52.8503 15.256V8.6C52.8503 8.30133 52.9463 8.06667 53.1382 7.896C53.3302 7.72533 53.5862 7.64 53.9062 7.64C54.2263 7.64 54.4823 7.73067 54.6743 7.912C54.8769 8.08267 54.9783 8.312 54.9783 8.6V15.192C54.9783 15.992 54.8129 16.6907 54.4823 17.288C54.1516 17.8853 53.6823 18.3493 53.0743 18.68C52.4663 19 51.7569 19.16 50.9462 19.16ZM63.5629 19.16C62.9015 19.16 62.3149 19.048 61.8029 18.824C61.3015 18.6 60.9069 18.2907 60.6189 17.896C60.3415 17.4907 60.2029 17.0267 60.2029 16.504C60.2029 15.7147 60.5282 15.0853 61.1789 14.616C61.8402 14.1467 62.7309 13.912 63.8509 13.912C64.8215 13.912 65.6002 14.12 66.1869 14.536V14.152C66.1869 13.6507 66.0322 13.2667 65.7229 13C65.4135 12.7333 64.9655 12.6 64.3789 12.6C63.5042 12.6 62.7522 12.7867 62.1229 13.16C61.8562 13.3093 61.6269 13.384 61.4349 13.384C61.2002 13.384 60.9922 13.2773 60.8109 13.064C60.6935 12.9147 60.6349 12.76 60.6349 12.6C60.6349 12.3333 60.7735 12.0987 61.0509 11.896C61.4349 11.6187 61.9202 11.4 62.5069 11.24C63.0935 11.08 63.7122 11 64.3629 11C65.6002 11 66.5709 11.2827 67.2749 11.848C67.9895 12.4027 68.3469 13.1707 68.3469 14.152V18.264C68.3469 18.5413 68.2509 18.76 68.0589 18.92C67.8775 19.08 67.6269 19.16 67.3069 19.16C66.9762 19.16 66.7202 19.0853 66.5389 18.936C66.3575 18.7867 66.2669 18.5733 66.2669 18.296V18.12C65.6589 18.8133 64.7575 19.16 63.5629 19.16ZM64.0589 17.688C64.7309 17.688 65.2535 17.5867 65.6269 17.384C66.0109 17.1707 66.2029 16.8773 66.2029 16.504C66.2029 16.152 66.0109 15.8693 65.6269 15.656C65.2429 15.4427 64.7309 15.336 64.0909 15.336C63.5149 15.336 63.0669 15.4373 62.7469 15.64C62.4375 15.8427 62.2829 16.1307 62.2829 16.504C62.2829 16.8773 62.4375 17.1707 62.7469 17.384C63.0562 17.5867 63.4935 17.688 64.0589 17.688ZM77.3956 19.16C76.1263 19.16 75.2463 18.4507 74.7556 17.032L73.0596 12.168C73.0276 12.072 73.0116 11.9813 73.0116 11.896C73.0116 11.6507 73.1183 11.4427 73.3316 11.272C73.5556 11.1013 73.8436 11.016 74.1956 11.016C74.409 11.016 74.5903 11.064 74.7396 11.16C74.889 11.256 74.9956 11.3893 75.0596 11.56L76.8516 16.76C76.937 17.0267 77.0223 17.2187 77.1076 17.336C77.193 17.4427 77.289 17.496 77.3956 17.496C77.5023 17.496 77.5983 17.4427 77.6836 17.336C77.769 17.2187 77.8543 17.0267 77.9396 16.76L79.7316 11.56C79.7956 11.3893 79.9023 11.256 80.0516 11.16C80.201 11.064 80.3823 11.016 80.5956 11.016C80.9583 11.016 81.2463 11.1013 81.4596 11.272C81.673 11.432 81.7796 11.64 81.7796 11.896C81.7796 11.9813 81.7636 12.072 81.7316 12.168L80.0356 17.032C79.545 18.4507 78.665 19.16 77.3956 19.16ZM89.4148 19.16C88.7534 19.16 88.1668 19.048 87.6548 18.824C87.1534 18.6 86.7588 18.2907 86.4708 17.896C86.1934 17.4907 86.0548 17.0267 86.0548 16.504C86.0548 15.7147 86.3801 15.0853 87.0308 14.616C87.6921 14.1467 88.5828 13.912 89.7028 13.912C90.6734 13.912 91.4521 14.12 92.0388 14.536V14.152C92.0388 13.6507 91.8841 13.2667 91.5748 13C91.2654 12.7333 90.8174 12.6 90.2308 12.6C89.3561 12.6 88.6041 12.7867 87.9748 13.16C87.7081 13.3093 87.4788 13.384 87.2868 13.384C87.0521 13.384 86.8441 13.2773 86.6628 13.064C86.5454 12.9147 86.4868 12.76 86.4868 12.6C86.4868 12.3333 86.6254 12.0987 86.9028 11.896C87.2868 11.6187 87.7721 11.4 88.3588 11.24C88.9454 11.08 89.5641 11 90.2148 11C91.4521 11 92.4228 11.2827 93.1268 11.848C93.8414 12.4027 94.1988 13.1707 94.1988 14.152V18.264C94.1988 18.5413 94.1028 18.76 93.9108 18.92C93.7294 19.08 93.4788 19.16 93.1588 19.16C92.8281 19.16 92.5721 19.0853 92.3908 18.936C92.2094 18.7867 92.1188 18.5733 92.1188 18.296V18.12C91.5108 18.8133 90.6094 19.16 89.4148 19.16ZM89.9108 17.688C90.5828 17.688 91.1054 17.5867 91.4788 17.384C91.8628 17.1707 92.0548 16.8773 92.0548 16.504C92.0548 16.152 91.8628 15.8693 91.4788 15.656C91.0948 15.4427 90.5828 15.336 89.9428 15.336C89.3668 15.336 88.9188 15.4373 88.5988 15.64C88.2894 15.8427 88.1348 16.1307 88.1348 16.504C88.1348 16.8773 88.2894 17.1707 88.5988 17.384C88.9081 17.5867 89.3454 17.688 89.9108 17.688Z" fill="white"/>
<defs>
<filter id="filter0_i_3_178" x="21" y="2" width="92" height="27" filterUnits="userSpaceOnUse" color-interpolation-filters="sRGB">
<feFlood flood-opacity="0" result="BackgroundImageFix"/>
<feBlend mode="normal" in="SourceGraphic" in2="BackgroundImageFix" result="shape"/>
<feColorMatrix in="SourceAlpha" type="matrix" values="0 0 0 0 0 0 0 0 0 0 0 0 0 0 0 0 0 0 127 0" result="hardAlpha"/>
<feOffset dy="4"/>
<feGaussianBlur stdDeviation="2"/>
<feComposite in2="hardAlpha" operator="arithmetic" k2="-1" k3="1"/>
<feColorMatrix type="matrix" values="0 0 0 0 0 0 0 0 0 0 0 0 0 0 0 0 0 0 0.25 0"/>
<feBlend mode="normal" in2="shape" result="effect1_innerShadow_3_178"/>
</filter>
<filter id="filter1_i_3_178" x="2" y="2" width="23" height="27" filterUnits="userSpaceOnUse" color-interpolation-filters="sRGB">
<feFlood flood-opacity="0" result="BackgroundImageFix"/>
<feBlend mode="normal" in="SourceGraphic" in2="BackgroundImageFix" result="shape"/>
<feColorMatrix in="SourceAlpha" type="matrix" values="0 0 0 0 0 0 0 0 0 0 0 0 0 0 0 0 0 0 127 0" result="hardAlpha"/>
<feOffset dy="4"/>
<feGaussianBlur stdDeviation="2"/>
<feComposite in2="hardAlpha" operator="arithmetic" k2="-1" k3="1"/>
<feColorMatrix type="matrix" values="0 0 0 0 0 0 0 0 0 0 0 0 0 0 0 0 0 0 0.25 0"/>
<feBlend mode="normal" in2="shape" result="effect1_innerShadow_3_178"/>
</filter>
<linearGradient id="paint0_linear_3_178" x1="13.5" y1="0" x2="13.5" y2="27" gradientUnits="userSpaceOnUse">
<stop stop-color="#647696"/>
<stop offset="1" stop-color="#333E55"/>
</linearGradient>
<radialGradient id="paint1_radial_3_178" cx="0" cy="0" r="1" gradientUnits="userSpaceOnUse" gradientTransform="translate(13.5 13.5) rotate(90) scale(11.5)">
<stop stop-color="#101725"/>
<stop offset="1" stop-color="#253A61"/>
</radialGradient>
</defs>
</svg>
