<svg width="115" height="27" viewBox="0 0 115 27" fill="none" xmlns="http://www.w3.org/2000/svg">
<rect x="21" width="94" height="27" rx="4" fill="#424D61"/>
<g filter="url(#filter0_i_3_93)">
<rect x="21" y="2" width="92" height="23" rx="4" fill="#212B3E"/>
</g>
<rect width="27" height="27" rx="4" fill="url(#paint0_linear_3_93)"/>
<g filter="url(#filter1_i_3_93)">
<rect x="2" y="2" width="23" height="23" rx="4" fill="url(#paint1_radial_3_93)"/>
</g>
<path d="M21.9904 9.94095C21.9967 9.95827 22 9.97612 22 9.99408V12.7845C22 12.8574 21.9475 12.9247 21.8623 12.961L18.7096 14.3095V16.9821C18.7096 17.0178 18.6969 17.053 18.6729 17.0839C18.6489 17.1149 18.6143 17.1407 18.5726 17.1586L11.9912 19.9729C11.9762 19.9792 11.9598 19.9833 11.9433 19.9877C11.9371 19.9892 11.9314 19.992 11.9248 19.9932C11.8788 20.0023 11.8305 20.0023 11.7845 19.9932C11.7769 19.9918 11.7701 19.9887 11.7629 19.9866C11.7478 19.9825 11.7321 19.979 11.7177 19.9729L5.13766 17.1586C5.09585 17.1407 5.0611 17.115 5.03693 17.084C5.01276 17.053 5.00002 17.0179 5 16.9821V8.61087C5 8.59252 5.00345 8.57471 5.00956 8.55744C5.01162 8.55157 5.0164 8.54625 5.01919 8.54038C5.0243 8.52972 5.02915 8.51877 5.03666 8.50886C5.04177 8.50225 5.04927 8.49692 5.05545 8.4908C5.06335 8.48266 5.07052 8.47428 5.07975 8.46712C5.08766 8.4613 5.09795 8.45696 5.10685 8.45188C5.11681 8.44577 5.12564 8.43916 5.13693 8.43432H5.13726L8.42743 7.02718C8.46909 7.00937 8.51632 7 8.56439 7C8.61246 7 8.65969 7.00937 8.70135 7.02718L11.9915 8.43432H11.9922C12.0031 8.43945 12.0124 8.44577 12.0223 8.45164C12.0312 8.45672 12.0412 8.4613 12.049 8.46693C12.0587 8.47428 12.0655 8.48271 12.0737 8.4908C12.0795 8.49692 12.0874 8.50225 12.0922 8.50886C12.1 8.51902 12.1045 8.52972 12.11 8.54043C12.1127 8.54625 12.1175 8.55157 12.1195 8.55769C12.1259 8.57501 12.1291 8.59291 12.1292 8.61087V13.8394L14.8708 12.6667V9.99383C14.8708 9.97607 14.8743 9.95797 14.8805 9.94095C14.8828 9.93484 14.8873 9.92951 14.89 9.92369C14.8955 9.91298 14.9003 9.90198 14.9078 9.89212C14.9129 9.88551 14.9204 9.88018 14.9263 9.87406C14.9345 9.86592 14.9413 9.85754 14.9509 9.85039C14.9589 9.84456 14.9688 9.84022 14.9777 9.83514C14.988 9.82903 14.9969 9.82242 15.0078 9.81758H15.0082L18.2986 8.41045C18.3403 8.39261 18.3875 8.38322 18.4356 8.38322C18.4837 8.38322 18.5309 8.39261 18.5726 8.41045L21.8627 9.81758C21.8744 9.82266 21.8833 9.82903 21.8936 9.83485C21.9021 9.83998 21.912 9.84456 21.9199 9.85014C21.9295 9.85754 21.9363 9.86592 21.9445 9.87406C21.9507 9.88018 21.9582 9.88551 21.9631 9.89212C21.9709 9.90198 21.9754 9.91298 21.9808 9.92369C21.9839 9.92951 21.9884 9.93484 21.9904 9.94095V9.94095ZM21.4516 12.6667V10.3463L20.3001 10.8387L18.7095 11.519V13.8394L21.4519 12.6667H21.4516V12.6667ZM18.1614 16.8643V14.5423L16.5967 15.2061L12.1288 17.1003V19.4441L18.1614 16.8642V16.8643ZM5.54845 8.96307V16.8643L11.5803 19.4439V17.1005L8.42922 15.7758L8.42822 15.7753L8.42689 15.7748C8.41627 15.7702 8.4073 15.7636 8.39741 15.758C8.38878 15.7529 8.37888 15.7489 8.37138 15.7432L8.37071 15.7425C8.36182 15.7361 8.35564 15.7282 8.34814 15.7211C8.34123 15.7142 8.33306 15.7084 8.32755 15.7013L8.32722 15.7005C8.32104 15.6929 8.31726 15.6837 8.31281 15.6751C8.30836 15.6675 8.30258 15.6603 8.29979 15.6522V15.652C8.29641 15.6423 8.29574 15.6321 8.29435 15.6222C8.29302 15.6146 8.29023 15.6069 8.29023 15.5993V10.1358L6.69987 9.45517L5.54845 8.96337V8.96307ZM8.56475 7.43868L5.82337 8.61087L8.56409 9.783L11.3051 8.61057L8.56409 7.43868H8.56475ZM9.99036 14.754L11.5807 14.0739V8.96307L10.4294 9.45546L8.83861 10.1357V15.2465L9.99036 14.754V14.754ZM18.4356 8.82194L15.6946 9.99408L18.4356 11.1663L21.1762 9.99383L18.4356 8.82194H18.4356ZM18.1613 11.519L16.5707 10.8387L15.4193 10.3463V12.6667L17.0096 13.3468L18.1614 13.8394V11.519H18.1613ZM11.8543 16.7481L15.8747 15.0431L17.8844 14.1911L15.1454 13.0197L11.9918 14.3684L9.11765 15.5975L11.8543 16.7481Z" fill="#FF2D20"/>
<path d="M37.5216 19C36.711 19 36.0816 18.7867 35.6336 18.36C35.1856 17.9333 34.9616 17.336 34.9616 16.568V8.6C34.9616 8.30133 35.0576 8.06667 35.2496 7.896C35.4416 7.72533 35.6976 7.64 36.0176 7.64C36.3376 7.64 36.5936 7.73067 36.7856 7.912C36.9883 8.08267 37.0896 8.312 37.0896 8.6V16.568C37.0896 16.8133 37.1483 17.0053 37.2656 17.144C37.3936 17.2827 37.5643 17.352 37.7776 17.352H42.8976C43.2176 17.352 43.463 17.4267 43.6336 17.576C43.8043 17.7147 43.8896 17.9173 43.8896 18.184C43.8896 18.44 43.799 18.6427 43.6176 18.792C43.447 18.9307 43.207 19 42.8976 19H37.5216ZM49.9172 19.16C49.2559 19.16 48.6692 19.048 48.1572 18.824C47.6559 18.6 47.2612 18.2907 46.9732 17.896C46.6959 17.4907 46.5572 17.0267 46.5572 16.504C46.5572 15.7147 46.8826 15.0853 47.5332 14.616C48.1946 14.1467 49.0852 13.912 50.2052 13.912C51.1759 13.912 51.9546 14.12 52.5412 14.536V14.152C52.5412 13.6507 52.3866 13.2667 52.0772 13C51.7679 12.7333 51.3199 12.6 50.7332 12.6C49.8586 12.6 49.1066 12.7867 48.4772 13.16C48.2106 13.3093 47.9812 13.384 47.7892 13.384C47.5546 13.384 47.3466 13.2773 47.1652 13.064C47.0479 12.9147 46.9892 12.76 46.9892 12.6C46.9892 12.3333 47.1279 12.0987 47.4052 11.896C47.7892 11.6187 48.2746 11.4 48.8612 11.24C49.4479 11.08 50.0666 11 50.7172 11C51.9546 11 52.9252 11.2827 53.6292 11.848C54.3439 12.4027 54.7012 13.1707 54.7012 14.152V18.264C54.7012 18.5413 54.6052 18.76 54.4132 18.92C54.2319 19.08 53.9812 19.16 53.6612 19.16C53.3306 19.16 53.0746 19.0853 52.8932 18.936C52.7119 18.7867 52.6212 18.5733 52.6212 18.296V18.12C52.0132 18.8133 51.1119 19.16 49.9172 19.16ZM50.4132 17.688C51.0852 17.688 51.6079 17.5867 51.9812 17.384C52.3652 17.1707 52.5572 16.8773 52.5572 16.504C52.5572 16.152 52.3652 15.8693 51.9812 15.656C51.5972 15.4427 51.0852 15.336 50.4452 15.336C49.8692 15.336 49.4212 15.4373 49.1012 15.64C48.7919 15.8427 48.6372 16.1307 48.6372 16.504C48.6372 16.8773 48.7919 17.1707 49.1012 17.384C49.4106 17.5867 49.8479 17.688 50.4132 17.688ZM59.5322 19.16C59.2016 19.16 58.9456 19.0747 58.7642 18.904C58.5829 18.7333 58.4922 18.4987 58.4922 18.2V11.96C58.4922 11.6507 58.5776 11.416 58.7482 11.256C58.9296 11.0853 59.1802 11 59.5002 11C59.8202 11 60.0709 11.0853 60.2522 11.256C60.4336 11.4267 60.5242 11.6613 60.5242 11.96V12.488C60.8549 12.0613 61.2389 11.736 61.6762 11.512C62.1242 11.2773 62.6042 11.16 63.1162 11.16H63.4682C63.8096 11.16 64.0709 11.2347 64.2522 11.384C64.4442 11.5227 64.5402 11.7253 64.5402 11.992C64.5402 12.2587 64.4442 12.4667 64.2522 12.616C64.0709 12.7547 63.8096 12.824 63.4682 12.824H62.9242C62.2096 12.824 61.6389 13.0533 61.2122 13.512C60.7962 13.96 60.5882 14.5787 60.5882 15.368V18.2C60.5882 18.4987 60.4922 18.7333 60.3002 18.904C60.1082 19.0747 59.8522 19.16 59.5322 19.16ZM70.4204 19.16C69.759 19.16 69.1724 19.048 68.6604 18.824C68.159 18.6 67.7644 18.2907 67.4764 17.896C67.199 17.4907 67.0604 17.0267 67.0604 16.504C67.0604 15.7147 67.3857 15.0853 68.0364 14.616C68.6977 14.1467 69.5884 13.912 70.7084 13.912C71.679 13.912 72.4577 14.12 73.0444 14.536V14.152C73.0444 13.6507 72.8897 13.2667 72.5804 13C72.271 12.7333 71.823 12.6 71.2364 12.6C70.3617 12.6 69.6097 12.7867 68.9804 13.16C68.7137 13.3093 68.4844 13.384 68.2924 13.384C68.0577 13.384 67.8497 13.2773 67.6684 13.064C67.551 12.9147 67.4924 12.76 67.4924 12.6C67.4924 12.3333 67.631 12.0987 67.9084 11.896C68.2924 11.6187 68.7777 11.4 69.3644 11.24C69.951 11.08 70.5697 11 71.2204 11C72.4577 11 73.4284 11.2827 74.1324 11.848C74.847 12.4027 75.2044 13.1707 75.2044 14.152V18.264C75.2044 18.5413 75.1084 18.76 74.9164 18.92C74.735 19.08 74.4844 19.16 74.1644 19.16C73.8337 19.16 73.5777 19.0853 73.3964 18.936C73.215 18.7867 73.1244 18.5733 73.1244 18.296V18.12C72.5164 18.8133 71.615 19.16 70.4204 19.16ZM70.9164 17.688C71.5884 17.688 72.111 17.5867 72.4844 17.384C72.8684 17.1707 73.0604 16.8773 73.0604 16.504C73.0604 16.152 72.8684 15.8693 72.4844 15.656C72.1004 15.4427 71.5884 15.336 70.9484 15.336C70.3724 15.336 69.9244 15.4373 69.6044 15.64C69.295 15.8427 69.1404 16.1307 69.1404 16.504C69.1404 16.8773 69.295 17.1707 69.6044 17.384C69.9137 17.5867 70.351 17.688 70.9164 17.688ZM82.8131 19.16C81.5438 19.16 80.6638 18.4507 80.1731 17.032L78.4771 12.168C78.4451 12.072 78.4291 11.9813 78.4291 11.896C78.4291 11.6507 78.5358 11.4427 78.7491 11.272C78.9731 11.1013 79.2611 11.016 79.6131 11.016C79.8265 11.016 80.0078 11.064 80.1571 11.16C80.3065 11.256 80.4131 11.3893 80.4771 11.56L82.2691 16.76C82.3545 17.0267 82.4398 17.2187 82.5251 17.336C82.6105 17.4427 82.7065 17.496 82.8131 17.496C82.9198 17.496 83.0158 17.4427 83.1011 17.336C83.1865 17.2187 83.2718 17.0267 83.3571 16.76L85.1491 11.56C85.2131 11.3893 85.3198 11.256 85.4691 11.16C85.6185 11.064 85.7998 11.016 86.0131 11.016C86.3758 11.016 86.6638 11.1013 86.8771 11.272C87.0905 11.432 87.1971 11.64 87.1971 11.896C87.1971 11.9813 87.1811 12.072 87.1491 12.168L85.4531 17.032C84.9625 18.4507 84.0825 19.16 82.8131 19.16ZM94.5602 19.16C93.6429 19.16 92.8429 18.9947 92.1602 18.664C91.4776 18.3333 90.9496 17.8693 90.5762 17.272C90.2136 16.664 90.0322 15.9547 90.0322 15.144C90.0322 13.832 90.4109 12.8133 91.1682 12.088C91.9362 11.3627 93.0136 11 94.4002 11C95.2536 11 96.0056 11.1333 96.6562 11.4C97.3176 11.6667 97.8296 12.04 98.1922 12.52C98.5656 12.9893 98.7522 13.528 98.7522 14.136C98.7522 14.648 98.5869 15.0427 98.2562 15.32C97.9362 15.5973 97.4776 15.736 96.8802 15.736H92.0642C92.0642 16.3333 92.2722 16.7867 92.6882 17.096C93.1149 17.3947 93.7389 17.544 94.5602 17.544C95.4242 17.544 96.1602 17.352 96.7682 16.968C97.1096 16.7547 97.3762 16.648 97.5682 16.648C97.7496 16.648 97.9256 16.7333 98.0962 16.904C98.2776 17.0853 98.3682 17.2827 98.3682 17.496C98.3682 17.752 98.2616 17.9547 98.0482 18.104C97.6002 18.4453 97.0776 18.7067 96.4802 18.888C95.8829 19.0693 95.2429 19.16 94.5602 19.16ZM96.2402 14.264C96.4216 14.264 96.5496 14.232 96.6242 14.168C96.6989 14.0933 96.7362 13.976 96.7362 13.816C96.7362 13.4427 96.5229 13.1493 96.0962 12.936C95.6802 12.7227 95.1149 12.616 94.4002 12.616C93.6856 12.616 93.1202 12.7653 92.7042 13.064C92.2989 13.3627 92.0962 13.7627 92.0962 14.264H96.2402ZM103.827 19.16C103.497 19.16 103.241 19.0747 103.059 18.904C102.878 18.7333 102.787 18.4987 102.787 18.2V7.816C102.787 7.51733 102.878 7.28267 103.059 7.112C103.241 6.94133 103.497 6.856 103.827 6.856C104.147 6.856 104.403 6.94133 104.595 7.112C104.787 7.28267 104.883 7.51733 104.883 7.816V18.2C104.883 18.4987 104.787 18.7333 104.595 18.904C104.403 19.0747 104.147 19.16 103.827 19.16Z" fill="white"/>
<defs>
<filter id="filter0_i_3_93" x="21" y="2" width="92" height="27" filterUnits="userSpaceOnUse" color-interpolation-filters="sRGB">
<feFlood flood-opacity="0" result="BackgroundImageFix"/>
<feBlend mode="normal" in="SourceGraphic" in2="BackgroundImageFix" result="shape"/>
<feColorMatrix in="SourceAlpha" type="matrix" values="0 0 0 0 0 0 0 0 0 0 0 0 0 0 0 0 0 0 127 0" result="hardAlpha"/>
<feOffset dy="4"/>
<feGaussianBlur stdDeviation="2"/>
<feComposite in2="hardAlpha" operator="arithmetic" k2="-1" k3="1"/>
<feColorMatrix type="matrix" values="0 0 0 0 0 0 0 0 0 0 0 0 0 0 0 0 0 0 0.25 0"/>
<feBlend mode="normal" in2="shape" result="effect1_innerShadow_3_93"/>
</filter>
<filter id="filter1_i_3_93" x="2" y="2" width="23" height="27" filterUnits="userSpaceOnUse" color-interpolation-filters="sRGB">
<feFlood flood-opacity="0" result="BackgroundImageFix"/>
<feBlend mode="normal" in="SourceGraphic" in2="BackgroundImageFix" result="shape"/>
<feColorMatrix in="SourceAlpha" type="matrix" values="0 0 0 0 0 0 0 0 0 0 0 0 0 0 0 0 0 0 127 0" result="hardAlpha"/>
<feOffset dy="4"/>
<feGaussianBlur stdDeviation="2"/>
<feComposite in2="hardAlpha" operator="arithmetic" k2="-1" k3="1"/>
<feColorMatrix type="matrix" values="0 0 0 0 0 0 0 0 0 0 0 0 0 0 0 0 0 0 0.25 0"/>
<feBlend mode="normal" in2="shape" result="effect1_innerShadow_3_93"/>
</filter>
<linearGradient id="paint0_linear_3_93" x1="13.5" y1="0" x2="13.5" y2="27" gradientUnits="userSpaceOnUse">
<stop stop-color="#647696"/>
<stop offset="1" stop-color="#333E55"/>
</linearGradient>
<radialGradient id="paint1_radial_3_93" cx="0" cy="0" r="1" gradientUnits="userSpaceOnUse" gradientTransform="translate(13.5 13.5) rotate(90) scale(11.5)">
<stop stop-color="#101725"/>
<stop offset="1" stop-color="#253A61"/>
</radialGradient>
</defs>
</svg>
