<svg width="115" height="27" viewBox="0 0 115 27" fill="none" xmlns="http://www.w3.org/2000/svg">
<rect x="21" width="94" height="27" rx="4" fill="#424D61"/>
<g filter="url(#filter0_i_1_720)">
<rect x="21" y="2" width="92" height="23" rx="4" fill="#212B3E"/>
</g>
<rect width="27" height="27" rx="4" fill="url(#paint0_linear_1_720)"/>
<g filter="url(#filter1_i_1_720)">
<rect x="2" y="2" width="23" height="23" rx="2" fill="url(#paint1_radial_1_720)"/>
</g>
<path d="M50.9636 19.16C50.6436 19.16 50.3876 19.0747 50.1956 18.904C50.0036 18.7333 49.9076 18.4987 49.9076 18.2V10.168C49.9076 9.42133 50.1209 8.84 50.5476 8.424C50.9849 8.008 51.5876 7.8 52.3556 7.8H55.0596C56.6809 7.8 57.9129 8.136 58.7556 8.808C59.5982 9.48 60.0196 10.4667 60.0196 11.768C60.0196 13.0693 59.6089 14.056 58.7876 14.728C57.9662 15.4 56.7556 15.736 55.1556 15.736H52.0356V18.2C52.0356 18.488 51.9342 18.7227 51.7316 18.904C51.5396 19.0747 51.2836 19.16 50.9636 19.16ZM55.1396 14.088C56.9636 14.088 57.8756 13.3147 57.8756 11.768C57.8756 10.2213 56.9636 9.448 55.1396 9.448H52.7236C52.5102 9.448 52.3396 9.51733 52.2116 9.656C52.0942 9.79467 52.0356 9.98667 52.0356 10.232V14.088H55.1396ZM66.5536 19.16C66.2336 19.16 65.9776 19.0747 65.7856 18.904C65.5936 18.7333 65.4976 18.4987 65.4976 18.2V8.6C65.4976 8.30133 65.5936 8.06667 65.7856 7.896C65.9776 7.72533 66.2336 7.64 66.5536 7.64C66.8736 7.64 67.1296 7.73067 67.3216 7.912C67.5242 8.08267 67.6256 8.312 67.6256 8.6V12.424H73.3696V8.6C73.3696 8.312 73.4656 8.08267 73.6576 7.912C73.8602 7.73067 74.1216 7.64 74.4416 7.64C74.7616 7.64 75.0176 7.72533 75.2096 7.896C75.4016 8.06667 75.4976 8.30133 75.4976 8.6V18.2C75.4976 18.4987 75.4016 18.7333 75.2096 18.904C75.0176 19.0747 74.7616 19.16 74.4416 19.16C74.1216 19.16 73.8602 19.0747 73.6576 18.904C73.4656 18.7227 73.3696 18.488 73.3696 18.2V14.072H67.6256V18.2C67.6256 18.488 67.5242 18.7227 67.3216 18.904C67.1296 19.0747 66.8736 19.16 66.5536 19.16ZM82.1904 19.16C81.8704 19.16 81.6144 19.0747 81.4224 18.904C81.2304 18.7333 81.1344 18.4987 81.1344 18.2V10.168C81.1344 9.42133 81.3478 8.84 81.7744 8.424C82.2118 8.008 82.8144 7.8 83.5824 7.8H86.2864C87.9078 7.8 89.1398 8.136 89.9824 8.808C90.8251 9.48 91.2464 10.4667 91.2464 11.768C91.2464 13.0693 90.8358 14.056 90.0144 14.728C89.1931 15.4 87.9824 15.736 86.3824 15.736H83.2624V18.2C83.2624 18.488 83.1611 18.7227 82.9584 18.904C82.7664 19.0747 82.5104 19.16 82.1904 19.16ZM86.3664 14.088C88.1904 14.088 89.1024 13.3147 89.1024 11.768C89.1024 10.2213 88.1904 9.448 86.3664 9.448H83.9504C83.7371 9.448 83.5664 9.51733 83.4384 9.656C83.3211 9.79467 83.2624 9.98667 83.2624 10.232V14.088H86.3664Z" fill="white"/>
<path d="M13.5 20C18.7467 20 23 17.3137 23 14C23 10.6863 18.7467 8 13.5 8C8.25329 8 4 10.6863 4 14C4 17.3137 8.25329 20 13.5 20Z" fill="url(#paint2_radial_1_720)"/>
<path d="M13.5 19.5544C18.5417 19.5544 22.6288 17.0676 22.6288 14C22.6288 10.9324 18.5417 8.44562 13.5 8.44562C8.4583 8.44562 4.37119 10.9324 4.37119 14C4.37119 17.0676 8.4583 19.5544 13.5 19.5544Z" fill="#6280B6"/>
<path d="M15.3491 15.7923L15.8017 12.9947C15.8662 12.7553 15.8768 12.4996 15.8325 12.2537C15.7881 12.0078 15.6904 11.7803 15.5493 11.5943C15.1552 11.2584 14.6728 11.1063 14.1921 11.1666H13.4097L13.6343 9.78166C13.6384 9.75588 13.6377 9.72932 13.6323 9.7039C13.6269 9.67847 13.6168 9.6548 13.6029 9.63457C13.5889 9.61434 13.5715 9.59805 13.5517 9.58686C13.5319 9.57568 13.5103 9.56987 13.4884 9.56985H12.4027C12.3683 9.56984 12.3349 9.58422 12.3082 9.61052C12.2816 9.63683 12.2634 9.67343 12.2568 9.71405L11.7757 12.6843C11.7387 12.3667 11.6263 12.0687 11.4521 11.8257C11.258 11.5923 11.0239 11.4127 10.7661 11.2991C10.5082 11.1856 10.2329 11.1409 9.95919 11.1682H7.86784C7.83336 11.1682 7.79996 11.1826 7.77334 11.2089C7.74673 11.2352 7.72856 11.2718 7.72195 11.3124L6.74887 17.3246C6.74478 17.3504 6.74548 17.377 6.75091 17.4024C6.75635 17.4278 6.7664 17.4515 6.78033 17.4717C6.79426 17.492 6.81175 17.5083 6.83153 17.5194C6.85131 17.5306 6.8729 17.5364 6.89477 17.5365H7.98252C8.01699 17.5365 8.0504 17.5221 8.07701 17.4958C8.10363 17.4695 8.1218 17.4329 8.12841 17.3923L8.36387 15.9381H9.17816C9.53769 15.9496 9.89655 15.8947 10.2422 15.7751C10.5336 15.6594 10.8 15.4677 11.0225 15.2138C11.2048 15.0145 11.3605 14.7826 11.4839 14.5263L11.2892 15.7279C11.2851 15.7537 11.2858 15.7802 11.2912 15.8057C11.2967 15.8311 11.3067 15.8548 11.3207 15.875C11.3346 15.8952 11.3521 15.9115 11.3718 15.9227C11.3916 15.9339 11.4132 15.9397 11.4351 15.9397H12.5208C12.5553 15.9397 12.5887 15.9253 12.6153 15.899C12.6419 15.8727 12.6601 15.8361 12.6667 15.7955L13.2007 12.4953H13.9431C14.2593 12.4953 14.3502 12.5711 14.3774 12.6037C14.4045 12.6362 14.4452 12.7381 14.3943 13.0672L13.9634 15.7271C13.9594 15.7529 13.96 15.7794 13.9655 15.8049C13.9709 15.8303 13.981 15.8539 13.9949 15.8742C14.0088 15.8944 14.0263 15.9107 14.0461 15.9219C14.0659 15.9331 14.0875 15.9389 14.1093 15.9389H15.2086C15.2424 15.9373 15.2748 15.9219 15.3003 15.8953C15.3259 15.8686 15.3431 15.8323 15.3491 15.7923V15.7923ZM10.3311 13.4835C10.2979 13.8255 10.1626 14.1415 9.95037 14.3731C9.68375 14.5722 9.37111 14.6638 9.05805 14.6346H8.57491L8.92437 12.4749H9.54934C10.0087 12.4749 10.1933 12.5931 10.2679 12.6916C10.3249 12.8106 10.36 12.9428 10.3709 13.0794C10.3817 13.2159 10.3682 13.3537 10.3311 13.4835V13.4835ZM19.9776 11.8265C19.7836 11.5932 19.5495 11.4135 19.2916 11.2999C19.0338 11.1864 18.7585 11.1417 18.4848 11.169H16.3873C16.3528 11.169 16.3194 11.1834 16.2928 11.2097C16.2662 11.236 16.248 11.2726 16.2414 11.3132L15.2683 17.3255C15.2642 17.3512 15.2649 17.3778 15.2704 17.4032C15.2758 17.4286 15.2859 17.4523 15.2998 17.4726C15.3137 17.4928 15.3312 17.5091 15.351 17.5203C15.3708 17.5314 15.3924 17.5373 15.4142 17.5373H16.5054C16.5398 17.5373 16.5733 17.5229 16.5999 17.4966C16.6265 17.4703 16.6447 17.4337 16.6513 17.3931L16.8867 15.9389H17.701C18.0605 15.9504 18.4194 15.8955 18.765 15.776C19.0564 15.6602 19.3229 15.4685 19.5454 15.2147C19.9264 14.8024 20.1831 14.2505 20.2755 13.6448C20.3485 13.335 20.3596 13.0088 20.3078 12.6928C20.2561 12.3769 20.1429 12.08 19.9776 11.8265V11.8265ZM18.8464 13.4835C18.8133 13.8255 18.678 14.1415 18.4658 14.3731C18.1985 14.5724 17.8851 14.6638 17.5714 14.6338H17.0896L17.4391 12.4741H18.0641C18.5234 12.4741 18.708 12.5923 18.7827 12.6908C18.8398 12.8098 18.8751 12.9421 18.8861 13.0789C18.8971 13.2156 18.8836 13.3536 18.8464 13.4835V13.4835Z" fill="white"/>
<path d="M9.54935 12.2957C9.69576 12.2736 9.84437 12.2865 9.98659 12.3338C10.1288 12.3811 10.2618 12.4617 10.3779 12.5711C10.4528 12.7095 10.5006 12.8666 10.5176 13.0304C10.5347 13.1942 10.5205 13.3606 10.4763 13.5169C10.4375 13.9018 10.2825 14.2563 10.0406 14.5132C9.74894 14.7388 9.40414 14.8446 9.05807 14.8147H8.39442L8.80157 12.2982L9.54935 12.2957ZM6.89139 17.3597H7.98253L8.24107 15.7613H9.17546C9.51939 15.7726 9.86271 15.7201 10.1933 15.6057C10.4646 15.4981 10.7127 15.3195 10.9194 15.0827C11.2772 14.6962 11.5183 14.1782 11.6047 13.6098C11.6732 13.3271 11.6853 13.029 11.6399 12.7397C11.5945 12.4504 11.4929 12.178 11.3435 11.9446C11.1633 11.7306 10.9464 11.5664 10.7079 11.4634C10.4694 11.3604 10.215 11.3211 9.9626 11.3483H7.86785L6.89139 17.3597ZM12.4055 9.74908H13.4912L13.2286 11.3475H14.1928C14.6357 11.2918 15.0806 11.4269 15.4482 11.7287C15.5698 11.8947 15.653 12.0962 15.6893 12.313C15.7256 12.5297 15.7139 12.7542 15.6551 12.9637L15.2025 15.7613H14.1039L14.5348 13.1014C14.5648 12.9999 14.5755 12.8916 14.5661 12.7845C14.5567 12.6773 14.5275 12.5741 14.4805 12.4823C14.3234 12.3471 14.1293 12.2889 13.9377 12.3193H13.0725L12.5147 15.7637H11.429L12.4055 9.74908ZM18.0647 12.2957C18.2112 12.2736 18.3598 12.2865 18.502 12.3338C18.6442 12.3811 18.7772 12.4617 18.8933 12.5711C18.9682 12.7095 19.016 12.8666 19.033 13.0304C19.05 13.1942 19.0359 13.3606 18.9917 13.5169C18.9529 13.9018 18.7979 14.2563 18.556 14.5132C18.2638 14.7393 17.9182 14.8451 17.5714 14.8147H16.9078L17.3149 12.2982L18.0647 12.2957ZM15.4068 17.3597H16.4979L16.7565 15.7613H17.6909C18.0348 15.7726 18.3781 15.7201 18.7087 15.6057C18.98 15.4981 19.228 15.3195 19.4348 15.0827C19.7926 14.6962 20.0336 14.1782 20.1201 13.6098C20.1886 13.3271 20.2006 13.029 20.1553 12.7397C20.1099 12.4504 20.0083 12.178 19.8589 11.9446C19.6787 11.7306 19.4618 11.5664 19.2233 11.4634C18.9848 11.3604 18.7304 11.3211 18.478 11.3483H16.3799L15.4068 17.3597Z" fill="#000004"/>
<defs>
<filter id="filter0_i_1_720" x="21" y="2" width="92" height="27" filterUnits="userSpaceOnUse" color-interpolation-filters="sRGB">
<feFlood flood-opacity="0" result="BackgroundImageFix"/>
<feBlend mode="normal" in="SourceGraphic" in2="BackgroundImageFix" result="shape"/>
<feColorMatrix in="SourceAlpha" type="matrix" values="0 0 0 0 0 0 0 0 0 0 0 0 0 0 0 0 0 0 127 0" result="hardAlpha"/>
<feOffset dy="4"/>
<feGaussianBlur stdDeviation="2"/>
<feComposite in2="hardAlpha" operator="arithmetic" k2="-1" k3="1"/>
<feColorMatrix type="matrix" values="0 0 0 0 0 0 0 0 0 0 0 0 0 0 0 0 0 0 0.25 0"/>
<feBlend mode="normal" in2="shape" result="effect1_innerShadow_1_720"/>
</filter>
<filter id="filter1_i_1_720" x="2" y="2" width="23" height="27" filterUnits="userSpaceOnUse" color-interpolation-filters="sRGB">
<feFlood flood-opacity="0" result="BackgroundImageFix"/>
<feBlend mode="normal" in="SourceGraphic" in2="BackgroundImageFix" result="shape"/>
<feColorMatrix in="SourceAlpha" type="matrix" values="0 0 0 0 0 0 0 0 0 0 0 0 0 0 0 0 0 0 127 0" result="hardAlpha"/>
<feOffset dy="4"/>
<feGaussianBlur stdDeviation="2"/>
<feComposite in2="hardAlpha" operator="arithmetic" k2="-1" k3="1"/>
<feColorMatrix type="matrix" values="0 0 0 0 0 0 0 0 0 0 0 0 0 0 0 0 0 0 0.25 0"/>
<feBlend mode="normal" in2="shape" result="effect1_innerShadow_1_720"/>
</filter>
<linearGradient id="paint0_linear_1_720" x1="13.5" y1="0" x2="13.5" y2="27" gradientUnits="userSpaceOnUse">
<stop stop-color="#647696"/>
<stop offset="1" stop-color="#333E55"/>
</linearGradient>
<radialGradient id="paint1_radial_1_720" cx="0" cy="0" r="1" gradientUnits="userSpaceOnUse" gradientTransform="translate(13.5 13.5) rotate(90) scale(11.5)">
<stop stop-color="#101725"/>
<stop offset="1" stop-color="#253A61"/>
</radialGradient>
<radialGradient id="paint2_radial_1_720" cx="0" cy="0" r="1" gradientUnits="userSpaceOnUse" gradientTransform="translate(9.70407 10.11) scale(12.4749 14.9768)">
<stop stop-color="white"/>
<stop offset="0.5" stop-color="#4C6B96"/>
<stop offset="1" stop-color="#231F20"/>
</radialGradient>
</defs>
</svg>
