<svg width="115" height="27" viewBox="0 0 115 27" fill="none" xmlns="http://www.w3.org/2000/svg">
<rect x="21" width="94" height="27" rx="4" fill="#424D61"/>
<g filter="url(#filter0_i_1_720)">
<rect x="21" y="2" width="92" height="23" rx="4" fill="#212B3E"/>
</g>
<rect width="27" height="27" rx="4" fill="url(#paint0_linear_1_720)"/>
<g filter="url(#filter1_i_1_720)">
<rect x="2" y="2" width="23" height="23" rx="2" fill="url(#paint1_radial_1_720)"/>
</g>
<path d="M50.9636 19.16C50.6436 19.16 50.3876 19.0747 50.1956 18.904C50.0036 18.7333 49.9076 18.4987 49.9076 18.2V10.168C49.9076 9.42133 50.1209 8.84 50.5476 8.424C50.9849 8.008 51.5876 7.8 52.3556 7.8H55.0596C56.6809 7.8 57.9129 8.136 58.7556 8.808C59.5982 9.48 60.0196 10.4667 60.0196 11.768C60.0196 13.0693 59.6089 14.056 58.7876 14.728C57.9662 15.4 56.7556 15.736 55.1556 15.736H52.0356V18.2C52.0356 18.488 51.9342 18.7227 51.7316 18.904C51.5396 19.0747 51.2836 19.16 50.9636 19.16ZM55.1396 14.088C56.9636 14.088 57.8756 13.3147 57.8756 11.768C57.8756 10.2213 56.9636 9.448 55.1396 9.448H52.7236C52.5102 9.448 52.3396 9.51733 52.2116 9.656C52.0942 9.79467 52.0356 9.98667 52.0356 10.232V14.088H55.1396ZM66.5536 19.16C66.2336 19.16 65.9776 19.0747 65.7856 18.904C65.5936 18.7333 65.4976 18.4987 65.4976 18.2V8.6C65.4976 8.30133 65.5936 8.06667 65.7856 7.896C65.9776 7.72533 66.2336 7.64 66.5536 7.64C66.8736 7.64 67.1296 7.73067 67.3216 7.912C67.5242 8.08267 67.6256 8.312 67.6256 8.6V12.424H73.3696V8.6C73.3696 8.312 73.4656 8.08267 73.6576 7.912C73.8602 7.73067 74.1216 7.64 74.4416 7.64C74.7616 7.64 75.0176 7.72533 75.2096 7.896C75.4016 8.06667 75.4976 8.30133 75.4976 8.6V18.2C75.4976 18.4987 75.4016 18.7333 75.2096 18.904C75.0176 19.0747 74.7616 19.16 74.4416 19.16C74.1216 19.16 73.8602 19.0747 73.6576 18.904C73.4656 18.7227 73.3696 18.488 73.3696 18.2V14.072H67.6256V18.2C67.6256 18.488 67.5242 18.7227 67.3216 18.904C67.1296 19.0747 66.8736 19.16 66.5536 19.16ZM82.1904 19.16C81.8704 19.16 81.6144 19.0747 81.4224 18.904C81.2304 18.7333 81.1344 18.4987 81.1344 18.2V10.168C81.1344 9.42133 81.3478 8.84 81.7744 8.424C82.2118 8.008 82.8144 7.8 83.5824 7.8H86.2864C87.9078 7.8 89.1398 8.136 89.9824 8.808C90.8251 9.48 91.2464 10.4667 91.2464 11.768C91.2464 13.0693 90.8358 14.056 90.0144 14.728C89.1931 15.4 87.9824 15.736 86.3824 15.736H83.2624V18.2C83.2624 18.488 83.1611 18.7227 82.9584 18.904C82.7664 19.0747 82.5104 19.16 82.1904 19.16ZM86.3664 14.088C88.1904 14.088 89.1024 13.3147 89.1024 11.768C89.1024 10.2213 88.1904 9.448 86.3664 9.448H83.9504C83.7371 9.448 83.5664 9.51733 83.4384 9.656C83.3211 9.79467 83.2624 9.98667 83.2624 10.232V14.088H86.3664Z" fill="white"/>
<defs>
<filter id="filter0_i_1_720" x="21" y="2" width="92" height="27" filterUnits="userSpaceOnUse" color-interpolation-filters="sRGB">
<feFlood flood-opacity="0" result="BackgroundImageFix"/>
<feBlend mode="normal" in="SourceGraphic" in2="BackgroundImageFix" result="shape"/>
<feColorMatrix in="SourceAlpha" type="matrix" values="0 0 0 0 0 0 0 0 0 0 0 0 0 0 0 0 0 0 127 0" result="hardAlpha"/>
<feOffset dy="4"/>
<feGaussianBlur stdDeviation="2"/>
<feComposite in2="hardAlpha" operator="arithmetic" k2="-1" k3="1"/>
<feColorMatrix type="matrix" values="0 0 0 0 0 0 0 0 0 0 0 0 0 0 0 0 0 0 0.25 0"/>
<feBlend mode="normal" in2="shape" result="effect1_innerShadow_1_720"/>
</filter>
<filter id="filter1_i_1_720" x="2" y="2" width="23" height="27" filterUnits="userSpaceOnUse" color-interpolation-filters="sRGB">
<feFlood flood-opacity="0" result="BackgroundImageFix"/>
<feBlend mode="normal" in="SourceGraphic" in2="BackgroundImageFix" result="shape"/>
<feColorMatrix in="SourceAlpha" type="matrix" values="0 0 0 0 0 0 0 0 0 0 0 0 0 0 0 0 0 0 127 0" result="hardAlpha"/>
<feOffset dy="4"/>
<feGaussianBlur stdDeviation="2"/>
<feComposite in2="hardAlpha" operator="arithmetic" k2="-1" k3="1"/>
<feColorMatrix type="matrix" values="0 0 0 0 0 0 0 0 0 0 0 0 0 0 0 0 0 0 0.25 0"/>
<feBlend mode="normal" in2="shape" result="effect1_innerShadow_1_720"/>
</filter>
<linearGradient id="paint0_linear_1_720" x1="13.5" y1="0" x2="13.5" y2="27" gradientUnits="userSpaceOnUse">
<stop stop-color="#647696"/>
<stop offset="1" stop-color="#333E55"/>
</linearGradient>
<radialGradient id="paint1_radial_1_720" cx="0" cy="0" r="1" gradientUnits="userSpaceOnUse" gradientTransform="translate(13.5 13.5) rotate(90) scale(11.5)">
<stop stop-color="#101725"/>
<stop offset="1" stop-color="#253A61"/>
</radialGradient>
</defs>
</svg>
