<svg width="115" height="27" viewBox="0 0 115 27" fill="none" xmlns="http://www.w3.org/2000/svg">
<rect x="21" width="94" height="27" rx="4" fill="#424D61"/>
<g filter="url(#filter0_i_3_192)">
<rect x="21" y="2" width="92" height="23" rx="4" fill="#212B3E"/>
</g>
<rect width="27" height="27" rx="4" fill="url(#paint0_linear_3_192)"/>
<g filter="url(#filter1_i_3_192)">
<rect x="2" y="2" width="23" height="23" rx="4" fill="url(#paint1_radial_3_192)"/>
</g>
<path d="M13.4302 7.00561C9.11946 7.00561 9.39207 8.43998 9.39207 8.43998V9.93042H13.4915V10.3976H7.75946C7.75946 10.3976 5 10.136 5 13.5023C5 16.8687 7.43646 16.7318 7.43646 16.7318H8.84321V15.1614C8.84321 15.1614 8.76428 13.2865 11.2111 13.2865H15.3166C15.3166 13.2865 17.6067 13.3145 17.6067 11.5802V8.73433C17.6067 8.73433 17.954 7 13.4526 7L13.4302 7.00561ZM11.1643 8.00406C11.3101 8.00123 11.4536 8.03172 11.5768 8.09168C11.7 8.15164 11.7974 8.23837 11.8566 8.3409C11.9157 8.44344 11.934 8.55717 11.9092 8.66772C11.8844 8.77827 11.8175 8.88066 11.717 8.96196C11.6166 9.04326 11.487 9.0998 11.3448 9.12445C11.2026 9.14909 11.0541 9.14072 10.918 9.1004C10.782 9.06008 10.6645 8.98962 10.5805 8.89793C10.4965 8.80624 10.4497 8.69744 10.4461 8.58529V8.57594C10.4461 8.42551 10.5237 8.28124 10.662 8.17486C10.8002 8.06849 10.9877 8.00873 11.1831 8.00873L11.1643 8.00406Z" fill="url(#paint2_linear_3_192)"/>
<path d="M13.5516 19.9991C17.8623 19.9991 17.5897 18.56 17.5897 18.56V17.0743H13.4909V16.607H19.2405C19.2405 16.607 22 16.8444 22 13.4977C22 10.151 19.5635 10.2682 19.5635 10.2682H18.1386V11.818C18.1386 11.818 18.2175 13.693 15.7707 13.693H11.6634C11.6634 13.693 9.37142 13.6663 9.37142 15.4007V18.2657C9.37142 18.2657 9.02414 20 13.5255 20H13.5498L13.5516 19.9991ZM15.8175 18.9959C15.6717 18.9988 15.5282 18.9683 15.4049 18.9083C15.2817 18.8484 15.1844 18.7616 15.1252 18.6591C15.0661 18.5566 15.0477 18.4428 15.0726 18.3323C15.0974 18.2217 15.1643 18.1193 15.2647 18.038C15.3652 17.9567 15.4947 17.9002 15.637 17.8756C15.7792 17.8509 15.9277 17.8593 16.0638 17.8996C16.1998 17.9399 16.3173 18.0104 16.4013 18.1021C16.4853 18.1938 16.5321 18.3026 16.5357 18.4147V18.4287C16.5357 18.5792 16.4581 18.7234 16.3198 18.8298C16.1816 18.9362 15.9941 18.9959 15.7986 18.9959H15.8169H15.8175Z" fill="url(#paint3_linear_3_192)"/>
<path d="M36.2958 19.16C35.9758 19.16 35.7198 19.0747 35.5278 18.904C35.3358 18.7333 35.2398 18.4987 35.2398 18.2V10.168C35.2398 9.42133 35.4531 8.84 35.8798 8.424C36.3171 8.008 36.9198 7.8 37.6878 7.8H40.3918C42.0131 7.8 43.2451 8.136 44.0878 8.808C44.9304 9.48 45.3518 10.4667 45.3518 11.768C45.3518 13.0693 44.9411 14.056 44.1198 14.728C43.2984 15.4 42.0878 15.736 40.4878 15.736H37.3678V18.2C37.3678 18.488 37.2664 18.7227 37.0638 18.904C36.8718 19.0747 36.6158 19.16 36.2958 19.16ZM40.4718 14.088C42.2958 14.088 43.2078 13.3147 43.2078 11.768C43.2078 10.2213 42.2958 9.448 40.4718 9.448H38.0558C37.8424 9.448 37.6718 9.51733 37.5438 9.656C37.4264 9.79467 37.3678 9.98667 37.3678 10.232V14.088H40.4718ZM53.1977 23C52.4191 23 51.7097 22.8773 51.0697 22.632C50.4404 22.3973 49.9551 22.0667 49.6137 21.64C49.4751 21.4587 49.4057 21.272 49.4057 21.08C49.4057 20.824 49.5284 20.5893 49.7737 20.376C49.9337 20.248 50.1097 20.184 50.3017 20.184C50.5897 20.184 50.8671 20.328 51.1337 20.616C51.5924 21.1067 52.2644 21.352 53.1497 21.352C53.9071 21.352 54.4777 21.1493 54.8618 20.744C55.2564 20.3493 55.4538 19.768 55.4538 19V18.328C55.1977 18.5733 54.8671 18.776 54.4618 18.936C54.0564 19.0853 53.6724 19.16 53.3098 19.16C51.9764 19.16 50.9364 18.808 50.1897 18.104C49.4431 17.3893 49.0697 16.3973 49.0697 15.128V11.896C49.0697 11.64 49.1711 11.4267 49.3737 11.256C49.5764 11.0853 49.8271 11 50.1257 11C50.4137 11 50.6591 11.0907 50.8617 11.272C51.0644 11.4427 51.1657 11.6507 51.1657 11.896V15.128C51.1657 15.896 51.3524 16.4933 51.7257 16.92C52.1097 17.3467 52.6377 17.56 53.3098 17.56C53.9604 17.56 54.4671 17.3467 54.8298 16.92C55.1924 16.4933 55.3737 15.896 55.3737 15.128V12.072C55.3737 11.7307 55.4644 11.4693 55.6458 11.288C55.8378 11.096 56.0991 11 56.4297 11C56.7604 11 57.0164 11.096 57.1978 11.288C57.3791 11.4693 57.4698 11.7307 57.4698 12.072V18.728C57.4698 20.072 57.0911 21.1173 56.3337 21.864C55.5871 22.6213 54.5417 23 53.1977 23ZM67.8765 16.936C68.0472 17.0747 68.1325 17.2453 68.1325 17.448C68.1325 17.6507 68.0578 17.8587 67.9085 18.072C67.6738 18.4133 67.3432 18.68 66.9165 18.872C66.4898 19.064 66.0098 19.16 65.4765 19.16C64.6232 19.16 63.9512 18.9307 63.4605 18.472C62.9805 18.0027 62.7405 17.3627 62.7405 16.552V12.808H62.0845C61.7645 12.808 61.5085 12.7333 61.3165 12.584C61.1245 12.4347 61.0285 12.2373 61.0285 11.992C61.0285 11.736 61.1192 11.5333 61.3005 11.384C61.4925 11.2347 61.7538 11.16 62.0845 11.16H62.7405V8.744C62.7405 8.44533 62.8365 8.21067 63.0285 8.04C63.2205 7.86933 63.4765 7.784 63.7965 7.784C64.1272 7.784 64.3832 7.86933 64.5645 8.04C64.7458 8.21067 64.8365 8.44533 64.8365 8.744V11.16H66.3725C66.7032 11.16 66.9592 11.2347 67.1405 11.384C67.3325 11.5333 67.4285 11.736 67.4285 11.992C67.4285 12.2373 67.3325 12.4347 67.1405 12.584C66.9592 12.7333 66.7032 12.808 66.3725 12.808H64.8365V16.728C64.8365 16.9627 64.9058 17.1493 65.0445 17.288C65.1938 17.4267 65.3912 17.496 65.6365 17.496C65.8285 17.496 65.9938 17.4693 66.1325 17.416C66.2818 17.352 66.4312 17.2507 66.5805 17.112C66.8578 16.8453 67.1138 16.712 67.3485 16.712C67.5192 16.712 67.6952 16.7867 67.8765 16.936ZM72.726 19.16C72.3953 19.16 72.1393 19.0747 71.958 18.904C71.7767 18.7333 71.686 18.4987 71.686 18.2V7.816C71.686 7.51733 71.7767 7.28267 71.958 7.112C72.1393 6.94133 72.3953 6.856 72.726 6.856C73.046 6.856 73.302 6.94133 73.494 7.112C73.686 7.28267 73.782 7.51733 73.782 7.816V12.424C74.1767 11.9333 74.6193 11.576 75.11 11.352C75.6007 11.1173 76.1713 11 76.822 11C77.846 11 78.6513 11.3253 79.238 11.976C79.8353 12.616 80.134 13.4907 80.134 14.6V18.2C80.134 18.4987 80.038 18.7333 79.846 18.904C79.654 19.0747 79.398 19.16 79.078 19.16C78.7473 19.16 78.4913 19.0747 78.31 18.904C78.1287 18.7333 78.038 18.4987 78.038 18.2V14.6C78.038 13.992 77.8887 13.5173 77.59 13.176C77.2913 12.8347 76.8753 12.664 76.342 12.664C75.5313 12.664 74.902 12.904 74.454 13.384C74.006 13.8533 73.782 14.5147 73.782 15.368V18.2C73.782 18.4987 73.686 18.7333 73.494 18.904C73.302 19.0747 73.046 19.16 72.726 19.16ZM88.3034 19.16C87.3754 19.16 86.5487 18.9947 85.8234 18.664C85.1087 18.3227 84.5487 17.8427 84.1434 17.224C83.738 16.6053 83.5354 15.8907 83.5354 15.08C83.5354 14.2693 83.738 13.5547 84.1434 12.936C84.5487 12.3173 85.1087 11.8427 85.8234 11.512C86.5487 11.1707 87.3754 11 88.3034 11C89.2314 11 90.0527 11.1707 90.7674 11.512C91.4927 11.8427 92.058 12.3173 92.4634 12.936C92.8687 13.5547 93.0714 14.2693 93.0714 15.08C93.0714 15.8907 92.8687 16.6053 92.4634 17.224C92.058 17.8427 91.4927 18.3227 90.7674 18.664C90.0527 18.9947 89.2314 19.16 88.3034 19.16ZM88.3034 17.496C89.1247 17.496 89.77 17.2827 90.2394 16.856C90.7194 16.4293 90.9594 15.8373 90.9594 15.08C90.9594 14.3227 90.7194 13.7307 90.2394 13.304C89.77 12.8773 89.1247 12.664 88.3034 12.664C87.482 12.664 86.8314 12.8773 86.3514 13.304C85.882 13.7307 85.6474 14.3227 85.6474 15.08C85.6474 15.8373 85.882 16.4293 86.3514 16.856C86.8314 17.2827 87.482 17.496 88.3034 17.496ZM97.5885 19.16C97.2578 19.16 97.0018 19.0747 96.8205 18.904C96.6392 18.7333 96.5485 18.4987 96.5485 18.2V11.96C96.5485 11.6507 96.6338 11.416 96.8045 11.256C96.9858 11.0853 97.2365 11 97.5565 11C97.8765 11 98.1272 11.0853 98.3085 11.256C98.4898 11.4267 98.5805 11.6613 98.5805 11.96V12.424C99.3378 11.4747 100.373 11 101.685 11C102.709 11 103.514 11.3253 104.101 11.976C104.698 12.616 104.997 13.4907 104.997 14.6V18.2C104.997 18.4987 104.901 18.7333 104.709 18.904C104.517 19.0747 104.261 19.16 103.941 19.16C103.61 19.16 103.354 19.0747 103.173 18.904C102.991 18.7333 102.901 18.4987 102.901 18.2V14.6C102.901 13.992 102.751 13.5173 102.453 13.176C102.154 12.8347 101.738 12.664 101.205 12.664C100.394 12.664 99.7645 12.904 99.3165 13.384C98.8685 13.8533 98.6445 14.5147 98.6445 15.368V18.2C98.6445 18.4987 98.5485 18.7333 98.3565 18.904C98.1645 19.0747 97.9085 19.16 97.5885 19.16Z" fill="white"/>
<defs>
<filter id="filter0_i_3_192" x="21" y="2" width="92" height="27" filterUnits="userSpaceOnUse" color-interpolation-filters="sRGB">
<feFlood flood-opacity="0" result="BackgroundImageFix"/>
<feBlend mode="normal" in="SourceGraphic" in2="BackgroundImageFix" result="shape"/>
<feColorMatrix in="SourceAlpha" type="matrix" values="0 0 0 0 0 0 0 0 0 0 0 0 0 0 0 0 0 0 127 0" result="hardAlpha"/>
<feOffset dy="4"/>
<feGaussianBlur stdDeviation="2"/>
<feComposite in2="hardAlpha" operator="arithmetic" k2="-1" k3="1"/>
<feColorMatrix type="matrix" values="0 0 0 0 0 0 0 0 0 0 0 0 0 0 0 0 0 0 0.25 0"/>
<feBlend mode="normal" in2="shape" result="effect1_innerShadow_3_192"/>
</filter>
<filter id="filter1_i_3_192" x="2" y="2" width="23" height="27" filterUnits="userSpaceOnUse" color-interpolation-filters="sRGB">
<feFlood flood-opacity="0" result="BackgroundImageFix"/>
<feBlend mode="normal" in="SourceGraphic" in2="BackgroundImageFix" result="shape"/>
<feColorMatrix in="SourceAlpha" type="matrix" values="0 0 0 0 0 0 0 0 0 0 0 0 0 0 0 0 0 0 127 0" result="hardAlpha"/>
<feOffset dy="4"/>
<feGaussianBlur stdDeviation="2"/>
<feComposite in2="hardAlpha" operator="arithmetic" k2="-1" k3="1"/>
<feColorMatrix type="matrix" values="0 0 0 0 0 0 0 0 0 0 0 0 0 0 0 0 0 0 0.25 0"/>
<feBlend mode="normal" in2="shape" result="effect1_innerShadow_3_192"/>
</filter>
<linearGradient id="paint0_linear_3_192" x1="13.5" y1="0" x2="13.5" y2="27" gradientUnits="userSpaceOnUse">
<stop stop-color="#647696"/>
<stop offset="1" stop-color="#333E55"/>
</linearGradient>
<radialGradient id="paint1_radial_3_192" cx="0" cy="0" r="1" gradientUnits="userSpaceOnUse" gradientTransform="translate(13.5 13.5) rotate(90) scale(11.5)">
<stop stop-color="#101725"/>
<stop offset="1" stop-color="#253A61"/>
</radialGradient>
<linearGradient id="paint2_linear_3_192" x1="6.68006" y1="8.27781" x2="12.6843" y2="16.0625" gradientUnits="userSpaceOnUse">
<stop stop-color="#387EB8"/>
<stop offset="1" stop-color="#366994"/>
</linearGradient>
<linearGradient id="paint3_linear_3_192" x1="11.4524" y1="12.3126" x2="18.5538" y2="20.3689" gradientUnits="userSpaceOnUse">
<stop stop-color="#FFE052"/>
<stop offset="1" stop-color="#FFC331"/>
</linearGradient>
</defs>
</svg>
