
<svg width="118" height="32" viewBox="0 0 118 32" fill="none" xmlns="http://www.w3.org/2000/svg">
<rect width="118" height="32" rx="4" fill="#153C58"/>
<rect width="32" height="32" rx="4" fill="#FF903F"/>
<g clip-path="url(#clip0_18_103)">
<g filter="url(#filter0_f_18_103)">
<path d="M26.9802 24.2868C26.9802 25.6987 22.0474 26.8493 15.9609 26.8493C9.87434 26.8493 4.94141 25.7062 4.94141 24.2868C4.94141 22.8748 9.87434 21.7242 15.9608 21.7242C22.0474 21.7242 26.9717 22.8748 26.9802 24.2868Z" fill="black" fill-opacity="0.2"/>
</g>
<path d="M9.92621 21.5301C8.85868 20.2002 8.65205 15.8672 11.14 13.2C12.3711 11.9227 12.6897 11.0336 12.7844 9.83077C12.8532 8.46358 11.6738 4.39204 16.116 4.08574C20.6185 3.77195 20.3688 7.62683 20.343 9.66643C20.3258 11.3847 21.798 12.3634 22.8137 13.7082C24.6819 16.1735 24.5269 20.4169 22.4608 22.718C19.8436 25.5942 17.6054 24.3465 16.116 24.4512C13.3267 24.5931 13.232 25.8781 9.92621 21.5301V21.5301Z" fill="black"/>
<path d="M20.7904 13.9621C21.5652 14.5822 23.5711 17.3539 20.3944 19.0871C19.2753 19.6923 21.3931 21.9933 22.4089 20.8801C24.2082 18.878 23.0633 15.6804 21.9785 14.5374C21.2553 13.7306 20.1362 13.4168 20.7905 13.9622L20.7904 13.9621Z" fill="url(#paint0_linear_18_103)"/>
<path d="M20.5754 13.5886C21.8494 14.4852 24.1652 17.6228 20.782 19.6698C19.6714 20.3049 21.7634 22.3145 22.9428 21.291C27.032 17.72 22.8395 13.6185 21.3931 12.2065C20.1018 10.9738 18.9569 12.4904 20.5754 13.5886Z" fill="black"/>
<path fill-rule="evenodd" clip-rule="evenodd" d="M20.4955 11.7083C20.7751 11.7231 21.0991 11.8669 21.4267 12.1797L21.4271 12.18L21.4271 12.18C22.1498 12.8856 23.5652 14.269 24.2863 15.925C24.6472 16.7536 24.8351 17.6522 24.6742 18.5695C24.5132 19.4873 24.0035 20.4207 22.975 21.319L22.9749 21.319C22.6683 21.5851 22.3007 21.6543 21.9429 21.5978C21.5871 21.5417 21.2418 21.3617 20.9712 21.1307C20.7008 20.8998 20.5006 20.6142 20.44 20.3425C20.3789 20.0687 20.46 19.8064 20.756 19.6369C21.5947 19.1293 22.0775 18.556 22.3126 17.969C22.5479 17.3816 22.5364 16.7774 22.3803 16.2069C22.0677 15.0644 21.1768 14.0633 20.5465 13.6197C19.7273 13.0636 19.5919 12.3893 19.8533 12.0033C19.9844 11.8097 20.214 11.6933 20.4955 11.7083ZM19.9322 12.0436C19.703 12.3822 19.8042 13.0151 20.6033 13.5573L20.6039 13.5577L20.6039 13.5577C21.2477 14.0107 22.1515 15.0265 22.4694 16.1886C22.6286 16.7704 22.6413 17.3905 22.3991 17.9951C22.1568 18.6001 21.6605 19.1865 20.8079 19.7024L20.8069 19.703L20.8069 19.7029C20.548 19.851 20.4742 20.0778 20.5299 20.3274C20.586 20.5791 20.7742 20.851 21.0354 21.074C21.2965 21.2968 21.6259 21.467 21.9593 21.5196C22.2908 21.572 22.627 21.5085 22.9101 21.2629C23.9261 20.3756 24.4258 19.4572 24.5836 18.5575C24.7415 17.6573 24.5576 16.7727 24.2007 15.9531C23.4863 14.3127 22.0824 12.9395 21.3588 12.233C21.0408 11.9295 20.7375 11.8007 20.4899 11.7876C20.2441 11.7745 20.0465 11.8748 19.9322 12.0436Z" fill="black"/>
<path d="M18.7415 6.0355C18.6985 7.05904 17.3986 7.94818 15.8403 8.03035C14.2821 8.11252 13.0597 7.33557 13.1027 6.31203C13.1458 5.28849 14.4457 4.39943 16.0039 4.31726C17.5621 4.24258 18.7846 5.01204 18.7415 6.0355V6.0355Z" fill="url(#paint1_linear_18_103)"/>
<path d="M15.0137 8.47108C15.0568 9.13601 14.6952 9.6963 14.1959 9.71868C13.6966 9.74113 13.2574 9.22566 13.2144 8.56074C13.1714 7.89582 13.533 7.33552 14.0323 7.31315C14.5316 7.29069 14.9707 7.80616 15.0137 8.47108V8.47108Z" fill="url(#paint2_linear_18_103)"/>
<path d="M15.9179 8.52336C15.9351 9.29283 16.512 9.90544 17.2006 9.89055C17.8893 9.87558 18.4317 9.24051 18.4145 8.46357C18.3973 7.6941 17.8205 7.08149 17.1317 7.09646C16.443 7.11135 15.8921 7.75382 15.9179 8.52336V8.52336Z" fill="url(#paint3_linear_18_103)"/>
<path d="M16.4861 8.69523C16.4775 9.12104 16.7186 9.46469 17.037 9.46469C17.347 9.46469 17.6139 9.12104 17.6225 8.70271C17.631 8.2769 17.39 7.93317 17.0715 7.93317C16.753 7.93317 16.4947 8.2769 16.4861 8.69523ZM14.4975 8.70271C14.5405 9.05384 14.3855 9.35266 14.1616 9.38252C13.9379 9.40498 13.7226 9.1435 13.6796 8.79237C13.6365 8.44123 13.7915 8.14233 14.0153 8.11247C14.2392 8.0901 14.4544 8.35158 14.4975 8.70271V8.70271Z" fill="black"/>
<path d="M16.6151 8.4561C16.5892 8.6952 16.7184 8.8894 16.8992 8.90437C17.0799 8.91934 17.2521 8.73254 17.2779 8.50092C17.3038 8.2619 17.1746 8.06762 16.9939 8.05265C16.8131 8.03776 16.6409 8.22456 16.6151 8.45618V8.4561Z" fill="url(#paint4_linear_18_103)"/>
<path d="M14.3078 8.51586C14.3336 8.71014 14.2389 8.88197 14.1012 8.89685C13.9634 8.91182 13.8343 8.76237 13.8084 8.56069C13.7827 8.36641 13.8773 8.19459 14.0151 8.1797C14.1529 8.16473 14.282 8.32159 14.3078 8.51586V8.51586Z" fill="url(#paint5_linear_18_103)"/>
<path d="M11.5961 15.8522C12.2074 14.6494 13.5073 12.5352 13.5332 10.8991C13.5332 9.59915 18.0185 9.28536 18.3801 10.5853C18.7416 11.8852 19.6541 13.8276 20.2395 14.769C20.825 15.7028 22.5209 18.6837 20.713 21.2835C19.0859 23.5846 14.1531 25.4074 11.5187 20.9698C10.6234 19.4308 10.7869 17.5257 11.5961 15.8522Z" fill="url(#paint6_linear_18_103)"/>
<path d="M11.0451 14.9557C10.52 15.8148 9.4352 18.0711 12.0868 19.3038C14.9364 20.6186 14.9277 23.3156 11.5014 22.0306C8.36776 20.8726 9.75376 16.1809 10.6319 15.0603C11.2 14.2759 12.0609 13.3121 11.0451 14.9557V14.9557Z" fill="url(#paint7_linear_18_103)"/>
<path d="M11.4927 13.9845C10.6577 15.1649 8.66044 17.9441 11.3378 19.3934C14.9363 21.3134 13.9205 23.2259 10.6319 21.5001C6.00028 19.0946 10.0722 14.2385 11.9232 12.3858C14.041 10.3089 12.3278 12.7668 11.4927 13.9845V13.9845Z" fill="black"/>
<path fill-rule="evenodd" clip-rule="evenodd" d="M12.5877 11.8449C12.4351 11.9727 12.2315 12.1602 11.9673 12.4193C11.043 13.3445 9.56877 15.0154 8.90217 16.7518C8.56902 17.6195 8.43928 18.4995 8.67621 19.3092C8.91263 20.1173 9.51586 20.8612 10.662 21.4565L10.6622 21.4566C11.4802 21.8859 12.1513 22.0858 12.6401 22.1183C13.1309 22.151 13.4185 22.0158 13.5126 21.7962C13.6095 21.57 13.517 21.2239 13.161 20.8055C12.8073 20.39 12.2026 19.9145 11.3072 19.4367L11.3068 19.4366C10.6267 19.0684 10.24 18.6135 10.0592 18.1182C9.87886 17.624 9.90503 17.0941 10.041 16.5768C10.3078 15.5619 11.0014 14.5817 11.4207 13.9892C11.4274 13.9797 11.4341 13.9702 11.4407 13.9608L11.4424 13.9585C11.4719 13.9154 11.5026 13.8707 11.5341 13.8249C11.9488 13.2208 12.5146 12.3968 12.7621 11.9285C12.8292 11.8015 12.8698 11.7062 12.88 11.6499C12.8808 11.6454 12.8814 11.6414 12.8818 11.6379C12.8588 11.6469 12.8248 11.6655 12.7778 11.6977C12.7269 11.7325 12.664 11.7809 12.5877 11.8449ZM12.9031 11.6317C12.9031 11.6318 12.9025 11.6319 12.9015 11.6318C12.9027 11.6317 12.9032 11.6317 12.9031 11.6317ZM11.5513 13.9985C11.5786 13.9586 11.6069 13.9175 11.6359 13.8752C12.0494 13.2731 12.6183 12.4445 12.8686 11.9709C12.9354 11.8444 12.9827 11.7375 12.9958 11.6658C12.9991 11.6474 13.0007 11.6291 12.9987 11.612C12.9969 11.5954 12.9912 11.5755 12.9753 11.5587C12.9374 11.5188 12.8803 11.5289 12.8453 11.5409C12.8061 11.5543 12.7593 11.5808 12.7052 11.6178C12.6502 11.6555 12.5842 11.7064 12.5063 11.7717C12.3505 11.9022 12.1445 12.0921 11.8793 12.3521L11.8793 12.3521L11.879 12.3525C10.9522 13.2801 9.46516 14.9635 8.79099 16.7196C8.45373 17.5981 8.31824 18.499 8.56262 19.3342C8.80749 20.1711 9.43209 20.9362 10.6016 21.5437C11.4279 21.9773 12.1171 22.1855 12.6311 22.2197C13.1433 22.2538 13.5013 22.1145 13.6224 21.8317C13.7407 21.5556 13.618 21.1714 13.2552 20.7451C12.8901 20.316 12.2724 19.8324 11.3687 19.3502C10.7102 18.9937 10.3426 18.5577 10.1709 18.0875C9.99888 17.6161 10.0222 17.1057 10.1552 16.5994C10.4177 15.601 11.1028 14.6328 11.5232 14.0386C11.5298 14.0294 11.5362 14.0202 11.5427 14.0112L11.5513 13.9989V13.9985Z" fill="black"/>
<path d="M19.6023 16.3079C19.6023 17.6228 18.1474 19.3262 15.6507 19.3112C13.0767 19.3261 11.9834 17.6228 11.9834 16.3079C11.9834 14.9931 13.688 13.9247 15.7885 13.9247C17.8977 13.9322 19.6023 14.9931 19.6023 16.3079Z" fill="url(#paint8_linear_18_103)"/>
<path d="M18.2425 12.1766C18.2166 13.5363 17.1921 13.8576 15.9008 13.8576C14.6094 13.8576 13.671 13.6558 13.5591 12.1766C13.5591 11.2502 14.6094 10.7124 15.9008 10.7124C17.1921 10.7049 18.2424 11.2428 18.2424 12.1766H18.2425Z" fill="url(#paint9_linear_18_103)"/>
<path d="M10.4338 14.2684C11.2775 13.1553 13.0595 11.4445 10.7696 14.5075C8.91008 17.0326 10.0809 18.6538 10.6835 19.102C12.4225 20.4468 12.3536 21.3507 10.9849 20.641C8.04917 19.1245 8.66042 16.5694 10.4338 14.2684V14.2684Z" fill="url(#paint10_linear_18_103)"/>
<path d="M22.6499 14.7241C21.9181 13.4168 19.5936 10.0997 22.7617 13.9546C25.6458 17.4435 23.6226 19.8715 23.2611 20.1106C22.8996 20.3497 21.6857 20.8353 22.0386 19.9911C22.4002 19.1468 24.1909 17.5481 22.6498 14.7241L22.6499 14.7241Z" fill="url(#paint11_linear_18_103)"/>
<path d="M9.79669 25.0339C7.86825 24.1448 5.07038 25.2057 6.08625 22.8001C6.29288 22.2547 5.78494 21.4329 6.11203 20.9025C6.4995 20.2525 7.33453 20.3945 7.83385 19.9612C8.32453 19.5129 8.63447 18.736 9.55566 18.8556C10.4682 18.975 11.0795 19.9462 11.7165 21.1416C12.1899 21.9932 13.8601 23.1961 13.7483 24.1523C13.6104 25.6166 11.6906 25.893 9.79669 25.0339V25.0339Z" fill="url(#paint12_linear_18_103)"/>
<path fill-rule="evenodd" clip-rule="evenodd" d="M8.41265 19.7376C8.30373 19.8674 8.1826 20.0118 8.04629 20.1363L8.0437 20.1387L8.04104 20.141C7.77762 20.3696 7.43176 20.4712 7.16236 20.5503C7.11579 20.5639 7.07151 20.577 7.03033 20.5898C6.72991 20.6837 6.51363 20.7822 6.37228 21.0193L6.37134 21.0209L6.37038 21.0225C6.26034 21.2009 6.28051 21.4514 6.34357 21.8071C6.34817 21.833 6.35297 21.8595 6.35785 21.8865C6.38357 22.0285 6.41147 22.1826 6.4237 22.3299C6.43835 22.5063 6.43344 22.6979 6.3646 22.8796L6.36306 22.8836L6.36137 22.8876C6.11295 23.4759 6.13673 23.7705 6.22689 23.9229C6.31156 24.0659 6.50543 24.1663 6.89696 24.2368C7.08588 24.2709 7.30044 24.2946 7.54027 24.3181C7.59298 24.3233 7.64696 24.3284 7.70196 24.3337C7.89299 24.3519 8.09631 24.3714 8.30134 24.3964C8.83005 24.4609 9.40625 24.5662 9.93329 24.809C10.8396 25.22 11.7205 25.3438 12.3661 25.2165C12.6856 25.1535 12.9407 25.0308 13.1223 24.8576C13.3027 24.6855 13.4265 24.4486 13.4563 24.1317L13.4565 24.1292L13.4568 24.1267C13.4769 23.9549 13.4185 23.7508 13.2819 23.5108C13.1463 23.2726 12.9469 23.0214 12.7189 22.7619C12.5874 22.6122 12.4585 22.4729 12.3295 22.3334C12.2263 22.2218 12.123 22.1101 12.0181 21.9928C11.7957 21.7442 11.5856 21.4912 11.4527 21.2521L11.4516 21.2502L11.4506 21.2483C11.1319 20.6503 10.8306 20.1302 10.5038 19.7462C10.1758 19.3609 9.85542 19.152 9.51218 19.107C9.178 19.0637 8.9602 19.1719 8.74718 19.3693C8.63475 19.4734 8.5318 19.5957 8.41721 19.7322L8.41265 19.7376ZM9.79673 25.0339L9.65928 25.2585C9.22233 25.057 8.72599 24.9617 8.21976 24.8999C8.02434 24.876 7.83283 24.8577 7.64325 24.8396C7.58686 24.8342 7.53064 24.8289 7.47454 24.8234C7.23389 24.7998 6.99567 24.7739 6.77782 24.7347C6.35582 24.6586 5.92016 24.5176 5.70568 24.1552C5.4972 23.8029 5.55143 23.3295 5.80932 22.7172C5.84269 22.6267 5.85137 22.5121 5.83928 22.3664C5.82898 22.2423 5.80567 22.1133 5.77999 21.971C5.77487 21.9427 5.76966 21.9138 5.76444 21.8844C5.70705 21.5607 5.63692 21.1359 5.85277 20.7842C6.09895 20.3725 6.49337 20.2172 6.83174 20.1114C6.89117 20.0929 6.94747 20.0759 7.0009 20.0598C7.26949 19.979 7.46569 19.92 7.62415 19.7837C7.73028 19.6863 7.8297 19.5686 7.94355 19.4329L7.94946 19.4258C8.0583 19.2961 8.18051 19.1505 8.31952 19.0217C8.6144 18.7485 9.01212 18.528 9.59904 18.6042L9.59938 18.6042C10.1686 18.6787 10.6101 19.0152 10.9751 19.4441C11.3409 19.8739 11.6634 20.4364 11.9814 21.0329C12.0853 21.2193 12.2611 21.4354 12.4809 21.681C12.5699 21.7804 12.671 21.8899 12.7753 22.0029C12.913 22.152 13.0563 22.3072 13.1849 22.4536C13.4196 22.7208 13.6464 23.0029 13.8073 23.2857C13.9668 23.566 14.075 23.87 14.0401 24.1754C14.0006 24.5896 13.8328 24.9355 13.5558 25.1997C13.2795 25.4633 12.9104 25.6306 12.496 25.7123C11.6739 25.8745 10.6483 25.7071 9.66101 25.2593L9.79673 25.0339Z" fill="#E68C3F"/>
<path d="M23.8378 19.3859C23.5451 19.8641 22.3226 20.6335 21.5048 20.4319C20.6784 20.2376 20.2995 19.1468 20.4631 18.3176C20.6181 17.3913 21.5048 17.3389 22.6241 17.8021C23.8292 18.3176 24.1908 18.7509 23.8378 19.3859V19.3859Z" fill="url(#paint13_linear_18_103)"/>
<path d="M23.1664 24.6229C24.5782 23.1363 27.7206 23.4426 25.6027 21.4031C25.1551 20.9623 25.2928 20.0209 24.7418 19.6175C24.0962 19.1244 23.3816 19.5279 22.7273 19.2739C22.0731 18.9974 21.3844 18.467 20.5837 18.8405C19.7831 19.2216 19.697 20.2077 19.6195 21.5076C19.5506 22.4415 18.5692 24.0029 19.0943 24.862C19.8519 26.1918 21.8234 26.0125 23.1664 24.623V24.6229Z" fill="url(#paint14_linear_18_103)"/>
<path fill-rule="evenodd" clip-rule="evenodd" d="M22.8512 19.0434C23.0588 19.1229 23.2675 19.1161 23.5535 19.1069C23.6094 19.1051 23.6682 19.1032 23.7305 19.1019C24.0925 19.0939 24.526 19.1151 24.9332 19.425C25.2934 19.6901 25.4104 20.1143 25.4966 20.4392C25.5036 20.4655 25.5104 20.4913 25.517 20.5167C25.5554 20.6627 25.5899 20.7945 25.6356 20.9162C25.6884 21.0572 25.748 21.1611 25.8217 21.234C26.3555 21.7483 26.6329 22.1801 26.6066 22.5723C26.5787 22.9893 26.221 23.2493 25.8593 23.4382C25.672 23.536 25.4589 23.6273 25.2436 23.7175C25.2108 23.7313 25.178 23.745 25.145 23.7588C24.9579 23.837 24.7682 23.9162 24.5781 24.004C24.1461 24.2032 23.7378 24.4348 23.4249 24.7512L23.3909 24.7864C22.6814 25.5205 21.7853 25.9568 20.9342 26.0157C20.0675 26.0757 19.2689 25.7392 18.8335 24.9778C18.6692 24.7069 18.6319 24.3971 18.6527 24.0917C18.6737 23.7843 18.7553 23.46 18.8511 23.1475C18.9055 22.97 18.9692 22.7821 19.0304 22.6019C19.0738 22.4741 19.1159 22.3502 19.1523 22.2366C19.2451 21.9478 19.3117 21.6976 19.327 21.4929C19.3654 20.8492 19.4069 20.2525 19.5462 19.7679C19.687 19.2783 19.9406 18.8566 20.4429 18.6176L20.444 18.6171L20.445 18.6166C20.9454 18.3831 21.4131 18.4391 21.8174 18.5768C22.0148 18.6439 22.2024 18.7321 22.373 18.8156C22.4108 18.8341 22.4475 18.8522 22.4834 18.87C22.6135 18.9342 22.7324 18.993 22.8512 19.0434ZM20.7236 19.064C20.4259 19.2061 20.2364 19.4679 20.1148 19.8911C19.9916 20.3194 19.9513 20.8651 19.9122 21.5207L19.9121 21.5223L19.912 21.5239C19.8927 21.7858 19.8109 22.0804 19.7169 22.3732C19.6744 22.5054 19.6309 22.6333 19.5874 22.7609C19.5295 22.931 19.4719 23.1004 19.4174 23.2782C19.3248 23.5802 19.2552 23.8656 19.2377 24.1218C19.2202 24.3787 19.2568 24.585 19.3532 24.7429L19.3552 24.7461L19.3571 24.7493C19.6796 25.3155 20.2446 25.5533 20.8876 25.5088C21.5457 25.4632 22.3046 25.1168 22.9371 24.4645L22.9403 24.4612C23.3294 24.0515 23.83 23.7731 24.303 23.5549C24.5044 23.462 24.7059 23.3778 24.8927 23.2998C24.9251 23.2862 24.9572 23.2728 24.9887 23.2596C25.2051 23.1689 25.3958 23.0867 25.5571 23.0025C25.8928 22.8272 26.0118 22.6884 26.0216 22.5428C26.033 22.3726 25.9094 22.0782 25.3851 21.5733L25.384 21.5722L25.383 21.5712C25.2332 21.4237 25.1425 21.245 25.0782 21.0735C25.0237 20.9279 24.9824 20.7703 24.9445 20.6255C24.9381 20.601 24.9318 20.5769 24.9255 20.5533C24.8311 20.1973 24.7419 19.9502 24.5529 19.8119L24.5506 19.8102L24.5483 19.8084C24.3105 19.6268 24.0648 19.6033 23.7453 19.6103C23.7017 19.6112 23.6553 19.613 23.6065 19.6149C23.3205 19.626 22.9534 19.6402 22.6077 19.506L22.6034 19.5043L22.5991 19.5025C22.4601 19.4438 22.3183 19.3737 22.1845 19.3075C22.1508 19.2909 22.1176 19.2744 22.085 19.2585C21.9175 19.1765 21.7601 19.1035 21.6035 19.0502C21.3002 18.947 21.0235 18.9245 20.7236 19.064Z" fill="#E68C3F"/>
<path d="M22.5554 22.6357C24.7421 19.8342 23.115 19.8566 22.564 19.6399C22.013 19.4158 21.4362 18.975 20.7906 19.2813C20.1449 19.5951 20.1105 20.402 20.0932 21.4628C20.0674 22.2248 19.3357 23.5024 19.7747 24.212C20.3085 25.0413 21.5998 23.8385 22.5554 22.6357V22.6357Z" fill="url(#paint15_linear_18_103)"/>
<path d="M9.34895 23.0391C6.07754 21.2013 7.60988 20.5738 8.10066 20.2824C8.69466 19.9089 8.70329 19.1917 9.43501 19.2589C10.1668 19.3261 10.5972 20.1106 11.0879 21.0818C11.4495 21.7766 12.7064 22.703 12.6117 23.5024C12.4913 24.4437 10.7608 23.8236 9.34895 23.0391V23.0391Z" fill="url(#paint16_linear_18_103)"/>
<path d="M23.6488 19.3635C23.3906 19.7521 22.3403 20.3647 21.643 20.2003C20.9284 20.0434 20.6012 19.1693 20.7477 18.5119C20.8768 17.7648 21.643 17.7274 22.6071 18.101C23.6316 18.5044 23.9502 18.848 23.6488 19.3635Z" fill="black"/>
<path d="M22.9426 19.1468C22.779 19.4158 22.0903 19.8416 21.6082 19.7296C21.1261 19.6176 20.8851 19.0124 20.9625 18.5567C21.0314 18.0412 21.5479 18.0113 22.2022 18.2653C22.9081 18.5493 23.132 18.7883 22.9426 19.1468V19.1468Z" fill="url(#paint17_linear_18_103)"/>
<path d="M14.041 9.39744C14.3853 9.121 15.2204 8.27685 16.8045 9.15834C17.0971 9.32268 17.3382 9.33765 17.8978 9.54681C19.0256 9.95034 18.4918 10.9215 17.2865 11.2502C16.77 11.3921 16.3051 11.9375 15.3753 11.8852C14.5747 11.8478 14.3681 11.3922 13.8774 11.1456C13.0079 10.7198 12.8788 10.1445 13.3522 9.83823C13.8257 9.53193 14.0066 9.41982 14.041 9.39744Z" fill="url(#paint18_linear_18_103)"/>
<path fill-rule="evenodd" clip-rule="evenodd" d="M14.2369 9.44664C14.2099 9.46898 14.1845 9.49008 14.1604 9.50941L14.1537 9.51477L14.1464 9.51951C14.14 9.52371 14.1257 9.53276 14.1024 9.54747C14.019 9.60013 13.8209 9.72536 13.4573 9.96052M14.2369 9.44664C14.4162 9.29798 14.6619 9.0942 15.0155 8.98778ZM15.0155 8.98778C15.4065 8.87007 15.9553 8.86708 16.7093 9.28658ZM16.7093 9.28658C16.8738 9.37888 17.0234 9.42846 17.1932 9.47981C17.2188 9.48754 17.2449 9.49533 17.2717 9.50333C17.4227 9.5484 17.5968 9.60038 17.8283 9.68691L17.8295 9.68738L17.8308 9.68783C18.0864 9.7793 18.2256 9.89482 18.2909 10.0062C18.355 10.1153 18.3595 10.2397 18.3023 10.3734C18.1842 10.6492 17.8043 10.9491 17.2339 11.1046L17.2335 11.1047C17.0826 11.1462 16.9414 11.2154 16.8082 11.287C16.7589 11.3135 16.7115 11.3398 16.6645 11.366C16.5782 11.4139 16.4929 11.4613 16.3986 11.5082C16.1188 11.6472 15.805 11.7565 15.3867 11.733L15.3858 11.7329L15.3848 11.7329C15.0301 11.7163 14.8126 11.6098 14.6207 11.4752C14.5516 11.4268 14.4894 11.3775 14.4231 11.3248C14.391 11.2994 14.358 11.2733 14.3228 11.246C14.2189 11.1657 14.1035 11.083 13.9655 11.0136L13.9647 11.0132L13.9638 11.0128C13.5508 10.8105 13.3433 10.5867 13.2795 10.4031C13.22 10.2318 13.2773 10.077 13.4573 9.96053M14.9002 8.69954C15.4088 8.54644 16.0694 8.56809 16.8994 9.02992L16.9 9.03026C17.0281 9.10219 17.1453 9.14223 17.3089 9.19171C17.3332 9.19906 17.3585 9.20659 17.3848 9.21444C17.536 9.25956 17.7222 9.31514 17.9661 9.40624C18.2737 9.51652 18.4903 9.67354 18.6042 9.86776C18.7196 10.0645 18.7178 10.279 18.6319 10.4797C18.4637 10.8725 17.9742 11.2225 17.3395 11.3956C17.2321 11.4251 17.1216 11.4774 16.9933 11.5463C16.953 11.568 16.91 11.5919 16.8649 11.6169C16.7738 11.6675 16.6744 11.7227 16.5733 11.7729C16.2593 11.9289 15.8761 12.066 15.365 12.0375C14.9196 12.0165 14.6338 11.8766 14.3997 11.7125C14.3222 11.6582 14.2468 11.5984 14.1764 11.5425C14.1462 11.5187 14.117 11.4955 14.089 11.4739C13.9914 11.3984 13.8971 11.3319 13.7902 11.278C13.3341 11.0545 13.0426 10.778 12.9429 10.4911C12.8389 10.1917 12.9537 9.90578 13.2472 9.71593L13.2472 9.71592C13.6136 9.47893 13.7981 9.36241 13.8827 9.30894C13.9037 9.29573 13.9185 9.28637 13.9284 9.27999C13.9464 9.26539 13.9664 9.2487 13.9884 9.23034C14.1645 9.08322 14.4681 8.82964 14.9002 8.69954Z" fill="#E68C3F"/>
<path fill-rule="evenodd" clip-rule="evenodd" d="M17.4076 10.2449C17.5849 10.1594 17.7599 10.0874 17.9088 10.0804L17.9215 10.2835C17.8337 10.2876 17.703 10.3351 17.5214 10.4227C17.4227 10.4703 17.32 10.5238 17.2093 10.5816C17.1168 10.6298 17.0188 10.681 16.9126 10.7341C16.4616 10.9598 15.9128 11.1951 15.341 11.1951C14.7652 11.1951 14.3094 10.963 13.9835 10.7399C13.8404 10.6419 13.7198 10.5437 13.6256 10.467C13.6125 10.4564 13.6 10.4462 13.588 10.4365C13.5373 10.3955 13.4983 10.3649 13.468 10.3445C13.4528 10.3344 13.4431 10.329 13.4377 10.3266C13.437 10.3263 13.4364 10.326 13.436 10.3259C13.4385 10.3267 13.4454 10.3285 13.4557 10.3285V10.1251C13.4935 10.1251 13.5255 10.1369 13.5464 10.1464C13.5689 10.1566 13.5908 10.1699 13.6111 10.1835C13.6515 10.2105 13.6982 10.2476 13.7479 10.2878C13.7603 10.2979 13.7731 10.3083 13.7863 10.319C13.8808 10.3959 13.994 10.488 14.1287 10.5802C14.4356 10.7904 14.8407 10.9917 15.341 10.9917C15.8454 10.9917 16.3468 10.7824 16.7955 10.5579C16.8919 10.5097 16.9886 10.4593 17.0819 10.4107C17.1981 10.3502 17.309 10.2924 17.4076 10.2449ZM13.4351 10.3255C13.4351 10.3255 13.4354 10.3256 13.436 10.3259C13.4354 10.3257 13.4351 10.3255 13.4351 10.3255Z" fill="#E68C3F"/>
<path d="M14.575 9.32279C14.7472 9.18831 15.2896 8.82221 16.0041 9.19571C16.1591 9.27048 16.3141 9.35265 16.5378 9.46468C16.9941 9.6963 16.7703 10.0325 16.2193 10.2416C15.9696 10.3313 15.5565 10.5256 15.2465 10.5106C14.9022 10.4807 14.6697 10.2865 14.4459 10.1595C14.024 9.92043 14.0499 9.71867 14.2479 9.56182C14.3941 9.44222 14.5577 9.3302 14.5751 9.32279H14.575Z" fill="url(#paint19_linear_18_103)"/>
</g>
<path d="M54.624 22.804C54.704 22.612 54.744 22.396 54.744 22.156C54.744 21.852 54.688 21.62 54.576 21.46C52.64 22.036 50.76 22.332 48.936 22.348C48.088 22.348 47.56 22.308 47.352 22.228C47.16 22.148 47.064 21.972 47.064 21.7V7.42C47.08 7.084 47.048 6.852 46.968 6.724C46.904 6.58 46.76 6.492 46.536 6.46C46.328 6.412 45.968 6.388 45.456 6.388C44.464 6.388 43.44 6.54 42.384 6.844C42.336 6.988 42.312 7.124 42.312 7.252C42.312 7.444 42.344 7.596 42.408 7.708L43.92 7.66C44.096 7.66 44.184 8.1 44.184 8.98V21.988C44.184 22.628 44.392 23.092 44.808 23.38C45.224 23.668 45.88 23.812 46.776 23.812C49.704 23.812 52.32 23.476 54.624 22.804ZM57.9191 8.428C57.8871 8.972 58.0151 9.228 58.3031 9.196L60.1751 9.124C60.3831 9.092 60.5111 9.028 60.5591 8.932C60.6231 8.836 60.6551 8.652 60.6551 8.38V7.156C60.6871 6.612 60.5591 6.356 60.2711 6.388L58.3991 6.46C58.1911 6.492 58.0551 6.556 57.9911 6.652C57.9431 6.748 57.9191 6.932 57.9191 7.204V8.428ZM63.0791 23.356C63.1271 23.212 63.1511 23.076 63.1511 22.948C63.1511 22.756 63.1191 22.604 63.0551 22.492H61.3751C61.2151 22.492 61.1351 22.068 61.1351 21.22V12.196C61.1511 11.86 61.1271 11.628 61.0631 11.5C61.0151 11.356 60.8951 11.268 60.7031 11.236C60.5111 11.188 60.1751 11.164 59.6951 11.164C58.5911 11.164 57.5111 11.316 56.4551 11.62C56.4071 11.764 56.3831 11.9 56.3831 12.028C56.3831 12.22 56.4151 12.372 56.4791 12.484L58.1351 12.436C58.3111 12.436 58.3991 12.876 58.3991 13.756V22.78C58.3831 23.116 58.3991 23.356 58.4471 23.5C58.5111 23.628 58.6391 23.708 58.8311 23.74C59.0231 23.788 59.3591 23.812 59.8391 23.812C60.9431 23.812 62.0231 23.66 63.0791 23.356ZM69.8173 13.276C71.3693 12.828 72.5053 12.604 73.2253 12.604C74.1213 12.604 74.5693 12.932 74.5693 13.588V22.78C74.5533 23.116 74.5693 23.356 74.6173 23.5C74.6813 23.628 74.8093 23.708 75.0013 23.74C75.1933 23.788 75.5293 23.812 76.0093 23.812C77.1133 23.812 78.1933 23.66 79.2493 23.356C79.2973 23.212 79.3213 23.076 79.3213 22.948C79.3213 22.756 79.2893 22.604 79.2253 22.492L77.5693 22.54C77.3933 22.54 77.3053 22.1 77.3053 21.22V12.988C77.3053 12.332 77.1213 11.868 76.7533 11.596C76.3853 11.308 75.7613 11.164 74.8813 11.164C74.7213 11.164 74.4493 11.18 74.0653 11.212C73.4253 11.292 72.8813 11.388 72.4333 11.5C72.0653 11.58 71.8893 11.62 71.9053 11.62C71.6653 11.668 71.2653 11.772 70.7053 11.932L69.8173 12.196C69.8333 11.86 69.8093 11.628 69.7453 11.5C69.6973 11.356 69.5773 11.268 69.3853 11.236C69.1933 11.188 68.8573 11.164 68.3773 11.164C67.2733 11.164 66.1933 11.316 65.1373 11.62C65.0893 11.764 65.0653 11.9 65.0653 12.028C65.0653 12.22 65.0973 12.372 65.1613 12.484L66.8173 12.436C66.9933 12.436 67.0813 12.876 67.0813 13.756V23.404C67.0813 23.676 67.2173 23.812 67.4893 23.812C68.1773 23.812 68.8253 23.724 69.4333 23.548C69.6893 23.452 69.8173 23.292 69.8173 23.068V13.276ZM95.0012 23.356C95.0492 23.18 95.0732 23.044 95.0732 22.948C95.0732 22.724 95.0412 22.572 94.9772 22.492L93.3212 22.54C93.1932 22.54 93.1212 22.46 93.1052 22.3C93.0732 22.108 93.0572 21.748 93.0572 21.22V12.196C93.0732 11.86 93.0492 11.628 92.9852 11.5C92.9212 11.356 92.7932 11.268 92.6012 11.236C92.4092 11.188 92.0812 11.164 91.6172 11.164C90.5132 11.164 89.4332 11.316 88.3772 11.62C88.3292 11.764 88.3052 11.9 88.3052 12.028C88.3052 12.252 88.3372 12.404 88.4012 12.484L90.0572 12.436C90.2332 12.436 90.3212 12.876 90.3212 13.756V21.7C88.8812 22.148 87.8412 22.372 87.2012 22.372C86.3052 22.372 85.8572 22.044 85.8572 21.388V12.196C85.8732 11.86 85.8492 11.628 85.7852 11.5C85.7372 11.356 85.6172 11.268 85.4252 11.236C85.2332 11.188 84.8972 11.164 84.4172 11.164C83.3132 11.164 82.2332 11.316 81.1772 11.62C81.1292 11.764 81.1052 11.9 81.1052 12.028C81.1052 12.22 81.1372 12.372 81.2012 12.484L82.8572 12.436C83.0332 12.436 83.1212 12.876 83.1212 13.756V21.988C83.1212 22.644 83.3052 23.116 83.6732 23.404C84.0412 23.676 84.6652 23.812 85.5452 23.812C86.0092 23.812 86.5132 23.764 87.0572 23.668C87.5852 23.572 88.1132 23.444 88.6412 23.284L90.3212 22.78C90.3052 23.116 90.3212 23.356 90.3692 23.5C90.4332 23.628 90.5612 23.708 90.7532 23.74C90.9452 23.788 91.2812 23.812 91.7612 23.812C92.8652 23.812 93.9452 23.66 95.0012 23.356ZM107.496 11.14C107.208 11.012 106.96 10.948 106.752 10.948C106.544 10.948 106.272 11.012 105.936 11.14L103.416 15.484L101.688 12.148C101.528 11.812 101.384 11.58 101.256 11.452C101.144 11.308 100.984 11.22 100.776 11.188C100.584 11.14 100.256 11.116 99.7924 11.116C98.6884 11.116 97.6084 11.268 96.5524 11.572C96.5044 11.684 96.4804 11.812 96.4804 11.956C96.4804 12.084 96.5124 12.244 96.5764 12.436L98.2324 12.388C98.5684 12.388 98.9364 12.828 99.3364 13.708L101.448 17.74L98.0164 23.644C98.2884 23.788 98.5524 23.86 98.8084 23.86C99.0644 23.86 99.3204 23.788 99.5764 23.644L102.192 19.132L104.136 22.78C104.312 23.132 104.448 23.372 104.544 23.5C104.64 23.628 104.784 23.708 104.976 23.74C105.168 23.788 105.496 23.812 105.96 23.812C107.064 23.812 108.144 23.66 109.2 23.356C109.248 23.228 109.272 23.1 109.272 22.972C109.272 22.844 109.24 22.684 109.176 22.492L107.52 22.54C107.184 22.54 106.816 22.1 106.416 21.22L104.16 16.9L107.496 11.14Z" fill="white"/>
<defs>
<filter id="filter0_f_18_103" x="-8.05859" y="8.72424" width="48.0391" height="31.125" filterUnits="userSpaceOnUse" color-interpolation-filters="sRGB">
<feFlood flood-opacity="0" result="BackgroundImageFix"/>
<feBlend mode="normal" in="SourceGraphic" in2="BackgroundImageFix" result="shape"/>
<feGaussianBlur stdDeviation="6.5" result="effect1_foregroundBlur_18_103"/>
</filter>
<linearGradient id="paint0_linear_18_103" x1="21.6656" y1="22.3242" x2="22.0919" y2="16.8145" gradientUnits="userSpaceOnUse">
<stop stop-color="#FFEED7"/>
<stop offset="1" stop-color="#BDBFC2"/>
</linearGradient>
<linearGradient id="paint1_linear_18_103" x1="16.1707" y1="4.40178" x2="15.9673" y2="7.70018" gradientUnits="userSpaceOnUse">
<stop stop-color="white" stop-opacity="0.8"/>
<stop offset="1" stop-color="white" stop-opacity="0"/>
</linearGradient>
<linearGradient id="paint2_linear_18_103" x1="14.1476" y1="9.43652" x2="14.0224" y2="7.55069" gradientUnits="userSpaceOnUse">
<stop stop-color="#FFEED7"/>
<stop offset="1" stop-color="#BDBFC2"/>
</linearGradient>
<linearGradient id="paint3_linear_18_103" x1="17.1641" y1="9.48531" x2="17.164" y2="7.48216" gradientUnits="userSpaceOnUse">
<stop stop-color="#FFEED7"/>
<stop offset="1" stop-color="#BDBFC2"/>
</linearGradient>
<linearGradient id="paint4_linear_18_103" x1="16.9726" y1="8.07829" x2="16.8866" y2="8.84944" gradientUnits="userSpaceOnUse">
<stop stop-color="white" stop-opacity="0.65"/>
<stop offset="1" stop-color="white" stop-opacity="0"/>
</linearGradient>
<linearGradient id="paint5_linear_18_103" x1="14.0357" y1="8.21809" x2="14.1286" y2="8.84448" gradientUnits="userSpaceOnUse">
<stop stop-color="white" stop-opacity="0.65"/>
<stop offset="1" stop-color="white" stop-opacity="0"/>
</linearGradient>
<linearGradient id="paint6_linear_18_103" x1="16.2178" y1="22.2697" x2="16.2178" y2="15.4137" gradientUnits="userSpaceOnUse">
<stop stop-color="#FFEED7"/>
<stop offset="1" stop-color="#BDBFC2"/>
</linearGradient>
<linearGradient id="paint7_linear_18_103" x1="12.0156" y1="22.3668" x2="10.4667" y2="16.2821" gradientUnits="userSpaceOnUse">
<stop stop-color="#FFEED7"/>
<stop offset="1" stop-color="#BDBFC2"/>
</linearGradient>
<linearGradient id="paint8_linear_18_103" x1="15.7807" y1="14.6373" x2="15.796" y2="19.0244" gradientUnits="userSpaceOnUse">
<stop stop-color="white" stop-opacity="0.8"/>
<stop offset="1" stop-color="white" stop-opacity="0"/>
</linearGradient>
<linearGradient id="paint9_linear_18_103" x1="15.8974" y1="11.8863" x2="15.9143" y2="13.6307" gradientUnits="userSpaceOnUse">
<stop stop-color="white" stop-opacity="0.65"/>
<stop offset="1" stop-color="white" stop-opacity="0"/>
</linearGradient>
<linearGradient id="paint10_linear_18_103" x1="10.4685" y1="12.9629" x2="10.4685" y2="19.3645" gradientUnits="userSpaceOnUse">
<stop stop-color="white" stop-opacity="0.65"/>
<stop offset="1" stop-color="white" stop-opacity="0"/>
</linearGradient>
<linearGradient id="paint11_linear_18_103" x1="22.7088" y1="12.3377" x2="22.7069" y2="18.1218" gradientUnits="userSpaceOnUse">
<stop stop-color="white" stop-opacity="0.65"/>
<stop offset="1" stop-color="white" stop-opacity="0"/>
</linearGradient>
<linearGradient id="paint12_linear_18_103" x1="10.0854" y1="22.1089" x2="9.2457" y2="25.4679" gradientUnits="userSpaceOnUse">
<stop stop-color="#FFA63F"/>
<stop offset="1" stop-color="#FFFF00"/>
</linearGradient>
<linearGradient id="paint13_linear_18_103" x1="22.2803" y1="21.7329" x2="22.1626" y2="15.6104" gradientUnits="userSpaceOnUse">
<stop stop-color="#FFEED7"/>
<stop offset="1" stop-color="#BDBFC2"/>
</linearGradient>
<linearGradient id="paint14_linear_18_103" x1="21.1957" y1="21.1126" x2="23.6396" y2="25.1023" gradientUnits="userSpaceOnUse">
<stop stop-color="#FFA63F"/>
<stop offset="1" stop-color="#FFFF00"/>
</linearGradient>
<linearGradient id="paint15_linear_18_103" x1="22.0353" y1="18.2624" x2="21.261" y2="22.6302" gradientUnits="userSpaceOnUse">
<stop stop-color="white" stop-opacity="0.65"/>
<stop offset="1" stop-color="white" stop-opacity="0"/>
</linearGradient>
<linearGradient id="paint16_linear_18_103" x1="9.84606" y1="19.3284" x2="9.99762" y2="24.182" gradientUnits="userSpaceOnUse">
<stop stop-color="white" stop-opacity="0.65"/>
<stop offset="1" stop-color="white" stop-opacity="0"/>
</linearGradient>
<linearGradient id="paint17_linear_18_103" x1="21.8448" y1="18.1839" x2="22.0231" y2="19.6428" gradientUnits="userSpaceOnUse">
<stop stop-color="white" stop-opacity="0.65"/>
<stop offset="1" stop-color="white" stop-opacity="0"/>
</linearGradient>
<linearGradient id="paint18_linear_18_103" x1="15.785" y1="9.31668" x2="15.7998" y2="11.8697" gradientUnits="userSpaceOnUse">
<stop stop-color="#FFA63F"/>
<stop offset="1" stop-color="#FFFF00"/>
</linearGradient>
<linearGradient id="paint19_linear_18_103" x1="15.4509" y1="9.07527" x2="15.4469" y2="10.4252" gradientUnits="userSpaceOnUse">
<stop stop-color="white" stop-opacity="0.65"/>
<stop offset="1" stop-color="white" stop-opacity="0"/>
</linearGradient>
<clipPath id="clip0_18_103">
<rect width="24" height="24" fill="white" transform="translate(4 4)"/>
</clipPath>
</defs>
</svg>
