<svg width="103" height="32" viewBox="0 0 103 32" fill="none" xmlns="http://www.w3.org/2000/svg">
<rect width="103" height="32" rx="4" fill="#153C58"/>
<rect width="32" height="32" rx="4" fill="#98B1C3"/>
<path fill-rule="evenodd" clip-rule="evenodd" d="M19.3002 7.832C20.1402 6.818 20.7042 5.405 20.5502 4C19.3422 4.049 17.8802 4.805 17.0152 5.819C16.2382 6.717 15.5582 8.154 15.7422 9.531C17.0882 9.636 18.4642 8.847 19.3022 7.832M22.3222 16.75C22.3562 20.382 25.5082 21.591 25.5422 21.607C25.5172 21.692 25.0402 23.329 23.8822 25.02C22.8822 26.482 21.8442 27.939 20.2082 27.969C18.6012 27.998 18.0852 27.016 16.2472 27.016C14.4112 27.016 13.8372 27.939 12.3152 27.998C10.7372 28.058 9.5352 26.417 8.5252 24.961C6.4652 21.981 4.8902 16.541 7.0052 12.869C8.0542 11.045 9.9322 9.89 11.9702 9.861C13.5202 9.831 14.9832 10.904 15.9302 10.904C16.8782 10.904 18.6562 9.614 20.5252 9.803C21.3082 9.836 23.5042 10.119 24.9152 12.184C24.8012 12.254 22.2942 13.714 22.3212 16.75" fill="black"/>
<path d="M55.704 8.764C57.32 8.236 58.576 7.972 59.472 7.972C60.016 7.972 60.424 8.012 60.696 8.092C60.984 8.172 61.184 8.324 61.296 8.548C61.408 8.772 61.464 9.1 61.464 9.532V22.78C61.448 23.116 61.472 23.356 61.536 23.5C61.616 23.628 61.76 23.708 61.968 23.74C62.192 23.788 62.56 23.812 63.072 23.812C64.064 23.812 65.088 23.66 66.144 23.356C66.192 23.212 66.216 23.076 66.216 22.948C66.216 22.756 66.184 22.604 66.12 22.492L64.608 22.54C64.432 22.54 64.344 22.1 64.344 21.22V8.212C64.344 7.572 64.136 7.108 63.72 6.82C63.304 6.532 62.648 6.388 61.752 6.388C59.768 6.404 57.728 6.812 55.632 7.612C55.424 6.796 54.624 6.388 53.232 6.388C51.136 6.388 49.08 6.78 47.064 7.564V7.42C47.08 7.084 47.048 6.852 46.968 6.724C46.904 6.58 46.76 6.492 46.536 6.46C46.328 6.412 45.968 6.388 45.456 6.388C44.464 6.388 43.44 6.54 42.384 6.844C42.336 6.988 42.312 7.124 42.312 7.252C42.312 7.444 42.344 7.596 42.408 7.708L43.92 7.66C44.096 7.66 44.184 8.1 44.184 8.98V22.78C44.168 23.116 44.192 23.356 44.256 23.5C44.336 23.628 44.48 23.708 44.688 23.74C44.912 23.788 45.28 23.812 45.792 23.812C46.784 23.812 47.808 23.66 48.864 23.356C48.912 23.212 48.936 23.076 48.936 22.948C48.936 22.756 48.904 22.604 48.84 22.492L47.328 22.54C47.152 22.54 47.064 22.1 47.064 21.22V8.764C48.68 8.236 49.936 7.972 50.832 7.972C51.376 7.972 51.784 8.012 52.056 8.092C52.344 8.172 52.544 8.324 52.656 8.548C52.768 8.772 52.824 9.1 52.824 9.532V22.78C52.808 23.116 52.832 23.356 52.896 23.5C52.976 23.628 53.12 23.708 53.328 23.74C53.552 23.788 53.92 23.812 54.432 23.812C55.424 23.812 56.448 23.66 57.504 23.356C57.552 23.212 57.576 23.076 57.576 22.948C57.576 22.756 57.544 22.604 57.48 22.492L55.968 22.54C55.792 22.54 55.704 22.1 55.704 21.22V8.764ZM80.9391 23.356C80.9871 23.212 81.0111 23.076 81.0111 22.948C81.0111 22.756 80.9791 22.604 80.9151 22.492L79.2591 22.54C79.0831 22.54 78.9951 22.1 78.9951 21.22V12.916C78.9951 12.292 78.7951 11.844 78.3951 11.572C78.0111 11.3 77.3871 11.164 76.5231 11.164C73.8511 11.164 71.4991 11.484 69.4671 12.124C69.4031 12.236 69.3711 12.396 69.3711 12.604C69.3711 12.812 69.4111 13.012 69.4911 13.204C69.8591 13.092 70.6271 12.924 71.7951 12.7C73.1391 12.476 74.0351 12.364 74.4831 12.364C75.2031 12.364 75.6751 12.46 75.8991 12.652C76.1391 12.844 76.2591 13.244 76.2591 13.852V15.724C74.6591 15.804 72.9711 15.98 71.1951 16.252C70.4591 16.412 69.9231 16.684 69.5871 17.068C69.2511 17.436 69.0831 17.956 69.0831 18.628V21.988C69.0831 22.66 69.2671 23.132 69.6351 23.404C70.0031 23.676 70.6271 23.812 71.5071 23.812C72.8351 23.812 74.4191 23.548 76.2591 23.02C76.2591 23.26 76.2911 23.428 76.3551 23.524C76.4191 23.636 76.5471 23.708 76.7391 23.74C76.9471 23.788 77.2671 23.812 77.6991 23.812C78.8351 23.812 79.9151 23.66 80.9391 23.356ZM76.2591 21.94C75.0591 22.292 74.0831 22.468 73.3311 22.468C72.3231 22.468 71.8191 22.108 71.8191 21.388V18.724C71.8191 18.164 71.9231 17.804 72.1311 17.644C72.4191 17.404 72.9631 17.212 73.7631 17.068C74.5471 16.924 75.3791 16.836 76.2591 16.804V21.94ZM92.8646 11.836C92.8646 11.676 92.8006 11.484 92.6726 11.26C92.1606 11.196 91.5286 11.164 90.7766 11.164C89.0166 11.164 87.4486 11.364 86.0726 11.764C85.2726 12.052 84.7366 12.372 84.4646 12.724C84.2086 13.06 84.0806 13.596 84.0806 14.332V22.06C84.0806 22.7 84.2886 23.156 84.7046 23.428C85.1366 23.684 85.8326 23.812 86.7926 23.812C89.0486 23.812 91.1206 23.492 93.0086 22.852C93.0726 22.74 93.1046 22.58 93.1046 22.372C93.1046 22.1 93.0646 21.9 92.9846 21.772C92.5846 21.932 91.8966 22.116 90.9206 22.324C89.9446 22.516 89.1686 22.612 88.5926 22.612C87.8726 22.612 87.3926 22.516 87.1526 22.324C86.9286 22.132 86.8166 21.732 86.8166 21.124V14.428C86.8166 13.9 86.8726 13.532 86.9846 13.324C87.0966 13.116 87.3366 12.94 87.7046 12.796C88.6166 12.444 89.6806 12.268 90.8966 12.268C91.4246 12.268 92.0246 12.308 92.6966 12.388C92.8086 12.18 92.8646 11.996 92.8646 11.836Z" fill="white"/>
</svg>
