<svg width="162" height="32" viewBox="0 0 162 32" fill="none" xmlns="http://www.w3.org/2000/svg">
<rect width="162" height="32" rx="4" fill="#153C58"/>
<rect width="32" height="32" rx="4" fill="#1BADFF"/>
<g clip-path="url(#clip0_18_196)">
<path d="M7 9.58694L14.3125 8.57669V15.6636H7V9.58694ZM15.2119 8.46194L25 7V15.5483H15.2119V8.46194ZM7 16.4517H14.3125V23.5386L7 22.5244V16.4517ZM15.2119 16.4517H25V25L15.3267 23.6494L15.2119 16.4517Z" fill="#D3D3D3"/>
</g>
<path d="M63.216 7.42C63.216 7.148 63.208 6.964 63.192 6.868C63.144 6.612 62.912 6.46 62.496 6.412C62.352 6.396 62.056 6.388 61.608 6.388C60.632 6.388 59.608 6.54 58.536 6.844C58.488 6.988 58.464 7.124 58.464 7.252C58.464 7.444 58.496 7.596 58.56 7.708L60.072 7.66C60.152 7.66 60.216 7.748 60.264 7.924C60.312 8.084 60.336 8.436 60.336 8.98V20.38C60.336 20.844 60.288 21.212 60.192 21.484C60.112 21.756 59.96 21.964 59.736 22.108C59.48 22.268 59.12 22.38 58.656 22.444C58.208 22.508 57.6 22.54 56.832 22.54C56.096 22.54 55.6 22.444 55.344 22.252C55.088 22.06 54.96 21.636 54.96 20.98V7.42C54.96 7.148 54.952 6.964 54.936 6.868C54.888 6.612 54.656 6.46 54.24 6.412C54.096 6.396 53.8 6.388 53.352 6.388C52.376 6.388 51.352 6.54 50.28 6.844C50.232 6.988 50.208 7.124 50.208 7.252C50.208 7.444 50.24 7.596 50.304 7.708L51.816 7.66C51.896 7.66 51.96 7.748 52.008 7.924C52.056 8.084 52.08 8.436 52.08 8.98V21.628C51.056 22.124 49.832 22.372 48.408 22.372C47.864 22.372 47.496 22.244 47.304 21.988C47.128 21.716 47.04 21.228 47.04 20.524V7.42C47.04 7.148 47.032 6.964 47.016 6.868C46.968 6.612 46.736 6.46 46.32 6.412C46.176 6.396 45.88 6.388 45.432 6.388C44.456 6.388 43.432 6.54 42.36 6.844C42.312 6.988 42.288 7.124 42.288 7.252C42.288 7.444 42.32 7.596 42.384 7.708L43.896 7.66C43.976 7.66 44.04 7.748 44.088 7.924C44.136 8.084 44.16 8.436 44.16 8.98V21.172C44.16 21.7 44.216 22.132 44.328 22.468C44.456 22.788 44.648 23.044 44.904 23.236C45.16 23.428 45.504 23.564 45.936 23.644C46.368 23.74 46.928 23.788 47.616 23.788C48.48 23.788 49.328 23.692 50.16 23.5C50.992 23.308 51.744 23.06 52.416 22.756C52.896 23.46 53.8 23.812 55.128 23.812C56.52 23.812 57.696 23.772 58.656 23.692C59.616 23.612 60.416 23.46 61.056 23.236C61.776 22.996 62.312 22.66 62.664 22.228C63.032 21.796 63.216 21.22 63.216 20.5V7.42ZM68.1613 8.428C68.1293 8.972 68.2573 9.228 68.5453 9.196L70.4173 9.124C70.6253 9.092 70.7533 9.028 70.8013 8.932C70.8653 8.836 70.8973 8.652 70.8973 8.38V7.156C70.9293 6.612 70.8013 6.356 70.5133 6.388L68.6413 6.46C68.4333 6.492 68.2973 6.556 68.2333 6.652C68.1853 6.748 68.1613 6.932 68.1613 7.204V8.428ZM73.3213 23.356C73.3693 23.212 73.3933 23.076 73.3933 22.948C73.3933 22.756 73.3613 22.604 73.2973 22.492H71.6173C71.4573 22.492 71.3773 22.068 71.3773 21.22V12.196C71.3933 11.86 71.3693 11.628 71.3053 11.5C71.2573 11.356 71.1373 11.268 70.9453 11.236C70.7533 11.188 70.4173 11.164 69.9373 11.164C68.8333 11.164 67.7533 11.316 66.6973 11.62C66.6493 11.764 66.6253 11.9 66.6253 12.028C66.6253 12.22 66.6573 12.372 66.7213 12.484L68.3773 12.436C68.5533 12.436 68.6413 12.876 68.6413 13.756V22.78C68.6253 23.116 68.6413 23.356 68.6893 23.5C68.7533 23.628 68.8813 23.708 69.0733 23.74C69.2653 23.788 69.6013 23.812 70.0813 23.812C71.1853 23.812 72.2653 23.66 73.3213 23.356ZM80.0595 13.276C81.6115 12.828 82.7475 12.604 83.4675 12.604C84.3635 12.604 84.8115 12.932 84.8115 13.588V22.78C84.7955 23.116 84.8115 23.356 84.8595 23.5C84.9235 23.628 85.0515 23.708 85.2435 23.74C85.4355 23.788 85.7715 23.812 86.2515 23.812C87.3555 23.812 88.4355 23.66 89.4915 23.356C89.5395 23.212 89.5635 23.076 89.5635 22.948C89.5635 22.756 89.5315 22.604 89.4675 22.492L87.8115 22.54C87.6355 22.54 87.5475 22.1 87.5475 21.22V12.988C87.5475 12.332 87.3635 11.868 86.9955 11.596C86.6275 11.308 86.0035 11.164 85.1235 11.164C84.9635 11.164 84.6915 11.18 84.3075 11.212C83.6675 11.292 83.1235 11.388 82.6755 11.5C82.3075 11.58 82.1315 11.62 82.1475 11.62C81.9075 11.668 81.5075 11.772 80.9475 11.932L80.0595 12.196C80.0755 11.86 80.0515 11.628 79.9875 11.5C79.9395 11.356 79.8195 11.268 79.6275 11.236C79.4355 11.188 79.0995 11.164 78.6195 11.164C77.5155 11.164 76.4355 11.316 75.3795 11.62C75.3315 11.764 75.3075 11.9 75.3075 12.028C75.3075 12.22 75.3395 12.372 75.4035 12.484L77.0595 12.436C77.2355 12.436 77.3235 12.876 77.3235 13.756V23.404C77.3235 23.676 77.4595 23.812 77.7315 23.812C78.4195 23.812 79.0675 23.724 79.6755 23.548C79.9315 23.452 80.0595 23.292 80.0595 23.068V13.276ZM104.931 23.356C104.979 23.212 105.003 23.076 105.003 22.948C105.003 22.756 104.971 22.604 104.907 22.492H103.227C103.067 22.492 102.987 22.068 102.987 21.22V7.42C103.003 7.084 102.979 6.852 102.915 6.724C102.867 6.58 102.747 6.492 102.555 6.46C102.363 6.412 102.027 6.388 101.547 6.388C100.443 6.388 99.3634 6.54 98.3074 6.844C98.2594 6.988 98.2354 7.124 98.2354 7.252C98.2354 7.444 98.2674 7.596 98.3314 7.708L99.9874 7.66C100.163 7.66 100.251 8.1 100.251 8.98V11.164C98.1874 11.228 96.3954 11.404 94.8754 11.692C93.4674 11.948 92.7634 12.708 92.7634 13.972V21.988C92.7634 22.644 92.9474 23.116 93.3154 23.404C93.6834 23.676 94.3074 23.812 95.1874 23.812C95.3474 23.812 95.6194 23.796 96.0034 23.764C96.6434 23.684 97.1954 23.588 97.6594 23.476C98.2354 23.332 98.8034 23.18 99.3634 23.02L100.251 22.78C100.235 23.116 100.251 23.356 100.299 23.5C100.363 23.628 100.491 23.708 100.683 23.74C100.875 23.788 101.211 23.812 101.691 23.812C102.795 23.812 103.875 23.66 104.931 23.356ZM100.251 21.7C98.6674 22.148 97.5314 22.372 96.8434 22.372C95.9474 22.372 95.4994 22.044 95.4994 21.388V13.996C95.4994 13.564 95.6034 13.252 95.8114 13.06C96.0354 12.868 96.4674 12.708 97.1074 12.58C97.7314 12.452 98.7794 12.348 100.251 12.268V21.7ZM118.301 13.756C118.301 13.068 118.205 12.54 118.013 12.172C117.821 11.804 117.501 11.548 117.053 11.404C116.621 11.244 115.997 11.164 115.181 11.164C112.733 11.164 110.941 11.356 109.805 11.74C108.685 12.14 108.125 12.836 108.125 13.828V21.172C108.125 21.86 108.221 22.388 108.413 22.756C108.621 23.124 108.949 23.388 109.397 23.548C109.845 23.708 110.477 23.788 111.293 23.788C113.757 23.788 115.541 23.588 116.645 23.188C117.749 22.772 118.301 22.084 118.301 21.124V13.756ZM115.565 21.028C115.581 21.652 115.389 22.092 114.989 22.348C114.605 22.588 113.709 22.724 112.301 22.756C111.725 22.756 111.341 22.628 111.149 22.372C110.957 22.116 110.861 21.628 110.861 20.908V13.924C110.845 13.284 111.053 12.828 111.485 12.556C111.885 12.3 112.781 12.172 114.173 12.172C114.701 12.172 115.061 12.308 115.253 12.58C115.461 12.836 115.565 13.324 115.565 14.044V21.028ZM133.51 12.988C133.51 12.636 133.494 12.364 133.462 12.172C133.446 11.98 133.382 11.812 133.27 11.668C132.998 11.348 132.454 11.188 131.638 11.188C130.774 11.188 129.822 11.34 128.782 11.644C128.766 11.74 128.758 11.844 128.758 11.956C128.758 12.18 128.806 12.404 128.902 12.628C129.414 12.5 129.902 12.436 130.366 12.436C130.542 12.436 130.654 12.516 130.702 12.676C130.75 12.836 130.774 13.14 130.774 13.588V21.772C129.974 22.332 128.918 22.612 127.606 22.612C127.126 22.612 126.782 22.476 126.574 22.204C126.382 21.932 126.286 21.46 126.286 20.788V12.196C126.286 11.924 126.278 11.74 126.262 11.644C126.214 11.388 126.006 11.236 125.638 11.188C125.51 11.172 125.246 11.164 124.846 11.164C123.758 11.164 122.678 11.316 121.606 11.62C121.558 11.764 121.534 11.9 121.534 12.028C121.534 12.22 121.566 12.372 121.63 12.484L123.286 12.436C123.366 12.436 123.43 12.524 123.478 12.7C123.526 12.86 123.55 13.212 123.55 13.756V21.172C123.55 22.18 123.854 22.868 124.462 23.236C124.766 23.428 125.15 23.564 125.614 23.644C126.078 23.74 126.654 23.788 127.342 23.788C128.878 23.788 130.118 23.492 131.062 22.9C131.286 23.252 131.646 23.484 132.142 23.596C132.638 23.724 133.398 23.788 134.422 23.788C135.606 23.788 136.59 23.724 137.374 23.596C138.158 23.468 138.79 23.26 139.27 22.972C139.734 22.7 140.07 22.356 140.278 21.94C140.502 21.524 140.614 21.012 140.614 20.404V12.988C140.614 12.636 140.598 12.364 140.566 12.172C140.55 11.98 140.486 11.812 140.374 11.668C140.102 11.348 139.558 11.188 138.742 11.188C137.878 11.188 136.926 11.34 135.886 11.644C135.87 11.74 135.862 11.844 135.862 11.956C135.862 12.18 135.91 12.404 136.006 12.628C136.518 12.5 137.006 12.436 137.47 12.436C137.646 12.436 137.758 12.516 137.806 12.676C137.854 12.836 137.878 13.14 137.878 13.588V20.308C137.878 20.804 137.822 21.212 137.71 21.532C137.614 21.836 137.446 22.076 137.206 22.252C136.966 22.444 136.646 22.58 136.246 22.66C135.846 22.724 135.326 22.756 134.686 22.756C134.238 22.756 133.926 22.636 133.75 22.396C133.59 22.14 133.51 21.644 133.51 20.908V12.988ZM144.361 23.692C145.209 23.772 146.385 23.812 147.889 23.812C149.121 23.812 150.121 23.644 150.889 23.308C151.673 22.956 152.065 22.436 152.065 21.748C152.065 21.108 151.793 20.348 151.249 19.468L147.889 14.164C147.633 13.796 147.505 13.476 147.505 13.204C147.505 12.564 148.121 12.244 149.353 12.244C150.281 12.244 150.969 12.276 151.417 12.34C151.497 12.132 151.537 11.956 151.537 11.812C151.537 11.636 151.489 11.452 151.393 11.26C150.865 11.196 150.137 11.164 149.209 11.164C146.153 11.164 144.625 11.844 144.625 13.204C144.625 13.604 144.681 13.956 144.793 14.26C144.905 14.564 145.153 15.004 145.537 15.58L148.897 20.884C149.121 21.3 149.233 21.588 149.233 21.748C149.233 22.132 149.073 22.388 148.753 22.516C148.417 22.66 147.841 22.732 147.025 22.732C145.761 22.732 144.865 22.692 144.337 22.612C144.273 22.756 144.241 22.932 144.241 23.14C144.241 23.348 144.281 23.532 144.361 23.692Z" fill="white"/>
<defs>
<clipPath id="clip0_18_196">
<rect width="18" height="18" fill="white" transform="translate(7 7)"/>
</clipPath>
</defs>
</svg>
