<svg width="123" height="35" viewBox="0 0 123 35" fill="none" xmlns="http://www.w3.org/2000/svg">
<rect x="29" width="94" height="27" rx="4" fill="#424D61"/>
<g filter="url(#filter0_i_1_481)">
<rect x="29" y="2" width="92" height="23" rx="4" fill="#212B3E"/>
</g>
<rect x="8" width="27" height="27" rx="4" fill="url(#paint0_linear_1_481)"/>
<g filter="url(#filter1_i_1_481)">
<rect x="10" y="2" width="23" height="23" rx="4" fill="#E27A20"/>
</g>
<g filter="url(#filter2_f_1_481)">
<path d="M30 20.0878C30 21.1415 26.195 22 21.5 22C16.8051 22 13 21.147 13 20.0878C13 19.0342 16.8051 18.1756 21.5 18.1756C26.195 18.1756 29.9934 19.0342 30 20.0878Z" fill="black" fill-opacity="0.2"/>
</g>
<path d="M16.8449 18.0307C16.0215 17.0384 15.8621 13.805 17.7812 11.8147C18.7309 10.8615 18.9766 10.1981 19.0496 9.3005C19.1027 8.28029 18.193 5.24204 21.6195 5.01347C25.0926 4.77931 24.9 7.65589 24.8801 9.17787C24.8668 10.46 26.0024 11.1904 26.7859 12.1939C28.227 14.0336 28.1074 17.2 26.5137 18.9171C24.4949 21.0634 22.7684 20.1324 21.6195 20.2105C19.468 20.3164 19.3949 21.2753 16.8449 18.0307V18.0307Z" fill="black"/>
<path d="M25.2254 12.3834C25.823 12.8461 27.3703 14.9143 24.9199 16.2077C24.0567 16.6593 25.6903 18.3763 26.4738 17.5457C27.8618 16.0517 26.9786 13.6656 26.1418 12.8126C25.584 12.2106 24.7207 11.9764 25.2254 12.3834L25.2254 12.3834Z" fill="url(#paint1_linear_1_481)"/>
<path d="M25.0594 12.1047C26.0422 12.7737 27.8285 15.115 25.2188 16.6425C24.3621 17.1164 25.9758 18.6161 26.8856 17.8523C30.0398 15.1875 26.8059 12.1269 25.6902 11.0733C24.6941 10.1535 23.8109 11.2851 25.0594 12.1047Z" fill="black"/>
<path fill-rule="evenodd" clip-rule="evenodd" d="M24.998 10.7015C25.2137 10.7126 25.4636 10.8199 25.7164 11.0533L25.7166 11.0536L25.7166 11.0536C26.2741 11.5801 27.3659 12.6124 27.9222 13.8481C28.2005 14.4665 28.3454 15.137 28.2213 15.8215C28.0972 16.5064 27.704 17.2029 26.9107 17.8732L26.9106 17.8733C26.6741 18.0718 26.3905 18.1234 26.1145 18.0813C25.8401 18.0394 25.5737 17.9051 25.365 17.7327C25.1564 17.5604 25.002 17.3473 24.9552 17.1445C24.9081 16.9403 24.9707 16.7445 25.199 16.618C25.8459 16.2393 26.2183 15.8114 26.3997 15.3734C26.5812 14.9351 26.5723 14.4842 26.4519 14.0585C26.2108 13.206 25.5236 12.4589 25.0374 12.1279C24.4055 11.713 24.3011 11.2097 24.5027 10.9217C24.6038 10.7772 24.7809 10.6904 24.998 10.7015ZM24.5636 10.9517C24.3867 11.2044 24.4648 11.6767 25.0812 12.0813L25.0817 12.0816L25.0817 12.0816C25.5783 12.4197 26.2754 13.1777 26.5207 14.0448C26.6435 14.479 26.6533 14.9417 26.4664 15.3929C26.2795 15.8443 25.8967 16.2819 25.239 16.6669L25.2382 16.6673L25.2382 16.6673C25.0385 16.7778 24.9816 16.947 25.0246 17.1333C25.0679 17.3211 25.2131 17.524 25.4146 17.6904C25.6159 17.8567 25.87 17.9837 26.1272 18.023C26.3829 18.062 26.6422 18.0147 26.8606 17.8314C27.6443 17.1692 28.0298 16.4839 28.1515 15.8126C28.2733 15.1408 28.1314 14.4807 27.8561 13.8691C27.3051 12.645 26.2222 11.6203 25.6639 11.0931C25.4187 10.8667 25.1847 10.7706 24.9937 10.7607C24.8041 10.751 24.6517 10.8258 24.5636 10.9517Z" fill="black"/>
<path d="M23.6449 6.46842C23.6117 7.2322 22.609 7.89569 21.407 7.95701C20.2051 8.01833 19.2622 7.43855 19.2953 6.67477C19.3285 5.91099 20.3313 5.24756 21.5332 5.18625C22.7351 5.13051 23.6781 5.7047 23.6449 6.46842V6.46842Z" fill="url(#paint2_linear_1_481)"/>
<path d="M20.7695 8.28587C20.8028 8.78205 20.5238 9.20015 20.1387 9.21684C19.7535 9.2336 19.4148 8.84895 19.3816 8.35277C19.3484 7.8566 19.6273 7.43849 20.0125 7.4218C20.3976 7.40504 20.7364 7.78969 20.7695 8.28587V8.28587Z" fill="url(#paint3_linear_1_481)"/>
<path d="M21.4668 8.32491C21.4801 8.89909 21.925 9.35623 22.4563 9.34512C22.9875 9.33395 23.4058 8.86006 23.3926 8.28029C23.3793 7.7061 22.9344 7.24896 22.4031 7.26013C21.8719 7.27124 21.4469 7.75066 21.4668 8.32491V8.32491Z" fill="url(#paint4_linear_1_481)"/>
<path d="M21.9051 8.45312C21.8984 8.77088 22.0844 9.02731 22.3301 9.02731C22.5692 9.02731 22.775 8.77088 22.7817 8.45871C22.7883 8.14096 22.6023 7.88446 22.3566 7.88446C22.111 7.88446 21.9117 8.14096 21.9051 8.45312ZM20.3711 8.45871C20.4043 8.72073 20.2848 8.94372 20.1121 8.966C19.9395 8.98275 19.7734 8.78763 19.7402 8.52561C19.707 8.26359 19.8266 8.04055 19.9992 8.01827C20.1719 8.00157 20.3379 8.19669 20.3711 8.45871V8.45871Z" fill="black"/>
<path d="M22.0047 8.2747C21.9848 8.45312 22.0844 8.59804 22.2238 8.60921C22.3633 8.62038 22.4961 8.48099 22.516 8.30815C22.5359 8.12979 22.4363 7.98481 22.2969 7.97364C22.1574 7.96253 22.0246 8.10192 22.0047 8.27476V8.2747Z" fill="url(#paint5_linear_1_481)"/>
<path d="M20.225 8.31932C20.2449 8.4643 20.1719 8.59251 20.0657 8.60362C19.9594 8.61479 19.8598 8.50327 19.8398 8.35277C19.8199 8.2078 19.893 8.07958 19.9992 8.06847C20.1055 8.0573 20.2051 8.17435 20.225 8.31932V8.31932Z" fill="url(#paint6_linear_1_481)"/>
<path d="M18.1332 13.7938C18.6047 12.8962 19.6074 11.3186 19.6274 10.0977C19.6274 9.12767 23.0871 8.89351 23.3661 9.86358C23.6449 10.8336 24.3488 12.283 24.8004 12.9855C25.252 13.6823 26.5602 15.9067 25.1656 17.8467C23.9105 19.5638 20.1055 20.9241 18.0734 17.6126C17.3828 16.4642 17.5089 15.0426 18.1332 13.7938Z" fill="url(#paint7_linear_1_481)"/>
<path d="M17.7082 13.1248C17.3031 13.7659 16.4664 15.4495 18.5117 16.3694C20.7098 17.3506 20.7031 19.3631 18.0601 18.4042C15.643 17.5401 16.7121 14.0391 17.3895 13.2029C17.8277 12.6175 18.4918 11.8984 17.7082 13.1248V13.1248Z" fill="url(#paint8_linear_1_481)"/>
<path d="M18.0535 12.4001C17.4094 13.281 15.8688 15.3548 17.934 16.4363C20.7098 17.8691 19.9262 19.2962 17.3895 18.0084C13.8168 16.2133 16.9578 12.5897 18.3856 11.2071C20.0192 9.65729 18.6977 11.4914 18.0535 12.4001V12.4001Z" fill="black"/>
<path fill-rule="evenodd" clip-rule="evenodd" d="M18.8981 10.8034C18.7804 10.8988 18.6234 11.0388 18.4196 11.2321C17.7066 11.9225 16.5694 13.1693 16.0552 14.4651C15.7982 15.1126 15.6982 15.7692 15.8809 16.3735C16.0633 16.9764 16.5286 17.5316 17.4127 17.9758L17.4129 17.9759C18.0438 18.2962 18.5615 18.4454 18.9385 18.4697C19.3171 18.4941 19.539 18.3932 19.6116 18.2293C19.6863 18.0605 19.615 17.8022 19.3403 17.49C19.0675 17.1799 18.6011 16.8252 17.9104 16.4686L17.9101 16.4685C17.3855 16.1938 17.0872 15.8543 16.9477 15.4847C16.8086 15.116 16.8288 14.7205 16.9337 14.3345C17.1395 13.5771 17.6745 12.8457 17.9979 12.4036C18.0031 12.3965 18.0083 12.3894 18.0134 12.3824L18.0147 12.3807C18.0375 12.3485 18.0611 12.3152 18.0854 12.281C18.4053 11.8302 18.8417 11.2153 19.0326 10.8659C19.0844 10.7711 19.1157 10.7 19.1236 10.658C19.1242 10.6546 19.1247 10.6517 19.125 10.649C19.1072 10.6558 19.081 10.6696 19.0447 10.6936C19.0055 10.7196 18.957 10.7557 18.8981 10.8034ZM19.1414 10.6444C19.1414 10.6445 19.1409 10.6445 19.1402 10.6445C19.1411 10.6444 19.1415 10.6444 19.1414 10.6444ZM18.0987 12.4105C18.1198 12.3808 18.1416 12.3501 18.1639 12.3186C18.4829 11.8692 18.9217 11.2509 19.1148 10.8975C19.1664 10.8031 19.2028 10.7234 19.2129 10.6698C19.2155 10.6561 19.2167 10.6424 19.2152 10.6297C19.2137 10.6173 19.2093 10.6024 19.1971 10.5899C19.1679 10.5601 19.1238 10.5677 19.0968 10.5766C19.0666 10.5867 19.0305 10.6064 18.9888 10.634C18.9463 10.6621 18.8954 10.7002 18.8353 10.7488C18.7152 10.8462 18.5562 10.9879 18.3517 11.182L18.3517 11.182L18.3514 11.1823C17.6366 11.8745 16.4895 13.1306 15.9695 14.4411C15.7093 15.0966 15.6048 15.7689 15.7933 16.3922C15.9822 17.0167 16.464 17.5876 17.3661 18.0409C18.0035 18.3644 18.5351 18.5198 18.9316 18.5454C19.3267 18.5708 19.6028 18.4668 19.6963 18.2558C19.7875 18.0497 19.6929 17.763 19.413 17.4449C19.1314 17.1247 18.6549 16.7639 17.9578 16.4041C17.4499 16.138 17.1663 15.8127 17.0339 15.4618C16.9012 15.11 16.9192 14.7291 17.0218 14.3514C17.2242 13.6064 17.7527 12.8839 18.077 12.4405C18.0821 12.4336 18.0871 12.4267 18.092 12.42L18.0987 12.4108V12.4105Z" fill="black"/>
<path d="M24.309 14.1339C24.309 15.115 23.1867 16.3862 21.2609 16.375C19.2754 16.3861 18.432 15.115 18.432 14.1339C18.432 13.1527 19.7469 12.3555 21.3672 12.3555C22.9941 12.3611 24.309 13.1527 24.309 14.1339Z" fill="url(#paint9_linear_1_481)"/>
<path d="M23.2598 11.051C23.2399 12.0656 22.4496 12.3054 21.4535 12.3054C20.4574 12.3054 19.7336 12.1548 19.6472 11.051C19.6472 10.3597 20.4574 9.95835 21.4535 9.95835C22.4496 9.95276 23.2598 10.3542 23.2598 11.051H23.2598Z" fill="url(#paint10_linear_1_481)"/>
<path d="M17.2367 12.6119C17.8875 11.7813 19.2621 10.5047 17.4957 12.7904C16.0613 14.6747 16.9645 15.8844 17.4293 16.2189C18.7707 17.2224 18.7176 17.8969 17.6617 17.3673C15.3973 16.2356 15.8688 14.329 17.2367 12.6119V12.6119Z" fill="url(#paint11_linear_1_481)"/>
<path d="M26.6598 12.952C26.0953 11.9764 24.3023 9.50121 26.7461 12.3778C28.9707 14.9812 27.4102 16.7931 27.1312 16.9715C26.8524 17.1499 25.916 17.5123 26.1882 16.8823C26.4672 16.2523 27.8485 15.0593 26.6597 12.952L26.6598 12.952Z" fill="url(#paint12_linear_1_481)"/>
<path d="M16.7453 20.6453C15.2578 19.9819 13.0996 20.7736 13.8832 18.9784C14.0426 18.5715 13.6508 17.9582 13.9031 17.5624C14.202 17.0774 14.8461 17.1833 15.2312 16.86C15.6097 16.5255 15.8488 15.9457 16.5594 16.035C17.2633 16.1241 17.7348 16.8488 18.2262 17.7408C18.5914 18.3763 19.8797 19.2739 19.7934 19.9875C19.6871 21.0801 18.2062 21.2864 16.7453 20.6453V20.6453Z" fill="url(#paint13_linear_1_481)"/>
<path fill-rule="evenodd" clip-rule="evenodd" d="M15.6777 16.6932C15.5937 16.79 15.5002 16.8977 15.3951 16.9907L15.3931 16.9924L15.391 16.9942C15.1878 17.1647 14.9211 17.2405 14.7132 17.2996C14.6773 17.3098 14.6432 17.3195 14.6114 17.3291C14.3797 17.3992 14.2128 17.4726 14.1038 17.6496L14.1031 17.6508L14.1023 17.6519C14.0175 17.7851 14.033 17.972 14.0817 18.2374C14.0852 18.2567 14.0889 18.2765 14.0927 18.2966C14.1125 18.4026 14.134 18.5176 14.1435 18.6275C14.1548 18.7592 14.151 18.9021 14.0979 19.0377L14.0967 19.0407L14.0954 19.0437C13.9038 19.4827 13.9221 19.7026 13.9917 19.8162C14.057 19.923 14.2065 19.9979 14.5085 20.0505C14.6543 20.0759 14.8198 20.0936 15.0048 20.1112C15.0454 20.115 15.0871 20.1189 15.1295 20.1228C15.2768 20.1364 15.4337 20.1509 15.5918 20.1696C15.9996 20.2177 16.4441 20.2963 16.8506 20.4775C17.5498 20.7842 18.2293 20.8766 18.7272 20.7816C18.9737 20.7345 19.1704 20.643 19.3106 20.5137C19.4497 20.3853 19.5452 20.2086 19.5682 19.9721L19.5683 19.9702L19.5686 19.9683C19.5841 19.8402 19.539 19.6879 19.4336 19.5088C19.3291 19.331 19.1752 19.1436 18.9994 18.9499C18.8979 18.8382 18.7985 18.7342 18.699 18.6301C18.6194 18.5469 18.5397 18.4635 18.4588 18.376C18.2872 18.1905 18.1252 18.0017 18.0226 17.8233L18.0218 17.8219L18.0211 17.8205C17.7752 17.3742 17.5428 16.9861 17.2907 16.6995C17.0377 16.412 16.7906 16.2561 16.5258 16.2226C16.268 16.1902 16.1 16.271 15.9357 16.4183C15.849 16.496 15.7696 16.5872 15.6812 16.6891L15.6777 16.6932ZM16.7453 20.6453L16.6393 20.8129C16.3022 20.6626 15.9194 20.5914 15.5289 20.5453C15.3781 20.5275 15.2304 20.5139 15.0842 20.5003C15.0407 20.4963 14.9973 20.4923 14.9541 20.4882C14.7684 20.4706 14.5847 20.4513 14.4166 20.422C14.0911 20.3653 13.7551 20.26 13.5896 19.9896C13.4288 19.7267 13.4706 19.3735 13.6696 18.9165C13.6953 18.849 13.702 18.7635 13.6927 18.6548C13.6847 18.5622 13.6667 18.4659 13.6469 18.3597C13.643 18.3386 13.639 18.3171 13.6349 18.2951C13.5907 18.0535 13.5366 17.7365 13.7031 17.4741C13.893 17.1669 14.1972 17.051 14.4582 16.9721C14.5041 16.9582 14.5475 16.9456 14.5887 16.9336C14.7959 16.8733 14.9472 16.8292 15.0695 16.7275C15.1513 16.6548 15.228 16.567 15.3158 16.4657L15.3204 16.4605C15.4043 16.3637 15.4986 16.255 15.6058 16.1589C15.8333 15.955 16.1401 15.7905 16.5928 15.8473L16.5931 15.8474C17.0322 15.903 17.3727 16.154 17.6543 16.4741C17.9364 16.7948 18.1852 17.2146 18.4305 17.6597C18.5107 17.7988 18.6463 17.96 18.8158 18.1433C18.8844 18.2175 18.9624 18.2992 19.0428 18.3835C19.1491 18.4948 19.2596 18.6106 19.3588 18.7199C19.5399 18.9192 19.7148 19.1298 19.8389 19.3408C19.9619 19.55 20.0454 19.7768 20.0185 20.0047C19.988 20.3137 19.8586 20.5719 19.6449 20.7691C19.4318 20.9657 19.1471 21.0906 18.8274 21.1516C18.1933 21.2725 17.4022 21.1477 16.6406 20.8135L16.7453 20.6453Z" fill="#E68C3F"/>
<path d="M27.5762 16.4307C27.3504 16.7875 26.4075 17.3617 25.7766 17.2112C25.1391 17.0662 24.8469 16.2523 24.9731 15.6335C25.0926 14.9423 25.7766 14.9032 26.6399 15.2488C27.5696 15.6335 27.8485 15.9568 27.5762 16.4307V16.4307Z" fill="url(#paint14_linear_1_481)"/>
<path d="M27.0582 20.3386C28.1473 19.2293 30.5711 19.4579 28.9375 17.936C28.5922 17.607 28.6985 16.9046 28.2735 16.6036C27.7754 16.2356 27.2242 16.5367 26.7195 16.3471C26.2149 16.1408 25.6836 15.745 25.0661 16.0237C24.4485 16.3081 24.382 17.044 24.3223 18.014C24.2691 18.7108 23.5121 19.876 23.9172 20.5171C24.5016 21.5094 26.0223 21.3756 27.0582 20.3387V20.3386Z" fill="url(#paint15_linear_1_481)"/>
<path fill-rule="evenodd" clip-rule="evenodd" d="M26.815 16.1751C26.9752 16.2344 27.1362 16.2294 27.3568 16.2225C27.3999 16.2212 27.4452 16.2198 27.4933 16.2188C27.7726 16.2128 28.107 16.2286 28.4211 16.4599C28.6989 16.6577 28.7892 16.9742 28.8557 17.2167C28.861 17.2363 28.8663 17.2556 28.8714 17.2745C28.901 17.3835 28.9276 17.4818 28.9628 17.5727C29.0036 17.6779 29.0496 17.7554 29.1064 17.8098C29.5181 18.1936 29.7321 18.5158 29.7119 18.8084C29.6903 19.1196 29.4144 19.3136 29.1354 19.4546C28.991 19.5276 28.8265 19.5957 28.6605 19.663C28.6352 19.6733 28.6099 19.6836 28.5844 19.6938C28.4401 19.7522 28.2938 19.8113 28.1471 19.8768C27.8139 20.0255 27.499 20.1983 27.2576 20.4344L27.2314 20.4606C26.6841 21.0084 25.9929 21.334 25.3363 21.378C24.6678 21.4228 24.0518 21.1717 23.716 20.6035C23.5892 20.4013 23.5604 20.1702 23.5765 19.9423C23.5927 19.7129 23.6556 19.4708 23.7295 19.2377C23.7715 19.1052 23.8207 18.965 23.8679 18.8305C23.9013 18.7352 23.9338 18.6427 23.9619 18.558C24.0334 18.3425 24.0848 18.1557 24.0967 18.003C24.1262 17.5227 24.1582 17.0774 24.2657 16.7158C24.3743 16.3504 24.57 16.0357 24.9574 15.8574L24.9582 15.857L24.959 15.8566C25.345 15.6824 25.7057 15.7242 26.0177 15.8269C26.1699 15.877 26.3146 15.9428 26.4462 16.0051C26.4754 16.0189 26.5037 16.0325 26.5314 16.0457C26.6317 16.0937 26.7234 16.1375 26.815 16.1751ZM25.1739 16.1905C24.9442 16.2966 24.7981 16.4919 24.7043 16.8077C24.6093 17.1273 24.5781 17.5345 24.548 18.0238L24.5479 18.0249L24.5479 18.0261C24.533 18.2215 24.4699 18.4414 24.3973 18.6598C24.3646 18.7585 24.331 18.854 24.2975 18.9492C24.2529 19.0761 24.2084 19.2025 24.1664 19.3352C24.095 19.5606 24.0413 19.7735 24.0278 19.9647C24.0142 20.1564 24.0424 20.3103 24.1169 20.4281L24.1184 20.4305L24.1198 20.433C24.3686 20.8555 24.8044 21.0329 25.3004 20.9997C25.808 20.9657 26.3934 20.7072 26.8813 20.2205L26.8838 20.218C27.1839 19.9123 27.5701 19.7045 27.935 19.5417C28.0903 19.4724 28.2457 19.4096 28.3898 19.3513C28.4148 19.3412 28.4395 19.3312 28.4639 19.3213C28.6308 19.2536 28.7778 19.1923 28.9023 19.1294C29.1612 18.9986 29.2531 18.8951 29.2606 18.7864C29.2694 18.6595 29.1741 18.4398 28.7696 18.063L28.7688 18.0622L28.768 18.0614C28.6525 17.9514 28.5825 17.818 28.5329 17.69C28.4908 17.5813 28.459 17.4638 28.4298 17.3557C28.4248 17.3374 28.42 17.3195 28.4151 17.3018C28.3423 17.0362 28.2735 16.8518 28.1277 16.7486L28.1259 16.7473L28.1242 16.746C27.9407 16.6105 27.7512 16.5929 27.5047 16.5981C27.4711 16.5988 27.4353 16.6002 27.3977 16.6016C27.1771 16.6099 26.8939 16.6205 26.6273 16.5203L26.6239 16.5191L26.6206 16.5177C26.5134 16.4739 26.404 16.4216 26.3008 16.3722C26.2748 16.3598 26.2492 16.3475 26.2241 16.3356C26.0948 16.2744 25.9735 16.22 25.8526 16.1802C25.6186 16.1032 25.4052 16.0864 25.1739 16.1905Z" fill="#E68C3F"/>
<path d="M26.5867 18.8558C28.2735 16.7652 27.0184 16.7819 26.5934 16.6203C26.1684 16.453 25.7234 16.1241 25.2254 16.3527C24.7273 16.5868 24.7008 17.1889 24.6875 17.9805C24.6676 18.5492 24.1032 19.5025 24.4418 20.0321C24.8535 20.6509 25.8496 19.7533 26.5867 18.8558V18.8558Z" fill="url(#paint16_linear_1_481)"/>
<path d="M16.4 19.1568C13.8765 17.7854 15.0585 17.3171 15.4371 17.0997C15.8953 16.821 15.9019 16.2858 16.4664 16.336C17.0309 16.3861 17.3629 16.9715 17.7414 17.6962C18.0203 18.2147 18.9898 18.906 18.9168 19.5025C18.8239 20.2049 17.4891 19.7422 16.4 19.1568V19.1568Z" fill="url(#paint17_linear_1_481)"/>
<path d="M27.4301 16.414C27.2309 16.7039 26.4207 17.1611 25.8829 17.0384C25.3317 16.9213 25.0793 16.2691 25.1922 15.7785C25.2918 15.221 25.8829 15.1931 26.6266 15.4719C27.4168 15.7729 27.6625 16.0293 27.4301 16.414Z" fill="black"/>
<path d="M26.8856 16.2523C26.7594 16.453 26.2282 16.7708 25.8562 16.6872C25.4844 16.6036 25.2985 16.152 25.3582 15.8119C25.4114 15.4273 25.8097 15.4049 26.3144 15.5945C26.859 15.8064 27.0317 15.9848 26.8856 16.2523V16.2523Z" fill="url(#paint18_linear_1_481)"/>
<path d="M20.0191 8.97717C20.2848 8.77088 20.9289 8.14096 22.1508 8.79874C22.3766 8.92137 22.5625 8.93255 22.9941 9.08863C23.8641 9.38975 23.4523 10.1144 22.5226 10.3597C22.1242 10.4656 21.7656 10.8726 21.0484 10.8336C20.4308 10.8057 20.2715 10.4657 19.893 10.2817C19.2222 9.96393 19.1227 9.53466 19.4878 9.30609C19.8531 9.07752 19.9926 8.99386 20.0191 8.97717Z" fill="url(#paint19_linear_1_481)"/>
<path fill-rule="evenodd" clip-rule="evenodd" d="M20.1702 9.01388C20.1494 9.03055 20.1298 9.0463 20.1112 9.06072L20.1061 9.06473L20.1005 9.06826C20.0955 9.07139 20.0844 9.07814 20.0665 9.08912C20.0022 9.12842 19.8493 9.22187 19.5689 9.39735M20.1702 9.01388C20.3085 8.90295 20.4981 8.75088 20.7708 8.67147ZM20.7708 8.67147C21.0724 8.58364 21.4958 8.5814 22.0774 8.89444ZM22.0774 8.89444C22.2042 8.96331 22.3196 9.00031 22.4506 9.03863C22.4704 9.0444 22.4905 9.05021 22.5112 9.05619C22.6276 9.08982 22.7619 9.1286 22.9405 9.19317L22.9415 9.19352L22.9425 9.19386C23.1396 9.26212 23.247 9.34832 23.2974 9.43142C23.3468 9.51288 23.3503 9.60571 23.3062 9.70546C23.2151 9.91124 22.922 10.135 22.482 10.2511L22.4817 10.2512C22.3653 10.2821 22.2564 10.3337 22.1537 10.3872C22.1156 10.4069 22.0791 10.4266 22.0428 10.4461C21.9762 10.4819 21.9105 10.5172 21.8377 10.5522C21.6218 10.656 21.3798 10.7376 21.0572 10.72L21.0564 10.72L21.0557 10.7199C20.7821 10.7076 20.6143 10.628 20.4662 10.5276C20.413 10.4915 20.365 10.4547 20.3138 10.4154C20.2891 10.3965 20.2637 10.3769 20.2365 10.3566C20.1563 10.2967 20.0674 10.2349 19.9609 10.1832L19.9603 10.1829L19.9596 10.1825C19.641 10.0316 19.481 9.86461 19.4317 9.72758C19.3858 9.59981 19.43 9.48425 19.5689 9.39735M20.6819 8.45638C21.0742 8.34214 21.5838 8.3583 22.224 8.70292L22.2244 8.70317C22.3233 8.75685 22.4136 8.78673 22.5399 8.82365C22.5586 8.82913 22.5781 8.83476 22.5984 8.84061C22.715 8.87428 22.8587 8.91575 23.0468 8.98374C23.2841 9.06603 23.4512 9.1832 23.539 9.32813C23.6281 9.4749 23.6266 9.63503 23.5604 9.78475C23.4306 10.0779 23.053 10.339 22.5634 10.4682C22.4807 10.4903 22.3954 10.5293 22.2964 10.5807C22.2654 10.5968 22.2322 10.6147 22.1974 10.6334C22.1271 10.6711 22.0505 10.7123 21.9724 10.7498C21.7303 10.8662 21.4346 10.9685 21.0404 10.9472C20.6969 10.9316 20.4764 10.8272 20.2958 10.7047C20.236 10.6642 20.1778 10.6195 20.1235 10.5779C20.1003 10.5601 20.0778 10.5428 20.0561 10.5266C19.9809 10.4703 19.9082 10.4207 19.8256 10.3805C19.4739 10.2137 19.249 10.0074 19.1721 9.79331C19.0918 9.56986 19.1804 9.3565 19.4068 9.21483L19.4068 9.21482C19.6894 9.03798 19.8317 8.95103 19.897 8.91113C19.9132 8.90127 19.9246 8.89428 19.9323 8.88952C19.9462 8.87863 19.9616 8.86617 19.9786 8.85248C20.1144 8.74269 20.3486 8.55347 20.6819 8.45638Z" fill="#E68C3F"/>
<path fill-rule="evenodd" clip-rule="evenodd" d="M22.616 9.6095C22.7527 9.54574 22.8877 9.492 23.0026 9.48675L23.0124 9.6383C22.9446 9.64139 22.8439 9.67685 22.7038 9.74218C22.6276 9.77768 22.5484 9.81765 22.463 9.86079C22.3917 9.89677 22.3161 9.93495 22.2341 9.97459C21.8863 10.143 21.4629 10.3185 21.0219 10.3185C20.5777 10.3185 20.2261 10.1454 19.9748 9.97888C19.8644 9.90575 19.7713 9.8325 19.6986 9.77527C19.6886 9.76736 19.6789 9.75976 19.6697 9.7525C19.6306 9.72188 19.6005 9.69903 19.5771 9.68385C19.5654 9.6763 19.5579 9.67231 19.5537 9.67047C19.5532 9.67024 19.5528 9.67007 19.5524 9.66994C19.5543 9.67052 19.5597 9.67186 19.5676 9.67186V9.52009C19.5968 9.52009 19.6215 9.52893 19.6376 9.536C19.6549 9.54364 19.6718 9.55354 19.6875 9.56367C19.7187 9.58386 19.7547 9.61153 19.793 9.64153C19.8026 9.64905 19.8125 9.65682 19.8226 9.66481C19.8955 9.72218 19.9828 9.7909 20.0868 9.85974C20.3235 10.0166 20.636 10.1668 21.0219 10.1668C21.4109 10.1668 21.7977 10.0106 22.1439 9.8431C22.2182 9.80712 22.2928 9.76953 22.3647 9.73326C22.4543 9.6881 22.5399 9.64497 22.616 9.6095ZM19.5517 9.66967C19.5517 9.66966 19.5519 9.66974 19.5524 9.66994C19.552 9.66979 19.5517 9.66969 19.5517 9.66967Z" fill="#E68C3F"/>
<path d="M52.6666 19C51.856 19 51.2266 18.7867 50.7786 18.36C50.3306 17.9333 50.1066 17.336 50.1066 16.568V8.6C50.1066 8.30133 50.2026 8.06667 50.3946 7.896C50.5866 7.72533 50.8426 7.64 51.1626 7.64C51.4826 7.64 51.7386 7.73067 51.9306 7.912C52.1333 8.08267 52.2346 8.312 52.2346 8.6V16.568C52.2346 16.8133 52.2933 17.0053 52.4106 17.144C52.5386 17.2827 52.7093 17.352 52.9226 17.352H58.0426C58.3626 17.352 58.608 17.4267 58.7786 17.576C58.9493 17.7147 59.0346 17.9173 59.0346 18.184C59.0346 18.44 58.944 18.6427 58.7626 18.792C58.592 18.9307 58.352 19 58.0426 19H52.6666ZM65.333 10.008C64.9383 10.008 64.6183 9.90133 64.373 9.688C64.1383 9.464 64.021 9.176 64.021 8.824C64.021 8.472 64.1383 8.18933 64.373 7.976C64.6183 7.752 64.9383 7.64 65.333 7.64C65.7277 7.64 66.0477 7.752 66.293 7.976C66.549 8.18933 66.677 8.472 66.677 8.824C66.677 9.176 66.549 9.464 66.293 9.688C66.0477 9.90133 65.7277 10.008 65.333 10.008ZM65.349 19.16C65.0183 19.16 64.7623 19.0747 64.581 18.904C64.3997 18.7333 64.309 18.4987 64.309 18.2V11.96C64.309 11.6613 64.3997 11.4267 64.581 11.256C64.7623 11.0853 65.0183 11 65.349 11C65.669 11 65.925 11.0853 66.117 11.256C66.309 11.4267 66.405 11.6613 66.405 11.96V18.2C66.405 18.4987 66.309 18.7333 66.117 18.904C65.925 19.0747 65.669 19.16 65.349 19.16ZM73.026 19.16C72.6953 19.16 72.4393 19.0747 72.258 18.904C72.0767 18.7333 71.986 18.4987 71.986 18.2V11.96C71.986 11.6507 72.0713 11.416 72.242 11.256C72.4233 11.0853 72.674 11 72.994 11C73.314 11 73.5647 11.0853 73.746 11.256C73.9273 11.4267 74.018 11.6613 74.018 11.96V12.424C74.7753 11.4747 75.81 11 77.122 11C78.146 11 78.9513 11.3253 79.538 11.976C80.1353 12.616 80.434 13.4907 80.434 14.6V18.2C80.434 18.4987 80.338 18.7333 80.146 18.904C79.954 19.0747 79.698 19.16 79.378 19.16C79.0473 19.16 78.7913 19.0747 78.61 18.904C78.4287 18.7333 78.338 18.4987 78.338 18.2V14.6C78.338 13.992 78.1887 13.5173 77.89 13.176C77.5913 12.8347 77.1753 12.664 76.642 12.664C75.8313 12.664 75.202 12.904 74.754 13.384C74.306 13.8533 74.082 14.5147 74.082 15.368V18.2C74.082 18.4987 73.986 18.7333 73.794 18.904C73.602 19.0747 73.346 19.16 73.026 19.16ZM89.0778 19.16C87.9791 19.16 87.1204 18.8453 86.5018 18.216C85.8938 17.576 85.5898 16.6907 85.5898 15.56V11.96C85.5898 11.6613 85.6858 11.4267 85.8778 11.256C86.0698 11.0853 86.3258 11 86.6458 11C86.9764 11 87.2324 11.0853 87.4138 11.256C87.5951 11.4267 87.6858 11.6613 87.6858 11.96V15.56C87.6858 16.168 87.8458 16.6427 88.1658 16.984C88.4964 17.3253 88.9551 17.496 89.5418 17.496C90.2991 17.496 90.8858 17.256 91.3018 16.776C91.7284 16.296 91.9418 15.6347 91.9418 14.792V11.96C91.9418 11.6613 92.0378 11.4267 92.2298 11.256C92.4218 11.0853 92.6778 11 92.9978 11C93.3284 11 93.5844 11.0853 93.7658 11.256C93.9471 11.4267 94.0378 11.6613 94.0378 11.96V18.2C94.0378 18.5093 93.9471 18.7493 93.7658 18.92C93.5951 19.08 93.3498 19.16 93.0298 19.16C92.7098 19.16 92.4591 19.0747 92.2778 18.904C92.0964 18.7333 92.0058 18.4987 92.0058 18.2V17.736C91.6111 18.2267 91.1738 18.5893 90.6938 18.824C90.2244 19.048 89.6858 19.16 89.0778 19.16ZM106.954 17.672C107.124 17.8427 107.21 18.0453 107.21 18.28C107.21 18.536 107.103 18.7547 106.89 18.936C106.719 19.0747 106.527 19.144 106.314 19.144C106.026 19.144 105.759 19.0213 105.514 18.776L103.21 16.312L100.89 18.776C100.644 19.0213 100.378 19.144 100.09 19.144C99.8762 19.144 99.6842 19.0747 99.5135 18.936C99.3002 18.7547 99.1935 18.536 99.1935 18.28C99.1935 18.0453 99.2788 17.8427 99.4495 17.672L101.962 15L99.6575 12.552C99.4548 12.328 99.3535 12.0987 99.3535 11.864C99.3535 11.608 99.4602 11.3893 99.6735 11.208C99.8228 11.0693 100.01 11 100.234 11C100.522 11 100.804 11.1387 101.082 11.416L103.21 13.672L105.322 11.416C105.599 11.1387 105.882 11 106.17 11C106.394 11 106.58 11.0693 106.73 11.208C106.943 11.3893 107.05 11.608 107.05 11.864C107.05 12.0987 106.948 12.328 106.746 12.552L104.442 15L106.954 17.672Z" fill="white"/>
<defs>
<filter id="filter0_i_1_481" x="29" y="2" width="92" height="27" filterUnits="userSpaceOnUse" color-interpolation-filters="sRGB">
<feFlood flood-opacity="0" result="BackgroundImageFix"/>
<feBlend mode="normal" in="SourceGraphic" in2="BackgroundImageFix" result="shape"/>
<feColorMatrix in="SourceAlpha" type="matrix" values="0 0 0 0 0 0 0 0 0 0 0 0 0 0 0 0 0 0 127 0" result="hardAlpha"/>
<feOffset dy="4"/>
<feGaussianBlur stdDeviation="2"/>
<feComposite in2="hardAlpha" operator="arithmetic" k2="-1" k3="1"/>
<feColorMatrix type="matrix" values="0 0 0 0 0 0 0 0 0 0 0 0 0 0 0 0 0 0 0.25 0"/>
<feBlend mode="normal" in2="shape" result="effect1_innerShadow_1_481"/>
</filter>
<filter id="filter1_i_1_481" x="10" y="2" width="23" height="27" filterUnits="userSpaceOnUse" color-interpolation-filters="sRGB">
<feFlood flood-opacity="0" result="BackgroundImageFix"/>
<feBlend mode="normal" in="SourceGraphic" in2="BackgroundImageFix" result="shape"/>
<feColorMatrix in="SourceAlpha" type="matrix" values="0 0 0 0 0 0 0 0 0 0 0 0 0 0 0 0 0 0 127 0" result="hardAlpha"/>
<feOffset dy="4"/>
<feGaussianBlur stdDeviation="2"/>
<feComposite in2="hardAlpha" operator="arithmetic" k2="-1" k3="1"/>
<feColorMatrix type="matrix" values="0 0 0 0 0 0 0 0 0 0 0 0 0 0 0 0 0 0 0.25 0"/>
<feBlend mode="normal" in2="shape" result="effect1_innerShadow_1_481"/>
</filter>
<filter id="filter2_f_1_481" x="0" y="5.17563" width="43" height="29.8244" filterUnits="userSpaceOnUse" color-interpolation-filters="sRGB">
<feFlood flood-opacity="0" result="BackgroundImageFix"/>
<feBlend mode="normal" in="SourceGraphic" in2="BackgroundImageFix" result="shape"/>
<feGaussianBlur stdDeviation="6.5" result="effect1_foregroundBlur_1_481"/>
</filter>
<linearGradient id="paint0_linear_1_481" x1="21.5" y1="0" x2="21.5" y2="27" gradientUnits="userSpaceOnUse">
<stop stop-color="#FFC46D"/>
<stop offset="1" stop-color="#FFA93E"/>
</linearGradient>
<linearGradient id="paint1_linear_1_481" x1="25.9004" y1="18.6233" x2="26.2083" y2="14.5103" gradientUnits="userSpaceOnUse">
<stop stop-color="#FFEED7"/>
<stop offset="1" stop-color="#BDBFC2"/>
</linearGradient>
<linearGradient id="paint2_linear_1_481" x1="21.6619" y1="5.24931" x2="21.515" y2="7.71123" gradientUnits="userSpaceOnUse">
<stop stop-color="white" stop-opacity="0.8"/>
<stop offset="1" stop-color="white" stop-opacity="0"/>
</linearGradient>
<linearGradient id="paint3_linear_1_481" x1="20.1015" y1="9.00629" x2="20.011" y2="7.59866" gradientUnits="userSpaceOnUse">
<stop stop-color="#FFEED7"/>
<stop offset="1" stop-color="#BDBFC2"/>
</linearGradient>
<linearGradient id="paint4_linear_1_481" x1="22.4281" y1="9.04273" x2="22.428" y2="7.54794" gradientUnits="userSpaceOnUse">
<stop stop-color="#FFEED7"/>
<stop offset="1" stop-color="#BDBFC2"/>
</linearGradient>
<linearGradient id="paint5_linear_1_481" x1="22.2805" y1="7.99278" x2="22.2183" y2="8.56868" gradientUnits="userSpaceOnUse">
<stop stop-color="white" stop-opacity="0.65"/>
<stop offset="1" stop-color="white" stop-opacity="0"/>
</linearGradient>
<linearGradient id="paint6_linear_1_481" x1="20.0151" y1="8.09712" x2="20.0823" y2="8.56519" gradientUnits="userSpaceOnUse">
<stop stop-color="white" stop-opacity="0.65"/>
<stop offset="1" stop-color="white" stop-opacity="0"/>
</linearGradient>
<linearGradient id="paint7_linear_1_481" x1="21.6982" y1="18.5826" x2="21.6982" y2="13.4666" gradientUnits="userSpaceOnUse">
<stop stop-color="#FFEED7"/>
<stop offset="1" stop-color="#BDBFC2"/>
</linearGradient>
<linearGradient id="paint8_linear_1_481" x1="18.4568" y1="18.6551" x2="17.3343" y2="14.0968" gradientUnits="userSpaceOnUse">
<stop stop-color="#FFEED7"/>
<stop offset="1" stop-color="#BDBFC2"/>
</linearGradient>
<linearGradient id="paint9_linear_1_481" x1="21.3612" y1="12.8873" x2="21.3722" y2="16.161" gradientUnits="userSpaceOnUse">
<stop stop-color="white" stop-opacity="0.8"/>
<stop offset="1" stop-color="white" stop-opacity="0"/>
</linearGradient>
<linearGradient id="paint10_linear_1_481" x1="21.4509" y1="10.8344" x2="21.4631" y2="12.1361" gradientUnits="userSpaceOnUse">
<stop stop-color="white" stop-opacity="0.65"/>
<stop offset="1" stop-color="white" stop-opacity="0"/>
</linearGradient>
<linearGradient id="paint11_linear_1_481" x1="17.2634" y1="11.6378" x2="17.2634" y2="16.4147" gradientUnits="userSpaceOnUse">
<stop stop-color="white" stop-opacity="0.65"/>
<stop offset="1" stop-color="white" stop-opacity="0"/>
</linearGradient>
<linearGradient id="paint12_linear_1_481" x1="26.7053" y1="11.1712" x2="26.7038" y2="15.4874" gradientUnits="userSpaceOnUse">
<stop stop-color="white" stop-opacity="0.65"/>
<stop offset="1" stop-color="white" stop-opacity="0"/>
</linearGradient>
<linearGradient id="paint13_linear_1_481" x1="16.968" y1="18.4626" x2="16.3595" y2="20.9787" gradientUnits="userSpaceOnUse">
<stop stop-color="#FFA63F"/>
<stop offset="1" stop-color="#FFFF00"/>
</linearGradient>
<linearGradient id="paint14_linear_1_481" x1="26.3748" y1="18.182" x2="26.2898" y2="13.6132" gradientUnits="userSpaceOnUse">
<stop stop-color="#FFEED7"/>
<stop offset="1" stop-color="#BDBFC2"/>
</linearGradient>
<linearGradient id="paint15_linear_1_481" x1="25.5381" y1="17.7192" x2="27.3337" y2="20.7495" gradientUnits="userSpaceOnUse">
<stop stop-color="#FFA63F"/>
<stop offset="1" stop-color="#FFFF00"/>
</linearGradient>
<linearGradient id="paint16_linear_1_481" x1="26.1856" y1="15.5923" x2="25.6255" y2="18.858" gradientUnits="userSpaceOnUse">
<stop stop-color="white" stop-opacity="0.65"/>
<stop offset="1" stop-color="white" stop-opacity="0"/>
</linearGradient>
<linearGradient id="paint17_linear_1_481" x1="16.7834" y1="16.3878" x2="16.8929" y2="20.0099" gradientUnits="userSpaceOnUse">
<stop stop-color="white" stop-opacity="0.65"/>
<stop offset="1" stop-color="white" stop-opacity="0"/>
</linearGradient>
<linearGradient id="paint18_linear_1_481" x1="26.0388" y1="15.5337" x2="26.1676" y2="16.6234" gradientUnits="userSpaceOnUse">
<stop stop-color="white" stop-opacity="0.65"/>
<stop offset="1" stop-color="white" stop-opacity="0"/>
</linearGradient>
<linearGradient id="paint19_linear_1_481" x1="21.3644" y1="8.9169" x2="21.3751" y2="10.822" gradientUnits="userSpaceOnUse">
<stop stop-color="#FFA63F"/>
<stop offset="1" stop-color="#FFFF00"/>
</linearGradient>
</defs>
</svg>
