<svg width="115" height="27" viewBox="0 0 115 27" fill="none" xmlns="http://www.w3.org/2000/svg">
<rect x="21" width="94" height="27" rx="4" fill="#424D61"/>
<g filter="url(#filter0_i_1_530)">
<rect x="21" y="2" width="92" height="23" rx="4" fill="#212B3E"/>
</g>
<rect width="27" height="27" rx="4" fill="url(#paint0_linear_1_530)"/>
<g filter="url(#filter1_i_1_530)">
<rect x="2" y="2" width="23" height="23" rx="4" fill="#626262"/>
</g>
<g filter="url(#filter2_i_1_530)">
<path d="M19.2129 13.9839C19.2031 12.5905 19.9546 11.5403 21.4722 10.7659C20.6235 9.74429 19.3393 9.18241 17.6466 9.07412C16.0439 8.96787 14.2904 9.85871 13.6484 9.85871C12.9698 9.85871 11.4182 9.1109 10.1973 9.1109C7.67768 9.14359 5 10.7986 5 14.1657C5 15.1608 5.21645 16.1885 5.64936 17.2469C6.22818 18.6403 8.31488 22.0545 10.4916 21.9993C11.6298 21.9769 12.4348 21.321 13.9159 21.321C15.3532 21.321 16.0974 21.9993 17.367 21.9993C19.5631 21.9728 21.4504 18.8692 22 17.4716C19.0548 16.305 19.2129 14.0554 19.2129 13.9839ZM16.6568 7.75218C17.8898 6.52218 17.778 5.40251 17.7415 5C16.6519 5.05312 15.3921 5.62317 14.6747 6.32399C13.8843 7.07588 13.4197 8.00553 13.5195 9.05369C14.6966 9.12929 15.7715 8.62053 16.6568 7.75218Z" fill="white"/>
</g>
<path d="M51.1901 19.16C50.8701 19.16 50.6141 19.0747 50.4221 18.904C50.2301 18.7333 50.1341 18.4987 50.1341 18.2V11.608C50.1341 10.3707 50.4861 9.4 51.1901 8.696C51.8941 7.992 52.8648 7.64 54.1021 7.64C54.6995 7.64 55.2595 7.78933 55.7821 8.088C56.3155 8.376 56.7741 8.792 57.1581 9.336C57.5315 8.78133 57.9795 8.36 58.5021 8.072C59.0355 7.784 59.6115 7.64 60.2301 7.64C61.4675 7.64 62.4381 7.992 63.1421 8.696C63.8461 9.4 64.1981 10.3707 64.1981 11.608V18.2C64.1981 18.488 64.0968 18.7227 63.8941 18.904C63.7021 19.0747 63.4461 19.16 63.1261 19.16C62.8061 19.16 62.5501 19.0747 62.3581 18.904C62.1661 18.7333 62.0701 18.4987 62.0701 18.2V11.608C62.0701 10.7973 61.9208 10.216 61.6221 9.864C61.3235 9.50133 60.8328 9.32 60.1501 9.32C59.5315 9.32 59.0515 9.51733 58.7101 9.912C58.3795 10.3067 58.2141 10.872 58.2141 11.608V18.2C58.2141 18.4987 58.1181 18.7333 57.9261 18.904C57.7341 19.0747 57.4781 19.16 57.1581 19.16C56.8381 19.16 56.5821 19.0747 56.3901 18.904C56.2088 18.7333 56.1181 18.4987 56.1181 18.2V11.608C56.1181 10.8933 55.9475 10.3333 55.6061 9.928C55.2648 9.52267 54.7901 9.32 54.1821 9.32C53.4995 9.32 53.0088 9.50133 52.7101 9.864C52.4115 10.216 52.2621 10.7973 52.2621 11.608V18.2C52.2621 18.488 52.1608 18.7227 51.9581 18.904C51.7661 19.0747 51.5101 19.16 51.1901 19.16ZM72.8735 19.16C72.2122 19.16 71.6255 19.048 71.1135 18.824C70.6122 18.6 70.2175 18.2907 69.9295 17.896C69.6522 17.4907 69.5135 17.0267 69.5135 16.504C69.5135 15.7147 69.8388 15.0853 70.4895 14.616C71.1508 14.1467 72.0415 13.912 73.1615 13.912C74.1322 13.912 74.9108 14.12 75.4975 14.536V14.152C75.4975 13.6507 75.3428 13.2667 75.0335 13C74.7242 12.7333 74.2762 12.6 73.6895 12.6C72.8148 12.6 72.0628 12.7867 71.4335 13.16C71.1668 13.3093 70.9375 13.384 70.7455 13.384C70.5108 13.384 70.3028 13.2773 70.1215 13.064C70.0042 12.9147 69.9455 12.76 69.9455 12.6C69.9455 12.3333 70.0842 12.0987 70.3615 11.896C70.7455 11.6187 71.2308 11.4 71.8175 11.24C72.4042 11.08 73.0228 11 73.6735 11C74.9108 11 75.8815 11.2827 76.5855 11.848C77.3002 12.4027 77.6575 13.1707 77.6575 14.152V18.264C77.6575 18.5413 77.5615 18.76 77.3695 18.92C77.1882 19.08 76.9375 19.16 76.6175 19.16C76.2868 19.16 76.0308 19.0853 75.8495 18.936C75.6682 18.7867 75.5775 18.5733 75.5775 18.296V18.12C74.9695 18.8133 74.0682 19.16 72.8735 19.16ZM73.3695 17.688C74.0415 17.688 74.5642 17.5867 74.9375 17.384C75.3215 17.1707 75.5135 16.8773 75.5135 16.504C75.5135 16.152 75.3215 15.8693 74.9375 15.656C74.5535 15.4427 74.0415 15.336 73.4015 15.336C72.8255 15.336 72.3775 15.4373 72.0575 15.64C71.7482 15.8427 71.5935 16.1307 71.5935 16.504C71.5935 16.8773 71.7482 17.1707 72.0575 17.384C72.3668 17.5867 72.8042 17.688 73.3695 17.688ZM87.2405 19.16C85.8112 19.16 84.7018 18.8027 83.9125 18.088C83.1232 17.3627 82.7285 16.3547 82.7285 15.064C82.7285 13.7733 83.1232 12.776 83.9125 12.072C84.7018 11.3573 85.8112 11 87.2405 11C87.9978 11 88.6805 11.128 89.2885 11.384C89.9072 11.6293 90.3925 11.9813 90.7445 12.44C90.8725 12.6 90.9365 12.7707 90.9365 12.952C90.9365 13.2293 90.7925 13.4747 90.5045 13.688C90.3765 13.784 90.2165 13.832 90.0245 13.832C89.8752 13.832 89.7205 13.8 89.5605 13.736C89.4005 13.6613 89.2618 13.56 89.1445 13.432C88.9312 13.1867 88.6538 13 88.3125 12.872C87.9818 12.7333 87.6245 12.664 87.2405 12.664C86.4832 12.664 85.8912 12.8773 85.4645 13.304C85.0485 13.72 84.8405 14.3067 84.8405 15.064C84.8405 15.8427 85.0485 16.4453 85.4645 16.872C85.8912 17.288 86.4832 17.496 87.2405 17.496C88.0832 17.496 88.8032 17.2133 89.4005 16.648C89.6992 16.3493 89.9925 16.2 90.2805 16.2C90.4725 16.2 90.6485 16.264 90.8085 16.392C91.0645 16.5947 91.1925 16.84 91.1925 17.128C91.1925 17.3093 91.1178 17.4853 90.9685 17.656C90.4778 18.1787 89.9285 18.5627 89.3205 18.808C88.7232 19.0427 88.0298 19.16 87.2405 19.16Z" fill="white"/>
<defs>
<filter id="filter0_i_1_530" x="21" y="2" width="92" height="27" filterUnits="userSpaceOnUse" color-interpolation-filters="sRGB">
<feFlood flood-opacity="0" result="BackgroundImageFix"/>
<feBlend mode="normal" in="SourceGraphic" in2="BackgroundImageFix" result="shape"/>
<feColorMatrix in="SourceAlpha" type="matrix" values="0 0 0 0 0 0 0 0 0 0 0 0 0 0 0 0 0 0 127 0" result="hardAlpha"/>
<feOffset dy="4"/>
<feGaussianBlur stdDeviation="2"/>
<feComposite in2="hardAlpha" operator="arithmetic" k2="-1" k3="1"/>
<feColorMatrix type="matrix" values="0 0 0 0 0 0 0 0 0 0 0 0 0 0 0 0 0 0 0.25 0"/>
<feBlend mode="normal" in2="shape" result="effect1_innerShadow_1_530"/>
</filter>
<filter id="filter1_i_1_530" x="2" y="2" width="23" height="27" filterUnits="userSpaceOnUse" color-interpolation-filters="sRGB">
<feFlood flood-opacity="0" result="BackgroundImageFix"/>
<feBlend mode="normal" in="SourceGraphic" in2="BackgroundImageFix" result="shape"/>
<feColorMatrix in="SourceAlpha" type="matrix" values="0 0 0 0 0 0 0 0 0 0 0 0 0 0 0 0 0 0 127 0" result="hardAlpha"/>
<feOffset dy="4"/>
<feGaussianBlur stdDeviation="2"/>
<feComposite in2="hardAlpha" operator="arithmetic" k2="-1" k3="1"/>
<feColorMatrix type="matrix" values="0 0 0 0 0 0 0 0 0 0 0 0 0 0 0 0 0 0 0.25 0"/>
<feBlend mode="normal" in2="shape" result="effect1_innerShadow_1_530"/>
</filter>
<filter id="filter2_i_1_530" x="5" y="5" width="17" height="21" filterUnits="userSpaceOnUse" color-interpolation-filters="sRGB">
<feFlood flood-opacity="0" result="BackgroundImageFix"/>
<feBlend mode="normal" in="SourceGraphic" in2="BackgroundImageFix" result="shape"/>
<feColorMatrix in="SourceAlpha" type="matrix" values="0 0 0 0 0 0 0 0 0 0 0 0 0 0 0 0 0 0 127 0" result="hardAlpha"/>
<feOffset dy="4"/>
<feGaussianBlur stdDeviation="2"/>
<feComposite in2="hardAlpha" operator="arithmetic" k2="-1" k3="1"/>
<feColorMatrix type="matrix" values="0 0 0 0 0 0 0 0 0 0 0 0 0 0 0 0 0 0 0.25 0"/>
<feBlend mode="normal" in2="shape" result="effect1_innerShadow_1_530"/>
</filter>
<linearGradient id="paint0_linear_1_530" x1="13.5" y1="0" x2="13.5" y2="27" gradientUnits="userSpaceOnUse">
<stop stop-color="#ABACAE"/>
<stop offset="1" stop-color="#7E7F84"/>
</linearGradient>
</defs>
</svg>
