<svg width="116" height="27" viewBox="0 0 116 27" fill="none" xmlns="http://www.w3.org/2000/svg">
<rect x="21" width="95" height="27" rx="4" fill="#424D61"/>
<g filter="url(#filter0_i_1_482)">
<rect x="21" y="2" width="93" height="23" rx="4" fill="#212B3E"/>
</g>
<rect width="27" height="27" rx="4" fill="url(#paint0_linear_1_482)"/>
<g filter="url(#filter1_i_1_482)">
<rect x="2" y="2" width="23" height="23" rx="4" fill="#045BAC"/>
</g>
<rect x="5" y="5" width="8.29268" height="8.29268" fill="white"/>
<rect x="5" y="13.7073" width="8.29268" height="8.29268" fill="white"/>
<rect x="13.7073" y="5" width="8.29268" height="8.29268" fill="white"/>
<rect x="13.7073" y="13.7073" width="8.29268" height="8.29268" fill="white"/>
<path d="M35.5902 19.16C34.9929 19.16 34.5129 18.9787 34.1502 18.616C33.7982 18.2427 33.5476 17.6613 33.3982 16.872L31.8142 8.728C31.7929 8.6 31.7822 8.50933 31.7822 8.456C31.7822 8.18933 31.8676 7.98667 32.0382 7.848C32.2196 7.70933 32.4649 7.64 32.7742 7.64C33.4142 7.64 33.7876 7.92267 33.8942 8.488L35.4142 17.048C35.4569 17.2187 35.4942 17.336 35.5262 17.4C35.5582 17.4533 35.6009 17.48 35.6542 17.48C35.7822 17.48 35.8622 17.3413 35.8942 17.064L36.9022 9.4C36.9769 8.84533 37.1796 8.41333 37.5102 8.104C37.8516 7.79467 38.2836 7.64 38.8062 7.64C39.3289 7.64 39.7556 7.79467 40.0862 8.104C40.4276 8.41333 40.6356 8.84533 40.7102 9.4L41.7183 17.064C41.7502 17.3413 41.8302 17.48 41.9583 17.48C42.0116 17.48 42.0543 17.4533 42.0863 17.4C42.1182 17.336 42.1556 17.2187 42.1982 17.048L43.7183 8.488C43.8249 7.92267 44.1983 7.64 44.8383 7.64C45.1476 7.64 45.3876 7.70933 45.5583 7.848C45.7396 7.98667 45.8302 8.18933 45.8302 8.456C45.8302 8.50933 45.8196 8.6 45.7983 8.728L44.2142 16.872C44.0649 17.6613 43.8089 18.2427 43.4462 18.616C43.0943 18.9787 42.6196 19.16 42.0223 19.16C41.4249 19.16 40.9609 18.9787 40.6302 18.616C40.2996 18.2533 40.0809 17.688 39.9742 16.92L39.0302 9.752C39.0089 9.592 38.9822 9.48 38.9502 9.416C38.9182 9.352 38.8702 9.32 38.8062 9.32C38.7422 9.32 38.6942 9.352 38.6622 9.416C38.6302 9.48 38.6036 9.592 38.5822 9.752L37.6382 16.92C37.5316 17.688 37.3129 18.2533 36.9822 18.616C36.6516 18.9787 36.1876 19.16 35.5902 19.16ZM49.7299 10.008C49.3352 10.008 49.0152 9.90133 48.7699 9.688C48.5352 9.464 48.4179 9.176 48.4179 8.824C48.4179 8.472 48.5352 8.18933 48.7699 7.976C49.0152 7.752 49.3352 7.64 49.7299 7.64C50.1245 7.64 50.4445 7.752 50.6899 7.976C50.9459 8.18933 51.0739 8.472 51.0739 8.824C51.0739 9.176 50.9459 9.464 50.6899 9.688C50.4445 9.90133 50.1245 10.008 49.7299 10.008ZM49.7459 19.16C49.4152 19.16 49.1592 19.0747 48.9779 18.904C48.7965 18.7333 48.7059 18.4987 48.7059 18.2V11.96C48.7059 11.6613 48.7965 11.4267 48.9779 11.256C49.1592 11.0853 49.4152 11 49.7459 11C50.0659 11 50.3219 11.0853 50.5139 11.256C50.7059 11.4267 50.8019 11.6613 50.8019 11.96V18.2C50.8019 18.4987 50.7059 18.7333 50.5139 18.904C50.3219 19.0747 50.0659 19.16 49.7459 19.16ZM54.7029 19.16C54.3722 19.16 54.1162 19.0747 53.9349 18.904C53.7535 18.7333 53.6629 18.4987 53.6629 18.2V11.96C53.6629 11.6507 53.7482 11.416 53.9189 11.256C54.1002 11.0853 54.3509 11 54.6709 11C54.9909 11 55.2415 11.0853 55.4229 11.256C55.6042 11.4267 55.6949 11.6613 55.6949 11.96V12.424C56.4522 11.4747 57.4869 11 58.7989 11C59.8229 11 60.6282 11.3253 61.2149 11.976C61.8122 12.616 62.1109 13.4907 62.1109 14.6V18.2C62.1109 18.4987 62.0149 18.7333 61.8229 18.904C61.6309 19.0747 61.3749 19.16 61.0549 19.16C60.7242 19.16 60.4682 19.0747 60.2869 18.904C60.1055 18.7333 60.0149 18.4987 60.0149 18.2V14.6C60.0149 13.992 59.8655 13.5173 59.5669 13.176C59.2682 12.8347 58.8522 12.664 58.3189 12.664C57.5082 12.664 56.8789 12.904 56.4309 13.384C55.9829 13.8533 55.7589 14.5147 55.7589 15.368V18.2C55.7589 18.4987 55.6629 18.7333 55.4709 18.904C55.2789 19.0747 55.0229 19.16 54.7029 19.16ZM68.7386 19.16C67.9066 19.16 67.1653 19 66.5146 18.68C65.8746 18.3493 65.3733 17.8747 65.0106 17.256C64.648 16.6373 64.4666 15.912 64.4666 15.08C64.4666 14.248 64.6373 13.528 64.9786 12.92C65.3306 12.3013 65.832 11.8267 66.4826 11.496C67.1333 11.1653 67.9013 11 68.7866 11C69.4373 11 69.9866 11.1067 70.4346 11.32C70.8826 11.5227 71.304 11.832 71.6986 12.248L71.7146 7.816C71.7146 7.51733 71.8106 7.28267 72.0026 7.112C72.1946 6.94133 72.4506 6.856 72.7706 6.856C73.0906 6.856 73.3413 6.94133 73.5226 7.112C73.7146 7.272 73.8106 7.50667 73.8106 7.816V18.2C73.8106 18.5093 73.7146 18.7493 73.5226 18.92C73.3413 19.08 73.0906 19.16 72.7706 19.16C72.4506 19.16 72.1946 19.0747 72.0026 18.904C71.8106 18.7333 71.7146 18.4987 71.7146 18.2V17.88C71 18.7333 70.008 19.16 68.7386 19.16ZM69.0586 17.496C69.8906 17.496 70.5413 17.2827 71.0106 16.856C71.48 16.4293 71.7146 15.8373 71.7146 15.08C71.7146 14.3227 71.48 13.7307 71.0106 13.304C70.5413 12.8773 69.8906 12.664 69.0586 12.664C68.28 12.664 67.672 12.8773 67.2346 13.304C66.7973 13.7307 66.5786 14.3227 66.5786 15.08C66.5786 15.8373 66.7973 16.4293 67.2346 16.856C67.672 17.2827 68.28 17.496 69.0586 17.496ZM81.0109 19.16C80.0829 19.16 79.2562 18.9947 78.5309 18.664C77.8162 18.3227 77.2562 17.8427 76.8509 17.224C76.4455 16.6053 76.2429 15.8907 76.2429 15.08C76.2429 14.2693 76.4455 13.5547 76.8509 12.936C77.2562 12.3173 77.8162 11.8427 78.5309 11.512C79.2562 11.1707 80.0829 11 81.0109 11C81.9389 11 82.7602 11.1707 83.4749 11.512C84.2002 11.8427 84.7655 12.3173 85.1709 12.936C85.5762 13.5547 85.7789 14.2693 85.7789 15.08C85.7789 15.8907 85.5762 16.6053 85.1709 17.224C84.7655 17.8427 84.2002 18.3227 83.4749 18.664C82.7602 18.9947 81.9389 19.16 81.0109 19.16ZM81.0109 17.496C81.8322 17.496 82.4775 17.2827 82.9469 16.856C83.4269 16.4293 83.6669 15.8373 83.6669 15.08C83.6669 14.3227 83.4269 13.7307 82.9469 13.304C82.4775 12.8773 81.8322 12.664 81.0109 12.664C80.1895 12.664 79.5389 12.8773 79.0589 13.304C78.5895 13.7307 78.3549 14.3227 78.3549 15.08C78.3549 15.8373 78.5895 16.4293 79.0589 16.856C79.5389 17.2827 80.1895 17.496 81.0109 17.496ZM91.0361 19.16C89.8521 19.16 89.1001 18.456 88.7801 17.048L87.6761 12.088C87.6548 11.96 87.6441 11.8747 87.6441 11.832C87.6441 11.5653 87.7348 11.3627 87.9161 11.224C88.1081 11.0747 88.3748 11 88.7161 11C89.0575 11 89.3348 11.0747 89.5481 11.224C89.7615 11.3733 89.8895 11.5813 89.9321 11.848L90.8121 17.16C90.8441 17.384 90.9188 17.496 91.0361 17.496C91.1641 17.496 91.2441 17.3893 91.2761 17.176L91.8841 12.76C91.9695 12.1947 92.1775 11.7627 92.5081 11.464C92.8388 11.1547 93.2655 11 93.7881 11C94.3108 11 94.7375 11.1547 95.0681 11.464C95.3988 11.7627 95.6068 12.1947 95.6921 12.76L96.3001 17.176C96.3321 17.3893 96.4121 17.496 96.5401 17.496C96.6575 17.496 96.7321 17.384 96.7641 17.16L97.6441 11.848C97.6868 11.5813 97.8148 11.3733 98.0281 11.224C98.2415 11.0747 98.5188 11 98.8601 11C99.2015 11 99.4628 11.0747 99.6441 11.224C99.8361 11.3627 99.9321 11.5653 99.9321 11.832C99.9321 11.8747 99.9215 11.96 99.9001 12.088L98.7961 17.048C98.4761 18.456 97.7241 19.16 96.5401 19.16C95.9535 19.16 95.5001 18.9787 95.1801 18.616C94.8601 18.2533 94.6468 17.688 94.5401 16.92L94.0121 12.984C94.0015 12.8667 93.9748 12.7867 93.9321 12.744C93.9001 12.6907 93.8521 12.664 93.7881 12.664C93.7241 12.664 93.6708 12.6907 93.6281 12.744C93.5961 12.7867 93.5748 12.8667 93.5641 12.984L93.0361 16.92C92.9295 17.688 92.7161 18.2533 92.3961 18.616C92.0761 18.9787 91.6228 19.16 91.0361 19.16ZM105.843 19.16C104.126 19.16 102.862 18.664 102.051 17.672C101.881 17.448 101.795 17.2453 101.795 17.064C101.795 16.808 101.929 16.584 102.195 16.392C102.377 16.2747 102.553 16.216 102.723 16.216C102.958 16.216 103.177 16.3173 103.379 16.52C103.742 16.8827 104.094 17.144 104.435 17.304C104.787 17.4533 105.219 17.528 105.731 17.528C106.169 17.528 106.537 17.4693 106.835 17.352C107.134 17.2347 107.283 17.0907 107.283 16.92C107.283 16.7067 107.161 16.5253 106.915 16.376C106.67 16.2267 106.174 16.0347 105.427 15.8C104.254 15.4373 103.422 15.0587 102.931 14.664C102.441 14.2587 102.195 13.7573 102.195 13.16C102.195 12.488 102.483 11.96 103.059 11.576C103.635 11.192 104.43 11 105.443 11C106.222 11 106.926 11.1173 107.555 11.352C108.185 11.5867 108.643 11.9013 108.931 12.296C109.07 12.4773 109.139 12.6587 109.139 12.84C109.139 13.096 109.011 13.304 108.755 13.464C108.574 13.5813 108.387 13.64 108.195 13.64C107.886 13.64 107.603 13.512 107.347 13.256C107.134 13.0533 106.857 12.8987 106.515 12.792C106.185 12.6853 105.822 12.632 105.427 12.632C104.681 12.632 104.307 12.808 104.307 13.16C104.307 13.2987 104.366 13.4213 104.483 13.528C104.601 13.6347 104.809 13.7467 105.107 13.864C105.417 13.9813 105.897 14.1413 106.547 14.344C107.593 14.664 108.323 15.016 108.739 15.4C109.166 15.784 109.379 16.2907 109.379 16.92C109.379 17.592 109.07 18.136 108.451 18.552C107.833 18.9573 106.963 19.16 105.843 19.16Z" fill="white"/>
<defs>
<filter id="filter0_i_1_482" x="21" y="2" width="93" height="27" filterUnits="userSpaceOnUse" color-interpolation-filters="sRGB">
<feFlood flood-opacity="0" result="BackgroundImageFix"/>
<feBlend mode="normal" in="SourceGraphic" in2="BackgroundImageFix" result="shape"/>
<feColorMatrix in="SourceAlpha" type="matrix" values="0 0 0 0 0 0 0 0 0 0 0 0 0 0 0 0 0 0 127 0" result="hardAlpha"/>
<feOffset dy="4"/>
<feGaussianBlur stdDeviation="2"/>
<feComposite in2="hardAlpha" operator="arithmetic" k2="-1" k3="1"/>
<feColorMatrix type="matrix" values="0 0 0 0 0 0 0 0 0 0 0 0 0 0 0 0 0 0 0.25 0"/>
<feBlend mode="normal" in2="shape" result="effect1_innerShadow_1_482"/>
</filter>
<filter id="filter1_i_1_482" x="2" y="2" width="23" height="27" filterUnits="userSpaceOnUse" color-interpolation-filters="sRGB">
<feFlood flood-opacity="0" result="BackgroundImageFix"/>
<feBlend mode="normal" in="SourceGraphic" in2="BackgroundImageFix" result="shape"/>
<feColorMatrix in="SourceAlpha" type="matrix" values="0 0 0 0 0 0 0 0 0 0 0 0 0 0 0 0 0 0 127 0" result="hardAlpha"/>
<feOffset dy="4"/>
<feGaussianBlur stdDeviation="2"/>
<feComposite in2="hardAlpha" operator="arithmetic" k2="-1" k3="1"/>
<feColorMatrix type="matrix" values="0 0 0 0 0 0 0 0 0 0 0 0 0 0 0 0 0 0 0.25 0"/>
<feBlend mode="normal" in2="shape" result="effect1_innerShadow_1_482"/>
</filter>
<linearGradient id="paint0_linear_1_482" x1="13.5" y1="0" x2="13.5" y2="27" gradientUnits="userSpaceOnUse">
<stop stop-color="#5DCDFB"/>
<stop offset="1" stop-color="#0966FF"/>
</linearGradient>
</defs>
</svg>
