<svg width="175" height="27" viewBox="0 0 175 27" fill="none" xmlns="http://www.w3.org/2000/svg">
<rect x="21" width="154" height="27" rx="4" fill="#424D61"/>
<g filter="url(#filter0_i_4_362)">
<rect x="21" y="2" width="152" height="23" rx="4" fill="#212B3E"/>
</g>
<rect width="27" height="27" rx="4" fill="url(#paint0_linear_4_362)"/>
<g filter="url(#filter1_i_4_362)">
<rect x="2" y="2" width="23" height="23" rx="4" fill="url(#paint1_radial_4_362)"/>
</g>
<path d="M10.8717 7.95699L10.8158 10.5656H5C5 10.5656 5 9.72855 5 9.09825C5 8.46795 5.70103 7.95699 6.56579 7.95699C7.43055 7.95699 10.8717 7.95699 10.8717 7.95699Z" fill="#37474F"/>
<path d="M16.1882 7.50929L17.0159 6.49291C17.142 6.33802 17.0718 6.13781 16.8597 6.04586C16.6472 5.95358 16.373 6.0051 16.2464 6.15966L15.3763 7.22788C14.7924 7.06876 14.1612 6.97876 13.5 6.97876C12.8388 6.97876 12.2076 7.06876 11.6233 7.22821L10.7532 6.15999C10.627 6.00543 10.3528 5.95391 10.1398 6.04619C9.92731 6.13814 9.85752 6.33835 9.98368 6.49324L10.8113 7.50961C9.33455 8.13568 8.30247 9.25803 8.15395 10.5659H18.8461C18.6975 9.2577 17.6654 8.13535 16.1882 7.50929Z" fill="#00E676"/>
<path d="M11.2632 9.26129C11.5102 9.26129 11.7105 9.1153 11.7105 8.93521C11.7105 8.75513 11.5102 8.60914 11.2632 8.60914C11.0161 8.60914 10.8158 8.75513 10.8158 8.93521C10.8158 9.1153 11.0161 9.26129 11.2632 9.26129Z" fill="white"/>
<path d="M15.7369 9.26129C15.9839 9.26129 16.1842 9.1153 16.1842 8.93521C16.1842 8.75513 15.9839 8.60914 15.7369 8.60914C15.4898 8.60914 15.2895 8.75513 15.2895 8.93521C15.2895 9.1153 15.4898 9.26129 15.7369 9.26129Z" fill="white"/>
<path d="M20.4342 10.2395C20.2132 10.2395 6.95053 10.2395 6.56579 10.2395C5.70103 10.2395 5 9.72856 5 9.09825C5 9.09858 5 17.272 5 17.9023C5 18.5326 5.70103 19.0435 6.56579 19.0435C6.95053 19.0435 22 19.0435 22 19.0435C22 19.0435 22 12.0111 22 11.3808C22 10.7505 21.299 10.2395 20.4342 10.2395Z" fill="#448AFF"/>
<path d="M20.4342 12.522C20.2812 12.522 20.0445 12.522 19.7631 12.522V20.9592C20.0445 20.9592 20.2812 20.9592 20.4342 20.9592C21.299 20.9592 22 20.4483 22 19.818C22 19.1877 22 11.3808 22 11.3808C22 12.0111 21.299 12.522 20.4342 12.522Z" fill="#37474F"/>
<path d="M17.8699 20.0417L14.5397 14.8835C14.992 14.6464 15.2895 14.2623 15.2895 13.8263C15.2895 13.2205 14.7168 12.7141 13.9474 12.5683V11.8699C13.9474 11.6899 13.7469 11.5438 13.5 11.5438C13.253 11.5438 13.0526 11.6899 13.0526 11.8699V12.5683C12.2831 12.7141 11.7105 13.2205 11.7105 13.8263C11.7105 14.2623 12.008 14.6464 12.4603 14.8835L9.13188 20.0391C8.9422 20.3328 9.04196 20.6994 9.40925 20.8829C9.87764 21.1171 10.4995 20.9837 10.7308 20.6253L12.8079 17.4083C13.0835 16.9814 13.9169 16.9814 14.1925 17.4083L16.2696 20.6253C16.4217 20.8617 16.7434 21 17.0794 21C17.2632 21 17.4516 20.9583 17.6176 20.8689C17.9656 20.6817 18.0542 20.327 17.8699 20.0417ZM13.5 13.1742C13.9934 13.1742 14.3947 13.4667 14.3947 13.8263C14.3947 14.186 13.9934 14.4785 13.5 14.4785C13.0065 14.4785 12.6052 14.186 12.6052 13.8263C12.6052 13.4667 13.0065 13.1742 13.5 13.1742Z" fill="#37474F"/>
<path d="M33.1233 19.144C32.8033 19.144 32.5473 19.0587 32.3553 18.888C32.1633 18.7173 32.0673 18.4827 32.0673 18.184V12.584C32.0673 11.0373 32.5099 9.82667 33.3953 8.952C34.2806 8.07733 35.5126 7.64 37.0913 7.64C38.1259 7.64 39.0219 7.83733 39.7793 8.232C40.5366 8.62667 41.1126 9.19733 41.5073 9.944C41.9126 10.6907 42.1153 11.5707 42.1153 12.584V18.184C42.1153 18.4827 42.0193 18.7173 41.8273 18.888C41.6353 19.0587 41.3793 19.144 41.0593 19.144C40.7393 19.144 40.4779 19.0587 40.2753 18.888C40.0833 18.7067 39.9873 18.472 39.9873 18.184V15.576H34.1953V18.184C34.1953 18.472 34.0939 18.7067 33.8913 18.888C33.6993 19.0587 33.4433 19.144 33.1233 19.144ZM39.9873 13.928V12.536C39.9873 11.4693 39.7419 10.6693 39.2513 10.136C38.7713 9.592 38.0513 9.32 37.0913 9.32C35.1606 9.32 34.1953 10.392 34.1953 12.536V13.928H39.9873ZM45.8348 19.16C45.5041 19.16 45.2481 19.0747 45.0668 18.904C44.8854 18.7333 44.7948 18.4987 44.7948 18.2V11.96C44.7948 11.6507 44.8801 11.416 45.0508 11.256C45.2321 11.0853 45.4828 11 45.8028 11C46.1228 11 46.3734 11.0853 46.5548 11.256C46.7361 11.4267 46.8268 11.6613 46.8268 11.96V12.424C47.5841 11.4747 48.6188 11 49.9308 11C50.9548 11 51.7601 11.3253 52.3468 11.976C52.9441 12.616 53.2428 13.4907 53.2428 14.6V18.2C53.2428 18.4987 53.1468 18.7333 52.9548 18.904C52.7628 19.0747 52.5068 19.16 52.1868 19.16C51.8561 19.16 51.6001 19.0747 51.4188 18.904C51.2374 18.7333 51.1468 18.4987 51.1468 18.2V14.6C51.1468 13.992 50.9974 13.5173 50.6988 13.176C50.4001 12.8347 49.9841 12.664 49.4508 12.664C48.6401 12.664 48.0108 12.904 47.5628 13.384C47.1148 13.8533 46.8908 14.5147 46.8908 15.368V18.2C46.8908 18.4987 46.7948 18.7333 46.6028 18.904C46.4108 19.0747 46.1548 19.16 45.8348 19.16ZM59.8705 19.16C59.0385 19.16 58.2972 19 57.6465 18.68C57.0065 18.3493 56.5052 17.8747 56.1425 17.256C55.7798 16.6373 55.5985 15.912 55.5985 15.08C55.5985 14.248 55.7692 13.528 56.1105 12.92C56.4625 12.3013 56.9638 11.8267 57.6145 11.496C58.2652 11.1653 59.0332 11 59.9185 11C60.5692 11 61.1185 11.1067 61.5665 11.32C62.0145 11.5227 62.4358 11.832 62.8305 12.248L62.8465 7.816C62.8465 7.51733 62.9425 7.28267 63.1345 7.112C63.3265 6.94133 63.5825 6.856 63.9025 6.856C64.2225 6.856 64.4732 6.94133 64.6545 7.112C64.8465 7.272 64.9425 7.50667 64.9425 7.816V18.2C64.9425 18.5093 64.8465 18.7493 64.6545 18.92C64.4732 19.08 64.2225 19.16 63.9025 19.16C63.5825 19.16 63.3265 19.0747 63.1345 18.904C62.9425 18.7333 62.8465 18.4987 62.8465 18.2V17.88C62.1318 18.7333 61.1398 19.16 59.8705 19.16ZM60.1905 17.496C61.0225 17.496 61.6732 17.2827 62.1425 16.856C62.6118 16.4293 62.8465 15.8373 62.8465 15.08C62.8465 14.3227 62.6118 13.7307 62.1425 13.304C61.6732 12.8773 61.0225 12.664 60.1905 12.664C59.4118 12.664 58.8038 12.8773 58.3665 13.304C57.9292 13.7307 57.7105 14.3227 57.7105 15.08C57.7105 15.8373 57.9292 16.4293 58.3665 16.856C58.8038 17.2827 59.4118 17.496 60.1905 17.496ZM68.5748 19.16C68.2441 19.16 67.9881 19.0747 67.8068 18.904C67.6254 18.7333 67.5348 18.4987 67.5348 18.2V11.96C67.5348 11.6507 67.6201 11.416 67.7908 11.256C67.9721 11.0853 68.2228 11 68.5428 11C68.8628 11 69.1134 11.0853 69.2948 11.256C69.4761 11.4267 69.5668 11.6613 69.5668 11.96V12.488C69.8974 12.0613 70.2814 11.736 70.7188 11.512C71.1668 11.2773 71.6468 11.16 72.1588 11.16H72.5108C72.8521 11.16 73.1134 11.2347 73.2948 11.384C73.4868 11.5227 73.5828 11.7253 73.5828 11.992C73.5828 12.2587 73.4868 12.4667 73.2948 12.616C73.1134 12.7547 72.8521 12.824 72.5108 12.824H71.9668C71.2521 12.824 70.6814 13.0533 70.2548 13.512C69.8388 13.96 69.6308 14.5787 69.6308 15.368V18.2C69.6308 18.4987 69.5348 18.7333 69.3428 18.904C69.1508 19.0747 68.8948 19.16 68.5748 19.16ZM79.5909 19.16C78.6629 19.16 77.8362 18.9947 77.1109 18.664C76.3962 18.3227 75.8362 17.8427 75.4309 17.224C75.0255 16.6053 74.8229 15.8907 74.8229 15.08C74.8229 14.2693 75.0255 13.5547 75.4309 12.936C75.8362 12.3173 76.3962 11.8427 77.1109 11.512C77.8362 11.1707 78.6629 11 79.5909 11C80.5189 11 81.3402 11.1707 82.0549 11.512C82.7802 11.8427 83.3455 12.3173 83.7509 12.936C84.1562 13.5547 84.3589 14.2693 84.3589 15.08C84.3589 15.8907 84.1562 16.6053 83.7509 17.224C83.3455 17.8427 82.7802 18.3227 82.0549 18.664C81.3402 18.9947 80.5189 19.16 79.5909 19.16ZM79.5909 17.496C80.4122 17.496 81.0575 17.2827 81.5269 16.856C82.0069 16.4293 82.2469 15.8373 82.2469 15.08C82.2469 14.3227 82.0069 13.7307 81.5269 13.304C81.0575 12.8773 80.4122 12.664 79.5909 12.664C78.7695 12.664 78.1189 12.8773 77.6389 13.304C77.1695 13.7307 76.9349 14.3227 76.9349 15.08C76.9349 15.8373 77.1695 16.4293 77.6389 16.856C78.1189 17.2827 78.7695 17.496 79.5909 17.496ZM88.1024 10.008C87.7077 10.008 87.3877 9.90133 87.1424 9.688C86.9077 9.464 86.7904 9.176 86.7904 8.824C86.7904 8.472 86.9077 8.18933 87.1424 7.976C87.3877 7.752 87.7077 7.64 88.1024 7.64C88.497 7.64 88.817 7.752 89.0624 7.976C89.3184 8.18933 89.4464 8.472 89.4464 8.824C89.4464 9.176 89.3184 9.464 89.0624 9.688C88.817 9.90133 88.497 10.008 88.1024 10.008ZM88.1184 19.16C87.7877 19.16 87.5317 19.0747 87.3504 18.904C87.169 18.7333 87.0784 18.4987 87.0784 18.2V11.96C87.0784 11.6613 87.169 11.4267 87.3504 11.256C87.5317 11.0853 87.7877 11 88.1184 11C88.4384 11 88.6944 11.0853 88.8864 11.256C89.0784 11.4267 89.1744 11.6613 89.1744 11.96V18.2C89.1744 18.4987 89.0784 18.7333 88.8864 18.904C88.6944 19.0747 88.4384 19.16 88.1184 19.16ZM96.1474 19.16C95.3154 19.16 94.574 19 93.9234 18.68C93.2834 18.3493 92.782 17.8747 92.4194 17.256C92.0567 16.6373 91.8754 15.912 91.8754 15.08C91.8754 14.248 92.046 13.528 92.3874 12.92C92.7394 12.3013 93.2407 11.8267 93.8914 11.496C94.542 11.1653 95.31 11 96.1954 11C96.846 11 97.3954 11.1067 97.8434 11.32C98.2914 11.5227 98.7127 11.832 99.1074 12.248L99.1234 7.816C99.1234 7.51733 99.2194 7.28267 99.4114 7.112C99.6034 6.94133 99.8594 6.856 100.179 6.856C100.499 6.856 100.75 6.94133 100.931 7.112C101.123 7.272 101.219 7.50667 101.219 7.816V18.2C101.219 18.5093 101.123 18.7493 100.931 18.92C100.75 19.08 100.499 19.16 100.179 19.16C99.8594 19.16 99.6034 19.0747 99.4114 18.904C99.2194 18.7333 99.1234 18.4987 99.1234 18.2V17.88C98.4087 18.7333 97.4167 19.16 96.1474 19.16ZM96.4674 17.496C97.2994 17.496 97.95 17.2827 98.4194 16.856C98.8887 16.4293 99.1234 15.8373 99.1234 15.08C99.1234 14.3227 98.8887 13.7307 98.4194 13.304C97.95 12.8773 97.2994 12.664 96.4674 12.664C95.6887 12.664 95.0807 12.8773 94.6434 13.304C94.206 13.7307 93.9874 14.3227 93.9874 15.08C93.9874 15.8373 94.206 16.4293 94.6434 16.856C95.0807 17.2827 95.6887 17.496 96.4674 17.496ZM114.781 19.16C113.736 19.16 112.754 18.9893 111.837 18.648C110.92 18.296 110.125 17.7947 109.453 17.144C109.293 16.984 109.213 16.8027 109.213 16.6C109.213 16.3653 109.32 16.1413 109.533 15.928C109.704 15.7573 109.89 15.672 110.093 15.672C110.306 15.672 110.562 15.7947 110.861 16.04C111.362 16.4987 111.954 16.856 112.637 17.112C113.33 17.3573 114.045 17.48 114.781 17.48C115.485 17.48 116.034 17.3627 116.429 17.128C116.824 16.8827 117.021 16.5413 117.021 16.104C117.021 15.6453 116.808 15.2773 116.381 15C115.954 14.712 115.229 14.456 114.205 14.232C112.594 13.88 111.421 13.416 110.685 12.84C109.96 12.264 109.597 11.5227 109.597 10.616C109.597 10.04 109.789 9.528 110.173 9.08C110.557 8.62133 111.09 8.26933 111.773 8.024C112.466 7.768 113.256 7.64 114.141 7.64C115.133 7.64 116.013 7.80533 116.781 8.136C117.56 8.456 118.152 8.90933 118.557 9.496C118.696 9.72 118.765 9.912 118.765 10.072C118.754 10.3387 118.621 10.568 118.365 10.76C118.226 10.856 118.066 10.904 117.885 10.904C117.554 10.904 117.282 10.776 117.069 10.52C116.76 10.1467 116.344 9.85333 115.821 9.64C115.309 9.42667 114.749 9.32 114.141 9.32C113.384 9.32 112.792 9.43733 112.365 9.672C111.949 9.896 111.741 10.2107 111.741 10.616C111.741 11.0213 111.944 11.3573 112.349 11.624C112.765 11.88 113.48 12.1253 114.493 12.36C115.613 12.6267 116.514 12.9307 117.197 13.272C117.88 13.6027 118.376 13.9973 118.685 14.456C119.005 14.9147 119.165 15.464 119.165 16.104C119.165 16.712 118.984 17.2507 118.621 17.72C118.258 18.1787 117.746 18.536 117.085 18.792C116.424 19.0373 115.656 19.16 114.781 19.16ZM128.283 16.936C128.453 17.0747 128.539 17.2453 128.539 17.448C128.539 17.6507 128.464 17.8587 128.315 18.072C128.08 18.4133 127.749 18.68 127.323 18.872C126.896 19.064 126.416 19.16 125.883 19.16C125.029 19.16 124.357 18.9307 123.867 18.472C123.387 18.0027 123.147 17.3627 123.147 16.552V12.808H122.491C122.171 12.808 121.915 12.7333 121.723 12.584C121.531 12.4347 121.435 12.2373 121.435 11.992C121.435 11.736 121.525 11.5333 121.707 11.384C121.899 11.2347 122.16 11.16 122.491 11.16H123.147V8.744C123.147 8.44533 123.243 8.21067 123.435 8.04C123.627 7.86933 123.883 7.784 124.203 7.784C124.533 7.784 124.789 7.86933 124.971 8.04C125.152 8.21067 125.243 8.44533 125.243 8.744V11.16H126.779C127.109 11.16 127.365 11.2347 127.547 11.384C127.739 11.5333 127.835 11.736 127.835 11.992C127.835 12.2373 127.739 12.4347 127.547 12.584C127.365 12.7333 127.109 12.808 126.779 12.808H125.243V16.728C125.243 16.9627 125.312 17.1493 125.451 17.288C125.6 17.4267 125.797 17.496 126.043 17.496C126.235 17.496 126.4 17.4693 126.539 17.416C126.688 17.352 126.837 17.2507 126.987 17.112C127.264 16.8453 127.52 16.712 127.755 16.712C127.925 16.712 128.101 16.7867 128.283 16.936ZM134.22 19.16C133.122 19.16 132.263 18.8453 131.644 18.216C131.036 17.576 130.732 16.6907 130.732 15.56V11.96C130.732 11.6613 130.828 11.4267 131.02 11.256C131.212 11.0853 131.468 11 131.788 11C132.119 11 132.375 11.0853 132.556 11.256C132.738 11.4267 132.828 11.6613 132.828 11.96V15.56C132.828 16.168 132.988 16.6427 133.308 16.984C133.639 17.3253 134.098 17.496 134.684 17.496C135.442 17.496 136.028 17.256 136.444 16.776C136.871 16.296 137.084 15.6347 137.084 14.792V11.96C137.084 11.6613 137.18 11.4267 137.372 11.256C137.564 11.0853 137.82 11 138.14 11C138.471 11 138.727 11.0853 138.908 11.256C139.09 11.4267 139.18 11.6613 139.18 11.96V18.2C139.18 18.5093 139.09 18.7493 138.908 18.92C138.738 19.08 138.492 19.16 138.172 19.16C137.852 19.16 137.602 19.0747 137.42 18.904C137.239 18.7333 137.148 18.4987 137.148 18.2V17.736C136.754 18.2267 136.316 18.5893 135.836 18.824C135.367 19.048 134.828 19.16 134.22 19.16ZM145.888 19.16C145.056 19.16 144.315 19 143.664 18.68C143.024 18.3493 142.523 17.8747 142.16 17.256C141.797 16.6373 141.616 15.912 141.616 15.08C141.616 14.248 141.787 13.528 142.128 12.92C142.48 12.3013 142.981 11.8267 143.632 11.496C144.283 11.1653 145.051 11 145.936 11C146.587 11 147.136 11.1067 147.584 11.32C148.032 11.5227 148.453 11.832 148.848 12.248L148.864 7.816C148.864 7.51733 148.96 7.28267 149.152 7.112C149.344 6.94133 149.6 6.856 149.92 6.856C150.24 6.856 150.491 6.94133 150.672 7.112C150.864 7.272 150.96 7.50667 150.96 7.816V18.2C150.96 18.5093 150.864 18.7493 150.672 18.92C150.491 19.08 150.24 19.16 149.92 19.16C149.6 19.16 149.344 19.0747 149.152 18.904C148.96 18.7333 148.864 18.4987 148.864 18.2V17.88C148.149 18.7333 147.157 19.16 145.888 19.16ZM146.208 17.496C147.04 17.496 147.691 17.2827 148.16 16.856C148.629 16.4293 148.864 15.8373 148.864 15.08C148.864 14.3227 148.629 13.7307 148.16 13.304C147.691 12.8773 147.04 12.664 146.208 12.664C145.429 12.664 144.821 12.8773 144.384 13.304C143.947 13.7307 143.728 14.3227 143.728 15.08C143.728 15.8373 143.947 16.4293 144.384 16.856C144.821 17.2827 145.429 17.496 146.208 17.496ZM154.864 10.008C154.47 10.008 154.15 9.90133 153.904 9.688C153.67 9.464 153.552 9.176 153.552 8.824C153.552 8.472 153.67 8.18933 153.904 7.976C154.15 7.752 154.47 7.64 154.864 7.64C155.259 7.64 155.579 7.752 155.824 7.976C156.08 8.18933 156.208 8.472 156.208 8.824C156.208 9.176 156.08 9.464 155.824 9.688C155.579 9.90133 155.259 10.008 154.864 10.008ZM154.88 19.16C154.55 19.16 154.294 19.0747 154.112 18.904C153.931 18.7333 153.84 18.4987 153.84 18.2V11.96C153.84 11.6613 153.931 11.4267 154.112 11.256C154.294 11.0853 154.55 11 154.88 11C155.2 11 155.456 11.0853 155.648 11.256C155.84 11.4267 155.936 11.6613 155.936 11.96V18.2C155.936 18.4987 155.84 18.7333 155.648 18.904C155.456 19.0747 155.2 19.16 154.88 19.16ZM163.405 19.16C162.477 19.16 161.651 18.9947 160.925 18.664C160.211 18.3227 159.651 17.8427 159.245 17.224C158.84 16.6053 158.637 15.8907 158.637 15.08C158.637 14.2693 158.84 13.5547 159.245 12.936C159.651 12.3173 160.211 11.8427 160.925 11.512C161.651 11.1707 162.477 11 163.405 11C164.333 11 165.155 11.1707 165.869 11.512C166.595 11.8427 167.16 12.3173 167.565 12.936C167.971 13.5547 168.173 14.2693 168.173 15.08C168.173 15.8907 167.971 16.6053 167.565 17.224C167.16 17.8427 166.595 18.3227 165.869 18.664C165.155 18.9947 164.333 19.16 163.405 19.16ZM163.405 17.496C164.227 17.496 164.872 17.2827 165.341 16.856C165.821 16.4293 166.061 15.8373 166.061 15.08C166.061 14.3227 165.821 13.7307 165.341 13.304C164.872 12.8773 164.227 12.664 163.405 12.664C162.584 12.664 161.933 12.8773 161.453 13.304C160.984 13.7307 160.749 14.3227 160.749 15.08C160.749 15.8373 160.984 16.4293 161.453 16.856C161.933 17.2827 162.584 17.496 163.405 17.496Z" fill="white"/>
<defs>
<filter id="filter0_i_4_362" x="21" y="2" width="152" height="27" filterUnits="userSpaceOnUse" color-interpolation-filters="sRGB">
<feFlood flood-opacity="0" result="BackgroundImageFix"/>
<feBlend mode="normal" in="SourceGraphic" in2="BackgroundImageFix" result="shape"/>
<feColorMatrix in="SourceAlpha" type="matrix" values="0 0 0 0 0 0 0 0 0 0 0 0 0 0 0 0 0 0 127 0" result="hardAlpha"/>
<feOffset dy="4"/>
<feGaussianBlur stdDeviation="2"/>
<feComposite in2="hardAlpha" operator="arithmetic" k2="-1" k3="1"/>
<feColorMatrix type="matrix" values="0 0 0 0 0 0 0 0 0 0 0 0 0 0 0 0 0 0 0.25 0"/>
<feBlend mode="normal" in2="shape" result="effect1_innerShadow_4_362"/>
</filter>
<filter id="filter1_i_4_362" x="2" y="2" width="23" height="27" filterUnits="userSpaceOnUse" color-interpolation-filters="sRGB">
<feFlood flood-opacity="0" result="BackgroundImageFix"/>
<feBlend mode="normal" in="SourceGraphic" in2="BackgroundImageFix" result="shape"/>
<feColorMatrix in="SourceAlpha" type="matrix" values="0 0 0 0 0 0 0 0 0 0 0 0 0 0 0 0 0 0 127 0" result="hardAlpha"/>
<feOffset dy="4"/>
<feGaussianBlur stdDeviation="2"/>
<feComposite in2="hardAlpha" operator="arithmetic" k2="-1" k3="1"/>
<feColorMatrix type="matrix" values="0 0 0 0 0 0 0 0 0 0 0 0 0 0 0 0 0 0 0.25 0"/>
<feBlend mode="normal" in2="shape" result="effect1_innerShadow_4_362"/>
</filter>
<linearGradient id="paint0_linear_4_362" x1="13.5" y1="0" x2="13.5" y2="27" gradientUnits="userSpaceOnUse">
<stop stop-color="#647696"/>
<stop offset="1" stop-color="#333E55"/>
</linearGradient>
<radialGradient id="paint1_radial_4_362" cx="0" cy="0" r="1" gradientUnits="userSpaceOnUse" gradientTransform="translate(13.5 13.5) rotate(90) scale(11.5)">
<stop stop-color="#101725"/>
<stop offset="1" stop-color="#253A61"/>
</radialGradient>
</defs>
</svg>
