<svg width="159" height="27" viewBox="0 0 159 27" fill="none" xmlns="http://www.w3.org/2000/svg">
<rect x="21" width="138" height="27" rx="4" fill="#424D61"/>
<g filter="url(#filter0_i_4_376)">
<rect x="21" y="2" width="136" height="23" rx="4" fill="#212B3E"/>
</g>
<rect width="27" height="27" rx="4" fill="url(#paint0_linear_4_376)"/>
<g filter="url(#filter1_i_4_376)">
<rect x="2" y="2" width="23" height="23" rx="4" fill="url(#paint1_radial_4_376)"/>
</g>
<path d="M7.45617 17.8037C7.35657 17.8792 7.23532 17.9287 7.10589 17.9467C6.97647 17.9647 6.84394 17.9506 6.72304 17.9058L5.43562 17.4267C5.30722 17.3792 5.19743 17.2992 5.11996 17.1967C5.04249 17.0942 5.00077 16.9737 5 16.8503V10.15C5.00075 10.0266 5.04247 9.90612 5.11994 9.80361C5.19741 9.70109 5.30721 9.62108 5.43562 9.57357L6.72304 9.10238C6.84393 9.0576 6.97646 9.04343 7.10588 9.06145C7.23531 9.07947 7.35656 9.12897 7.45617 9.20445L7.74477 9.41649C7.68624 9.37916 7.61722 9.3569 7.54532 9.35217C7.47343 9.34743 7.40146 9.3604 7.33735 9.38964C7.27324 9.41888 7.21949 9.46327 7.18202 9.51789C7.14454 9.57252 7.12481 9.63526 7.125 9.6992V17.3011C7.12481 17.365 7.14454 17.4278 7.18202 17.4824C7.21949 17.537 7.27324 17.5814 7.33735 17.6107C7.40146 17.6399 7.47343 17.6529 7.54532 17.6481C7.61722 17.6434 7.68624 17.6211 7.74477 17.5838L7.45617 17.8037V17.8037Z" fill="#52218A"/>
<path d="M5.43562 17.4267C5.30722 17.3792 5.19743 17.2992 5.11996 17.1967C5.04249 17.0942 5.00077 16.9737 5 16.8503V16.7985C5.00087 16.871 5.02623 16.9417 5.0728 17.0013C5.11936 17.0609 5.18501 17.1067 5.26125 17.1329C5.3375 17.1591 5.42084 17.1645 5.50054 17.1483C5.58024 17.132 5.65262 17.095 5.70836 17.0419L16.6875 6.27523C16.843 6.13801 17.0425 6.04684 17.2588 6.01422C17.475 5.9816 17.6973 6.00914 17.8952 6.09306L21.3979 7.58826C21.5783 7.6652 21.7306 7.78579 21.8371 7.93613C21.9436 8.08646 22.0001 8.26043 22 8.438V8.4741C21.9999 8.36146 21.9637 8.25116 21.8958 8.15602C21.8278 8.06087 21.7308 7.98479 21.616 7.9366C21.5012 7.88841 21.3733 7.87009 21.2473 7.88378C21.1212 7.89747 21.0021 7.9426 20.9038 8.01392L7.74477 17.5838L7.45617 17.8037C7.35657 17.8792 7.23532 17.9287 7.10589 17.9467C6.97647 17.9647 6.84394 17.9506 6.72304 17.9058L5.43562 17.4267Z" fill="#6C33AF"/>
<path d="M5.43562 9.57357C5.30721 9.62108 5.19741 9.70109 5.11994 9.8036C5.04247 9.90612 5.00075 10.0266 5 10.15V10.2018C5.00086 10.1293 5.02621 10.0587 5.07277 9.99906C5.11933 9.93944 5.18497 9.89356 5.26122 9.86735C5.33747 9.84114 5.42082 9.83581 5.50052 9.85203C5.58023 9.86825 5.65262 9.90528 5.70836 9.95835L16.6875 20.7251C16.843 20.8623 17.0425 20.9535 17.2588 20.9861C17.475 21.0187 17.6973 20.9912 17.8952 20.9073L21.3979 19.412C21.5783 19.3351 21.7306 19.2145 21.8371 19.0642C21.9436 18.9138 22.0001 18.7399 22 18.5623V18.5262C21.9999 18.6388 21.9637 18.7491 21.8958 18.8443C21.8278 18.9394 21.7308 19.0155 21.616 19.0637C21.5012 19.1119 21.3733 19.1302 21.2473 19.1165C21.1212 19.1028 21.0021 19.0577 20.9038 18.9864L7.74477 9.41648L7.45617 9.19661C7.35568 9.12243 7.234 9.07435 7.1046 9.05772C6.97521 9.04109 6.84315 9.05654 6.72304 9.10238L5.43562 9.57357V9.57357Z" fill="#854CC7"/>
<path d="M17.8952 20.9073C17.6973 20.9912 17.475 21.0187 17.2588 20.9861C17.0425 20.9535 16.843 20.8623 16.6875 20.7251C16.7748 20.8019 16.8857 20.8541 17.0064 20.8752C17.127 20.8962 17.252 20.8851 17.3656 20.8433C17.4792 20.8015 17.5763 20.7309 17.6447 20.6402C17.7131 20.5496 17.7497 20.443 17.75 20.334V6.66944C17.7504 6.56011 17.7143 6.45313 17.6461 6.36202C17.578 6.27091 17.4809 6.19976 17.3672 6.15757C17.2535 6.11537 17.1282 6.10403 17.0072 6.12498C16.8863 6.14592 16.775 6.19821 16.6875 6.27523C16.843 6.13801 17.0425 6.04684 17.2588 6.01422C17.475 5.9816 17.6973 6.00914 17.8952 6.09306L21.3979 7.58673C21.5783 7.66367 21.7305 7.78424 21.8371 7.93457C21.9436 8.08489 22.0001 8.25885 22 8.43641V18.5639C22.0001 18.7414 21.9436 18.9154 21.8371 19.0658C21.7306 19.2161 21.5783 19.3367 21.3979 19.4136L17.8952 20.9073V20.9073Z" fill="#B179F1"/>
<path d="M17.1993 20.9764C17.4334 21.0238 17.6787 20.9994 17.8952 20.9073L21.3979 19.4136C21.5783 19.3367 21.7306 19.2161 21.8371 19.0658C21.9436 18.9154 22.0001 18.7414 22 18.5639V8.43641C22.0001 8.25886 21.9436 8.0849 21.8371 7.93457C21.7305 7.78425 21.5783 7.66367 21.3979 7.58673L17.8952 6.09306C17.6474 5.98738 17.363 5.97104 17.1019 6.04747C16.9457 6.09388 16.8039 6.17186 16.6875 6.27523L11.0421 11.8133L7.74477 9.41649L7.45617 9.19662C7.36935 9.13078 7.26587 9.08455 7.15456 9.06185C7.04324 9.03916 6.92739 9.04067 6.81688 9.06627C6.78452 9.07262 6.75306 9.0821 6.72304 9.09454L5.43562 9.57357C5.31513 9.6177 5.2107 9.69047 5.13384 9.78386C5.05698 9.87726 5.01066 9.98765 5 10.1029V16.8975C5.01065 17.0127 5.05696 17.1231 5.13383 17.2165C5.21069 17.3099 5.31512 17.3826 5.43562 17.4267L6.72304 17.8979C6.75306 17.9104 6.78452 17.9198 6.81688 17.9262C7.0412 17.9781 7.27993 17.9295 7.45617 17.7958L7.74477 17.5838L11.0421 15.187L16.6875 20.7251C16.8282 20.8497 17.0055 20.9367 17.1993 20.9764ZM17.75 10.3086L13.3601 13.5002L17.75 16.6917V10.3086ZM7.125 11.3437L9.32258 13.5002L7.125 15.6566V11.3437Z" fill="url(#paint2_linear_4_376)" fill-opacity="0.25"/>
<path d="M37.6591 19.16C36.9125 19.16 36.2938 18.904 35.8031 18.392C35.3125 17.8693 34.8805 17.0107 34.5071 15.816L32.2831 8.744C32.2405 8.616 32.2191 8.48267 32.2191 8.344C32.2191 7.87467 32.5498 7.64 33.2111 7.64C33.5418 7.64 33.7925 7.704 33.9631 7.832C34.1445 7.96 34.2778 8.168 34.3631 8.456L36.5711 15.656C36.7738 16.3067 36.9605 16.776 37.1311 17.064C37.3018 17.352 37.4778 17.496 37.6591 17.496C37.8405 17.496 38.0165 17.352 38.1871 17.064C38.3578 16.776 38.5445 16.3067 38.7471 15.656L40.9551 8.456C41.0405 8.168 41.1685 7.96 41.3391 7.832C41.5205 7.704 41.7765 7.64 42.1071 7.64C42.7685 7.64 43.0991 7.87467 43.0991 8.344C43.0991 8.48267 43.0778 8.616 43.0351 8.744L40.8111 15.816C40.4378 17.0107 40.0058 17.8693 39.5151 18.392C39.0245 18.904 38.4058 19.16 37.6591 19.16ZM47.0105 10.008C46.6158 10.008 46.2958 9.90133 46.0505 9.688C45.8158 9.464 45.6985 9.176 45.6985 8.824C45.6985 8.472 45.8158 8.18933 46.0505 7.976C46.2958 7.752 46.6158 7.64 47.0105 7.64C47.4052 7.64 47.7252 7.752 47.9705 7.976C48.2265 8.18933 48.3545 8.472 48.3545 8.824C48.3545 9.176 48.2265 9.464 47.9705 9.688C47.7252 9.90133 47.4052 10.008 47.0105 10.008ZM47.0265 19.16C46.6958 19.16 46.4398 19.0747 46.2585 18.904C46.0772 18.7333 45.9865 18.4987 45.9865 18.2V11.96C45.9865 11.6613 46.0772 11.4267 46.2585 11.256C46.4398 11.0853 46.6958 11 47.0265 11C47.3465 11 47.6025 11.0853 47.7945 11.256C47.9865 11.4267 48.0825 11.6613 48.0825 11.96V18.2C48.0825 18.4987 47.9865 18.7333 47.7945 18.904C47.6025 19.0747 47.3465 19.16 47.0265 19.16ZM54.8315 19.16C53.1142 19.16 51.8502 18.664 51.0395 17.672C50.8688 17.448 50.7835 17.2453 50.7835 17.064C50.7835 16.808 50.9168 16.584 51.1835 16.392C51.3648 16.2747 51.5408 16.216 51.7115 16.216C51.9462 16.216 52.1648 16.3173 52.3675 16.52C52.7302 16.8827 53.0822 17.144 53.4235 17.304C53.7755 17.4533 54.2075 17.528 54.7195 17.528C55.1568 17.528 55.5248 17.4693 55.8235 17.352C56.1222 17.2347 56.2715 17.0907 56.2715 16.92C56.2715 16.7067 56.1488 16.5253 55.9035 16.376C55.6582 16.2267 55.1622 16.0347 54.4155 15.8C53.2422 15.4373 52.4102 15.0587 51.9195 14.664C51.4288 14.2587 51.1835 13.7573 51.1835 13.16C51.1835 12.488 51.4715 11.96 52.0475 11.576C52.6235 11.192 53.4182 11 54.4315 11C55.2102 11 55.9142 11.1173 56.5435 11.352C57.1728 11.5867 57.6315 11.9013 57.9195 12.296C58.0582 12.4773 58.1275 12.6587 58.1275 12.84C58.1275 13.096 57.9995 13.304 57.7435 13.464C57.5622 13.5813 57.3755 13.64 57.1835 13.64C56.8742 13.64 56.5915 13.512 56.3355 13.256C56.1222 13.0533 55.8448 12.8987 55.5035 12.792C55.1728 12.6853 54.8102 12.632 54.4155 12.632C53.6688 12.632 53.2955 12.808 53.2955 13.16C53.2955 13.2987 53.3542 13.4213 53.4715 13.528C53.5888 13.6347 53.7968 13.7467 54.0955 13.864C54.4048 13.9813 54.8848 14.1413 55.5355 14.344C56.5808 14.664 57.3115 15.016 57.7275 15.4C58.1542 15.784 58.3675 16.2907 58.3675 16.92C58.3675 17.592 58.0582 18.136 57.4395 18.552C56.8208 18.9573 55.9515 19.16 54.8315 19.16ZM64.2059 19.16C63.1072 19.16 62.2485 18.8453 61.6299 18.216C61.0219 17.576 60.7179 16.6907 60.7179 15.56V11.96C60.7179 11.6613 60.8139 11.4267 61.0059 11.256C61.1979 11.0853 61.4539 11 61.7739 11C62.1045 11 62.3605 11.0853 62.5419 11.256C62.7232 11.4267 62.8139 11.6613 62.8139 11.96V15.56C62.8139 16.168 62.9739 16.6427 63.2939 16.984C63.6245 17.3253 64.0832 17.496 64.6699 17.496C65.4272 17.496 66.0139 17.256 66.4299 16.776C66.8565 16.296 67.0699 15.6347 67.0699 14.792V11.96C67.0699 11.6613 67.1659 11.4267 67.3579 11.256C67.5499 11.0853 67.8059 11 68.1259 11C68.4565 11 68.7125 11.0853 68.8939 11.256C69.0752 11.4267 69.1659 11.6613 69.1659 11.96V18.2C69.1659 18.5093 69.0752 18.7493 68.8939 18.92C68.7232 19.08 68.4779 19.16 68.1579 19.16C67.8379 19.16 67.5872 19.0747 67.4059 18.904C67.2245 18.7333 67.1339 18.4987 67.1339 18.2V17.736C66.7392 18.2267 66.3019 18.5893 65.8219 18.824C65.3525 19.048 64.8139 19.16 64.2059 19.16ZM74.9616 19.16C74.3003 19.16 73.7136 19.048 73.2016 18.824C72.7003 18.6 72.3056 18.2907 72.0176 17.896C71.7403 17.4907 71.6016 17.0267 71.6016 16.504C71.6016 15.7147 71.927 15.0853 72.5776 14.616C73.239 14.1467 74.1296 13.912 75.2496 13.912C76.2203 13.912 76.999 14.12 77.5856 14.536V14.152C77.5856 13.6507 77.431 13.2667 77.1216 13C76.8123 12.7333 76.3643 12.6 75.7776 12.6C74.903 12.6 74.151 12.7867 73.5216 13.16C73.255 13.3093 73.0256 13.384 72.8336 13.384C72.599 13.384 72.391 13.2773 72.2096 13.064C72.0923 12.9147 72.0336 12.76 72.0336 12.6C72.0336 12.3333 72.1723 12.0987 72.4496 11.896C72.8336 11.6187 73.319 11.4 73.9056 11.24C74.4923 11.08 75.111 11 75.7616 11C76.999 11 77.9696 11.2827 78.6736 11.848C79.3883 12.4027 79.7456 13.1707 79.7456 14.152V18.264C79.7456 18.5413 79.6496 18.76 79.4576 18.92C79.2763 19.08 79.0256 19.16 78.7056 19.16C78.375 19.16 78.119 19.0853 77.9376 18.936C77.7563 18.7867 77.6656 18.5733 77.6656 18.296V18.12C77.0576 18.8133 76.1563 19.16 74.9616 19.16ZM75.4576 17.688C76.1296 17.688 76.6523 17.5867 77.0256 17.384C77.4096 17.1707 77.6016 16.8773 77.6016 16.504C77.6016 16.152 77.4096 15.8693 77.0256 15.656C76.6416 15.4427 76.1296 15.336 75.4896 15.336C74.9136 15.336 74.4656 15.4373 74.1456 15.64C73.8363 15.8427 73.6816 16.1307 73.6816 16.504C73.6816 16.8773 73.8363 17.1707 74.1456 17.384C74.455 17.5867 74.8923 17.688 75.4576 17.688ZM83.6166 19.16C83.286 19.16 83.03 19.0747 82.8486 18.904C82.6673 18.7333 82.5766 18.4987 82.5766 18.2V7.816C82.5766 7.51733 82.6673 7.28267 82.8486 7.112C83.03 6.94133 83.286 6.856 83.6166 6.856C83.9366 6.856 84.1926 6.94133 84.3846 7.112C84.5766 7.28267 84.6726 7.51733 84.6726 7.816V18.2C84.6726 18.4987 84.5766 18.7333 84.3846 18.904C84.1926 19.0747 83.9366 19.16 83.6166 19.16ZM98.549 19.16C97.5037 19.16 96.5223 18.9893 95.605 18.648C94.6877 18.296 93.893 17.7947 93.221 17.144C93.061 16.984 92.981 16.8027 92.981 16.6C92.981 16.3653 93.0877 16.1413 93.301 15.928C93.4717 15.7573 93.6583 15.672 93.861 15.672C94.0743 15.672 94.3303 15.7947 94.629 16.04C95.1303 16.4987 95.7223 16.856 96.405 17.112C97.0983 17.3573 97.813 17.48 98.549 17.48C99.253 17.48 99.8023 17.3627 100.197 17.128C100.592 16.8827 100.789 16.5413 100.789 16.104C100.789 15.6453 100.576 15.2773 100.149 15C99.7223 14.712 98.997 14.456 97.973 14.232C96.3623 13.88 95.189 13.416 94.453 12.84C93.7277 12.264 93.365 11.5227 93.365 10.616C93.365 10.04 93.557 9.528 93.941 9.08C94.325 8.62133 94.8583 8.26933 95.541 8.024C96.2343 7.768 97.0237 7.64 97.909 7.64C98.901 7.64 99.781 7.80533 100.549 8.136C101.328 8.456 101.92 8.90933 102.325 9.496C102.464 9.72 102.533 9.912 102.533 10.072C102.522 10.3387 102.389 10.568 102.133 10.76C101.994 10.856 101.834 10.904 101.653 10.904C101.322 10.904 101.05 10.776 100.837 10.52C100.528 10.1467 100.112 9.85333 99.589 9.64C99.077 9.42667 98.517 9.32 97.909 9.32C97.1517 9.32 96.5597 9.43733 96.133 9.672C95.717 9.896 95.509 10.2107 95.509 10.616C95.509 11.0213 95.7117 11.3573 96.117 11.624C96.533 11.88 97.2477 12.1253 98.261 12.36C99.381 12.6267 100.282 12.9307 100.965 13.272C101.648 13.6027 102.144 13.9973 102.453 14.456C102.773 14.9147 102.933 15.464 102.933 16.104C102.933 16.712 102.752 17.2507 102.389 17.72C102.026 18.1787 101.514 18.536 100.853 18.792C100.192 19.0373 99.4237 19.16 98.549 19.16ZM112.051 16.936C112.222 17.0747 112.307 17.2453 112.307 17.448C112.307 17.6507 112.232 17.8587 112.083 18.072C111.848 18.4133 111.518 18.68 111.091 18.872C110.664 19.064 110.184 19.16 109.651 19.16C108.798 19.16 108.126 18.9307 107.635 18.472C107.155 18.0027 106.915 17.3627 106.915 16.552V12.808H106.259C105.939 12.808 105.683 12.7333 105.491 12.584C105.299 12.4347 105.203 12.2373 105.203 11.992C105.203 11.736 105.294 11.5333 105.475 11.384C105.667 11.2347 105.928 11.16 106.259 11.16H106.915V8.744C106.915 8.44533 107.011 8.21067 107.203 8.04C107.395 7.86933 107.651 7.784 107.971 7.784C108.302 7.784 108.558 7.86933 108.739 8.04C108.92 8.21067 109.011 8.44533 109.011 8.744V11.16H110.547C110.878 11.16 111.134 11.2347 111.315 11.384C111.507 11.5333 111.603 11.736 111.603 11.992C111.603 12.2373 111.507 12.4347 111.315 12.584C111.134 12.7333 110.878 12.808 110.547 12.808H109.011V16.728C109.011 16.9627 109.08 17.1493 109.219 17.288C109.368 17.4267 109.566 17.496 109.811 17.496C110.003 17.496 110.168 17.4693 110.307 17.416C110.456 17.352 110.606 17.2507 110.755 17.112C111.032 16.8453 111.288 16.712 111.523 16.712C111.694 16.712 111.87 16.7867 112.051 16.936ZM117.988 19.16C116.89 19.16 116.031 18.8453 115.412 18.216C114.804 17.576 114.5 16.6907 114.5 15.56V11.96C114.5 11.6613 114.596 11.4267 114.788 11.256C114.98 11.0853 115.236 11 115.556 11C115.887 11 116.143 11.0853 116.324 11.256C116.506 11.4267 116.596 11.6613 116.596 11.96V15.56C116.596 16.168 116.756 16.6427 117.076 16.984C117.407 17.3253 117.866 17.496 118.452 17.496C119.21 17.496 119.796 17.256 120.212 16.776C120.639 16.296 120.852 15.6347 120.852 14.792V11.96C120.852 11.6613 120.948 11.4267 121.14 11.256C121.332 11.0853 121.588 11 121.908 11C122.239 11 122.495 11.0853 122.676 11.256C122.858 11.4267 122.948 11.6613 122.948 11.96V18.2C122.948 18.5093 122.858 18.7493 122.676 18.92C122.506 19.08 122.26 19.16 121.94 19.16C121.62 19.16 121.37 19.0747 121.188 18.904C121.007 18.7333 120.916 18.4987 120.916 18.2V17.736C120.522 18.2267 120.084 18.5893 119.604 18.824C119.135 19.048 118.596 19.16 117.988 19.16ZM129.656 19.16C128.824 19.16 128.083 19 127.432 18.68C126.792 18.3493 126.291 17.8747 125.928 17.256C125.565 16.6373 125.384 15.912 125.384 15.08C125.384 14.248 125.555 13.528 125.896 12.92C126.248 12.3013 126.749 11.8267 127.4 11.496C128.051 11.1653 128.819 11 129.704 11C130.355 11 130.904 11.1067 131.352 11.32C131.8 11.5227 132.221 11.832 132.616 12.248L132.632 7.816C132.632 7.51733 132.728 7.28267 132.92 7.112C133.112 6.94133 133.368 6.856 133.688 6.856C134.008 6.856 134.259 6.94133 134.44 7.112C134.632 7.272 134.728 7.50667 134.728 7.816V18.2C134.728 18.5093 134.632 18.7493 134.44 18.92C134.259 19.08 134.008 19.16 133.688 19.16C133.368 19.16 133.112 19.0747 132.92 18.904C132.728 18.7333 132.632 18.4987 132.632 18.2V17.88C131.917 18.7333 130.925 19.16 129.656 19.16ZM129.976 17.496C130.808 17.496 131.459 17.2827 131.928 16.856C132.397 16.4293 132.632 15.8373 132.632 15.08C132.632 14.3227 132.397 13.7307 131.928 13.304C131.459 12.8773 130.808 12.664 129.976 12.664C129.197 12.664 128.589 12.8773 128.152 13.304C127.715 13.7307 127.496 14.3227 127.496 15.08C127.496 15.8373 127.715 16.4293 128.152 16.856C128.589 17.2827 129.197 17.496 129.976 17.496ZM138.632 10.008C138.238 10.008 137.918 9.90133 137.672 9.688C137.438 9.464 137.32 9.176 137.32 8.824C137.32 8.472 137.438 8.18933 137.672 7.976C137.918 7.752 138.238 7.64 138.632 7.64C139.027 7.64 139.347 7.752 139.592 7.976C139.848 8.18933 139.976 8.472 139.976 8.824C139.976 9.176 139.848 9.464 139.592 9.688C139.347 9.90133 139.027 10.008 138.632 10.008ZM138.648 19.16C138.318 19.16 138.062 19.0747 137.88 18.904C137.699 18.7333 137.608 18.4987 137.608 18.2V11.96C137.608 11.6613 137.699 11.4267 137.88 11.256C138.062 11.0853 138.318 11 138.648 11C138.968 11 139.224 11.0853 139.416 11.256C139.608 11.4267 139.704 11.6613 139.704 11.96V18.2C139.704 18.4987 139.608 18.7333 139.416 18.904C139.224 19.0747 138.968 19.16 138.648 19.16ZM147.173 19.16C146.245 19.16 145.419 18.9947 144.693 18.664C143.979 18.3227 143.419 17.8427 143.013 17.224C142.608 16.6053 142.405 15.8907 142.405 15.08C142.405 14.2693 142.608 13.5547 143.013 12.936C143.419 12.3173 143.979 11.8427 144.693 11.512C145.419 11.1707 146.245 11 147.173 11C148.101 11 148.923 11.1707 149.637 11.512C150.363 11.8427 150.928 12.3173 151.333 12.936C151.739 13.5547 151.941 14.2693 151.941 15.08C151.941 15.8907 151.739 16.6053 151.333 17.224C150.928 17.8427 150.363 18.3227 149.637 18.664C148.923 18.9947 148.101 19.16 147.173 19.16ZM147.173 17.496C147.995 17.496 148.64 17.2827 149.109 16.856C149.589 16.4293 149.829 15.8373 149.829 15.08C149.829 14.3227 149.589 13.7307 149.109 13.304C148.64 12.8773 147.995 12.664 147.173 12.664C146.352 12.664 145.701 12.8773 145.221 13.304C144.752 13.7307 144.517 14.3227 144.517 15.08C144.517 15.8373 144.752 16.4293 145.221 16.856C145.701 17.2827 146.352 17.496 147.173 17.496Z" fill="white"/>
<defs>
<filter id="filter0_i_4_376" x="21" y="2" width="136" height="27" filterUnits="userSpaceOnUse" color-interpolation-filters="sRGB">
<feFlood flood-opacity="0" result="BackgroundImageFix"/>
<feBlend mode="normal" in="SourceGraphic" in2="BackgroundImageFix" result="shape"/>
<feColorMatrix in="SourceAlpha" type="matrix" values="0 0 0 0 0 0 0 0 0 0 0 0 0 0 0 0 0 0 127 0" result="hardAlpha"/>
<feOffset dy="4"/>
<feGaussianBlur stdDeviation="2"/>
<feComposite in2="hardAlpha" operator="arithmetic" k2="-1" k3="1"/>
<feColorMatrix type="matrix" values="0 0 0 0 0 0 0 0 0 0 0 0 0 0 0 0 0 0 0.25 0"/>
<feBlend mode="normal" in2="shape" result="effect1_innerShadow_4_376"/>
</filter>
<filter id="filter1_i_4_376" x="2" y="2" width="23" height="27" filterUnits="userSpaceOnUse" color-interpolation-filters="sRGB">
<feFlood flood-opacity="0" result="BackgroundImageFix"/>
<feBlend mode="normal" in="SourceGraphic" in2="BackgroundImageFix" result="shape"/>
<feColorMatrix in="SourceAlpha" type="matrix" values="0 0 0 0 0 0 0 0 0 0 0 0 0 0 0 0 0 0 127 0" result="hardAlpha"/>
<feOffset dy="4"/>
<feGaussianBlur stdDeviation="2"/>
<feComposite in2="hardAlpha" operator="arithmetic" k2="-1" k3="1"/>
<feColorMatrix type="matrix" values="0 0 0 0 0 0 0 0 0 0 0 0 0 0 0 0 0 0 0.25 0"/>
<feBlend mode="normal" in2="shape" result="effect1_innerShadow_4_376"/>
</filter>
<linearGradient id="paint0_linear_4_376" x1="13.5" y1="0" x2="13.5" y2="27" gradientUnits="userSpaceOnUse">
<stop stop-color="#647696"/>
<stop offset="1" stop-color="#333E55"/>
</linearGradient>
<radialGradient id="paint1_radial_4_376" cx="0" cy="0" r="1" gradientUnits="userSpaceOnUse" gradientTransform="translate(13.5 13.5) rotate(90) scale(11.5)">
<stop stop-color="#101725"/>
<stop offset="1" stop-color="#253A61"/>
</radialGradient>
<linearGradient id="paint2_linear_4_376" x1="13.5" y1="6.0003" x2="13.5" y2="21" gradientUnits="userSpaceOnUse">
<stop stop-color="white"/>
<stop offset="1" stop-color="white" stop-opacity="0"/>
</linearGradient>
</defs>
</svg>
