<svg width="115" height="27" viewBox="0 0 115 27" fill="none" xmlns="http://www.w3.org/2000/svg">
<rect x="21" width="94" height="27" rx="4" fill="#424D61"/>
<g filter="url(#filter0_i_4_369)">
<rect x="21" y="2" width="92" height="23" rx="4" fill="#212B3E"/>
</g>
<rect width="27" height="27" rx="4" fill="url(#paint0_linear_4_369)"/>
<g filter="url(#filter1_i_4_369)">
<rect x="2" y="2" width="23" height="23" rx="4" fill="url(#paint1_radial_4_369)"/>
</g>
<mask id="mask0_4_369" style="mask-type:alpha" maskUnits="userSpaceOnUse" x="5" y="7" width="17" height="13">
<path d="M17.055 19.9444C17.1903 19.985 17.335 20.0037 17.48 19.9994C17.6251 19.9951 17.7675 19.9679 17.8983 19.9195L21.3983 18.625C21.5786 18.5583 21.7307 18.4538 21.8371 18.3236C21.9436 18.1934 22 18.0427 22 17.8889V9.11105C22 8.95728 21.9436 8.80662 21.8371 8.67641C21.7307 8.54621 21.5786 8.44174 21.3983 8.37504L17.8984 7.08046C17.7006 7.00731 17.4782 6.98323 17.2618 7.01154C17.0454 7.03985 16.8459 7.11917 16.6907 7.2385L9.99038 11.9373L7.07176 10.2344C6.94011 10.1576 6.77762 10.1186 6.6125 10.1242C6.44738 10.1299 6.29004 10.1798 6.16777 10.2653L5.23172 10.9198C4.92306 11.1356 4.92273 11.5089 5.23092 11.725L7.76202 13.5L5.23092 15.2749C4.92273 15.4911 4.92306 15.8643 5.23172 16.0802L6.16777 16.7347C6.29003 16.8202 6.44737 16.8701 6.61249 16.8757C6.77761 16.8814 6.9401 16.8424 7.07176 16.7656L9.99038 15.0626L16.6907 19.7614C16.7943 19.8412 16.9184 19.9035 17.055 19.9444V19.9444ZM17.7526 10.5335L12.6685 13.5L17.7526 16.4664V10.5335V10.5335Z" fill="white"/>
</mask>
<g mask="url(#mask0_4_369)">
<path d="M21.4089 8.37709L17.9061 7.08072C17.7083 7.00751 17.4858 6.98337 17.2693 7.01165C17.0528 7.03992 16.8532 7.11921 16.6979 7.23855L5.23117 15.275C4.92277 15.4912 4.92317 15.8644 5.23197 16.0802L6.16862 16.7347C6.29098 16.8202 6.44842 16.8701 6.61364 16.8758C6.77886 16.8815 6.94144 16.8425 7.07321 16.7657L20.8818 8.7134C21.3451 8.44329 22.0104 8.69726 22.0104 9.14421V9.11295C22.0104 8.9592 21.954 8.80858 21.8476 8.6784C21.7411 8.54822 21.5891 8.44378 21.4089 8.37709V8.37709Z" fill="#0065A9"/>
<path d="M21.4088 18.6229L17.9061 19.9193C17.7083 19.9925 17.4857 20.0166 17.2693 19.9883C17.0528 19.96 16.8532 19.8808 16.6979 19.7614L5.23115 11.725C4.92275 11.5089 4.92315 11.1356 5.23195 10.9198L6.1686 10.2653C6.29097 10.1798 6.44841 10.1299 6.61363 10.1242C6.77885 10.1186 6.94143 10.1575 7.07319 10.2344L20.8818 18.2866C21.345 18.5567 22.0104 18.3027 22.0104 17.8557V17.887C22.0104 18.0408 21.954 18.1914 21.8475 18.3216C21.7411 18.4518 21.589 18.5562 21.4088 18.6229V18.6229Z" fill="#007ACC"/>
<path d="M17.895 19.9203C17.6971 19.9935 17.4746 20.0175 17.2581 19.9892C17.0416 19.9609 16.8419 19.8816 16.6867 19.7623C17.0787 20.0636 17.7492 19.8502 17.7492 19.4239V7.57763C17.7492 7.15139 17.0787 6.93795 16.6867 7.23932C16.8419 7.11998 17.0416 7.04067 17.2581 7.01235C17.4745 6.98404 17.6971 7.00813 17.895 7.08128L21.3971 8.37586C21.5775 8.44252 21.7296 8.54696 21.8361 8.67718C21.9426 8.80739 21.9991 8.95807 21.9991 9.11188V17.8898C21.9991 18.2037 21.7651 18.4898 21.3971 18.6258L17.895 19.9203V19.9203Z" fill="#1F9CF0"/>
<path d="M17.055 19.9444C17.1903 19.9849 17.335 20.0037 17.48 19.9994C17.6251 19.9951 17.7675 19.9679 17.8983 19.9195L21.3983 18.6249C21.5785 18.5582 21.7307 18.4538 21.8371 18.3236C21.9436 18.1934 22 18.0427 22 17.8889V9.11104C22 8.95726 21.9436 8.8066 21.8371 8.6764C21.7307 8.54619 21.5786 8.44172 21.3983 8.37502L17.8983 7.08039C17.7005 7.00725 17.4781 6.98318 17.2617 7.01149C17.0454 7.0398 16.8458 7.11911 16.6907 7.23843L9.99038 11.9373L7.07176 10.2344C6.94011 10.1575 6.77762 10.1186 6.6125 10.1242C6.44738 10.1299 6.29004 10.1798 6.16777 10.2653L5.23172 10.9198C4.92306 11.1356 4.92273 11.5088 5.23092 11.725L7.76202 13.5L5.23092 15.2749C4.92273 15.4911 4.92306 15.8643 5.23172 16.0802L6.16777 16.7346C6.29003 16.8201 6.44737 16.8701 6.61249 16.8757C6.77761 16.8814 6.9401 16.8424 7.07176 16.7656L9.99038 15.0626L16.6907 19.7614C16.7943 19.8412 16.9184 19.9035 17.055 19.9444V19.9444ZM17.7526 10.5335L12.6685 13.5L17.7526 16.4664V10.5335V10.5335Z" fill="url(#paint2_linear_4_369)" fill-opacity="0.25"/>
</g>
<path d="M41.2541 19.16C40.5075 19.16 39.8888 18.904 39.3981 18.392C38.9075 17.8693 38.4755 17.0107 38.1021 15.816L35.8781 8.744C35.8355 8.616 35.8141 8.48267 35.8141 8.344C35.8141 7.87467 36.1448 7.64 36.8061 7.64C37.1368 7.64 37.3875 7.704 37.5581 7.832C37.7395 7.96 37.8728 8.168 37.9581 8.456L40.1661 15.656C40.3688 16.3067 40.5555 16.776 40.7261 17.064C40.8968 17.352 41.0728 17.496 41.2541 17.496C41.4355 17.496 41.6115 17.352 41.7821 17.064C41.9528 16.776 42.1395 16.3067 42.3421 15.656L44.5501 8.456C44.6355 8.168 44.7635 7.96 44.9341 7.832C45.1155 7.704 45.3715 7.64 45.7021 7.64C46.3635 7.64 46.6941 7.87467 46.6941 8.344C46.6941 8.48267 46.6728 8.616 46.6301 8.744L44.4061 15.816C44.0328 17.0107 43.6008 17.8693 43.1101 18.392C42.6195 18.904 42.0008 19.16 41.2541 19.16ZM53.3353 19.16C52.2899 19.16 51.3086 18.9893 50.3913 18.648C49.4739 18.296 48.6793 17.7947 48.0073 17.144C47.8473 16.984 47.7673 16.8027 47.7673 16.6C47.7673 16.3653 47.8739 16.1413 48.0872 15.928C48.2579 15.7573 48.4446 15.672 48.6473 15.672C48.8606 15.672 49.1166 15.7947 49.4153 16.04C49.9166 16.4987 50.5086 16.856 51.1913 17.112C51.8846 17.3573 52.5993 17.48 53.3353 17.48C54.0393 17.48 54.5886 17.3627 54.9833 17.128C55.3779 16.8827 55.5753 16.5413 55.5753 16.104C55.5753 15.6453 55.3619 15.2773 54.9353 15C54.5086 14.712 53.7833 14.456 52.7593 14.232C51.1486 13.88 49.9753 13.416 49.2393 12.84C48.5139 12.264 48.1513 11.5227 48.1513 10.616C48.1513 10.04 48.3433 9.528 48.7273 9.08C49.1113 8.62133 49.6446 8.26933 50.3273 8.024C51.0206 7.768 51.8099 7.64 52.6953 7.64C53.6873 7.64 54.5673 7.80533 55.3353 8.136C56.1139 8.456 56.7059 8.90933 57.1113 9.496C57.2499 9.72 57.3193 9.912 57.3193 10.072C57.3086 10.3387 57.1753 10.568 56.9193 10.76C56.7806 10.856 56.6206 10.904 56.4392 10.904C56.1086 10.904 55.8366 10.776 55.6233 10.52C55.3139 10.1467 54.8979 9.85333 54.3753 9.64C53.8633 9.42667 53.3033 9.32 52.6953 9.32C51.9379 9.32 51.3459 9.43733 50.9193 9.672C50.5033 9.896 50.2953 10.2107 50.2953 10.616C50.2953 11.0213 50.4979 11.3573 50.9033 11.624C51.3193 11.88 52.0339 12.1253 53.0473 12.36C54.1673 12.6267 55.0686 12.9307 55.7513 13.272C56.4339 13.6027 56.9299 13.9973 57.2393 14.456C57.5593 14.9147 57.7193 15.464 57.7193 16.104C57.7193 16.712 57.5379 17.2507 57.1753 17.72C56.8126 18.1787 56.3006 18.536 55.6393 18.792C54.9779 19.0373 54.2099 19.16 53.3353 19.16ZM69.3424 19.16C68.137 19.16 67.0917 18.9307 66.2064 18.472C65.321 18.0133 64.6437 17.352 64.1744 16.488C63.705 15.624 63.4704 14.6 63.4704 13.416C63.4704 12.232 63.705 11.208 64.1744 10.344C64.6437 9.46933 65.3157 8.80267 66.1904 8.344C67.0757 7.87467 68.1157 7.64 69.3104 7.64C70.3024 7.64 71.2197 7.81067 72.0624 8.152C72.905 8.49333 73.529 8.94667 73.9344 9.512C74.0624 9.68267 74.1264 9.85867 74.1264 10.04C74.1264 10.3067 73.9824 10.5467 73.6944 10.76C73.5664 10.856 73.4064 10.904 73.2144 10.904C73.0544 10.904 72.8944 10.872 72.7344 10.808C72.5744 10.7333 72.441 10.632 72.3344 10.504C71.9717 10.088 71.5504 9.78933 71.0704 9.608C70.5904 9.416 70.0037 9.32 69.3104 9.32C68.1477 9.32 67.241 9.68267 66.5904 10.408C65.9397 11.1227 65.6144 12.1253 65.6144 13.416C65.6144 14.696 65.9397 15.6933 66.5904 16.408C67.2517 17.1227 68.169 17.48 69.3424 17.48C70.6864 17.48 71.7584 17.0853 72.5584 16.296C72.889 15.9867 73.193 15.832 73.4704 15.832C73.6624 15.832 73.8384 15.896 73.9984 16.024C74.2437 16.2373 74.3664 16.472 74.3664 16.728C74.3664 16.92 74.297 17.1067 74.1584 17.288C73.6997 17.8747 73.0437 18.3333 72.1904 18.664C71.3477 18.9947 70.3984 19.16 69.3424 19.16ZM80.0471 19.16C79.1191 19.16 78.2925 18.9947 77.5671 18.664C76.8525 18.3227 76.2925 17.8427 75.8871 17.224C75.4818 16.6053 75.2791 15.8907 75.2791 15.08C75.2791 14.2693 75.4818 13.5547 75.8871 12.936C76.2925 12.3173 76.8525 11.8427 77.5671 11.512C78.2925 11.1707 79.1191 11 80.0471 11C80.9751 11 81.7965 11.1707 82.5111 11.512C83.2365 11.8427 83.8018 12.3173 84.2071 12.936C84.6125 13.5547 84.8151 14.2693 84.8151 15.08C84.8151 15.8907 84.6125 16.6053 84.2071 17.224C83.8018 17.8427 83.2365 18.3227 82.5111 18.664C81.7965 18.9947 80.9751 19.16 80.0471 19.16ZM80.0471 17.496C80.8685 17.496 81.5138 17.2827 81.9831 16.856C82.4631 16.4293 82.7031 15.8373 82.7031 15.08C82.7031 14.3227 82.4631 13.7307 81.9831 13.304C81.5138 12.8773 80.8685 12.664 80.0471 12.664C79.2258 12.664 78.5751 12.8773 78.0951 13.304C77.6258 13.7307 77.3911 14.3227 77.3911 15.08C77.3911 15.8373 77.6258 16.4293 78.0951 16.856C78.5751 17.2827 79.2258 17.496 80.0471 17.496ZM90.2386 19.16C89.4066 19.16 88.6653 19 88.0146 18.68C87.3746 18.3493 86.8733 17.8747 86.5106 17.256C86.148 16.6373 85.9666 15.912 85.9666 15.08C85.9666 14.248 86.1373 13.528 86.4786 12.92C86.8306 12.3013 87.332 11.8267 87.9826 11.496C88.6333 11.1653 89.4013 11 90.2866 11C90.9373 11 91.4866 11.1067 91.9346 11.32C92.3826 11.5227 92.804 11.832 93.1986 12.248L93.2146 7.816C93.2146 7.51733 93.3106 7.28267 93.5026 7.112C93.6946 6.94133 93.9506 6.856 94.2706 6.856C94.5906 6.856 94.8413 6.94133 95.0226 7.112C95.2146 7.272 95.3106 7.50667 95.3106 7.816V18.2C95.3106 18.5093 95.2146 18.7493 95.0226 18.92C94.8413 19.08 94.5906 19.16 94.2706 19.16C93.9506 19.16 93.6946 19.0747 93.5026 18.904C93.3106 18.7333 93.2146 18.4987 93.2146 18.2V17.88C92.5 18.7333 91.508 19.16 90.2386 19.16ZM90.5586 17.496C91.3906 17.496 92.0413 17.2827 92.5106 16.856C92.98 16.4293 93.2146 15.8373 93.2146 15.08C93.2146 14.3227 92.98 13.7307 92.5106 13.304C92.0413 12.8773 91.3906 12.664 90.5586 12.664C89.78 12.664 89.172 12.8773 88.7346 13.304C88.2973 13.7307 88.0786 14.3227 88.0786 15.08C88.0786 15.8373 88.2973 16.4293 88.7346 16.856C89.172 17.2827 89.78 17.496 90.5586 17.496ZM101.151 19.16C100.234 19.16 99.4335 18.9947 98.7509 18.664C98.0682 18.3333 97.5402 17.8693 97.1669 17.272C96.8042 16.664 96.6229 15.9547 96.6229 15.144C96.6229 13.832 97.0015 12.8133 97.7589 12.088C98.5269 11.3627 99.6042 11 100.991 11C101.844 11 102.596 11.1333 103.247 11.4C103.908 11.6667 104.42 12.04 104.783 12.52C105.156 12.9893 105.343 13.528 105.343 14.136C105.343 14.648 105.178 15.0427 104.847 15.32C104.527 15.5973 104.068 15.736 103.471 15.736H98.6549C98.6549 16.3333 98.8629 16.7867 99.2789 17.096C99.7055 17.3947 100.33 17.544 101.151 17.544C102.015 17.544 102.751 17.352 103.359 16.968C103.7 16.7547 103.967 16.648 104.159 16.648C104.34 16.648 104.516 16.7333 104.687 16.904C104.868 17.0853 104.959 17.2827 104.959 17.496C104.959 17.752 104.852 17.9547 104.639 18.104C104.191 18.4453 103.668 18.7067 103.071 18.888C102.474 19.0693 101.834 19.16 101.151 19.16ZM102.831 14.264C103.012 14.264 103.14 14.232 103.215 14.168C103.29 14.0933 103.327 13.976 103.327 13.816C103.327 13.4427 103.114 13.1493 102.687 12.936C102.271 12.7227 101.706 12.616 100.991 12.616C100.276 12.616 99.7109 12.7653 99.2949 13.064C98.8895 13.3627 98.6869 13.7627 98.6869 14.264H102.831Z" fill="white"/>
<defs>
<filter id="filter0_i_4_369" x="21" y="2" width="92" height="27" filterUnits="userSpaceOnUse" color-interpolation-filters="sRGB">
<feFlood flood-opacity="0" result="BackgroundImageFix"/>
<feBlend mode="normal" in="SourceGraphic" in2="BackgroundImageFix" result="shape"/>
<feColorMatrix in="SourceAlpha" type="matrix" values="0 0 0 0 0 0 0 0 0 0 0 0 0 0 0 0 0 0 127 0" result="hardAlpha"/>
<feOffset dy="4"/>
<feGaussianBlur stdDeviation="2"/>
<feComposite in2="hardAlpha" operator="arithmetic" k2="-1" k3="1"/>
<feColorMatrix type="matrix" values="0 0 0 0 0 0 0 0 0 0 0 0 0 0 0 0 0 0 0.25 0"/>
<feBlend mode="normal" in2="shape" result="effect1_innerShadow_4_369"/>
</filter>
<filter id="filter1_i_4_369" x="2" y="2" width="23" height="27" filterUnits="userSpaceOnUse" color-interpolation-filters="sRGB">
<feFlood flood-opacity="0" result="BackgroundImageFix"/>
<feBlend mode="normal" in="SourceGraphic" in2="BackgroundImageFix" result="shape"/>
<feColorMatrix in="SourceAlpha" type="matrix" values="0 0 0 0 0 0 0 0 0 0 0 0 0 0 0 0 0 0 127 0" result="hardAlpha"/>
<feOffset dy="4"/>
<feGaussianBlur stdDeviation="2"/>
<feComposite in2="hardAlpha" operator="arithmetic" k2="-1" k3="1"/>
<feColorMatrix type="matrix" values="0 0 0 0 0 0 0 0 0 0 0 0 0 0 0 0 0 0 0.25 0"/>
<feBlend mode="normal" in2="shape" result="effect1_innerShadow_4_369"/>
</filter>
<linearGradient id="paint0_linear_4_369" x1="13.5" y1="0" x2="13.5" y2="27" gradientUnits="userSpaceOnUse">
<stop stop-color="#647696"/>
<stop offset="1" stop-color="#333E55"/>
</linearGradient>
<radialGradient id="paint1_radial_4_369" cx="0" cy="0" r="1" gradientUnits="userSpaceOnUse" gradientTransform="translate(13.5 13.5) rotate(90) scale(11.5)">
<stop stop-color="#101725"/>
<stop offset="1" stop-color="#253A61"/>
</radialGradient>
<linearGradient id="paint2_linear_4_369" x1="13.5" y1="6.99995" x2="13.5" y2="20" gradientUnits="userSpaceOnUse">
<stop stop-color="white"/>
<stop offset="1" stop-color="white" stop-opacity="0"/>
</linearGradient>
</defs>
</svg>
