<svg width="115" height="27" viewBox="0 0 115 27" fill="none" xmlns="http://www.w3.org/2000/svg">
<rect x="21" width="94" height="27" rx="4" fill="#424D61"/>
<g filter="url(#filter0_i_4_355)">
<rect x="21" y="2" width="92" height="23" rx="4" fill="#212B3E"/>
</g>
<rect width="27" height="27" rx="4" fill="url(#paint0_linear_4_355)"/>
<g filter="url(#filter1_i_4_355)">
<rect x="2" y="2" width="23" height="23" rx="4" fill="url(#paint1_radial_4_355)"/>
</g>
<path d="M18.5653 9.33351C18.8896 9.21226 19.1206 9.17226 19.3523 9.21226C19.7225 9.29351 19.9076 9.53476 20.0468 9.65601C20.186 9.89789 20.6946 10.1398 20.9264 10.1804C21.1115 10.2204 21.4357 9.77726 21.6675 9.37414C21.8985 9.01038 22.0377 8.52663 21.991 8.40538C21.9451 8.28475 21.2966 8.04288 21.1581 8.04288C21.0648 8.04288 20.8797 8.1235 20.5554 8.08288C20.2326 8.04288 19.9076 7.72038 19.7232 7.47788C19.3982 7.07475 18.9355 6.83287 18.5186 6.631C18.0559 6.42912 17.5465 6.30849 17.0371 6.22787C16.2967 6.06599 15.5556 5.94537 14.8152 6.02537C14.3991 6.06537 13.8898 6.10599 13.5188 6.22724C13.4722 6.22724 13.3797 6.34787 13.4722 6.34787C13.5648 6.34787 13.889 6.38849 13.889 6.38849C13.889 6.38849 13.4729 6.46912 13.4729 6.54975C13.4729 6.631 13.5188 6.631 13.5655 6.631C13.6114 6.631 14.6301 6.59037 15.047 6.631C15.5097 6.711 16.0191 6.91225 16.3434 7.39663C16.8987 8.28413 16.6669 9.13101 16.5285 9.41351C15.834 10.7448 10.3241 18.9323 10.0464 19.4967C9.7688 20.0611 9.67625 20.4242 10.4633 20.7873C11.2503 21.1504 11.6671 20.9886 11.8982 20.7467C12.1765 20.4242 16.9446 10.0185 18.5653 9.33289V9.33351ZM15.9725 14.7779H17.0838C17.8242 14.7779 17.9633 15.101 17.9633 15.2217C18.01 15.5442 17.8242 15.9479 17.0838 15.9479H16.3893L16.9446 16.7542C17.2689 17.2386 17.1297 17.4804 16.9446 17.6417C16.6669 17.8836 16.065 17.8836 15.7414 17.3592L15.0929 16.3917C14.6301 17.2792 14.1674 18.2467 13.6114 19.3761H16.4818C17.8708 19.3761 19.0287 18.3679 19.0287 17.1573V10.1004C18.9821 10.0191 18.8896 10.0598 18.8429 10.1004C18.5653 10.3823 17.7782 11.3504 15.9732 14.7785L15.9725 14.7779ZM8.93514 19.7792H8.70413C8.30872 19.7799 7.91703 19.7126 7.55155 19.5812C7.18607 19.4497 6.85398 19.2567 6.57435 19.0131C6.29472 18.7696 6.07305 18.4803 5.92206 18.162C5.77107 17.8436 5.69373 17.5024 5.69449 17.1579V10.3816C5.69364 10.0371 5.7709 9.69585 5.92185 9.37741C6.0728 9.05897 6.29445 8.76964 6.57409 8.52603C6.85373 8.28242 7.18585 8.08932 7.55138 7.95782C7.91691 7.82632 8.30866 7.75901 8.70413 7.75975H15.4172C15.278 7.6385 14.7227 7.43725 14.1674 7.47725C13.9357 7.47725 13.4729 7.5585 13.1946 7.39663C12.9169 7.19537 12.9635 7.07412 12.5467 7.07412H8.42648C7.97619 7.07313 7.53012 7.14967 7.11389 7.29933C6.69765 7.44899 6.31947 7.66883 6.00107 7.94621C5.68266 8.22359 5.43032 8.55305 5.25852 8.91565C5.08673 9.27826 4.99888 9.66686 5.00001 10.0591V17.4004C5.00001 19.0542 6.52815 20.3848 8.19475 20.3442C8.6575 20.3442 8.79668 20.0217 8.93514 19.7798V19.7792ZM19.5374 10.3416V17.1579C19.5382 17.5023 19.4608 17.8435 19.3099 18.1618C19.159 18.4801 18.9373 18.7694 18.6578 19.0129C18.3782 19.2564 18.0462 19.4495 17.6808 19.581C17.3154 19.7125 16.9238 19.7798 16.5285 19.7792H13.4263C13.4263 19.7792 13.1486 20.4248 14.0282 20.4248H16.8061C17.2564 20.4257 17.7024 20.3491 18.1185 20.1994C18.5346 20.0497 18.9127 19.8299 19.2311 19.5525C19.5494 19.2751 19.8017 18.9457 19.9734 18.5831C20.1452 18.2206 20.233 17.832 20.2319 17.4398V11.511C20.2785 10.9466 19.7225 10.5835 19.5374 10.3416V10.3416ZM6.20387 10.3816V17.1567C6.20387 18.3673 7.36109 19.3754 8.75076 19.3754H9.16687C9.16687 19.3348 9.72217 18.4879 10.926 16.7129C11.0652 16.4717 11.2503 16.2298 11.4354 15.9473H8.05628C7.63946 15.9473 7.40772 15.7054 7.36109 15.5035C7.26854 15.181 7.50027 14.7773 8.00965 14.7773H9.72217L11.8989 11.4704C11.8989 11.4704 11.3895 10.6641 11.2503 10.4623C11.0652 10.1798 11.1578 9.89726 11.3436 9.73601C11.6205 9.49414 12.084 9.37351 12.5467 10.0185L12.7318 10.2604L12.9169 10.0185C13.333 9.49351 13.6114 9.53414 13.8424 9.57476C14.2133 9.65539 14.445 10.0185 14.1208 10.5829L11.2503 14.7773H12.2224C12.5467 14.2935 12.871 13.8098 13.1946 13.2854C13.1486 13.0835 13.102 12.8417 13.1486 12.6398C13.1946 12.3173 13.3804 12.0348 13.6114 11.7929L13.889 12.196C14.7693 10.8648 15.4172 9.73601 15.6023 9.29226C15.6955 9.05038 15.834 8.56601 15.6955 8.16288H8.75076C8.41603 8.16205 8.08442 8.21888 7.77499 8.33009C7.46556 8.4413 7.18441 8.6047 6.94772 8.8109C6.71103 9.0171 6.52347 9.26202 6.39581 9.53158C6.26815 9.80115 6.20292 10.09 6.20387 10.3816V10.3816ZM8.19475 17.1167C8.19475 17.0767 8.75004 16.2292 8.75004 16.2292C9.63034 16.0279 10.0464 16.5117 10.0931 16.5523C10.0931 16.5523 9.49044 17.4798 9.30606 17.6411C9.12168 17.8023 8.88923 17.8429 8.6575 17.8023C8.2873 17.7217 8.05557 17.3992 8.19475 17.1167V17.1167Z" fill="white"/>
<path d="M47.5664 17.64C47.6837 17.7893 47.7424 17.96 47.7424 18.152C47.7424 18.3227 47.6997 18.488 47.6144 18.648C47.529 18.7973 47.417 18.9147 47.2784 19C47.1077 19.096 46.9424 19.144 46.7824 19.144C46.5157 19.144 46.2437 18.984 45.9664 18.664L42.7664 14.824L39.5664 18.664C39.2997 18.984 39.0277 19.144 38.7504 19.144C38.601 19.144 38.4357 19.096 38.2544 19C38.1157 18.9147 38.0037 18.7973 37.9184 18.648C37.833 18.488 37.7904 18.3227 37.7904 18.152C37.7904 17.96 37.849 17.7893 37.9664 17.64L41.5184 13.336L38.1584 9.304C37.9877 9.10133 37.9024 8.872 37.9024 8.616C37.9024 8.456 37.9397 8.30667 38.0144 8.168C38.089 8.01867 38.1904 7.90667 38.3184 7.832C38.521 7.71467 38.7077 7.656 38.8784 7.656C39.1664 7.656 39.4384 7.81067 39.6944 8.12L42.7664 11.832L45.8384 8.12C46.0944 7.81067 46.3664 7.656 46.6544 7.656C46.8464 7.656 47.033 7.71467 47.2144 7.832C47.3424 7.90667 47.4437 8.01867 47.5184 8.168C47.593 8.30667 47.6304 8.456 47.6304 8.616C47.6304 8.872 47.545 9.10133 47.3744 9.304L44.0144 13.336L47.5664 17.64ZM56.6855 19.16C55.2562 19.16 54.1468 18.8027 53.3575 18.088C52.5682 17.3627 52.1735 16.3547 52.1735 15.064C52.1735 13.7733 52.5682 12.776 53.3575 12.072C54.1468 11.3573 55.2562 11 56.6855 11C57.4428 11 58.1255 11.128 58.7335 11.384C59.3522 11.6293 59.8375 11.9813 60.1895 12.44C60.3175 12.6 60.3815 12.7707 60.3815 12.952C60.3815 13.2293 60.2375 13.4747 59.9495 13.688C59.8215 13.784 59.6615 13.832 59.4695 13.832C59.3202 13.832 59.1655 13.8 59.0055 13.736C58.8455 13.6613 58.7068 13.56 58.5895 13.432C58.3762 13.1867 58.0988 13 57.7575 12.872C57.4268 12.7333 57.0695 12.664 56.6855 12.664C55.9282 12.664 55.3362 12.8773 54.9095 13.304C54.4935 13.72 54.2855 14.3067 54.2855 15.064C54.2855 15.8427 54.4935 16.4453 54.9095 16.872C55.3362 17.288 55.9282 17.496 56.6855 17.496C57.5282 17.496 58.2482 17.2133 58.8455 16.648C59.1442 16.3493 59.4375 16.2 59.7255 16.2C59.9175 16.2 60.0935 16.264 60.2535 16.392C60.5095 16.5947 60.6375 16.84 60.6375 17.128C60.6375 17.3093 60.5628 17.4853 60.4135 17.656C59.9228 18.1787 59.3735 18.5627 58.7655 18.808C58.1682 19.0427 57.4748 19.16 56.6855 19.16ZM70.3909 19.16C69.4629 19.16 68.6362 18.9947 67.9109 18.664C67.1962 18.3227 66.6362 17.8427 66.2309 17.224C65.8255 16.6053 65.6229 15.8907 65.6229 15.08C65.6229 14.2693 65.8255 13.5547 66.2309 12.936C66.6362 12.3173 67.1962 11.8427 67.9109 11.512C68.6362 11.1707 69.4629 11 70.3909 11C71.3189 11 72.1402 11.1707 72.8549 11.512C73.5802 11.8427 74.1455 12.3173 74.5509 12.936C74.9562 13.5547 75.1589 14.2693 75.1589 15.08C75.1589 15.8907 74.9562 16.6053 74.5509 17.224C74.1455 17.8427 73.5802 18.3227 72.8549 18.664C72.1402 18.9947 71.3189 19.16 70.3909 19.16ZM70.3909 17.496C71.2122 17.496 71.8575 17.2827 72.3269 16.856C72.8069 16.4293 73.0469 15.8373 73.0469 15.08C73.0469 14.3227 72.8069 13.7307 72.3269 13.304C71.8575 12.8773 71.2122 12.664 70.3909 12.664C69.5695 12.664 68.9189 12.8773 68.4389 13.304C67.9695 13.7307 67.7349 14.3227 67.7349 15.08C67.7349 15.8373 67.9695 16.4293 68.4389 16.856C68.9189 17.2827 69.5695 17.496 70.3909 17.496ZM84.4224 19.16C83.5904 19.16 82.849 19 82.1984 18.68C81.5584 18.3493 81.057 17.8747 80.6944 17.256C80.3317 16.6373 80.1504 15.912 80.1504 15.08C80.1504 14.248 80.321 13.528 80.6624 12.92C81.0144 12.3013 81.5157 11.8267 82.1664 11.496C82.817 11.1653 83.585 11 84.4704 11C85.121 11 85.6704 11.1067 86.1184 11.32C86.5664 11.5227 86.9877 11.832 87.3824 12.248L87.3984 7.816C87.3984 7.51733 87.4944 7.28267 87.6864 7.112C87.8784 6.94133 88.1344 6.856 88.4544 6.856C88.7744 6.856 89.025 6.94133 89.2064 7.112C89.3984 7.272 89.4944 7.50667 89.4944 7.816V18.2C89.4944 18.5093 89.3984 18.7493 89.2064 18.92C89.025 19.08 88.7744 19.16 88.4544 19.16C88.1344 19.16 87.8784 19.0747 87.6864 18.904C87.4944 18.7333 87.3984 18.4987 87.3984 18.2V17.88C86.6837 18.7333 85.6917 19.16 84.4224 19.16ZM84.7424 17.496C85.5744 17.496 86.225 17.2827 86.6944 16.856C87.1637 16.4293 87.3984 15.8373 87.3984 15.08C87.3984 14.3227 87.1637 13.7307 86.6944 13.304C86.225 12.8773 85.5744 12.664 84.7424 12.664C83.9637 12.664 83.3557 12.8773 82.9184 13.304C82.481 13.7307 82.2624 14.3227 82.2624 15.08C82.2624 15.8373 82.481 16.4293 82.9184 16.856C83.3557 17.2827 83.9637 17.496 84.7424 17.496ZM99.1746 19.16C98.2573 19.16 97.4573 18.9947 96.7746 18.664C96.092 18.3333 95.564 17.8693 95.1906 17.272C94.828 16.664 94.6466 15.9547 94.6466 15.144C94.6466 13.832 95.0253 12.8133 95.7826 12.088C96.5506 11.3627 97.628 11 99.0146 11C99.868 11 100.62 11.1333 101.271 11.4C101.932 11.6667 102.444 12.04 102.807 12.52C103.18 12.9893 103.367 13.528 103.367 14.136C103.367 14.648 103.201 15.0427 102.871 15.32C102.551 15.5973 102.092 15.736 101.495 15.736H96.6786C96.6786 16.3333 96.8866 16.7867 97.3026 17.096C97.7293 17.3947 98.3533 17.544 99.1746 17.544C100.039 17.544 100.775 17.352 101.383 16.968C101.724 16.7547 101.991 16.648 102.183 16.648C102.364 16.648 102.54 16.7333 102.711 16.904C102.892 17.0853 102.983 17.2827 102.983 17.496C102.983 17.752 102.876 17.9547 102.663 18.104C102.215 18.4453 101.692 18.7067 101.095 18.888C100.497 19.0693 99.8573 19.16 99.1746 19.16ZM100.855 14.264C101.036 14.264 101.164 14.232 101.239 14.168C101.313 14.0933 101.351 13.976 101.351 13.816C101.351 13.4427 101.137 13.1493 100.711 12.936C100.295 12.7227 99.7293 12.616 99.0146 12.616C98.3 12.616 97.7346 12.7653 97.3186 13.064C96.9133 13.3627 96.7106 13.7627 96.7106 14.264H100.855Z" fill="white"/>
<defs>
<filter id="filter0_i_4_355" x="21" y="2" width="92" height="27" filterUnits="userSpaceOnUse" color-interpolation-filters="sRGB">
<feFlood flood-opacity="0" result="BackgroundImageFix"/>
<feBlend mode="normal" in="SourceGraphic" in2="BackgroundImageFix" result="shape"/>
<feColorMatrix in="SourceAlpha" type="matrix" values="0 0 0 0 0 0 0 0 0 0 0 0 0 0 0 0 0 0 127 0" result="hardAlpha"/>
<feOffset dy="4"/>
<feGaussianBlur stdDeviation="2"/>
<feComposite in2="hardAlpha" operator="arithmetic" k2="-1" k3="1"/>
<feColorMatrix type="matrix" values="0 0 0 0 0 0 0 0 0 0 0 0 0 0 0 0 0 0 0.25 0"/>
<feBlend mode="normal" in2="shape" result="effect1_innerShadow_4_355"/>
</filter>
<filter id="filter1_i_4_355" x="2" y="2" width="23" height="27" filterUnits="userSpaceOnUse" color-interpolation-filters="sRGB">
<feFlood flood-opacity="0" result="BackgroundImageFix"/>
<feBlend mode="normal" in="SourceGraphic" in2="BackgroundImageFix" result="shape"/>
<feColorMatrix in="SourceAlpha" type="matrix" values="0 0 0 0 0 0 0 0 0 0 0 0 0 0 0 0 0 0 127 0" result="hardAlpha"/>
<feOffset dy="4"/>
<feGaussianBlur stdDeviation="2"/>
<feComposite in2="hardAlpha" operator="arithmetic" k2="-1" k3="1"/>
<feColorMatrix type="matrix" values="0 0 0 0 0 0 0 0 0 0 0 0 0 0 0 0 0 0 0.25 0"/>
<feBlend mode="normal" in2="shape" result="effect1_innerShadow_4_355"/>
</filter>
<linearGradient id="paint0_linear_4_355" x1="13.5" y1="0" x2="13.5" y2="27" gradientUnits="userSpaceOnUse">
<stop stop-color="#647696"/>
<stop offset="1" stop-color="#333E55"/>
</linearGradient>
<radialGradient id="paint1_radial_4_355" cx="0" cy="0" r="1" gradientUnits="userSpaceOnUse" gradientTransform="translate(13.5 13.5) rotate(90) scale(11.5)">
<stop stop-color="#101725"/>
<stop offset="1" stop-color="#253A61"/>
</radialGradient>
</defs>
</svg>
