<svg width="16" height="16" viewBox="0 0 16 16" fill="none" xmlns="http://www.w3.org/2000/svg">
<g filter="url(#filter0_ii_6_145)">
<rect width="16" height="16" rx="5" fill="#516ED1"/>
</g>
<path d="M11.4654 4.66313C10.8171 4.35081 10.1329 4.12811 9.43001 4.0006C9.4236 3.99929 9.41696 4.00015 9.41104 4.00306C9.40513 4.00596 9.40024 4.01077 9.3971 4.01678C9.3096 4.18077 9.2121 4.39462 9.14377 4.56342C8.38606 4.44263 7.6153 4.44263 6.85759 4.56342C6.78154 4.37638 6.69572 4.19389 6.60051 4.01678C6.59723 4.0109 6.59233 4.00621 6.58645 4.00332C6.58057 4.00043 6.574 3.99948 6.5676 4.0006C5.86464 4.12785 5.18044 4.35056 4.53224 4.66313C4.52675 4.66555 4.5221 4.66967 4.51891 4.67494C3.22228 6.70802 2.86687 8.6908 3.04145 10.6487C3.04187 10.6535 3.04324 10.6582 3.04546 10.6625C3.04768 10.6668 3.05071 10.6706 3.05437 10.6736C3.80917 11.2606 4.65353 11.7086 5.55138 11.9987C5.55771 12.0006 5.56444 12.0004 5.57069 11.9983C5.57694 11.9961 5.58241 11.9919 5.58638 11.9864C5.7794 11.7111 5.95026 11.4194 6.09719 11.1144C6.09924 11.1102 6.10042 11.1056 6.10066 11.101C6.1009 11.0963 6.10019 11.0916 6.09858 11.0872C6.09696 11.0828 6.09448 11.0788 6.0913 11.0755C6.08812 11.0722 6.0843 11.0697 6.08011 11.068C5.81071 10.9598 5.5499 10.8294 5.30013 10.678C5.29556 10.6752 5.2917 10.6713 5.28892 10.6665C5.28613 10.6618 5.2845 10.6565 5.28417 10.6509C5.28384 10.6454 5.28482 10.6398 5.28703 10.6348C5.28923 10.6297 5.29259 10.6253 5.2968 10.622C5.3494 10.5807 5.40108 10.5381 5.4518 10.4943C5.45623 10.4905 5.46158 10.4881 5.46725 10.4873C5.47291 10.4866 5.47867 10.4875 5.48388 10.4899C7.1205 11.274 8.89211 11.274 10.5096 10.4899C10.5148 10.4874 10.5207 10.4864 10.5264 10.4872C10.5322 10.488 10.5376 10.4904 10.5421 10.4943C10.5921 10.5371 10.6446 10.5809 10.6975 10.622C10.7016 10.6253 10.705 10.6296 10.7072 10.6346C10.7094 10.6395 10.7104 10.645 10.7102 10.6504C10.7099 10.6559 10.7084 10.6612 10.7058 10.666C10.7031 10.6707 10.6994 10.6747 10.695 10.6775C10.4458 10.8304 10.1847 10.9609 9.91458 11.0676C9.91038 11.0693 9.90656 11.0719 9.90337 11.0752C9.90019 11.0786 9.89771 11.0826 9.8961 11.087C9.89449 11.0914 9.89378 11.0961 9.89402 11.1009C9.89426 11.1056 9.89545 11.1102 9.8975 11.1144C10.0475 11.4196 10.2192 11.71 10.4079 11.986C10.4118 11.9916 10.4173 11.9958 10.4235 11.998C10.4298 12.0002 10.4366 12.0003 10.4429 11.9982C11.3422 11.7091 12.188 11.261 12.9437 10.6732C12.9473 10.6704 12.9504 10.6669 12.9527 10.6628C12.955 10.6588 12.9565 10.6542 12.957 10.6495C13.1653 8.38556 12.6078 6.41895 11.4783 4.67581C11.4756 4.66993 11.4711 4.66571 11.4654 4.66313ZM6.34177 9.4561C5.84887 9.4561 5.44305 8.98162 5.44305 8.39824C5.44305 7.8153 5.84137 7.34037 6.34177 7.34037C6.84592 7.34037 7.24841 7.81967 7.24049 8.39868C7.24049 8.98162 6.84217 9.4561 6.34177 9.4561ZM9.66459 9.4561C9.17169 9.4561 8.76587 8.98162 8.76587 8.39824C8.76587 7.8153 9.16377 7.34037 9.66459 7.34037C10.1687 7.34037 10.5712 7.81967 10.5633 8.39868C10.5633 8.98162 10.1692 9.4561 9.66459 9.4561Z" fill="white"/>
<defs>
<filter id="filter0_ii_6_145" x="-0.5" y="-0.5" width="17" height="17" filterUnits="userSpaceOnUse" color-interpolation-filters="sRGB">
<feFlood flood-opacity="0" result="BackgroundImageFix"/>
<feBlend mode="normal" in="SourceGraphic" in2="BackgroundImageFix" result="shape"/>
<feColorMatrix in="SourceAlpha" type="matrix" values="0 0 0 0 0 0 0 0 0 0 0 0 0 0 0 0 0 0 127 0" result="hardAlpha"/>
<feMorphology radius="0.2" operator="erode" in="SourceAlpha" result="effect1_innerShadow_6_145"/>
<feOffset dx="-0.5" dy="-0.5"/>
<feGaussianBlur stdDeviation="1"/>
<feComposite in2="hardAlpha" operator="arithmetic" k2="-1" k3="1"/>
<feColorMatrix type="matrix" values="0 0 0 0 1 0 0 0 0 1 0 0 0 0 1 0 0 0 0.3 0"/>
<feBlend mode="normal" in2="shape" result="effect1_innerShadow_6_145"/>
<feColorMatrix in="SourceAlpha" type="matrix" values="0 0 0 0 0 0 0 0 0 0 0 0 0 0 0 0 0 0 127 0" result="hardAlpha"/>
<feMorphology radius="0.2" operator="erode" in="SourceAlpha" result="effect2_innerShadow_6_145"/>
<feOffset dx="0.5" dy="0.5"/>
<feGaussianBlur stdDeviation="1"/>
<feComposite in2="hardAlpha" operator="arithmetic" k2="-1" k3="1"/>
<feColorMatrix type="matrix" values="0 0 0 0 1 0 0 0 0 1 0 0 0 0 1 0 0 0 0.05 0"/>
<feBlend mode="normal" in2="effect1_innerShadow_6_145" result="effect2_innerShadow_6_145"/>
</filter>
</defs>
</svg>
