<svg width="16" height="16" viewBox="0 0 16 16" fill="none" xmlns="http://www.w3.org/2000/svg">
<g filter="url(#filter0_ii_10_105)">
<rect width="16" height="16" rx="5" fill="#0081B0"/>
</g>
<path fill-rule="evenodd" clip-rule="evenodd" d="M11.3333 3C11.7754 3 12.1993 3.17559 12.5118 3.48816C12.8244 3.80072 13 4.22464 13 4.66667V11.3333C13 11.7754 12.8244 12.1993 12.5118 12.5118C12.1993 12.8244 11.7754 13 11.3333 13H4.66667C4.22464 13 3.80072 12.8244 3.48816 12.5118C3.17559 12.1993 3 11.7754 3 11.3333V4.66667C3 4.22464 3.17559 3.80072 3.48816 3.48816C3.80072 3.17559 4.22464 3 4.66667 3H11.3333ZM5.77778 6.88889C5.63044 6.88889 5.48913 6.94742 5.38494 7.05161C5.28075 7.15579 5.22222 7.2971 5.22222 7.44444V10.2222C5.22222 10.3696 5.28075 10.5109 5.38494 10.6151C5.48913 10.7192 5.63044 10.7778 5.77778 10.7778C5.92512 10.7778 6.06643 10.7192 6.17061 10.6151C6.2748 10.5109 6.33333 10.3696 6.33333 10.2222V7.44444C6.33333 7.2971 6.2748 7.15579 6.17061 7.05161C6.06643 6.94742 5.92512 6.88889 5.77778 6.88889V6.88889ZM7.44444 6.33333C7.2971 6.33333 7.15579 6.39187 7.05161 6.49605C6.94742 6.60024 6.88889 6.74155 6.88889 6.88889V10.2222C6.88889 10.3696 6.94742 10.5109 7.05161 10.6151C7.15579 10.7192 7.2971 10.7778 7.44444 10.7778C7.59179 10.7778 7.73309 10.7192 7.83728 10.6151C7.94147 10.5109 8 10.3696 8 10.2222V8.18889C8.21674 7.95313 8.48033 7.76523 8.77389 7.63722C8.95889 7.55833 9.23722 7.52611 9.43056 7.58722C9.49469 7.60349 9.55181 7.64015 9.59333 7.69167C9.62222 7.73056 9.66667 7.81722 9.66667 8V10.2222C9.66667 10.3696 9.7252 10.5109 9.82939 10.6151C9.93357 10.7192 10.0749 10.7778 10.2222 10.7778C10.3696 10.7778 10.5109 10.7192 10.6151 10.6151C10.7192 10.5109 10.7778 10.3696 10.7778 10.2222V8C10.7778 7.62778 10.6833 7.29667 10.4867 7.03111C10.3057 6.79031 10.0524 6.61374 9.76389 6.52722C9.26278 6.37 8.70778 6.45722 8.33722 6.61611C8.21849 6.66692 8.10292 6.72481 7.99111 6.78944C7.96782 6.66144 7.90034 6.54567 7.80044 6.46231C7.70054 6.37896 7.57455 6.33331 7.44444 6.33333V6.33333ZM5.77778 5.22222C5.63044 5.22222 5.48913 5.28075 5.38494 5.38494C5.28075 5.48913 5.22222 5.63044 5.22222 5.77778C5.22222 5.92512 5.28075 6.06643 5.38494 6.17061C5.48913 6.2748 5.63044 6.33333 5.77778 6.33333C5.92512 6.33333 6.06643 6.2748 6.17061 6.17061C6.2748 6.06643 6.33333 5.92512 6.33333 5.77778C6.33333 5.63044 6.2748 5.48913 6.17061 5.38494C6.06643 5.28075 5.92512 5.22222 5.77778 5.22222V5.22222Z" fill="white"/>
<defs>
<filter id="filter0_ii_10_105" x="-0.5" y="-0.5" width="17" height="17" filterUnits="userSpaceOnUse" color-interpolation-filters="sRGB">
<feFlood flood-opacity="0" result="BackgroundImageFix"/>
<feBlend mode="normal" in="SourceGraphic" in2="BackgroundImageFix" result="shape"/>
<feColorMatrix in="SourceAlpha" type="matrix" values="0 0 0 0 0 0 0 0 0 0 0 0 0 0 0 0 0 0 127 0" result="hardAlpha"/>
<feMorphology radius="0.2" operator="erode" in="SourceAlpha" result="effect1_innerShadow_10_105"/>
<feOffset dx="-0.5" dy="-0.5"/>
<feGaussianBlur stdDeviation="1"/>
<feComposite in2="hardAlpha" operator="arithmetic" k2="-1" k3="1"/>
<feColorMatrix type="matrix" values="0 0 0 0 1 0 0 0 0 1 0 0 0 0 1 0 0 0 0.3 0"/>
<feBlend mode="normal" in2="shape" result="effect1_innerShadow_10_105"/>
<feColorMatrix in="SourceAlpha" type="matrix" values="0 0 0 0 0 0 0 0 0 0 0 0 0 0 0 0 0 0 127 0" result="hardAlpha"/>
<feMorphology radius="0.2" operator="erode" in="SourceAlpha" result="effect2_innerShadow_10_105"/>
<feOffset dx="0.5" dy="0.5"/>
<feGaussianBlur stdDeviation="1"/>
<feComposite in2="hardAlpha" operator="arithmetic" k2="-1" k3="1"/>
<feColorMatrix type="matrix" values="0 0 0 0 1 0 0 0 0 1 0 0 0 0 1 0 0 0 0.05 0"/>
<feBlend mode="normal" in2="effect1_innerShadow_10_105" result="effect2_innerShadow_10_105"/>
</filter>
</defs>
</svg>
