<svg width="16" height="16" viewBox="0 0 16 16" fill="none" xmlns="http://www.w3.org/2000/svg">
<g filter="url(#filter0_ii_8_108)">
<rect width="16" height="16" rx="5" fill="#2DCA73"/>
</g>
<path fill-rule="evenodd" clip-rule="evenodd" d="M11.5429 4.45395C10.6022 3.51682 9.35117 3.0005 8.01986 3C5.27502 3 3.04097 5.2236 3.03972 7.95708C3.03947 8.79248 3.25126 9.61572 3.65293 10.3444L3.00882 12.6864C2.9854 12.772 3.00932 12.8633 3.07211 12.9263C3.11945 12.9739 3.18349 13 3.24927 13C3.27045 13 3.29163 12.9973 3.31256 12.9918L5.72626 12.3616C6.43091 12.7258 7.22078 12.9181 8.01787 12.9184C10.7647 12.9184 12.9988 10.6945 13 7.96105C13.0005 6.63636 12.483 5.39083 11.5429 4.45395Z" fill="url(#paint0_linear_8_108)"/>
<path fill-rule="evenodd" clip-rule="evenodd" d="M10.8011 5.19134C10.0585 4.45146 9.07159 4.04381 8.02109 4.04356C5.85233 4.04356 4.08846 5.79922 4.08746 7.95732C4.08721 8.69695 4.29502 9.41698 4.68871 10.0405L4.7824 10.1886L4.38497 11.6329L5.87326 11.2443L6.01703 11.3292C6.62051 11.686 7.31271 11.8745 8.01835 11.8748H8.01985C10.1871 11.8748 11.951 10.1189 11.9517 7.96054C11.952 6.91474 11.5436 5.93122 10.8011 5.19134Z" fill="url(#paint1_linear_8_108)"/>
<path opacity="0.05" fill-rule="evenodd" clip-rule="evenodd" d="M9.31155 10.4134C9.06362 10.4134 8.725 10.3504 8.04402 10.0832C7.28157 9.78343 6.53256 9.13288 5.93506 8.25108L5.91587 8.22304C5.75591 8.01041 5.38464 7.45215 5.38464 6.85842C5.38464 6.21828 5.70557 5.87762 5.84262 5.73198L5.8638 5.7094C6.05291 5.50321 6.27567 5.48113 6.36263 5.48113C6.45457 5.48212 6.53256 5.48113 6.60009 5.48411C6.76305 5.49056 6.94868 5.53745 7.08248 5.8337C7.14477 5.97215 7.25092 6.23193 7.33389 6.43563C7.38696 6.56638 7.43007 6.67258 7.44328 6.70086C7.51653 6.84626 7.52002 6.99041 7.45225 7.12613L7.43605 7.15913C7.40416 7.22414 7.37102 7.29137 7.3005 7.37325L7.24195 7.44322C7.20158 7.4921 7.16097 7.54073 7.12484 7.57844C7.22177 7.73748 7.42534 8.03894 7.70565 8.28805C8.05299 8.59596 8.3505 8.72473 8.51022 8.79395C8.54186 8.8076 8.56827 8.81926 8.58921 8.82919C8.69012 8.71257 8.85631 8.51383 8.91362 8.42873C9.10548 8.14191 9.38131 8.2414 9.47176 8.2744C9.61354 8.32551 10.2998 8.66543 10.3065 8.66866L10.37 8.69967C10.4744 8.75004 10.5726 8.79743 10.6346 8.90015C10.7331 9.06415 10.6785 9.41449 10.5865 9.67054C10.4535 10.0435 9.88189 10.3665 9.57641 10.3938L9.5201 10.3998C9.45407 10.4074 9.38704 10.4134 9.31155 10.4134ZM6.402 5.97736C6.36712 5.97736 6.30607 5.96297 6.23107 6.04435L6.2059 6.0714C6.09303 6.19124 5.88273 6.41454 5.88273 6.85842C5.88273 7.31569 6.21313 7.79058 6.31429 7.92531C6.32102 7.93424 6.33198 7.95037 6.34793 7.97344C6.88987 8.77311 7.55715 9.35842 8.22691 9.62142C9.0701 9.95265 9.28663 9.92759 9.46179 9.907L9.53106 9.89955C9.68281 9.88591 10.0598 9.6636 10.1169 9.50406C10.1689 9.35891 10.1856 9.23436 10.1884 9.16315C10.1774 9.15794 10.1654 9.15248 10.1527 9.14653L10.0822 9.11204C9.9235 9.03264 9.38978 8.77311 9.30208 8.74111C9.19194 8.89196 8.98763 9.12941 8.93356 9.19119C8.83214 9.30705 8.65274 9.41672 8.37816 9.27902C8.36171 9.27083 8.33929 9.2614 8.31138 9.24924C8.13921 9.17456 7.78065 9.01949 7.37376 8.65873C7.00773 8.33345 6.75732 7.93821 6.66662 7.78314C6.55574 7.59432 6.58639 7.41221 6.75781 7.24225C6.78771 7.21247 6.82185 7.17005 6.85673 7.12812L6.92202 7.05021C6.95142 7.01622 6.96213 6.99413 6.98854 6.94079L6.99726 6.92317C6.97434 6.87256 6.928 6.75967 6.87218 6.62221C6.7917 6.42446 6.68879 6.17188 6.62825 6.0374C6.61205 6.00168 6.59984 5.98406 6.59386 5.97662C6.59511 5.98034 6.58663 5.98059 6.57941 5.98009C6.52409 5.97736 6.46354 5.97736 6.402 5.97736Z" fill="black"/>
<path opacity="0.07" fill-rule="evenodd" clip-rule="evenodd" d="M9.31054 10.2906C9.09974 10.2906 8.77358 10.236 8.08986 9.96756C7.35057 9.67727 6.622 9.04284 6.03845 8.18164L6.01677 8.14988C5.86329 7.94593 5.50922 7.41496 5.50922 6.85819C5.50922 6.26719 5.80647 5.95158 5.93355 5.81661L5.95573 5.79279C6.11146 5.62333 6.29235 5.60522 6.36287 5.60522C6.45681 5.60596 6.52906 5.60522 6.59485 5.60819C6.71744 5.61316 6.85822 5.63896 6.9691 5.88459C7.03114 6.02205 7.13629 6.28009 7.21852 6.4823C7.27458 6.62 7.31943 6.73091 7.33114 6.75448C7.35157 6.79542 7.41536 6.92171 7.34086 7.07083L7.32416 7.10457C7.29302 7.16784 7.26611 7.22267 7.20581 7.29264L7.14551 7.36435C7.1024 7.41645 7.0593 7.46831 7.02192 7.50552C6.9681 7.55887 6.9681 7.55887 6.98953 7.59534C7.07126 7.73503 7.29651 8.09107 7.62267 8.38062C7.98471 8.70193 8.29443 8.83567 8.46062 8.90762C8.4965 8.923 8.52516 8.93566 8.54634 8.94632C8.61934 8.98255 8.62682 8.97511 8.65273 8.94583C8.72449 8.86445 8.94376 8.6074 9.01727 8.49749C9.15531 8.29155 9.33346 8.35606 9.42939 8.39055C9.55547 8.4362 10.1866 8.74709 10.2507 8.7791L10.3159 8.81085C10.4106 8.85651 10.4854 8.89248 10.5282 8.9632C10.5915 9.06889 10.5654 9.36092 10.4697 9.62839C10.3481 9.96856 9.81037 10.2479 9.56569 10.2698L9.50614 10.2762C9.44808 10.2832 9.38703 10.2906 9.31054 10.2906ZM6.39825 5.85333C6.39177 5.85333 6.38529 5.85333 6.37882 5.85333C6.33322 5.85333 6.23056 5.86102 6.13912 5.96052L6.11495 5.98632C5.99908 6.10939 5.75814 6.36544 5.75814 6.85819C5.75814 7.34028 6.07732 7.81691 6.21461 7.99952C6.22084 8.00771 6.23056 8.02185 6.24476 8.04269C6.80066 8.86296 7.48837 9.46439 8.1813 9.73682C9.05464 10.0797 9.28886 10.0522 9.47624 10.0303L9.54276 10.0231C9.71544 10.0078 10.1535 9.7718 10.2345 9.54552C10.3174 9.31428 10.3209 9.12125 10.3082 9.07981C10.31 9.0813 10.2504 9.0555 10.2073 9.03465L10.1385 9.00091C9.98329 8.92325 9.43936 8.65826 9.34418 8.62378C9.25447 8.59152 9.25423 8.59078 9.22457 8.63519C9.13761 8.76446 8.89567 9.04631 8.84036 9.10909C8.68039 9.29145 8.49551 9.19816 8.43446 9.16764C8.41652 9.15871 8.39185 9.14829 8.36145 9.13514C8.19501 9.06294 7.84891 8.91308 7.45697 8.56547C7.10415 8.25235 6.8622 7.87 6.7745 7.72014C6.65589 7.51818 6.7892 7.38593 6.84601 7.32961C6.8784 7.29736 6.91578 7.25195 6.9534 7.2063L7.01694 7.13038C7.05656 7.08423 7.07325 7.05048 7.10066 6.99466L7.1181 6.95918C7.13031 6.93486 7.13255 6.91228 7.10813 6.86415C7.09518 6.83835 7.04709 6.72074 6.98778 6.5746C6.90656 6.37536 6.80315 6.1208 6.74186 5.98558C6.6848 5.85929 6.65141 5.8578 6.58438 5.85532C6.52682 5.85333 6.46304 5.85333 6.39825 5.85333Z" fill="black"/>
<path fill-rule="evenodd" clip-rule="evenodd" d="M6.85522 5.93543C6.76677 5.73942 6.67358 5.73545 6.58911 5.73197C6.52009 5.729 6.44135 5.72925 6.36261 5.72925C6.28388 5.72925 6.1558 5.75877 6.04741 5.87663C5.93903 5.99448 5.63354 6.27907 5.63354 6.85817C5.63354 7.43726 6.05713 7.99701 6.11619 8.07541C6.17524 8.15382 6.93396 9.38025 8.13545 9.85216C9.13387 10.2442 9.33719 10.1663 9.55397 10.1467C9.77075 10.1271 10.2534 9.86209 10.3518 9.58717C10.4502 9.31226 10.4502 9.0768 10.4208 9.02768C10.3912 8.97855 10.3124 8.94927 10.1943 8.89022C10.0762 8.83117 9.49492 8.54658 9.38653 8.50738C9.27814 8.46818 9.1994 8.44858 9.12041 8.56643C9.04168 8.68404 8.81518 8.94927 8.74616 9.02768C8.67714 9.10633 8.60812 9.11625 8.49002 9.0572C8.37191 8.99815 7.99118 8.87409 7.53944 8.47314C7.18811 8.16126 6.9509 7.77594 6.88188 7.65809C6.81286 7.54048 6.87441 7.47671 6.93371 7.41791C6.98678 7.36506 7.05181 7.28046 7.11112 7.21173C7.17017 7.143 7.18985 7.09387 7.22922 7.01547C7.26859 6.93682 7.24891 6.86809 7.21926 6.80929C7.1901 6.75024 6.96037 6.16816 6.85522 5.93543Z" fill="white"/>
<defs>
<filter id="filter0_ii_8_108" x="-0.5" y="-0.5" width="17" height="17" filterUnits="userSpaceOnUse" color-interpolation-filters="sRGB">
<feFlood flood-opacity="0" result="BackgroundImageFix"/>
<feBlend mode="normal" in="SourceGraphic" in2="BackgroundImageFix" result="shape"/>
<feColorMatrix in="SourceAlpha" type="matrix" values="0 0 0 0 0 0 0 0 0 0 0 0 0 0 0 0 0 0 127 0" result="hardAlpha"/>
<feMorphology radius="0.2" operator="erode" in="SourceAlpha" result="effect1_innerShadow_8_108"/>
<feOffset dx="-0.5" dy="-0.5"/>
<feGaussianBlur stdDeviation="1"/>
<feComposite in2="hardAlpha" operator="arithmetic" k2="-1" k3="1"/>
<feColorMatrix type="matrix" values="0 0 0 0 1 0 0 0 0 1 0 0 0 0 1 0 0 0 0.3 0"/>
<feBlend mode="normal" in2="shape" result="effect1_innerShadow_8_108"/>
<feColorMatrix in="SourceAlpha" type="matrix" values="0 0 0 0 0 0 0 0 0 0 0 0 0 0 0 0 0 0 127 0" result="hardAlpha"/>
<feMorphology radius="0.2" operator="erode" in="SourceAlpha" result="effect2_innerShadow_8_108"/>
<feOffset dx="0.5" dy="0.5"/>
<feGaussianBlur stdDeviation="1"/>
<feComposite in2="hardAlpha" operator="arithmetic" k2="-1" k3="1"/>
<feColorMatrix type="matrix" values="0 0 0 0 1 0 0 0 0 1 0 0 0 0 1 0 0 0 0.05 0"/>
<feBlend mode="normal" in2="effect1_innerShadow_8_108" result="effect2_innerShadow_8_108"/>
</filter>
<linearGradient id="paint0_linear_8_108" x1="3.78623" y1="5.18365" x2="10.8274" y2="12.2548" gradientUnits="userSpaceOnUse">
<stop stop-color="#DFE9F2"/>
<stop offset="0.391" stop-color="#D6E0E9"/>
<stop offset="1" stop-color="#BFC8D1"/>
</linearGradient>
<linearGradient id="paint1_linear_8_108" x1="5.94676" y1="4.66881" x2="9.28084" y2="11.7607" gradientUnits="userSpaceOnUse">
<stop stop-color="#2ECC75"/>
<stop offset="1" stop-color="#0B964A"/>
</linearGradient>
</defs>
</svg>
